<svg width="20" height="20" viewBox="0 0 20 20" fill="none" xmlns="http://www.w3.org/2000/svg">
<path d="M0 10C0 15.5228 4.47715 20 10 20C15.5228 20 20 15.5228 20 10C20 4.47715 15.5228 0 10 0C4.47715 0 0 4.47715 0 10Z" fill="#BD05A2"/>
<path d="M14.75 7.5625C14.625 7.125 14.3125 6.8125 13.875 6.6875C13.125 6.5 9.9375 6.5 9.9375 6.5C9.9375 6.5 6.8125 6.5 6 6.6875C5.5625 6.8125 5.25 7.125 5.125 7.5625C5 8.375 5 10 5 10C5 10 5 11.625 5.1875 12.4375C5.3125 12.875 5.625 13.1875 6.0625 13.3125C6.8125 13.5 10 13.5 10 13.5C10 13.5 13.125 13.5 13.9375 13.3125C14.375 13.1875 14.6875 12.875 14.8125 12.4375C15 11.625 15 10 15 10C15 10 15 8.375 14.75 7.5625ZM9 11.5V8.5L11.625 10L9 11.5Z" fill="white"/>
</svg>