<?xml version="1.0" encoding="utf-8"?>
<!-- Generator: Adobe Illustrator 25.2.3, SVG Export Plug-In . SVG Version: 6.00 Build 0)  -->
<svg version="1.1" id="Layer_1" xmlns="http://www.w3.org/2000/svg" xmlns:xlink="http://www.w3.org/1999/xlink" x="0px" y="0px"
	 viewBox="0 0 150 150" style="enable-background:new 0 0 150 150;" xml:space="preserve">
<style type="text/css">
	.st0{fill:#B64EC3;}
</style>
<g>
	<path class="st0" d="M106.4,89.6c3.2-3.6,5.4-7.7,6.5-12.4c0.9-3.7,0.7-7.5,0.8-11.3c0-2.4-0.4-4.6-1.4-6.8c-0.1-0.3-0.2-0.6-0.3-1
		c-0.2-2.8-0.5-5.6-0.6-8.4c-0.4-8.8-6.7-16.2-15.2-18c-0.9-0.2-1.9-0.6-2.6-1.1c-5.5-3.5-11.4-5.5-17.9-5.6
		c-7.2-0.1-13.8,1.9-19.8,5.9c-0.5,0.3-1.1,0.6-1.6,0.7c-7.2,1.4-12,5.6-14.7,12.4c-1,2.6-1.1,5.4-1.3,8.2c-0.2,3,0,6-1.4,8.8
		c-0.2,0.3-0.2,0.7-0.3,1.1c-0.1,2.8-0.4,5.6-0.4,8.4c0,7.3,2.5,13.7,7.4,19.2c0.4,0.4,0.7,0.8,0.9,1.3c1.5,2.8,3.4,5.2,5.7,7.4
		c0.4,0.4,0.7,0.9,0.9,1.4c1.9,4.5,4.4,8.5,7.8,12c1,1.1,2.4,2,2.9,3.3s0.1,3,0.1,4.5c0,1.8,0,3.6,0,5.4c1.1,0,2.1,0,3.2,0
		c0-2.6,0-5.1,0-7.7c6.5,3.9,12.9,3.9,19.4,0c0,2.7,0,5.2,0,7.7c1.1,0,2.1,0,3.2,0c0-0.4,0-0.7,0-1c0-2.9,0-5.7,0-8.6
		c0-0.4,0.2-0.9,0.5-1.2c4.5-4.1,7.9-8.9,10.2-14.4c0.2-0.6,0.6-1.1,1.1-1.5c2.2-2.1,4-4.4,5.5-7C105.5,90.6,105.9,90.1,106.4,89.6z
		 M108.9,78.8c0.1-4.9-0.8-9.5-3-13.9c1.3-0.8,2.6-1.7,4.2-2.6C110.7,67.9,110.8,73.4,108.9,78.8z M41.1,78.6c0,0.1,0,0.1,0,0.2
		c-0.1,0-0.2,0-0.4,0c-0.4-2.2-1-4.4-1.1-6.6c-0.1-3.2,0.1-6.4,0.2-9.5c0-0.3,0.1-0.7,0.2-1c1.4-2.7,1.1-5.6,1.4-8.5
		c0.2-2.3,0.2-4.7,0.8-7c1.8-6.3,6.1-10.1,12.5-11.4c1-0.2,1.9-0.6,2.7-1.1c4-2.7,8.3-4.5,13.1-5.1c7.5-1,14.4,0.5,20.7,4.5
		c1.4,0.9,2.9,1.6,4.5,2c7.2,1.6,12.1,7.7,12.4,15.1c0.1,2.5,0.3,5,0.4,7.5c0,0.5-0.1,1.2-0.4,1.4c-1,0.9-2.1,1.7-3.3,2.4
		c-0.6,0.4-0.9,0.1-1.3-0.4C99.3,55,93.4,51.2,86,49.7c-1.5-0.3-3-0.4-4.5-0.6c-0.5-4.9-1.1-9.7-1.6-14.7c-1.3,0.2-2.3,0.4-3.2,0.5
		c0.5,4.7,1,9.4,1.6,14.3c-1.5,0-2.7,0-3.9,0c-0.2,0-0.4-0.4-0.6-0.6c-1.3-2-1.9-4.3-2.1-6.7c0-0.2,0-0.5-0.1-0.7c-1.1,0-2,0-3.3,0
		c0.2,1.4,0.3,2.7,0.6,4c0.3,1.3,0.8,2.6,1.3,4c-8.6-0.2-15.8,2.9-22,9.2c-0.4-1.5-0.7-2.9-1-4.3c-0.9,0-1.9,0-3,0
		c-0.2,1.7,0.1,3.4,0.9,4.8c1,1.6,0.6,2.8-0.3,4.3c-2.6,4.3-3.9,9-3.9,14.1C41.1,77.7,41.1,78.2,41.1,78.6z M100.5,78.8
		c-1.1,5-2.2,10-3.4,15c0,0.2-0.1,0.3-0.2,0.5c-0.7,0-1.4-0.1-2.2-0.1c-0.1,1-0.3,2-0.4,3.1c0.5,0.1,1,0.2,1.7,0.3
		c-1,1.9-1.9,3.8-2.9,5.6c-1.8,3.2-4.2,5.9-6.9,8.4c-0.6,0.5-1.1,0.8-1.8,0.1c-0.3-0.3-0.8-0.5-1.3-0.8c-0.5,1-1,1.8-1.5,2.8
		c0.3,0.2,0.6,0.4,0.8,0.7c-3.1,2.8-10.4,3.6-15.2,0.1c0.2-0.2,0.3-0.4,0.5-0.6c-0.3-0.5-0.5-0.9-0.8-1.4c-0.3-0.4-0.5-0.8-0.8-1.3
		c-0.2,0.1-0.2,0.1-0.3,0.1c-1.6,0.9-1.6,1-3-0.3c-4-3.8-7-8.2-9-13.4c0.5-0.1,1-0.2,1.6-0.3c-0.1-1.1-0.3-2.1-0.4-3
		c-0.1-0.1-0.2-0.1-0.2-0.1c-2.1,0.2-2.1,0.2-2.6-1.9c-1-4.4-2-8.8-2.9-13.3c-0.1-0.5-0.1-1.1,0.1-1.6c3.7-10.5,11-16.9,22.1-18.4
		c12.9-1.8,24.9,6,28.9,18.3C100.5,77.9,100.6,78.4,100.5,78.8z M101.5,91c-0.1,0.1-0.1,0.1-0.3,0.3c0.8-3.6,1.5-7.1,2.4-10.5
		c0.5-2,0.4-3.7-0.4-5.6c-4.4-10.9-12.4-17.5-24-19.3C64.3,53.6,49.9,63.2,46,77.6c-0.1,0.5-0.1,1,0,1.5c0.9,4.1,1.8,8.1,2.7,12.2
		c-1.6-2.1-2.7-4.5-3.4-7c-4.2-14.6,5.4-29.4,20.5-31.5c1.5-0.2,3.1-0.2,4.6-0.2c4.2,0,8.5-0.2,12.7,0.2
		c10.3,1.1,17.5,6.7,21.1,16.4c2.7,7.4,1.7,14.5-2.2,21.3C101.8,90.6,101.6,90.8,101.5,91z"/>
	<path class="st0" d="M45.7,105.7c-1-0.1-1.9-0.5-2.5-1.4c0.1-0.1,0.1-0.2,0.1-0.2c0.3,0,0.5,0,0.8,0c1.5-0.1,2.2-1.3,1.4-2.5
		c-2.1-3.2-4.2-6.4-6.4-9.6c-0.7-1-2-1-2.7,0c-0.4,0.5-0.7,1.1-1.1,1.6c-1.7,2.6-3.5,5.2-5.2,7.9c-0.3,0.5-0.4,1.3-0.2,1.7
		c0.3,0.5,1,0.6,1.6,0.9c0.2,0.1,0.4,0,0.6,0c0.7-0.1,0.9,0.2,1,0.9c1,5.9,6.5,10.4,12.4,10.4c1.3,0,1.9-0.6,1.9-1.9
		c0-1.9,0-3.9,0-5.8C47.5,106.3,47.1,105.8,45.7,105.7z M44.3,109.5c-0.1,0.8,0,1.5,0,2.4c-4.4-0.6-7.8-4.5-8.1-9.1
		c-0.1-1.3-0.4-1.7-1.7-2.1c0.6-0.9,1.1-1.7,1.7-2.5c0.5-0.8,1.1-1.6,1.7-2.5c1.1,1.7,2.2,3.3,3.2,4.8c-0.5,0.4-1.2,0.7-1.4,1.1
		c-0.2,0.6-0.2,1.4-0.1,2c0.5,2.3,1.8,3.8,4,4.7C44.1,108.7,44.3,108.9,44.3,109.5z"/>
	<path class="st0" d="M119.8,101.5c-2.1-3.2-4.2-6.3-6.3-9.5c-0.8-1.1-2.1-1.1-2.8,0c-2.1,3.1-4.2,6.3-6.3,9.5
		c-0.8,1.3-0.1,2.5,1.4,2.6c0.3,0,0.5,0,1,0c-0.7,1.1-1.6,1.5-2.6,1.6c-1.3,0.2-1.7,0.6-1.7,2c0,1.9,0,3.8,0,5.7c0,1.4,0.6,2,2,2
		c5.6,0,10.7-4.1,12.1-9.9c0.3-1.1,0.6-1.5,1.8-1.4C119.9,104.1,120.6,102.7,119.8,101.5z M113.6,103c-0.3,4.6-3.6,8.3-8,8.9
		c0-0.9-0.1-1.8,0-2.7c0-0.3,0.4-0.6,0.7-0.7c2.4-1.1,3.8-2.8,4.1-5.4c0.2-1.4-0.2-1.9-1.7-2.3c1.1-1.6,2.2-3.2,3.3-5
		c1.1,1.7,2.2,3.3,3.4,5C114,100.9,113.7,101.8,113.6,103z"/>
	<path class="st0" d="M66.1,101.1c-0.6,0.9-1.2,1.7-1.7,2.6c6.6,5.1,15.8,4.4,21.1-0.1c-0.6-0.8-1.1-1.7-1.7-2.6
		C77.8,105,72,105,66.1,101.1z"/>
	<path class="st0" d="M70.8,94.7c-0.9,0.5-1.1,1.6-0.4,2.3c1.1,1.2,2.3,2.2,3.3,3.2c0.8-0.7,1.5-1.4,2.4-2.1
		c-0.7-0.6-1.3-1.1-1.9-1.7c1.3-1.4,2.2-2.8,2.3-4.4c0.1-2.9,0-5.8,0-8.8c-1.1,0-2.1,0-3.2,0c0,2.2-0.1,4.4,0,6.5
		C73.4,91.8,72.8,93.5,70.8,94.7z"/>
	<path class="st0" d="M64.2,83.1c2.5-0.1,5-2,5.7-4.2c-0.9-0.4-1.8-0.9-2.7-1.4c-1.4,2.6-4.7,3.5-6.9,0c-0.9,0.5-1.8,0.9-2.7,1.4
		C58.5,81.6,61.1,83.2,64.2,83.1z"/>
	<path class="st0" d="M86.2,79.8c-1.6,0-2.7-0.9-3.4-2.3c-1,0.5-1.9,0.9-2.8,1.4c1.1,2.7,3.5,4.2,6.4,4.1c2.7,0,5.1-1.6,6.1-4.2
		c-0.9-0.5-1.8-0.9-2.8-1.4C88.9,79,87.8,79.8,86.2,79.8z"/>
	<path class="st0" d="M76.2,112.2c1,0.2,1.9,0.4,2.8,0.5c0.3-1,0.6-2,1-3.1c-1.2-0.2-2.3-0.5-3.5-0.7
		C76.4,110.1,76.3,111.1,76.2,112.2z"/>
	<path class="st0" d="M64.7,70.7c-1.2-0.2-2.3-0.3-3.5-0.5c-0.1,1.2-0.1,2.2-0.2,3.3c1,0.1,1.9,0.3,2.9,0.4
		C64.2,72.7,64.4,71.7,64.7,70.7z"/>
	<path class="st0" d="M88.9,73.4c-0.1-1.1-0.1-2.1-0.2-3.3c-1.2,0.2-2.3,0.4-3.5,0.5c0.3,1.1,0.5,2.1,0.8,3.2
		C86.9,73.7,87.8,73.5,88.9,73.4z"/>
	<path class="st0" d="M69.4,109.7c0.4,1.2,0.7,2.1,1,3.1c1-0.2,1.9-0.4,2.9-0.6c-0.1-1-0.3-2.1-0.4-3.2
		C71.7,109.2,70.6,109.5,69.4,109.7z"/>
	<path class="st0" d="M67.8,91.2c-0.9-0.8-1.6-1.5-2.4-2.2c-0.8,0.7-1.5,1.3-2.2,2c0.6,0.9,1.3,1.7,2,2.6
		C66.1,92.8,66.9,92,67.8,91.2z"/>
	<path class="st0" d="M57.7,70.2c-1.2,0.2-2.3,0.5-3.5,0.7c0.3,1.1,0.6,2.1,0.9,3.1c1-0.2,1.9-0.4,2.9-0.6
		C57.9,72.3,57.8,71.3,57.7,70.2z"/>
	<path class="st0" d="M83.2,74.8c-0.5-1-0.9-1.9-1.4-2.9c-1.1,0.6-2,1.2-3,1.8c0.6,1,1.2,1.8,1.8,2.7C81.5,75.8,82.4,75.3,83.2,74.8
		z"/>
	<path class="st0" d="M82.1,91.2c0.9,0.8,1.7,1.6,2.6,2.4c0.7-0.9,1.3-1.8,2-2.6c-0.8-0.7-1.5-1.3-2.2-2
		C83.6,89.7,82.9,90.4,82.1,91.2z"/>
	<path class="st0" d="M91.8,73.4c1,0.2,1.9,0.4,2.9,0.6c0.3-1,0.6-2,0.9-3.1c-1.2-0.2-2.3-0.4-3.5-0.7C92,71.3,91.9,72.4,91.8,73.4z
		"/>
	<path class="st0" d="M58,93.7c0.3,1,0.6,2,1,3.1c1.1-0.5,2.2-0.9,3.3-1.3c-0.5-1-1-2-1.5-2.9C59.8,92.9,58.9,93.3,58,93.7z"/>
	<path class="st0" d="M87.6,95.4c1.1,0.4,2.2,0.9,3.3,1.3c0.3-1.1,0.6-2.1,1-3.1c-0.9-0.4-1.8-0.7-2.8-1.1
		C88.6,93.5,88.2,94.4,87.6,95.4z"/>
	<path class="st0" d="M71,73.6c-1.1-0.6-2-1.2-3-1.8c-0.5,1-0.9,2-1.4,2.9c0.9,0.5,1.7,1,2.6,1.6C69.8,75.5,70.4,74.6,71,73.6z"/>
	<path class="st0" d="M67.2,86.7c0.9,0.6,1.7,1.1,2.7,1.8c0.6-1.1,1.1-2.1,1.7-3.1c-1.1-0.5-2-0.9-3-1.3
		C68.2,85,67.7,85.8,67.2,86.7z"/>
	<path class="st0" d="M82.6,86.7c-0.5-0.9-1-1.8-1.4-2.6c-1,0.4-1.9,0.8-3,1.3c0.6,1.1,1.1,2,1.7,3.1C80.9,87.8,81.8,87.3,82.6,86.7
		z"/>
	<path class="st0" d="M76.5,63.8c-1.1,0-2.1,0-3.1,0c0,1.1,0,2.1,0,3.1c1,0,2,0,3.1,0C76.5,65.8,76.5,64.8,76.5,63.8z"/>
	<path class="st0" d="M76.5,70.2c-1.1,0-2.1,0-3.1,0c0,1.1,0,2.1,0,3.1c1.1,0,2.1,0,3.1,0C76.5,72.3,76.5,71.3,76.5,70.2z"/>
	<path class="st0" d="M76.5,79.8c0-1.1,0-2.1,0-3.1c-1,0-2,0-3.1,0c0,1.1,0,2.1,0,3.1C74.5,79.8,75.5,79.8,76.5,79.8z"/>
</g>
</svg>
