<?xml version="1.0" encoding="utf-8"?>
<!-- Generator: Adobe Illustrator 25.2.3, SVG Export Plug-In . SVG Version: 6.00 Build 0)  -->
<svg version="1.1" id="Layer_1" xmlns="http://www.w3.org/2000/svg" xmlns:xlink="http://www.w3.org/1999/xlink" x="0px" y="0px"
	 viewBox="0 0 150 150" style="enable-background:new 0 0 150 150;" xml:space="preserve">
<style type="text/css">
	.st0{fill:#B64EC3;}
</style>
<g>
	<path class="st0" d="M112.1,121.9c-0.4,0-0.7,0-1.2-0.1c0.4-2,0.8-3.8,1.2-5.6c0.2-1.3-0.2-2-1.2-2.2c-0.9-0.2-1.5,0.4-1.8,1.6
		c-0.4,1.9-0.8,3.7-1.3,5.6c-0.1,0.2-0.3,0.6-0.5,0.6c-0.5,0.1-1.1,0-1.4,0c0.1-2.8,0.2-5.3,0.2-7.9c-0.1-2.7-1-3.6-3.7-4.2
		c-0.1,0-0.1-0.1-0.2-0.2c0-1.6,0-3.2,0-4.9c1.7,0,3.5,0,5.4,0c1,0,1.6,0.4,1.8,1.3c0.2,1.1,0.3,2.3,0.5,3.5c0.1,1,0.6,1.6,1.5,1.6
		s1.6-0.6,1.5-1.5c-0.1-1.6-0.4-3.3-0.8-4.9c-0.3-1.1-1.1-2-2.2-2.5c-0.6-0.3-0.9-0.7-1-1.2c-2-6.2-5.6-11.1-10.9-14.8
		c-0.4-0.2-0.7-0.7-0.8-1.1c-0.8-3.7-1.5-7.4-2.9-11c0.2,0,0.5,0,0.7,0c6.4,0.8,12-2.4,14.4-8.4c1-2.5,2-5,2.9-7.5
		c0.8-2,1.1-4.1,0.8-6.2c-0.6-5.9-4.9-10.7-10.8-11.8c-5.6-1.1-11.5,1.8-14.1,7c-0.2,0.3-0.3,0.6-0.5,0.9c-2.8-0.4-4.9,0.8-5.9,3
		c-1,2.4-0.3,4.6,2.2,6.5c-0.7,5-0.6,5.4,2.1,11.3c-1.2,0.2-2.5,0.3-3.7,0.6c-0.8,0.2-1.5,0.4-2.4-0.1c-0.6-0.4-1.4-0.4-2.1-0.4
		c-2.8-0.1-5.5,0.8-8.2,1.6c-0.6,0.2-1,0.1-1.3-0.5c-0.6-1.1-1.4-2.2-1.9-3.4c-1.1-2.7-2.3-5.3-4.7-7.2c0.3-0.1,0.4-0.2,0.6-0.2
		c4.4-1.5,7.3-4.4,8.8-8.8c0.8-2.5,1.7-5.1,2.5-7.6c2.4-7.5-2-15.3-9.7-17.1c-0.4-0.1-0.7-0.2-1.1-0.3c-1.2,0-2.3,0-3.5,0
		c-0.2,0.1-0.4,0.2-0.5,0.2c-4.2,0.8-7.4,3.1-9.4,6.9c-0.6,1.2-1.1,2-2.6,1.7c-0.2,0-0.4,0.1-0.6,0.1c-2.1,0.6-3.3,2.1-3.6,4.2
		c-0.3,2.1,0.5,3.7,2.2,5c0.3,0.2,0.6,0.6,0.6,0.9c-0.6,4.8,0.8,8.8,4.3,12.2c0.1,0.1,0.1,0.2,0.2,0.3c-0.1,0.1-0.2,0.2-0.3,0.2
		c-4.8,1.6-7.9,4.8-9,9.8c-1.2,5.4-2.3,10.9-3.4,16.4c-0.2,1.2,0.2,2,1.2,2.2s1.6-0.5,1.8-1.7c1.1-5.6,2.2-11.2,3.5-16.8
		c1-4.4,5-7.3,9.3-7.4c0.7,0,1.1,0.2,1.2,0.9c0.6,2.8,1.3,5.7,1.9,8.5c0.3,1.4,0.4,2.9,0.6,4.3c-3.1,0.2-4.9-1.1-5.5-3.9
		c-0.2-0.7-0.2-1.4-0.4-2.1c-0.2-0.8-0.8-1.2-1.5-1.1c-0.8,0.1-1.3,0.5-1.4,1.4c-0.4,3.9,2.3,7.7,6,8.6c1,0.2,2,0.3,3.1,0.4
		c0.6,6.5,1,13,0.6,19.6c-6.2,0.5-12.3,0-18.4-1.4c0.1-1.6,0.2-3,0.2-4.5c0-1-0.6-1.8-1.5-1.8s-1.5,0.6-1.6,1.6
		c-0.1,1.9-0.1,3.8-0.2,5.7c0,0.9,0.4,1.5,1.3,1.7c1,0.2,1.9,0.5,2.9,0.7c0.5,0.1,0.7,0.3,0.7,0.9c0.1,5.5-0.3,10.9-1.3,16.3
		c-0.5,2.7-1.1,5.3-1.7,8c-0.3,1.2,0.2,2.1,1.2,2.1c2.7,0.1,5.5,0,8.2,0c0.8,0,1.2-0.6,1.3-1.3c0.1-0.8-0.3-1.3-1-1.6
		c-0.3-0.1-0.6-0.1-1-0.2c2.9-7.2,6.1-14.1,8.1-21.8c0.1,0.4,0.2,0.6,0.2,0.7c0.2,4.1,0.5,8.2,0.5,12.3c0,3.4-0.4,6.7-0.6,10.1
		c-0.1,1.2,0.5,1.8,1.5,1.8c2.2,0,4.5,0,6.7,0c0.8,0,1.4-0.4,1.5-1.2c0.1-0.8-0.2-1.5-1.1-1.7c-0.2-0.1-0.4-0.1-0.7-0.2
		c2.4-8,3.8-16.1,4-24.4c0.6-0.2,1.2-0.3,1.8-0.4c1.5-0.3,1.8-0.8,1.8-2.3c0.2-6.4-0.4-12.3-1.5-18.1c-0.1-0.4-0.2-0.9-0.2-1.3
		c-0.1-0.4-0.1-0.9-0.2-1.6c2,1.9,4.1,3.1,6.5,3.6C75,78.2,75,78.3,75,78.5c-1.2,4.8-2.1,9.6-2.5,14.6c-0.1,1.9-0.1,3.8-0.4,5.6
		c-0.5,3.8-0.9,7.6,1.3,11.2c-2.1,1.1-2.9,2.8-2.8,5c0.1,2.7,0,5.5,0,8.2c0,1.4,0.5,1.9,2,1.9c5.1,0,10.2,0,15.2,0
		c1.4,0,1.9-0.5,1.9-1.9c0-3.4,0-6.9,0-10.3c1.2,0,1.5,0.1,1.5,1.3c0.1,1.2,0.1,2.3-0.1,3.5c-0.2,1.7-0.4,3.5-0.7,5.2
		c-0.2,1.4,0.4,2,1.8,2.1c0.9,0,1.8,0,2.7,0c1.7,0,3.3,0,5,0c1,0,1.6-0.7,1.6-1.5s-0.6-1.4-1.5-1.5c-0.3,0-0.5,0-0.8-0.1
		c0.9-3.1,1.8-6.1,2.6-9c0.9-0.1,1.2,0.4,1.3,1.2c0,0.4,0.1,0.7,0.1,1.1c-0.2,2.6-0.4,5.2-0.7,7.8c-0.1,1.1,0.3,2,1.2,2
		c2.8,0.1,5.7,0.1,8.5,0c0.8,0,1.3-0.6,1.3-1.5C113.5,122.6,112.9,121.9,112.1,121.9z M47,114.1c-0.9,2.1-1.8,4.3-2.6,6.4
		c-0.7,1.6-0.7,1.6-2.6,1.3c1.9-7.7,2.8-15.5,2.8-23.4c2.6,0.2,5.2,0.4,7.8,0.6C51,104.3,49,109.2,47,114.1z M52,34.1
		c1.8-4.1,6.2-6.6,10.8-6c4.3,0.6,7.9,4.1,8.6,8.5c0.2,1.1,0.1,2.2,0.2,3.5c-3.5-0.8-6.3-2.4-8.7-4.5c-0.9-0.8-1.7-1.7-2.5-2.6
		c-0.9-1-1.7-0.9-2.6,0c-0.8,0.8-1.5,1.6-2.4,2.2C54.7,35.7,54,36,53.5,36C52,36.2,51.4,35.4,52,34.1z M56.5,56.2
		c-5-1.1-8.3-5.7-7.9-10.7c0.1-0.8,0.2-1.5,0.4-2.3c0.3-1.4,0-2.1-1.5-2.4c-0.9-0.2-1.5-0.7-1.6-1.6c-0.2-0.9,0.1-1.7,1-2.2
		c0.8-0.5,1.6-0.5,2.3,0.2c2.9,2.9,6.5,2.1,9.2-0.4c0.2-0.2,0.4-0.3,0.6-0.5c3.2,3.3,6.9,5.7,11.5,6.8c-0.2,0.8-0.5,1.5-0.7,2.2
		c-0.5,1.6-1,3.2-1.6,4.7C66.4,54.6,61.3,57.3,56.5,56.2z M58,60.1c2.6,1.2,4.4,3.2,5.3,6c0.6,1.8,1,3.6,1.5,5.6
		c-1.5,0.4-3,0.7-4.5,1.1C59.5,68.4,58.7,64.3,58,60.1z M63.8,103.6c-0.6,5.8-1.7,11.5-3.4,17.1c-0.4,1.4-0.4,1.4-2.1,1.2
		c0.8-7.7,0.9-15.3-0.2-23.1c2-0.2,3.9-0.5,6-0.7C64.1,99.9,64,101.8,63.8,103.6z M67.1,94.4c-1.9,0.3-3.9,0.7-5.8,1.1
		c-0.1-0.3-0.1-0.4-0.1-0.5c0.2-6.1,0-12.2-0.6-18.3c-0.1-0.7,0.1-1,0.8-1.1c1.3-0.2,2.7-0.6,4.1-0.9c1.1,5.2,1.9,10.4,2.2,15.6
		c0.1,1.1,0.1,2.1,0.2,3.2C67.8,94,67.7,94.3,67.1,94.4z M91,48.2c2-3.8,6.3-6,10.3-5.4c4.7,0.8,8.1,4,8.7,8.6c0.2,1.3,0,2.6,0,4
		c-2.6-0.7-4.7-1.8-6.6-3.4c-1.5-1.3-2.8-2.7-4.1-4.1c-1.1-1.2-1.8-1.3-3-0.1c-0.7,0.7-1.5,1.3-2.3,1.9c-0.4,0.3-0.9,0.5-1.3,0.5
		c-0.7-0.1-1.4-0.3-2-0.6C90.5,49.6,90.8,48.7,91,48.2z M86,54.7c-0.9-0.3-1.4-0.8-1.5-1.7s0.2-1.6,1.1-2c0.8-0.4,1.7-0.4,2.3,0.3
		c2.5,2.8,6,2.6,9,0.1c0.2-0.2,0.5-0.4,0.8-0.6c3,3.5,6.6,6.1,11.3,7.5c-1.3,2.8-2.2,5.7-3.8,8.2c-2.2,3.6-6.7,5.1-10.8,4.1
		c-4-1-7.2-4.5-7.5-8.6c-0.1-1.5,0.1-3.2,0.4-4.7C87.7,55.7,87.6,55.2,86,54.7z M78.5,76.8c0.8-3,3.6-5,6.7-5c3-0.1,5.8,1.9,6.8,4.9
		c0.5,1.5,0.9,3.1,1.2,4.7c1.1,4.7,1.9,9.5,2.1,14.3c0,0.3,0,0.6,0,1.1c-2.5,0-4.9,0-7.4,0c-0.3,0-0.8-0.3-1-0.6
		c-2.1-2.9-3.3-6.2-3.8-9.6c-0.5-3.2-0.6-6.5-0.8-9.8c-0.1-1-0.6-1.6-1.4-1.7s-1.5,0.5-1.6,1.5c0,0.1,0,0.3,0,0.4
		c-0.1,6.7,0.7,13.2,4,19.2c0.1,0.2,0.1,0.3,0.2,0.6c-2.8,0-5.5,0-8.2,0c0-1-0.1-2,0-3C75.9,87.9,77,82.3,78.5,76.8z M95.3,99.8
		c0,0.5,0,1,0,1.6c-1.4-0.5-2.7-0.9-4-1.4c0-0.1,0-0.2,0.1-0.3C92.7,99.8,94,99.8,95.3,99.8z M71.5,72.9c2.2-0.7,4.3-1.3,6.5-1.3
		c-0.7,1.1-1.3,2.1-1.9,3c-0.1,0.2-0.5,0.3-0.7,0.2C74,74.5,72.7,73.9,71.5,72.9z M86.6,121.9c-4.3,0-8.6,0-12.8,0
		c0-0.2-0.1-0.4-0.1-0.6c0-2.3,0-4.6,0-6.9c0-1.2,0.5-1.7,1.7-1.8c3.2,0,6.4,0,9.6,0c1,0,1.6,0.5,1.7,1.4
		C86.6,116.6,86.6,119.2,86.6,121.9z M98.9,110.9c-0.7,3.4-1.7,6.6-2.7,9.9c-0.3,1.2-0.4,1.2-2.4,1c0.2-1.6,0.4-3.1,0.4-4.7
		c0.1-1.3,0-2.7-0.1-4c-0.2-2-1.3-3.1-3.3-3.3c-1.8-0.2-3.7-0.2-5.5-0.3c-2.2-0.1-4.5-0.2-6.7-0.4c-2.4-0.2-3.3-1.1-3.6-3.3
		c-0.2-1.9-0.1-3.9-0.1-6c0.6,0,1.1,0,1.6,0c2.5,0,5.1,0.1,7.6,0c1.6-0.1,2.8,0.4,3.8,1.8c-0.8,0-1.5,0-2.2,0
		c-1.1,0-1.8,0.6-1.8,1.5s0.7,1.5,1.8,1.6c2.9,0,5.9,0,8.8,0c1.1,0,2.2,0,3.3,0c0.8,0,1.3,0.3,1.3,1
		C99.1,107.4,99.2,109.2,98.9,110.9z M98.6,101.5c-0.2-3.8-0.3-7.6-0.5-11.5c3.6,3.1,6.3,6.9,7.7,11.5
		C103.3,101.5,101,101.5,98.6,101.5z"/>
	<path class="st0" d="M97.2,61.6c0.7,0.4,1.4,0.3,1.8-0.3c0.5-0.8,0.8-1.8,1.3-2.9c-0.4-0.4-0.8-1-1.3-1.3c-0.7-0.3-1.4,0-1.7,0.7
		c-0.4,0.7-0.7,1.5-0.9,2.3C96.2,60.7,96.5,61.3,97.2,61.6z"/>
	<path class="st0" d="M103,63.9c0.7,0.3,1.4,0.2,1.7-0.4c0.5-0.8,0.8-1.8,1.1-2.4c0-1.1-0.4-1.7-1.1-1.9s-1.3,0.1-1.7,0.7
		c-0.4,0.7-0.7,1.5-0.9,2.3C102,62.9,102.3,63.6,103,63.9z"/>
	<path class="st0" d="M61,46.3c0.3-0.7,0.6-1.5,0.7-2.2c0.2-1-0.5-1.8-1.8-1.8c-0.2,0.2-0.8,0.5-1,1c-0.3,0.6-0.5,1.3-0.7,2
		c-0.2,0.8,0.1,1.5,0.9,1.8C59.8,47.4,60.6,47.1,61,46.3z"/>
	<path class="st0" d="M65.2,49c0.5,0.1,1.3-0.2,1.5-0.6c0.5-0.8,0.7-1.7,0.9-2.6c0.2-0.9-0.6-1.6-1.6-1.6c-0.2,0.1-0.8,0.2-0.9,0.5
		c-0.4,1-0.8,2-1,3.1C64.1,48.2,64.7,48.9,65.2,49z"/>
</g>
</svg>
