<?xml version="1.0" encoding="utf-8"?>
<!-- Generator: Adobe Illustrator 25.2.3, SVG Export Plug-In . SVG Version: 6.00 Build 0)  -->
<svg version="1.1" id="Layer_1" xmlns="http://www.w3.org/2000/svg" xmlns:xlink="http://www.w3.org/1999/xlink" x="0px" y="0px"
	 viewBox="0 0 150 150" style="enable-background:new 0 0 150 150;" xml:space="preserve">
<style type="text/css">
	.st0{fill:#B64EC3;}
</style>
<g>
	<path class="st0" d="M76.9,110.5c0-0.4,0-0.7-0.1-1.1c-0.3-0.9-1.2-1.4-2.2-1.3c-1,0.2-1.6,0.9-1.6,2c0,4.1,0,8.1,0,12.2
		c0,1.2,0.3,2,1.4,2.5c0.4,0,0.8,0,1.2,0c1.1-0.5,1.4-1.4,1.4-2.5C76.9,118.5,77,114.5,76.9,110.5z"/>
	<path class="st0" d="M119.4,73.6c-6.8-9.1-15-16.6-25.3-21.5c-12-5.6-24.1-6-36.3-0.7c-11.1,4.8-19.8,12.5-27,22.1
		c-0.9,1.2-0.9,1.8,0,3.1c5.4,7.3,11.9,13.5,19.6,18.3c7.5,4.7,15.6,7.4,24.6,7.5c4.9,0,9.6-0.8,14.1-2.4
		c12.7-4.6,22.4-13,30.4-23.7C120.2,75.3,120.1,74.6,119.4,73.6z M115.1,75.6C108.4,84,100.4,91,90.4,95.2c-4.9,2.1-10,3.2-15.4,3.2
		c-8.3-0.1-15.9-2.7-22.9-7.1c-6.7-4.2-12.3-9.5-17.2-15.6c-0.4-0.5-0.5-0.8-0.1-1.4C41,66.5,48.3,60,57.3,55.7
		c6.8-3.2,13.9-4.8,21.4-4c6.7,0.7,12.8,3.1,18.6,6.6c6.9,4.2,12.6,9.7,17.6,16C115.4,74.8,115.5,75.1,115.1,75.6z"/>
	<path class="st0" d="M73.1,39.7c0,1.3,0.8,2.1,1.9,2.1c1.2,0,2-0.8,2-2.1c0-4.2,0-8.3,0-12.5c0-1.3-0.8-2.2-2-2.2s-1.9,0.8-1.9,2.2
		c0,2,0,4.1,0,6.1C73.1,35.4,73,37.6,73.1,39.7z"/>
	<path class="st0" d="M44.7,51.4c0.4,0.4,1,0.6,1.3,0.8c1.1-0.1,1.7-0.5,2-1.3c0.4-0.9,0-1.6-0.6-2.3c-2.6-2.6-5.3-5.3-7.9-7.9
		c-1-1-2.1-1-2.9-0.2c-0.9,0.8-0.8,2,0.1,2.9C39.4,46.1,42,48.7,44.7,51.4z"/>
	<path class="st0" d="M103.4,52c0.8,0.3,1.5-0.2,2.1-0.8c2.5-2.6,5.1-5.1,7.6-7.7c0.3-0.3,0.6-0.6,0.7-1c0.6-1.3-0.5-2.8-2.1-2.7
		c-0.2,0.1-0.7,0.3-1.1,0.6s-0.8,0.8-1.2,1.2c-2.3,2.3-4.6,4.6-6.9,6.9c-0.6,0.6-1,1.3-0.6,2.1C102.2,51.2,102.8,51.8,103.4,52z"/>
	<path class="st0" d="M45.9,99.8c-0.3,0.2-0.9,0.4-1.3,0.8c-2.6,2.6-5.2,5.2-7.8,7.8c-1,1-1.1,2.1-0.3,3c0.9,0.9,2,0.8,3.1-0.2
		c2.6-2.6,5.2-5.1,7.7-7.7c0.3-0.3,0.6-0.6,0.7-1C48.6,101.2,47.6,99.8,45.9,99.8z"/>
	<path class="st0" d="M105.1,100.4c-0.5-0.5-1.3-0.8-2-0.4c-0.5,0.4-1.2,1-1.3,1.5c-0.1,0.6,0.3,1.4,0.8,1.9
		c2.5,2.6,5.1,5.1,7.6,7.7c0.3,0.3,0.5,0.5,0.8,0.7c1.3,0.7,2.9-0.3,2.9-2c-0.1-0.2-0.3-0.8-0.6-1.1
		C110.7,105.9,107.9,103.1,105.1,100.4z"/>
	<path class="st0" d="M75,57.4c0-0.1,0-0.2-0.1-0.3c-2,0.4-3.9,0.8-5.9,1.3c-0.5,0.1-1,0.5-1.3,0.8c-0.6,0.7-0.5,1.5,0,2.3
		c0.6,0.8,1.4,0.9,2.4,0.7c1.4-0.3,2.8-0.8,4.3-0.8C83,60.9,90,69,88.4,77.5c-1.2,6.2-6.2,10.6-12.6,11.2
		c-5.8,0.5-11.5-3.3-13.6-8.9c-0.9-2.4-1-4.8-0.7-7.3c0.2-1.2-0.5-2.1-1.7-2.2c-1-0.2-2.1,0.6-2.2,1.7c-0.1,2.1-0.3,4.3,0.1,6.3
		c1.8,9.4,10.3,15.4,19.8,14.2c8-1.1,14.4-7.8,15-15.9C93.4,66.2,85.3,57.4,75,57.4z"/>
	<path class="st0" d="M82.8,75c0-4.3-3.5-7.8-7.8-7.8s-7.8,3.5-7.8,7.8s3.5,7.8,7.8,7.8S82.8,79.3,82.8,75z M71.1,75
		c0-2.1,1.8-3.8,3.8-3.9c2.1,0,3.9,1.8,4,3.9c0,2.1-1.8,3.9-3.9,3.9S71.1,77.1,71.1,75z"/>
	<path class="st0" d="M63.3,67.2c1.1,0,2-0.9,1.9-2c0-1.1-0.9-1.9-2-1.9s-1.9,0.9-1.9,1.9C61.3,66.3,62.2,67.2,63.3,67.2z"/>
</g>
</svg>
