<?xml version="1.0" encoding="utf-8"?>
<!-- Generator: Adobe Illustrator 25.2.3, SVG Export Plug-In . SVG Version: 6.00 Build 0)  -->
<svg version="1.1" id="Layer_1" xmlns="http://www.w3.org/2000/svg" xmlns:xlink="http://www.w3.org/1999/xlink" x="0px" y="0px"
	 viewBox="0 0 150 150" style="enable-background:new 0 0 150 150;" xml:space="preserve">
<style type="text/css">
	.st0{fill:#B64EC3;}
</style>
<g>
	<path class="st0" d="M125,52.4c-0.2-6.6-6-12.1-12.9-12.4c-1.3-0.1-2-0.8-2.1-2.1c-0.4-8.3-7.8-14.2-16-12.7
		c-3.4,0.7-6.2,2.5-8.3,5.4c-0.5,0.6-0.6,1.3-0.1,2c0.5,0.6,1.1,0.9,1.8,0.6c0.4-0.2,0.9-0.6,1.2-1c2-2.6,4.6-3.9,7.9-4
		c5.5-0.1,9.8,4.1,10.1,9.7c0.2,3.2,2.1,5.1,5.3,5.3c0.4,0,0.8,0.1,1.2,0.2c5.5,0.8,9.1,5.8,8.2,11.5c-0.7,5.2-5.9,9-11.1,8.2
		c-1.8-0.3-3.7-0.7-5.5-1.2c-3.2-0.8-5.9-0.2-8.2,2.3c-3,3.1-6.1,6.1-9.1,9.1c-0.2,0.2-0.5,0.4-0.9,0.8c0-0.5,0-0.9,0-1.2
		c0-2.8-0.2-3-3-3c-1.2,0-2.4,0-3.6,0c0-1.6,0-3.1,0-4.6s-0.5-2-2.1-2c-0.6,0-1.3,0-2.1,0c0.4-0.4,0.6-0.7,0.9-1
		c3.2-3.2,6.3-6.3,9.5-9.5c1.7-1.7,2.4-3.7,2.1-6c-0.1-0.9-0.3-1.8-0.5-2.6c-0.4-1.9-0.8-3.7-1.1-5.6c-0.2-1.4-0.6-2-1.8-1.9
		c-1.1,0-1.7,0.7-1.6,2.1c0.3,2.4,0.7,4.8,1.3,7.1c0.5,2,0.2,3.6-1.3,5.1c-4.2,4.1-8.4,8.3-12.5,12.5c-0.6,0.6-1.1,1.3-0.7,2.2
		c0.4,0.9,1.2,1,2.1,1c1.5,0,3,0,4.5,0c0,1.7,0,3.1,0,4.6s0.6,2,2,2c1.5,0,3,0,4.7,0c0,1.8-0.1,3.4,0,5c0,0.5,0.5,1.3,1,1.5
		s1.2-0.1,1.8-0.3c0.2-0.1,0.4-0.4,0.6-0.6c4.2-4.2,8.4-8.3,12.5-12.5c1.2-1.2,2.5-1.7,4.1-1.3c0.5,0.1,1.1,0.2,1.6,0.4
		c2.7,0.7,5.3,1.4,8.1,1.1C120.3,65.8,125.3,59.8,125,52.4z"/>
	<path class="st0" d="M78.3,80.6c0-1.8-0.5-2.2-2.3-2.3c-1.4,0-2.9,0-4.4,0c0-1.7,0-3.2,0-4.7c0-1.3-0.6-1.9-1.9-1.9
		c-1.9,0-3.9,0-5.8,0c-1,0-1.6,0.3-2.3,1c-3.6,3.7-7.3,7.3-11,11c-1.1,1.1-2.4,1.6-4,1.2c-0.9-0.2-1.8-0.4-2.6-0.6
		c-2.6-0.7-5.3-1.2-8-0.7c-6.9,1.2-11.6,7.3-11.1,14.4c0.5,6.5,6.2,11.8,12.8,12.1c1.4,0,2.1,0.8,2.1,2.1c0.1,3.4,1.4,6.3,3.7,8.8
		c5.7,6,15.5,5.3,20.4-1.4c0.7-0.9,0.7-1.7,0.1-2.4c-0.9-0.9-1.9-0.8-2.9,0.4c-2.7,3.5-6.8,4.8-10.9,3.6c-3.9-1.2-6.8-4.8-7.1-9
		c-0.3-3.7-1.9-5.3-5.6-5.6c-6.1-0.5-9.9-5.5-9.4-10.8c0.6-5.9,5.6-9.9,11.5-9c1.8,0.3,3.5,0.7,5.3,1.2c3.2,0.8,5.9,0.2,8.2-2.3
		c3.3-3.4,6.7-6.7,10.1-10.1c0.3-0.3,0.6-0.6,0.9-0.6c1.3-0.1,2.6,0,4,0c0,1.7,0,3.2,0,4.7c0,1.4,0.6,2,2,2c1.5,0,3,0,4.7,0
		c0,1.2,0,2.3,0,3.4c0,0.7-0.2,1.2-0.7,1.6c-3.5,3.5-7,7-10.5,10.5c-1.9,1.9-2.5,4.1-2,6.7c0.5,2.7,1,5.5,1.6,8.2
		c0.1,0.4,0.4,0.8,0.8,1c1.1,0.7,2.6-0.1,2.5-1.4c-0.3-2.4-0.6-4.9-1.3-7.2c-0.6-2.3-0.3-4,1.5-5.7c3.6-3.4,7-7,10.6-10.5
		c0.6-0.6,0.9-1.3,0.9-2.2C78.3,84.3,78.3,82.4,78.3,80.6z"/>
	<path class="st0" d="M52.3,54.6c1.6,1.6,3.2,3.3,4.9,4.8c0.4,0.4,1.3,0.6,1.8,0.4c0.5-0.1,0.9-0.9,1.3-1.4
		c-0.4-0.6-0.6-1.1-0.9-1.4c-2.7-2.7-5.4-5.4-8.1-8.1c-0.9-0.9-1.8-0.9-2.6-0.1c-0.7,0.7-0.6,1.7,0.2,2.5
		C50,52.4,51.2,53.5,52.3,54.6z"/>
	<path class="st0" d="M93,90.6c-0.3-0.3-0.8-0.5-1.4-0.9c-0.5,0.4-1.1,0.7-1.5,1.2c-0.4,0.7-0.2,1.4,0.4,2c2.7,2.7,5.4,5.5,8.2,8.2
		c0.8,0.8,1.8,0.8,2.5,0.1c0.7-0.7,0.7-1.7-0.1-2.5C98.4,96,95.7,93.3,93,90.6z"/>
	<path class="st0" d="M41.8,70c1.9,0,3.7,0,5.6,0s3.7,0,5.6,0c1.3,0,1.9-0.6,1.9-1.7s-0.7-1.7-1.9-1.7c-3.7,0-7.5,0-11.2,0
		c-1.2,0-1.8,0.5-1.9,1.6C40,69.4,40.6,70,41.8,70z"/>
	<path class="st0" d="M108.2,80c-3.8,0-7.6,0-11.3,0c-1.2,0-1.9,0.7-1.9,1.7s0.7,1.6,1.9,1.6c1.9,0,3.8,0,5.7,0c1.9,0,3.7,0,5.6,0
		c1.2,0,1.9-0.6,1.9-1.7C110,80.6,109.4,80,108.2,80z"/>
	<path class="st0" d="M68.3,55c1.1,0,1.7-0.6,1.7-1.8c0-1.9,0-3.8,0-5.7s0-3.7,0-5.6c0-1.2-0.6-1.9-1.7-1.9c-1,0-1.6,0.6-1.6,1.9
		c0,3.8,0,7.6,0,11.3C66.7,54.4,67.3,55,68.3,55z"/>
	<path class="st0" d="M83.3,97c0-1.3-0.5-2-1.6-2S80,95.6,80,96.9c0,3.7,0,7.4,0,11.1c0,1.3,0.6,1.9,1.6,1.9c1.1,0,1.7-0.6,1.7-1.9
		c0-1.9,0-3.7,0-5.6C83.3,100.7,83.3,98.8,83.3,97z"/>
</g>
</svg>
