<?xml version="1.0" encoding="utf-8"?>
<!-- Generator: Adobe Illustrator 25.2.3, SVG Export Plug-In . SVG Version: 6.00 Build 0)  -->
<svg version="1.1" id="Layer_1" xmlns="http://www.w3.org/2000/svg" xmlns:xlink="http://www.w3.org/1999/xlink" x="0px" y="0px"
	 viewBox="0 0 150 150" style="enable-background:new 0 0 150 150;" xml:space="preserve">
<style type="text/css">
	.st0{fill:#B64EC3;}
</style>
<g>
	<path class="st0" d="M114.5,66.7c-1.6-1.3-1.6-1.3-1-3.4c0.8-2.7,1.3-5.4,0.7-8.2c-1.7-7.8-10.6-11.1-17-6.1
		c-3,2.4-5.9,4.8-8.9,7.1c-1.9,1.5-3.8,3-5.7,4.5c-0.2-1.6-0.4-3.1-0.6-4.7c0-0.1,0.1-0.2,0.1-0.3c0.1-0.8,0.3-1.6,0.3-2.4
		c0.1-1.2,0-2.5,0-3.7c2.4-0.5,4-1.5,4.7-3.4c1.8-4.8,3.5-9.6,5.1-14.4c0.9-2.7-0.6-5.6-3.3-6.6c-0.3-0.1-0.5-0.2-0.8-0.3
		c-2.5,0-4.9,0-7.4,0c-2.5,0.8-3.9,2.6-4.5,5c-0.1,0.5-0.3,1.1-0.6,1.5c-0.8,1.7-2.2,2.6-4.1,2.7c-1.9,0-3.4-0.9-4.2-2.6
		c-0.2-0.4-0.4-0.9-0.5-1.4c-0.6-2.5-1.9-4.4-4.5-5.3c-2.5,0-5.1,0-7.6,0l-0.1,0.1c-3.7,1.4-4.9,4-3.6,7.7c1.4,4,2.9,7.9,4.3,11.9
		c0.9,2.7,2.3,4.5,5.3,4.9c0,0.4,0,0.8,0,1.1c0,1.3,0,2.5,0,3.8c0,0.5,0.3,1.1,0.3,1.6c0,1.1-0.2,2.2-0.3,3.4c0,0.4,0,0.7,0,1.3
		c-0.4-0.3-0.6-0.5-0.8-0.6c-4.8-3.8-9.5-7.7-14.4-11.4C41.8,46,37,46,33.3,48.4c-3.8,2.5-5.6,7-4.4,12c0.7,3.3,1.8,6.4,2.8,9.6
		c1.6,5.3,3.3,10.6,5,15.9c0.2,0.6,0.6,1.2,1.1,1.4c0.3,0.2,1,0,1.4-0.3c0.6-0.4,0.6-1.1,0.4-1.8c-1.9-6-3.8-12-5.6-18
		c-0.9-3-2.2-6-2.3-9.2c-0.2-3.4,1.1-6,4.1-7.6c2.9-1.5,5.8-1.1,8.4,0.9c5.2,4.1,10.3,8.2,15.5,12.4c1.3,1.1,2.8,1.6,4.5,1.6
		c4-0.1,8,0,12,0c6.1,0,5,0.4,9.9-3.5c4.5-3.6,8.9-7.2,13.4-10.7c4.4-3.4,10.8-1.1,11.9,4.4c0.6,2.9-0.2,5.6-1.1,8.3
		C98.5,59.1,87.9,66,84.7,75c-3.5,9.9,2,22.5,14,25.1c0,0.1,0,0.1,0,0.2s-0.1,0.2-0.2,0.3c-2.3,3.6-5.5,5.5-9.7,5.9
		c-3.4,0.3-5.9-1.8-6.1-4.9c-0.1-2.3-1.2-3.3-3.5-3.3c-4.9,0-9.8,0-14.7,0c-2.4,0-3.4,0.9-3.6,3.2c-0.3,3.1-2.5,5-5.6,5
		c-5-0.1-9.6-3.4-11.3-8.3c-0.7-2-1.3-4-1.9-6c-0.3-1-1.1-1.4-1.9-1.1c-0.8,0.3-1.2,1.1-0.9,2.1c0.6,1.9,1.2,3.8,1.8,5.7
		c1.1,3.5,3.2,6.4,6.4,8.2c4.4,2.6,9,3.9,13.7,0.5h0.1c-0.1,1-0.2,2-0.2,3c0,1.7,0.3,3.5,0.3,5.2s-0.2,3.5-0.3,5.2
		c0,0.3,0,0.5,0,0.8c0.1,1.9,1.3,3.1,3.2,3.1c5.1,0,10.3,0,15.4,0c1.9,0,3.2-1.3,3.2-3.2c0-0.2,0-0.5,0-0.7
		c-0.1-1.8-0.4-3.6-0.4-5.4s0.3-3.6,0.3-5.4c0-0.9-0.2-1.7-0.3-2.7c1.4,1.1,2.9,1.9,4.6,2c5.7,0.3,10.4-1.9,13.5-6.7
		c1.2-1.8,2.4-2.5,4.5-2.6c2.3-0.1,4.4-0.9,6.5-2c0.6-0.3,1.1-0.9,0.8-1.6c-0.2-0.5-0.7-1-1.2-1.2c-0.3-0.1-0.9,0.1-1.3,0.3
		c-2.1,1-4.3,1.5-6.6,1.6c-8.9,0.4-16.5-6.8-16.7-15.8c-0.1-9.8,8.5-17.5,18.3-16.2s16,11,13.2,20.5c-0.6,2.1-1.6,3.9-3,5.7
		c-0.6,0.8-0.5,1.6,0.2,2.2c0.7,0.5,1.5,0.4,2.2-0.3c0.2-0.2,0.3-0.3,0.4-0.5C123.8,84.8,122.4,73.2,114.5,66.7z M79.4,62.4
		c-5.3,0-10.6,0-15.9,0c0-1.6,0-3.2,0-4.8c5.3,0,10.5,0,15.9,0C79.4,59.2,79.4,60.8,79.4,62.4z M72.7,49.6c1.9,0,3.8,0,5.7,0
		c0.3,0,0.6,0,1,0c0,1.6,0,3.2,0,4.8c-5.3,0-10.5,0-15.8,0c0-1.5,0-3.1,0-4.8c0.6,0,1.3,0,1.9,0c0.9,0,1.5-0.6,1.5-1.4
		c0-0.9-0.6-1.5-1.6-1.5c-1.5,0-2.9,0-4.4,0c-1.3,0-2.2-0.6-2.6-1.8c-1.6-4.5-3.2-9-4.8-13.5c-0.7-1.9,0.5-3.5,2.5-3.5
		c1.6,0,3.2,0,4.8,0c1.3,0,2.1,0.6,2.6,1.8c0.3,0.9,0.6,1.8,0.9,2.7c1.2,2.9,4,4.8,7,4.8c3.1,0,5.9-1.9,7-4.9
		c0.3-0.9,0.6-1.8,0.9-2.7c0.4-1.2,1.3-1.8,2.5-1.8c1.7,0,3.3,0,5,0c1.9,0,3,1.6,2.4,3.4c-1.6,4.5-3.2,9-4.9,13.6
		c-0.5,1.3-1.2,1.8-2.6,1.8c-3,0-6.1,0-9.1,0c-1.2,0-1.9,0.5-1.8,1.5C70.9,49.1,71.6,49.6,72.7,49.6z M63.6,101.4
		c5.3,0,10.5,0,15.8,0c0,1.6,0,3.2,0,4.8c-5.3,0-10.5,0-15.8,0C63.6,104.6,63.6,103.1,63.6,101.4z M79.4,122c-5.4,0-10.6,0-15.8,0
		c0-1.6,0-3.2,0-4.8c5.3,0,10.5,0,15.8,0C79.4,118.8,79.4,120.4,79.4,122z M79.5,110.2c-0.1,1.1,0,2.1,0,3.2c0,0.5-0.1,0.7-0.6,0.7
		c-4.8,0-9.6,0-14.3,0c-0.3,0-0.6,0-1,0c0-1.7,0-3.2,0-4.9c0.3,0,0.7,0,1,0c4.6,0,9.3,0,13.9,0C79.2,109.2,79.5,109.4,79.5,110.2z"
		/>
	<path class="st0" d="M113.7,78.8c-1.3-0.8-1.7-1.7-1.4-3.2c0.5-2.6-1.5-4.4-4.1-3.9c-1.2,0.3-2.1,0-2.8-1.1c-1.6-2.4-4.3-2.4-5.9,0
		c-0.7,1-1.5,1.5-2.6,1.1c-2.4-0.8-5.1,1.5-4.3,4.2c0.4,1.2-0.1,2-1.1,2.7c-2.4,1.6-2.4,4.3,0,5.9c1,0.7,1.4,1.5,1.1,2.7
		c-0.5,2.9,1.4,4.8,4.3,4.2c1.2-0.2,1.9,0,2.6,1c1.7,2.5,4.3,2.5,6,0c0.3-0.4,0.8-0.9,1.2-1c0.7-0.2,1.5,0,2.3,0
		c2.1,0.1,3.7-1.5,3.3-3.6c-0.3-1.6,0.1-2.6,1.5-3.6C115.7,82.8,115.7,80.1,113.7,78.8z M111.5,82.1c-1.9,1.3-2.7,3.1-2.2,5.4
		c0.2,0.9,0,1-0.9,0.9c-2.3-0.4-4.1,0.3-5.4,2.2c-0.3,0.5-0.6,1-1.2,0.2c-1.4-2.1-3.3-2.9-5.8-2.3c-0.2,0-0.3,0-0.6,0
		c0-0.3,0-0.6,0-0.8c0.5-2.4-0.3-4.3-2.3-5.6c-0.6-0.4-0.6-0.7,0-1.1c2.1-1.3,2.9-3.2,2.3-5.6c-0.1-0.6-0.1-1,0.7-0.8
		c2.5,0.6,4.4-0.3,5.7-2.4c0.1-0.2,0.2-0.3,0.5-0.8c0.2,0.4,0.4,0.7,0.5,0.9c1.3,2,3.1,2.8,5.5,2.4c0.8-0.2,1.1,0.1,0.9,0.9
		c-0.5,2.3,0.3,4.1,2.2,5.4C112.4,81.4,112.4,81.6,111.5,82.1z"/>
	<path class="st0" d="M58.5,70.4c-0.8-0.2-1.5,0.4-1.7,1.5c-0.2,1.2-0.7,1.7-1.7,1.7c-0.9,0-1.5-0.5-1.7-1.7c-0.2-1-0.8-1.5-1.6-1.5
		c-0.9,0.1-1.4,0.8-1.3,1.9c0.2,2.3,2.2,4.3,4.6,4.3c2.4,0,4.3-1.8,4.6-4.2C59.8,71.3,59.3,70.5,58.5,70.4z"/>
	<path class="st0" d="M74.8,89.3c-0.8-0.1-1.5,0.5-1.7,1.5c-0.2,1.1-0.7,1.6-1.7,1.6c-0.9,0-1.4-0.5-1.6-1.6s-0.8-1.6-1.7-1.5
		c-0.9,0.1-1.4,0.9-1.3,2c0.2,2.3,2.3,4.2,4.7,4.2c2.3,0,4.3-1.8,4.6-4.1C76.2,90.2,75.7,89.5,74.8,89.3z"/>
	<path class="st0" d="M65.1,81.4c-0.2,1.1-0.8,1.7-1.6,1.7c-0.9,0-1.5-0.6-1.7-1.8c-0.2-1-0.8-1.5-1.7-1.4c-0.8,0.1-1.3,0.7-1.3,1.7
		c0,2.3,2.2,4.4,4.6,4.4c2.5,0,4.5-1.9,4.6-4.3c0.1-1-0.4-1.7-1.3-1.7C65.9,80,65.3,80.5,65.1,81.4z"/>
	<path class="st0" d="M46.9,62.5c-0.9-0.2-1.5,0.3-1.8,1.5c-0.1,0.5-0.4,1.1-0.8,1.3c-1,0.7-2.2,0-2.5-1.5c-0.2-1-0.8-1.5-1.7-1.4
		c-0.8,0.1-1.3,0.8-1.2,1.7c0.2,2.4,2.2,4.3,4.6,4.3c2.4,0,4.2-1.5,4.7-3.9C48.2,63.6,47.7,62.7,46.9,62.5z"/>
	<path class="st0" d="M48.9,82.1c-0.2,0.5-0.4,1.1-0.8,1.4c-1.1,0.7-2.2,0-2.5-1.5c-0.2-1-0.8-1.4-1.7-1.3c-0.8,0.1-1.3,0.9-1.2,1.8
		c0.2,2.4,2.2,4.3,4.6,4.3c2.3,0,4.2-1.7,4.6-4.1c0.2-1-0.3-1.8-1.1-2C49.8,80.5,49.2,81,48.9,82.1z"/>
	<path class="st0" d="M74.9,70.5c-0.9-0.1-1.6,0.4-1.8,1.5c-0.2,1-0.8,1.6-1.6,1.6c-0.8,0-1.5-0.6-1.7-1.6c-0.2-1.2-0.8-1.7-1.8-1.5
		c-0.8,0.2-1.3,1-1.1,2.1c0.3,2.3,2.3,4,4.6,4c2.4,0,4.3-1.7,4.6-4C76.2,71.4,75.8,70.6,74.9,70.5z"/>
	<path class="st0" d="M54.7,93.7c-0.2,1.2-0.8,1.8-1.7,1.7c-0.9,0-1.4-0.6-1.7-1.8c-0.2-0.8-0.8-1.4-1.5-1.3c-0.8,0-1.4,0.7-1.4,1.6
		c0,2.4,2.1,4.6,4.6,4.5c2.4,0,4.5-2,4.6-4.4c0-1-0.5-1.6-1.3-1.7C55.5,92.2,54.9,92.8,54.7,93.7z"/>
	<path class="st0" d="M102.4,76.8c-2.6,0-4.6,2.1-4.6,4.7c0,2.5,2.1,4.6,4.6,4.6c2.6,0,4.6-2,4.6-4.6
		C107.1,78.9,105,76.8,102.4,76.8z M102.5,83.2c-0.9,0-1.7-0.7-1.7-1.6s0.7-1.7,1.6-1.7s1.7,0.7,1.7,1.6
		C104.2,82.3,103.4,83.1,102.5,83.2z"/>
</g>
</svg>
