<?xml version="1.0" encoding="utf-8"?>
<!-- Generator: Adobe Illustrator 25.2.3, SVG Export Plug-In . SVG Version: 6.00 Build 0)  -->
<svg version="1.1" id="Layer_1" xmlns="http://www.w3.org/2000/svg" xmlns:xlink="http://www.w3.org/1999/xlink" x="0px" y="0px"
	 viewBox="0 0 150 150" style="enable-background:new 0 0 150 150;" xml:space="preserve">
<style type="text/css">
	.st0{fill:#B64EC3;}
</style>
<g>
	<path class="st0" d="M97.3,82.1c8.4-7,16.8-14,25.2-21c1-0.8,2-1.7,3-2.5c-0.8-0.9-1.4-1.7-2.1-2.5c-9.9,8.2-19.7,16.4-29.4,24.5
		c-0.4,0.3-0.7,1-0.7,1.6c-0.1,1.8-0.1,3.6,0,5.4c0.1,1.9-0.8,3.4-2,4.9c-2-2-3.9-4-5.9-5.9c-3.1-3.1-7.3-3.5-10.9-0.9
		c-0.9,0.6-1.7,1.2-2.6,1.8c-2.5,1.8-5,1.5-7.2-0.8c1.4-1.4,2.9-2.7,4.2-4.2c1.4-1.7,3-2.5,5.1-2.1c1.4,0.3,2.4-0.4,3.4-1.4
		c11.6-12.9,23.3-25.8,35-38.6c3.9-4.3,7.9-8.7,11.8-13.1c-0.8-0.8-1.6-1.5-2.5-2.2C106.1,42.3,90.6,59.4,75,76.6
		c-1.9-1.5-4-2.7-5.5-4.4C57.2,58.8,45.2,45.4,33.2,31.9c-2.1-2.3-4.1-4.6-6.2-6.9c-0.9,0.8-1.7,1.5-2.5,2.2
		c0.2,0.3,0.4,0.5,0.6,0.6c9.8,10.9,19.6,21.9,29.4,32.8c5,5.5,9.6,11.5,15.3,16.4c-0.2,0.2-0.6,0.3-0.9,0.6c-2.7,2.7-5.3,5.3-8,8
		c-0.9,0.9-0.8,1.9,0.2,2.7c0.9,0.7,1.8,1.4,2.7,2c2.9,2.1,6.5,2.1,9.5,0.1c1-0.7,2-1.4,3-2.1c2.2-1.5,4.6-1.3,6.5,0.5
		c4.9,4.8,9.8,9.7,14.7,14.5c1,1,1.1,2,0.2,2.9s-1.9,0.8-3-0.2c-2.6-2.6-5.3-5.3-7.9-7.9c-0.3-0.3-0.4-0.6-0.7-1
		c-1,1-1.7,1.7-2.6,2.7c1,0.9,2,1.8,2.9,2.5c-0.9,1-1.7,1.8-2.7,2.8c-0.9-1-1.8-2-2.7-3c-0.9,0.9-1.6,1.6-2.6,2.6
		c0.3,0.2,0.7,0.3,0.9,0.6c2.7,2.6,5.3,5.2,7.9,7.9c0.5,0.5,0.8,1.3,0.8,2c-0.2,1.5-2,1.9-3.2,0.7c-1.9-1.9-3.8-3.8-5.7-5.7
		c-1-1-2.1-2.1-3.1-3.1c-0.8,0.8-1.6,1.5-2.6,2.5c0.4,0.2,0.7,0.4,1,0.7c2.7,2.7,5.4,5.4,8.1,8.1c0.9,0.9,0.9,2,0.1,2.7
		s-1.8,0.7-2.7-0.1c-1-1-2-2-3-3c-0.2-0.2-0.4-0.6-0.4-0.9c-0.1-3.5-1.5-5.1-4.9-5.8c-0.4-2.8-2.1-4.5-4.9-4.9
		c-0.4-2.9-2.1-4.5-4.9-4.9c-0.5-3-2.2-4.6-5.2-5c0-3.6,0-7.1,0-10.6c0-1-0.4-1.7-1.1-2.4c-7.7-6.4-15.3-12.7-23-19.1
		c-2-1.7-4-3.4-6.1-5.1c-0.7,0.9-1.4,1.7-2.1,2.5c2.7,2.2,5.3,4.4,7.9,6.6c6.7,5.6,13.5,11.2,20.2,16.8c0.6,0.5,0.9,1.1,0.9,1.9
		c0,3.3,0,6.5,0,9.8c0,0.4-0.2,0.9-0.5,1.2c-1,1.1-2.2,2.2-3.2,3.3c-2.5,2.8-1.4,7.1,2.1,8.3c0.5,0.2,1,0.3,1.5,0.4
		c0.4,2.9,2.1,4.5,4.9,4.9c0.5,2.9,1.9,4.3,4.9,4.9c0.3,2.3,1.5,3.9,3.7,4.6c2.4,0.7,4.2-0.2,5.8-2c0.7-0.8,1.4-1.6,2.1-2.5
		c1.2,1.2,2.1,2.2,3.1,3.2c1.7,1.6,4.2,1.9,6.2,0.7c1.6-0.9,2.4-2.4,2.6-4.2c3-0.6,4.4-2,4.9-4.9c2.9-0.5,4-1.6,5-5
		c2.3-0.3,4-1.5,4.7-3.8c0.7-2.2,0-4.1-1.7-5.6c-0.6-0.5-1.2-1.1-1.7-1.6c-1.4-1.5-2.7-3-4.2-4.5c0.2-0.4,0.6-1,1-1.6
		c1-1.5,1.6-3.2,1.5-5.1c0-1.3,0-2.7,0-4C96.4,83.1,96.7,82.6,97.3,82.1z M54.8,106.5c-0.7,0.7-1.8,0.5-2.4-0.1
		c-0.6-0.6-0.8-1.6-0.2-2.3c1.2-1.3,2.4-2.5,3.7-3.7c0.2-0.2,0.7-0.3,1.2-0.5c0.4,0.4,1.2,0.7,1.4,1.2s0.1,1.4-0.2,1.9
		C57.3,104.2,56.1,105.3,54.8,106.5z M59.7,111.4c-0.2,0.2-0.7,0.3-1.2,0.5c-0.4-0.4-1.2-0.7-1.4-1.2s-0.1-1.4,0.2-1.9
		c1.1-1.3,2.3-2.4,3.5-3.6c0.7-0.7,1.8-0.5,2.4,0.1c0.6,0.6,0.8,1.6,0.1,2.3C62.2,109,60.9,110.2,59.7,111.4z M65,116.1
		c-0.9,0.9-2,0.9-2.7,0.1c-0.8-0.8-0.7-1.8,0.2-2.7c1-1.1,2.1-2.1,3.1-3.1c0.6-0.6,1.4-0.8,2.1-0.3c0.5,0.4,0.8,1,1.3,1.5
		c-0.4,0.6-0.6,1.1-1,1.5C67,114.1,66,115.1,65,116.1z M73.3,117.6c-1.2,1.3-2.5,2.5-3.8,3.8c-0.2,0.2-0.6,0.3-1.1,0.5
		c-0.4-0.3-1.1-0.6-1.4-1.1c-0.2-0.5-0.3-1.5,0.1-1.9c1.1-1.3,2.4-2.6,3.7-3.7c0.7-0.6,1.7-0.5,2.3,0.1
		C73.7,115.9,73.9,116.9,73.3,117.6z M92.7,111.4c-0.8,0.6-1.7,0.6-2.5-0.1c-1.2-1.2-2.4-2.4-3.7-3.7c0.9-0.9,1.7-1.7,2.5-2.4
		c1.3,1.3,2.8,2.5,4.1,3.9C93.6,109.7,93.4,110.8,92.7,111.4z"/>
	<path class="st0" d="M66,48.9c0.3,0.1,0.8,0.3,0.8,0.5c0.1,2.1,0,4.1,0,6.3c-1.2,0-2.2,0-3.2,0c0,1.1,0,2.2,0,3.3
		c1.1,0,2.1,0,3.3,0c0,1.1,0,2.1,0,3.2c1.1,0,2.2,0,3.3,0c0-1.1,0-2.1,0-3.2c1.1,0,2.2,0,3.2,0c0-1.2,0-2.2,0-3.3
		c-1.1,0-2.1,0-3.2,0c0-2.1,0-4.1,0-6.1c0-0.2,0.3-0.5,0.6-0.6c1.3-0.5,2.5-1,3.8-1.5c0.3-0.1,0.7-0.1,1.1,0c1.3,0.5,2.5,1,3.8,1.5
		c0.2,0.1,0.6,0.3,0.6,0.5c0,2.1,0,4.1,0,6.3c-1.2,0-2.2,0-3.2,0c0,1.1,0,2.2,0,3.3c1.1,0,2.1,0,3.3,0c0,1.1,0,2.1,0,3.2
		c1.1,0,2.2,0,3.3,0c0-1.1,0-2.1,0-3.2c1.1,0,2.2,0,3.2,0c0-1.2,0-2.2,0-3.3c-1.1,0-2.1,0-3.2,0c0-2,0-3.9,0-5.7
		c0-0.7,0.2-0.9,0.9-1.1c4.7-1.2,7.7-4.1,8.7-8.8c1-4.8-0.5-8.9-4.5-11.7c-4-2.9-8.3-3-12.5-0.6c-0.6,0.3-1,0.3-1.5,0
		c-3.8-2.1-7.7-2.2-11.5,0c-3.8,2.2-5.7,5.6-5.7,10C57,43.1,60.7,47.7,66,48.9z M77.7,30.6c2.9-2,7.4-1.3,10.1,1.5
		c2.8,3,2.8,7.7,0.1,10.9c-2.5,3-7.1,3.8-10.2,1.7C80.8,40,80.8,35.3,77.7,30.6z M75.1,32.9c2.2,2.2,2.2,6.9,0,9.5
		C72.9,39.5,72.9,35.4,75.1,32.9z M62.3,32.3c2.5-2.9,6.9-3.7,10.2-1.7c-3.2,4.7-3.2,9.4,0,14.2c-3.3,2-7.7,1.2-10.2-1.7
		C59.6,39.9,59.6,35.4,62.3,32.3z"/>
	<path class="st0" d="M114.9,50.9c0,0.8,0.7,1.5,1.5,1.5s1.5-0.7,1.5-1.5s-0.7-1.5-1.5-1.5S114.9,50,114.9,50.9z"/>
	<path class="st0" d="M111.9,59.2c0,0.8,0.7,1.5,1.5,1.5s1.5-0.7,1.5-1.5s-0.7-1.5-1.5-1.5C112.6,57.8,111.9,58.4,111.9,59.2z"/>
	<path class="st0" d="M98.1,60.7c-0.8,0-1.5,0.7-1.5,1.5s0.7,1.5,1.5,1.5s1.5-0.7,1.5-1.5S98.9,60.7,98.1,60.7z"/>
	<path class="st0" d="M98.1,69.3c-0.8,0-1.5,0.7-1.5,1.5s0.7,1.5,1.5,1.5s1.5-0.7,1.5-1.5S98.9,69.3,98.1,69.3z"/>
	<circle class="st0" cx="53.3" cy="73.8" r="1.5"/>
	<path class="st0" d="M61.7,78c0.8,0,1.5-0.7,1.5-1.5S62.6,75,61.7,75c-0.8,0-1.5,0.7-1.5,1.5S60.9,78,61.7,78z"/>
	<circle class="st0" cx="79.1" cy="94" r="1.5"/>
	<circle class="st0" cx="71.7" cy="97" r="1.5"/>
	<circle class="st0" cx="47.6" cy="60.7" r="1.5"/>
</g>
</svg>
