<?xml version="1.0" encoding="utf-8"?>
<!-- Generator: Adobe Illustrator 25.2.3, SVG Export Plug-In . SVG Version: 6.00 Build 0)  -->
<svg version="1.1" id="Layer_1" xmlns="http://www.w3.org/2000/svg" xmlns:xlink="http://www.w3.org/1999/xlink" x="0px" y="0px"
	 viewBox="0 0 150 150" style="enable-background:new 0 0 150 150;" xml:space="preserve">
<style type="text/css">
	.st0{fill:#B64EC3;}
</style>
<g>
	<path class="st0" d="M121.4,86.4c0-4.7-3.8-8.5-8.5-8.7c-2-0.1-3.2-1.3-3.2-3.3c0-0.8,0-1.6,0-2.5c0.3-0.1,0.6-0.1,0.8-0.2
		c1.3-0.4,2.1-1.4,2.1-2.8c0-3.9,0-7.8,0-11.7c0-1.7-1.2-2.9-2.9-2.9c-2.9,0-5.8,0-8.8,0c0-0.4,0-0.7,0-1c0-2.5,0-5,0-7.5
		c0-1-0.3-1.8-1-2.5c-5.7-5.7-11.5-11.5-17.2-17.2C81.9,25.3,81.1,25,80,25c-16.1,0-32.2,0-48.2,0c-2,0-3.2,1.2-3.2,3.2
		c0,25.8,0,51.7,0,77.5c0,2.1,1.2,3.2,3.3,3.2c13.8,0,27.5,0,41.3,0c0.4,0,0.8,0,1.3,0c0,0.4,0,0.7,0,1.1c0,2.1,0,4.2,0,6.3
		c0,3.7,2.6,7.1,6.1,8.2c0.4,0.1,0.9,0.3,1.3,0.4c10.7,0,21.4,0,32,0c1.2-0.5,2.6-0.9,3.7-1.6c2.4-1.7,3.7-4.1,3.7-7
		C121.4,106.4,121.4,96.4,121.4,86.4z M106.7,60.2c0,1.7,0,3.4,0,5.2c-5.8,0-11.6,0-17.5,0c0-1.7,0-3.4,0-5.2
		C95,60.2,100.8,60.2,106.7,60.2z M83.4,35.4c2.4,2.4,4.8,4.8,7.2,7.2c-2.3,0-4.7,0-7.2,0C83.4,40.1,83.4,37.7,83.4,35.4z M74.5,87
		c0.1,5,0,10,0,14.9c0,0.4,0,0.7,0,1.2c-13.4,0-26.7,0-40,0c0-24.1,0-48.1,0-72.2c14.3,0,28.6,0,42.9,0c0,0.4,0,0.7,0,1.1
		c0,4.4,0,8.8,0,13.2c0,2.1,1.2,3.3,3.2,3.3c4.4,0,8.8,0,13.2,0c0.3,0,0.7,0,1.1,0c0,2,0,3.8,0,5.9c-0.4,0-0.8,0-1.2,0
		c-2.4,0-4.9,0-7.3,0c-2,0-3.1,1.2-3.1,3.2c0,3.7,0,7.4,0,11c0,2,0.8,3,2.9,3.4c0,1,0.1,2.1,0,3.1c-0.1,1.6-1.3,2.7-2.9,2.7
		C78.4,77.7,74.3,81.9,74.5,87z M115.5,116.1c0,1.8-1.3,3-3,3c-9.7,0-19.4,0-29.1,0c-1.8,0-3-1.3-3-3c0-9.8,0-19.6,0-29.5
		c0-1.8,1.3-3,3-3c5.1-0.2,8.7-3.9,8.7-9.1c0-0.8,0-1.7,0-2.6c4,0,7.8,0,11.7,0c0,0.9,0,1.7,0,2.6c0,5.2,3.5,8.8,8.7,9.1
		c1.8,0.1,3,1.3,3,3C115.5,96.5,115.5,106.3,115.5,116.1z"/>
	<path class="st0" d="M43.3,68.6c1.7,0,2.9-1.3,2.9-3c0-2.1,0-4.3,0-6.4c0-0.3,0-0.5,0-0.6c2.2,2.1,4.4,4.3,6.5,6.4
		c-1.2,1.3-2.5,2.5-3.7,3.8c-0.9,0.9-1.2,2-0.7,3.2c0.8,2,3.2,2.5,4.8,1c1.3-1.3,2.5-2.7,3.8-4c0.1,0.1,0.2,0.2,0.2,0.2
		c0.1,0,0.1,0,0.2,0.1c1.1,1.1,2.1,2.1,3.2,3.2c1.7,1.7,3.5,1.9,4.8,0.6s1.1-3.1-0.6-4.8c-1.1-1.1-2.2-2.1-3.2-3.2
		c0.1-0.1,0.1-0.2,0.1-0.2c1.1-1.1,2.1-2.1,3.2-3.2c1.4-1.4,1.6-3.3,0.3-4.5c-1.2-1.2-3-1.1-4.4,0.3c-1.1,1.1-2.2,2.3-3.3,3.5
		c-1.2-1.2-2.2-2.3-3.3-3.3c-1-1-2.1-2.1-3.3-3.2c0.9-0.1,1.5-0.2,2.1-0.3c4.3-0.9,7.3-5,6.9-9.5c-0.4-4.3-4.2-7.8-8.6-7.9
		c-2.6,0-5.3,0-7.9,0c-1.8,0-3,1.2-3,3c0,8.6,0,17.3,0,25.9C40.3,67.3,41.6,68.6,43.3,68.6z M46.2,42.6c1.7,0,3.3-0.1,4.9,0
		c1.6,0.1,2.8,1.4,2.8,2.9s-1.2,2.8-2.8,2.9c-1.3,0.1-2.7,0-4,0c-0.3,0-0.6,0-0.9,0C46.2,46.5,46.2,44.6,46.2,42.6z"/>
	<path class="st0" d="M65.4,79.7c-7.3,0-14.6,0-21.8,0c-1.9,0-3.2,1.2-3.2,2.9c0,1.8,1.3,3,3.2,3c3.6,0,7.3,0,10.9,0s7.3,0,10.9,0
		c1.9,0,3.2-1.2,3.2-2.9C68.7,80.9,67.4,79.7,65.4,79.7z"/>
	<path class="st0" d="M57.7,91.4c-4.8,0-9.6,0-14.3,0c-1.8,0-3.1,1.2-3.1,2.9c0,1.7,1.3,2.9,3.1,2.9c2.4,0,4.7,0,7.1,0
		c2.4,0,4.8,0,7.2,0c1.8,0,3.1-1.2,3.1-2.9S59.6,91.4,57.7,91.4z"/>
	<path class="st0" d="M105.4,98.3c-1.5,0-3,0-4.4,0c0-0.2-0.1-0.3-0.1-0.3c0-1.2,0-2.5,0-3.7c0-1.9-1.2-3.2-2.9-3.2
		c-1.7,0-2.9,1.3-2.9,3.2c0,1.3,0,2.6,0,4c-0.9,0-1.6,0-2.3,0c-0.7,0-1.5,0-2.2,0c-1.4,0.1-2.6,1.1-2.8,2.5
		c-0.2,1.5,0.7,2.9,2.1,3.2c0.5,0.1,1.1,0.1,1.6,0.1c1.2,0,2.4,0,3.7,0c0,1.6,0,3.1,0,4.6c0,1.8,1.2,3,2.9,3c1.7,0,3-1.2,3-3
		c0-1.5,0-2.9,0-4.6c1.6,0,3,0,4.5,0c1.1,0,2-0.5,2.6-1.5C109,100.7,107.7,98.3,105.4,98.3z"/>
</g>
</svg>
