<?xml version="1.0" encoding="utf-8"?>
<!-- Generator: Adobe Illustrator 25.2.3, SVG Export Plug-In . SVG Version: 6.00 Build 0)  -->
<svg version="1.1" id="Layer_1" xmlns="http://www.w3.org/2000/svg" xmlns:xlink="http://www.w3.org/1999/xlink" x="0px" y="0px"
	 viewBox="0 0 150 150" style="enable-background:new 0 0 150 150;" xml:space="preserve">
<style type="text/css">
	.st0{fill:#B64EC3;}
</style>
<g>
	<path class="st0" d="M119,68c0-0.3,0-0.6-0.1-0.9c-0.2-1.1-0.8-1.6-1.9-1.7c-0.4,0-0.8,0-1.3,0c-21.2,0-42.4,0-63.6,0
		c-0.3,0-0.6,0-1,0c0-0.1,0-0.1,0-0.2c0.1,0,0.3-0.1,0.4-0.1c11.4-3.3,22.9-6.6,34.3-9.9c9.3-2.7,18.5-5.4,27.8-8
		c1.8-0.5,2.3-1.4,1.8-3.2c-1-3.6-2.1-7.2-3.1-10.8c-0.8-2.8-2.4-5.1-5.1-6.5c-1.2-0.7-2.6-1-4-1.5c-1,0-2.1,0-3.1,0
		c-0.6,0.2-1.2,0.4-1.8,0.5C85,29.4,71.6,33.3,58.2,37.2C51.6,39.1,44.9,41,38.4,43c-5.2,1.6-8.3,6.9-7.2,12.2
		c0.8,3.9,2.1,7.6,3.2,11.4c0.2,0.7,0.3,1.4,0.3,2.1c0,15.2,0,30.4,0,45.6c0,5.8,4.9,10.6,10.7,10.6c2.6,0,5.1,0,7.7,0
		c5.2,0,10.4,0,15.5,0c0.9,0,1.7-0.2,2.1-1.1c0.7-1.4-0.3-2.8-2-2.8c-7.5,0-15,0-22.5,0c-0.8,0-1.7-0.1-2.5-0.3
		c-3.2-0.9-5.1-3.5-5.1-7.1c0-8.4,0-16.8,0-25.2c0-0.3,0-0.6,0-0.9c25.5,0,50.9,0,76.3,0c0,0.2,0.1,0.4,0.1,0.6c0,8.6,0,17.2,0,25.8
		c0,1.1-0.3,2.2-0.7,3.2c-1.3,2.8-3.7,3.9-6.7,3.9c-7.4,0-14.8,0-22.2,0c-0.3,0-0.7,0-1,0c-1,0.1-1.7,0.9-1.7,1.9
		c0,1.2,0.8,1.9,2.2,1.9c7.9,0,15.8,0,23.6,0c0.7,0,1.4-0.1,2.1-0.3c5-1.3,8.3-5.5,8.3-10.9C119,98.5,119,83.3,119,68z M100.6,29.1
		c0.6-0.2,1.3-0.2,1.9-0.1c3,0.4,5.1,2,6,4.9c1,3,1.8,6.1,2.7,9.1c0,0.1,0.1,0.3,0.1,0.6c-2.5,0.7-4.9,1.4-7.4,2.1
		c-0.2,0.1-0.5-0.1-0.7-0.2c-4.5-4.3-9-8.6-13.5-13c-0.1-0.1-0.1-0.2-0.2-0.3C93.3,31.1,97,30.1,100.6,29.1z M75.6,36.3
		c2.9-0.9,5.8-1.7,8.8-2.5c0.3-0.1,0.9,0,1.1,0.2c4.5,4.2,8.9,8.5,13.3,12.7c0.1,0.1,0.2,0.2,0.4,0.5c-3.3,1-6.5,1.9-9.7,2.8
		c-0.3,0.1-0.7,0-0.9-0.2c-4.5-4.3-9.1-8.7-13.6-13c0,0,0-0.1-0.1-0.2C75.2,36.4,75.4,36.3,75.6,36.3z M60.9,40.5
		c2.9-0.9,5.8-1.7,8.8-2.5c0.3-0.1,0.9,0,1.1,0.2c4.5,4.3,9,8.6,13.5,12.9c0.1,0.1,0.1,0.2,0.2,0.3c-1.1,0.3-2.1,0.6-3.1,0.9
		c-2.1,0.6-4.3,1.2-6.5,1.8c-0.3,0.1-0.8,0-1-0.1c-4.5-4.3-9-8.6-13.5-13c0,0-0.1-0.1-0.1-0.3C60.5,40.7,60.7,40.6,60.9,40.5z
		 M53.8,42.5c1.5-0.5,2.3-0.2,3.4,0.9c3.9,3.9,7.9,7.6,11.9,11.4c0.2,0.2,0.5,0.4,0.9,0.7c-1.3,0.4-2.3,0.7-3.3,1
		c-2.2,0.6-4.4,1.3-6.5,1.9c-0.3,0.1-0.7,0-0.9-0.1c-4.5-4.3-9.1-8.7-13.6-13c0,0,0-0.1-0.1-0.3C48.3,44.2,51.1,43.5,53.8,42.5z
		 M38,64.9c-0.7-2.2-1.3-4.4-1.9-6.6c-0.4-1.3-0.8-2.6-1-4c-0.7-3.6,2-7.3,5.6-8c0.2,0,0.5,0.1,0.7,0.2c4.5,4.3,9.1,8.7,13.6,13.1
		c0,0,0.1,0.1,0.1,0.3C49.4,61.6,43.7,63.2,38,64.9z M46.6,83.6c-2.6,0-5.3,0-8,0c0-4.8,0-9.5,0-14.2c5.7,0,11.3,0,17,0
		c-0.2,0.3-0.3,0.6-0.4,0.8c-2.4,4.2-4.9,8.4-7.3,12.7C47.6,83.4,47.3,83.6,46.6,83.6z M61.9,83.6c-3.2,0-6.5,0-9.9,0
		c2.1-3.6,4-7,6-10.4c0.6-1.1,1.3-2.3,2-3.4c0.2-0.3,0.5-0.6,0.8-0.6c3.3,0,6.6,0,9.9,0c0.1,0,0.1,0.1,0.2,0.1
		c-0.1,0.2-0.2,0.5-0.4,0.7c-2.4,4.2-4.9,8.4-7.3,12.7C62.9,83.4,62.6,83.6,61.9,83.6z M77.2,83.6c-3.2,0-6.4,0-9.8,0
		c0.8-1.5,1.6-2.8,2.3-4c1.8-3.2,3.7-6.4,5.5-9.5c0.2-0.3,0.6-0.7,1-0.7c3.2-0.1,6.5,0,9.7,0c0.1,0,0.2,0,0.3,0.1
		c-0.1,0.3-0.3,0.5-0.4,0.8c-2.4,4.2-4.9,8.4-7.3,12.6C78.2,83.4,77.9,83.6,77.2,83.6z M92.7,83.6c-3.1,0-6.2,0-9.4,0
		c-0.2,0-0.4,0-0.6,0c0.2-0.3,0.3-0.6,0.4-0.8c2.4-4.2,4.9-8.4,7.3-12.7c0.3-0.6,0.6-0.8,1.3-0.8c3.2,0,6.4,0,9.9,0
		c-0.2,0.4-0.3,0.7-0.5,0.9c-2.4,4.2-4.9,8.4-7.3,12.7C93.6,83.3,93.3,83.6,92.7,83.6z M115,83.6c-5.7,0-11.3,0-16.9,0
		c0.2-0.3,0.3-0.6,0.4-0.8c2.4-4.2,4.9-8.4,7.3-12.7c0.3-0.6,0.7-0.8,1.4-0.8c2.6,0,5.2,0,7.9,0C115,74.1,115,78.8,115,83.6z"/>
	<path class="st0" d="M89,102.2c-5.5-3.2-11-6.4-16.5-9.5c-1.7-1-3.2-0.1-3.2,1.9c0,3.2,0,6.4,0,9.6s0,6.3,0,9.5
		c0,2.1,1.5,3,3.3,1.9c5.5-3.2,11-6.3,16.5-9.5C90.8,105,90.8,103.3,89,102.2z M73.3,110.6c0-4.3,0-8.5,0-12.9
		c3.7,2.1,7.4,4.3,11.2,6.5C80.6,106.3,77,108.4,73.3,110.6z"/>
	<path class="st0" d="M76.8,121.1c-1.1,0-1.9,0.9-1.9,1.9c0,1.1,0.8,1.9,1.9,2c1.1,0,2-0.9,2-1.9C78.8,122,77.9,121.1,76.8,121.1z"
		/>
</g>
</svg>
