<?xml version="1.0" encoding="utf-8"?>
<!-- Generator: Adobe Illustrator 25.0.1, SVG Export Plug-In . SVG Version: 6.00 Build 0)  -->
<svg version="1.1" id="Layer_1" xmlns="http://www.w3.org/2000/svg" xmlns:xlink="http://www.w3.org/1999/xlink" x="0px" y="0px"
	 viewBox="0 0 150 150" style="enable-background:new 0 0 150 150;" xml:space="preserve">
<style type="text/css">
	.st0{fill:url(#SVGID_1_);}
	.st1{fill:url(#SVGID_2_);}
	.st2{fill:url(#SVGID_3_);}
	.st3{fill:url(#SVGID_4_);}
	.st4{fill:url(#SVGID_5_);}
</style>
<g>
	<linearGradient id="SVGID_1_" gradientUnits="userSpaceOnUse" x1="51.4345" y1="96.8583" x2="51.4345" y2="82.7806">
		<stop  offset="1.198083e-07" style="stop-color:#0FAA80"/>
		<stop  offset="1" style="stop-color:#793693"/>
	</linearGradient>
	<path class="st0" d="M56.5,87.7c-1,0-2,0-3,0c0-0.1,0-0.2,0-0.2c0-0.8,0-1.7,0-2.5c0-1.3-0.8-2.2-2-2.2c-1.2,0-2,0.9-2,2.2
		c0,0.9,0,1.8,0,2.8c-0.6,0-1.1,0-1.6,0c-0.5,0-1,0-1.5,0c-1,0-1.8,0.8-1.9,1.7c-0.1,1,0.4,1.9,1.4,2.2c0.4,0.1,0.7,0.1,1.1,0.1
		c0.8,0,1.7,0,2.5,0c0,1.1,0,2.1,0,3.1c0,1.2,0.8,2.1,2,2.1c1.2,0,2-0.8,2-2.1c0-1,0-2,0-3.1c1.1,0,2.1,0,3,0c0.8,0,1.4-0.3,1.7-1
		C59,89.3,58,87.7,56.5,87.7z"/>
	<linearGradient id="SVGID_2_" gradientUnits="userSpaceOnUse" x1="65.6629" y1="125" x2="65.6629" y2="25">
		<stop  offset="1.198083e-07" style="stop-color:#0FAA80"/>
		<stop  offset="1" style="stop-color:#793693"/>
	</linearGradient>
	<path class="st1" d="M97.8,46.4c-1.8,0-3.5,0-5.4,0c0-0.4,0-0.8,0-1.2c0-3.4,0-6.8,0-10.2c0-2.7-1.9-4.6-4.6-4.6
		c-14.8,0-29.6,0-44.4,0c-2.7,0-4.6,2-4.6,4.8c0,8.6,0,17.2,0,25.8c0,13.1,0,26.3,0,39.4c0,0.4,0,0.9,0,1.4c19.7,0,39.2,0,58.9,0
		c0,0.4,0.1,0.7,0.1,1c0,4.1,0,8.2,0,12.3c0,5.7-4.3,9.9-10,9.9c-14.8,0-29.5,0-44.3,0c-5.7,0-10-4.3-10-10c0-26.6,0-53.3,0-79.9
		c0-5.8,4.3-10.1,10.1-10.1c14.7,0,29.5,0,44.2,0c5.7,0,10,4.2,10,9.9C97.8,38.7,97.8,42.5,97.8,46.4z M39,107.2
		c-0.1,0.2-0.1,0.2-0.1,0.3c0,2.3,0,4.6,0,6.9c0,3.5,1.8,5.3,5.3,5.3c10.6,0,21.2,0,31.8,0c3.9,0,7.9,0,11.8,0
		c2.4,0,4.4-1.5,4.6-3.9c0.2-2.8,0-5.7,0-8.6C74.6,107.2,56.8,107.2,39,107.2z"/>
	<linearGradient id="SVGID_3_" gradientUnits="userSpaceOnUse" x1="85.0223" y1="96.2915" x2="85.0223" y2="48.3265">
		<stop  offset="1.198083e-07" style="stop-color:#0FAA80"/>
		<stop  offset="1" style="stop-color:#793693"/>
	</linearGradient>
	<path class="st2" d="M67.4,81.3c-6.7-1.6-11.2-5.3-13.2-11.9c-0.4-1.4-0.6-3-0.6-4.5c-0.1-3.5,0-7.1,0-10.6c0-2.1,1-3,3.1-3.1
		c1.4,0,2.8,0,4.2,0c0.1,0,0.1-0.1,0.3-0.1c0-0.9,0-1.8,0-2.8c1.8,0,3.5,0,5.3,0c0,3.7,0,7.4,0,11.2c-1.7,0-3.4,0-5.2,0
		c0-0.9,0-1.9,0-2.8c-0.8,0-1.5,0-2.2,0c0,0.2-0.1,0.5-0.1,0.7c0.1,3.2-0.1,6.4,0.3,9.6c0.7,5.4,5.8,9.2,11.5,9.1
		c5.3-0.1,10.1-4.5,10.5-9.7c0.2-2.8,0.1-5.6,0.2-8.5c0-0.4,0-0.7,0-1.2c-0.8,0-1.4,0-2.2,0c0,0.9,0,1.8,0,2.8c-1.8,0-3.5,0-5.3,0
		c0-3.7,0-7.5,0-11.2c1.7,0,3.4,0,5.3,0c0,0.9,0,1.9,0,2.9c1.6,0,3,0,4.4,0c2.3,0,3.3,1,3.3,3.3c0,3.2,0,6.4,0,9.6
		c0,8.5-4.9,14.8-13.1,16.9c-0.2,0.1-0.5,0.1-0.7,0.2c-0.4,3.7,2.6,7.8,6.6,9c1,0.3,2,0.5,3.1,0.5c4.4,0.1,8.8,0,13.2,0
		c5.3,0,9.5-3.9,9.8-9.2c0.1-2.3,0.1-4.7,0-7c0-0.3-0.4-0.8-0.8-1c-3.3-1.7-5-5-4.4-8.7c0.5-3.3,3.2-5.9,6.7-6.5
		c3.8-0.7,7.6,1.6,8.9,5.3c1.3,3.7-0.3,7.9-3.7,9.6c-1,0.5-1.2,1-1.2,2c-0.1,3,0.1,6.1-0.5,9.1c-1.2,6.6-7.3,11.5-14,11.7
		c-4.9,0.1-9.9,0.1-14.8,0c-7.2-0.2-13.4-6-14.2-13.2C67.6,82.5,67.5,81.9,67.4,81.3z M108.4,63.8c-1.5,0-2.6,1.1-2.6,2.6
		c0,1.5,1.1,2.7,2.7,2.6c1.5,0,2.6-1.2,2.6-2.6C111,64.9,109.9,63.8,108.4,63.8z"/>
	<linearGradient id="SVGID_4_" gradientUnits="userSpaceOnUse" x1="65.6669" y1="41.9605" x2="65.6669" y2="36.7283">
		<stop  offset="1.198083e-07" style="stop-color:#0FAA80"/>
		<stop  offset="1" style="stop-color:#793693"/>
	</linearGradient>
	<path class="st3" d="M79.9,36.7c0,1.8,0,3.5,0,5.2c-9.5,0-19,0-28.5,0c0-1.7,0-3.4,0-5.2C60.9,36.7,70.3,36.7,79.9,36.7z"/>
	<linearGradient id="SVGID_5_" gradientUnits="userSpaceOnUse" x1="64.7657" y1="116.0654" x2="64.7657" y2="110.721">
		<stop  offset="1.198083e-07" style="stop-color:#0FAA80"/>
		<stop  offset="1" style="stop-color:#793693"/>
	</linearGradient>
	<path class="st4" d="M64.8,116.1c-1.5,0-2.7-1.2-2.7-2.7c0-1.5,1.2-2.7,2.7-2.7c1.5,0,2.7,1.2,2.7,2.7
		C67.4,114.9,66.3,116.1,64.8,116.1z"/>
</g>
</svg>
