<?xml version="1.0" encoding="utf-8"?>
<!-- Generator: Adobe Illustrator 25.2.3, SVG Export Plug-In . SVG Version: 6.00 Build 0)  -->
<svg version="1.1" id="Layer_1" focusable="false" xmlns="http://www.w3.org/2000/svg" xmlns:xlink="http://www.w3.org/1999/xlink"
	 x="0px" y="0px" viewBox="0 0 800 800" style="enable-background:new 0 0 800 800;" xml:space="preserve">
<style type="text/css">
	.st0{fill:#B64EC3;}
</style>
<path class="st0" d="M143.6,653.9h178.7c15.8,0,28.5-12.7,28.5-28.5c0-15.8-12.7-28.5-28.5-28.5H143.6c-15.8,0-28.5,12.7-28.5,28.5
	C115.1,641.2,128,653.9,143.6,653.9L143.6,653.9z M714.3,685.7H641c61.2-93.5,77.4-173.5,48.1-238.6
	c-29.8-66.1-100.2-100.9-160.2-119l-30.8,50.7c51.6,13.3,115.7,39.9,139,91.9c23.7,52.6,1.4,125-65.8,215.1H85.7
	c-15.8,0-28.5,12.7-28.5,28.5c0,15.8,12.7,28.4,28.5,28.4h628.6c15.8,0,28.5-12.7,28.5-28.5C742.9,698.4,730.1,685.7,714.3,685.7z
	 M209,452.9l27.6,17.6l-24.8,39.6c-8.4,13.4-4.3,30.9,9.1,39.3c4.8,2.9,24.6,11.2,39.3-9.1l24.5-39c0,0,31.2,21.8,42.4,21.8
	c11.6,0,20.4-7.1,24.3-13.7l166.1-272.7c8.1-13.3,4.1-30.5-9-38.9L406,131.8c-6.7-4.5-26.7-10.5-39.9,9.2L200,413.9
	C192,427.2,196,444.5,209,452.9L209,452.9z M444.9,109.7l65.5,42.1c18.3,10.9,34-0.1,39.5-8.5c8.5-13.3,4.6-30.9-8.5-39.5
	l-65.5-42.1c-13.3-8.5-30.9-4.6-39.5,8.5C427.8,83.5,431.8,101.2,444.9,109.7z"/>
</svg>
