<?xml version="1.0" encoding="utf-8"?>
<!-- Generator: Adobe Illustrator 25.2.3, SVG Export Plug-In . SVG Version: 6.00 Build 0)  -->
<svg version="1.1" id="Layer_1" xmlns="http://www.w3.org/2000/svg" xmlns:xlink="http://www.w3.org/1999/xlink" x="0px" y="0px"
	 viewBox="0 0 400 400" style="enable-background:new 0 0 400 400;" xml:space="preserve">
<style type="text/css">
	.st0{fill:url(#SVGID_1_);}
</style>
<g>
	
		<linearGradient id="SVGID_1_" gradientUnits="userSpaceOnUse" x1="1.5263" y1="201.1" x2="398.4737" y2="201.1" gradientTransform="matrix(1 0 0 -1 0 401.1)">
		<stop  offset="0" style="stop-color:#8800B5"/>
		<stop  offset="8.039320e-02" style="stop-color:#9000BC"/>
		<stop  offset="0.4775" style="stop-color:#B600DA"/>
		<stop  offset="0.7981" style="stop-color:#CD00ED"/>
		<stop  offset="1" style="stop-color:#D500F4"/>
	</linearGradient>
	<path class="st0" d="M188.1,391.2c1.7-3.5,3.1-6.2,4.5-8.8c6.1-11.6,12.1-23,18-34.7c1.5-2.9,3.4-4.2,6.4-5
		c8.7-2.4,17.4-4.9,26-7.4c1.8-0.6,3.5-1,5.3-1.8c3.2-1.6,4-4.3,3.3-7.7c-0.8-3.3-3.1-5.3-6.5-4.9c-3.1,0.3-6.2,1.3-9.2,2.2
		c-8.8,2.5-17.5,5.3-26.4,7.5c-4.6,1.1-7.3,3.7-9.5,7.9c-8.2,16.4-16.9,32.5-25.2,48.7c-1.6,3.1-3.4,4.3-7,4.3
		c-52.6-0.1-105.2,0-157.9,0c-2.3,0-5.4-0.5-6.6-1.9c-1.5-1.7-1.9-5-1.6-7.3c0.6-3.3,3.9-5,7-4.5c9.8,1.9,13.5-3.8,17.2-11.6
		C36,345,46.9,324.2,57.5,303c1.5-3.1,3.5-4.8,6.7-5.9c37.3-14.1,74.6-28.3,111.9-42.4c1-0.5,2.2-0.8,3.2-1.4c4.1-1.9,5.5-5.1,4.1-9
		c-1.3-3.4-4.7-5-8.9-3.5c-7.7,2.7-15.2,5.7-22.9,8.7c-13.3,5-26.4,10.1-39.7,15.1c-0.9,0.3-1.8,0.6-3.9,1.1c1.5-2.9,2.4-4.9,3.5-7
		c26.8-50.6,53.5-101,80.2-151.7c1.8-3.4,2.9-7.8,2.9-11.8c0.2-25.4,0.1-50.9,0.1-76.3c0-8.8,1.6-10.4,10.5-10.4
		c22.8,0,45.4,0,68.2,0.2c2.4,0,5.4,1.1,7.1,2.9c2.5,2.5,1.8,5.7-0.5,8.6c-4,5-7.9,10.2-12,15.1c-1.6,1.9-1.7,3.5-0.3,5.7
		c4,6.1,7.9,12.2,11.8,18.4c1.8,2.9,3.5,5.6,1.5,9.2c-1.9,3.4-5,3.7-8.6,3.7c-19.6,0-39.1,0.1-58.8-0.1c-4,0-5.1,1.1-5.5,5.3
		c-1.4,16.1,2.6,30.5,10.3,45c18.3,34.3,35.3,69.3,52.8,104c0.7,1.4,1.4,2.7,2.5,5.3c-7-2.6-12.9-4.9-18.9-7.1
		c-2.3-0.9-4.5-1.8-6.9-2.6c-4.5-1.4-7.9,0.1-9.3,3.8c-1.5,3.9,0.1,7.3,4.7,9.2c13,5.1,26.1,10.2,39.2,15.2
		c16.1,6.2,32.3,12.5,48.4,18.6c3.1,1.1,4.9,3,6.2,5.9c14,32.3,28.1,64.4,42,96.8c1.9,4.6,4.1,7,9.6,6.9c6.9-0.1,9.8,2.6,9.6,7.1
		c-0.2,4.3-3.1,6.2-10,6.2c-65.1,0.1-130.1,0.1-195.2,0.1C192.2,391.4,190.6,391.3,188.1,391.2z M201.7,118.6
		c-1,1.7-1.6,2.5-2.1,3.4c-8.6,16.1-17,32.3-25.6,48.5c-2.6,4.9-1.3,7.7,4.5,8c2.5,0.2,5.6-0.2,7.8-1.6c9.7-6.1,19.2-6.2,28.9,0
		c3.5,2.3,7.4,2.5,11.4,0.6c2.7-1.4,3.7-2.7,1.9-5.9c-8.2-15.9-16.2-32-24.4-48.2C203.5,122,202.9,120.7,201.7,118.6z"/>
</g>
</svg>
