<?xml version="1.0" encoding="utf-8"?>
<!-- Generator: Adobe Illustrator 25.2.3, SVG Export Plug-In . SVG Version: 6.00 Build 0)  -->
<svg version="1.1" id="Layer_1" xmlns="http://www.w3.org/2000/svg" xmlns:xlink="http://www.w3.org/1999/xlink" x="0px" y="0px"
	 viewBox="0 0 600 600" style="enable-background:new 0 0 600 600;" xml:space="preserve">
<style type="text/css">
	.st0{fill:url(#SVGID_1_);}
</style>
<linearGradient id="SVGID_1_" gradientUnits="userSpaceOnUse" x1="6.9436" y1="300" x2="593.0564" y2="300">
	<stop  offset="0" style="stop-color:#8800B5"/>
	<stop  offset="8.039320e-02" style="stop-color:#9000BC"/>
	<stop  offset="0.4775" style="stop-color:#B600DA"/>
	<stop  offset="0.7981" style="stop-color:#CD00ED"/>
	<stop  offset="1" style="stop-color:#D500F4"/>
</linearGradient>
<path class="st0" d="M15.8,233c11.3,11.2,22.3,21.5,32.4,32.6c2.1,2.3,1.3,7.7,0.9,11.6c-4.8,52.1,5.8,101,31.4,146.6
	c20.2,35.9,47.9,64.9,82.4,87.3c33.9,22.1,71.1,35.1,111.5,39.1c50.3,4.9,98.3-3.4,142.6-27.6C491.2,482,536,419.8,549,336.1
	c8.4-53.7-0.2-105.4-26.3-153.1C482.2,109,419.8,64.6,336,51.2c-20.1-3.2-40.2-3.5-60.4-1.2c-6.1,0.7-11-0.7-15.4-5.5
	c-8.7-9.3-17.9-18-28.1-28.1c30.1-8.9,59.5-10.1,88.9-8c74.2,5.4,138,35,189.4,88.4C617.9,208.4,617.1,373.8,528,483.3
	C429.1,605,262.9,622.6,144.8,548C16.9,467.1-10,325.2,15.8,233z M482.6,281c-5.6-52.2-29.5-94.5-70.8-126.4
	c-38.5-29.8-82.5-42.2-131.1-36.8c-2.6,0.3-6,1.6-7.2,3.6c-1.9,3.1-1.4,6.7,1.8,9.7c5.3,4.9,10.9,9.7,15.3,15.4
	c6.9,8.8,16,11.2,26.5,12.3c34.1,3.7,63.5,18.5,86.6,43.4c29.5,31.8,43,69.7,38,113.4c-4.5,40.1-22.8,72.8-54.5,97.3
	c-30.3,23.4-65.1,33.3-103.6,28.9c-34-3.9-62.9-18.2-86.4-42.5c-22.7-23.4-36.1-51.7-39.3-84.5c-0.5-4.8-0.2-10.8-3-14
	c-8.1-9.6-17.2-18.2-26.4-26.8c-4.2-3.9-10.6-0.8-11.3,4.8c-0.5,4.2-1.2,8.4-1.3,12.7c-1.4,47.6,12.3,90,43.3,126.6
	c34.1,40.2,77.9,62.1,130.3,65.3c45.6,2.8,87.1-10.2,123.2-38.7C459.3,408,482,359.4,484.3,300C483.8,294.1,483.3,287.5,482.6,281z
	 M97.4,206.1c2.5-0.4,5.1-0.7,7.6-1.1c16.5-3.2,33-6.3,49.5-9.9c6-1.3,10.1-0.4,14.7,4.2c37.1,37.5,74.6,74.7,111.9,111.9
	c2.4,2.4,4.9,4.8,7.8,6.5c7.1,4.2,14.7,4.3,21.9,0.2c7-3.9,9.8-10.3,9.8-18.1c0.1-7.4-3.7-12.8-8.7-17.8
	c-37.8-37.7-75.5-75.5-113.5-113.1c-4-3.9-5.1-7.5-4-12.9c3.8-17.2,7.1-34.6,10.5-51.9c1.3-6.3,1.3-12.6-3.4-17.4
	c-17.3-17.6-34.6-35.2-52.5-52.2c-9.7-9.1-21.7-4.5-24.4,8.5c-3.9,18.9-7.8,37.9-11.5,56.8c-1.6,8.2-6.2,12.4-14.4,13.9
	c-18.2,3.4-36.3,7.3-54.5,10.8c-6.5,1.2-11.7,3.5-14,10.3c-2.4,6.9,0.9,12,5.4,16.6c16.2,16.3,32.3,32.6,48.9,48.6
	c3.3,3.2,8.1,4.7,12.3,7C96.9,206.7,97.1,206.4,97.4,206.1z"/>
</svg>
