<?xml version="1.0" encoding="utf-8"?>
<!-- Generator: Adobe Illustrator 25.2.3, SVG Export Plug-In . SVG Version: 6.00 Build 0)  -->
<svg version="1.1" id="Layer_1" xmlns="http://www.w3.org/2000/svg" xmlns:xlink="http://www.w3.org/1999/xlink" x="0px" y="0px"
	 viewBox="0 0 600 600" style="enable-background:new 0 0 600 600;" xml:space="preserve">
<style type="text/css">
	.st0{fill:url(#SVGID_1_);}
</style>
<linearGradient id="SVGID_1_" gradientUnits="userSpaceOnUse" x1="1.8625" y1="300" x2="598.1375" y2="300">
	<stop  offset="0" style="stop-color:#8800B5"/>
	<stop  offset="8.039320e-02" style="stop-color:#9000BC"/>
	<stop  offset="0.4775" style="stop-color:#B600DA"/>
	<stop  offset="0.7981" style="stop-color:#CD00ED"/>
	<stop  offset="1" style="stop-color:#D500F4"/>
</linearGradient>
<path class="st0" d="M115,332.9c-7.2-18-13.9-35-20.8-52.1c-3.2-8-6.4-16.1-10.2-23.9c-2.5-5.1-0.8-7.2,3.9-8.8
	c5.2-1.8,10.3-4.2,15.5-6.1c3.9-1.4,5.3-3.8,5.3-8c0.2-13.5,6.6-23.2,19.2-28.4c84.5-35.3,169-70.7,253.5-106
	c7.8-3.3,7.8-3.2,11,4.4c15.1,36.2,30.3,72.4,45.4,108.7c3.1,7.4,3,7.5-4.5,10.6c-23.7,9.9-47.5,19.9-71.2,29.7
	c-1.6,0.7-3.3,1-5.7,1.8c-0.7-2.7-1.3-4.9-1.8-7.2c-4.7-22.4-16.3-39.1-39.3-44.7c-29.6-7.2-58.2,7.2-68.6,31.3
	c-6.1,14-5.5,28.2-0.3,42.1c2.1,5.6,1.2,9.7-1.1,15c-4.8,10.7-12.6,16.8-23.5,20.6c-14,4.9-27.6,11.1-41.2,16.9
	c-11.4,4.8-21.9,3.9-32.1-3.3c-2.2-1.6-6.3-1.9-9-1.2C131.2,326.8,123.2,330,115,332.9z M309.5,460.8c-0.1-5.9,1.9-7.6,7.7-7.6
	c24.6,0.3,49.2,0.2,73.9,0.1c4.8,0,7.7,1.5,10.1,5.8c17.4,31.2,35,62.2,52.6,93.3c2.5,4.4,4.9,9,7.7,13.2c3.4,4.9,8.8,6.1,13.4,3.6
	c4.6-2.5,6.6-7.8,4.6-13.2c-0.9-2.5-2.3-4.8-3.6-7.1c-48.6-86.1-97.2-172.3-146-258.3c-3.1-5.5-3.4-9.2,0.2-14.8
	c9.5-14.6,6.4-33.3-6.6-45.4c-12.5-11.6-31.2-12.8-45.4-2.9c-14.2,9.9-20.7,29.4-11.8,44.1c6.3,10.5,3.9,17.7-1.8,26.1
	c-1.1,1.6-2,3.5-3,5.2c-41.5,74.6-82.9,149.3-124.4,223.9c-4.8,8.7-9.8,17.4-14.5,26.2c-3.7,6.9-2.6,12.5,2.8,15.7
	c5.7,3.3,11.1,1.3,15.3-5.8c0.3-0.6,0.7-1.2,1-1.7c18.9-33.9,37.8-67.8,56.6-101.8c2.5-4.5,5.2-6.3,10.4-6.3
	c23.7,0.2,47.5,0.1,71.2,0.1c8.3,0,8.4,0.1,8.4,8.7c0,30.6,0,61.2,0.1,91.8c0,3.3,0.3,6.7,1.2,9.8c1.4,4.5,4.9,6.8,9.7,6.6
	c5-0.2,8.4-2.9,9.7-7.7c0.6-2.1,0.5-4.4,0.6-6.6c0-15.5,0-31.1,0-46.6C309.6,493.2,309.9,477,309.5,460.8z M380.4,432.9
	c-21.5,0-43-0.1-64.5,0.1c-5.9,0.1-6.3-3.1-6.3-7.6c0.1-31.9,0-63.9,0-95.8c0-9.7,0-19.3,0-29c0.6-0.2,1.1-0.3,1.7-0.5
	c24.6,43.6,49.2,87.2,74.4,131.9C382.9,432.5,381.6,432.9,380.4,432.9z M288.4,322.5c0,33.9,0,67.9,0,101.8c0,8.6-0.1,8.7-8.4,8.7
	c-19.5,0-39,0-58.5,0c-2.1,0-4.3-0.2-8-0.5c24.8-44.7,49-88.3,73.3-131.9c0.5,0.2,1.1,0.4,1.6,0.6
	C288.4,308.3,288.4,315.4,288.4,322.5z M473.9,32.1c-16,6.5-32.1,13-47.8,20C409.4,59.6,402.9,76,409.6,93c3.8,9.7,8,19.2,12,28.9
	c11.8,28.2,23.4,56.5,35.4,84.6c7.2,16.8,23.3,24.2,39.8,17.9c17-6.4,33.8-13.5,50.3-21.1c15.2-7,21.5-23.4,15.8-39.1
	c-1.7-4.8-3.8-9.4-5.8-14.1c-13.9-33.3-27.9-66.6-41.8-100c-5.4-12.9-15-19.9-31-20.6C482,30.1,477.7,30.5,473.9,32.1z M92.8,331.2
	c-8.9-22-17.6-44.1-27.1-65.8c-5-11.5-18.3-16.8-30.2-12.8c-6.7,2.2-13.3,4.9-19.7,8.1C5,266.1-1,278.8,3.2,289.9
	c8.8,23,18.1,45.7,28.1,68.2c4.8,10.9,17.5,15.8,28.6,12.3c7.2-2.3,14.2-5.2,20.8-8.6c8.8-4.5,13.5-11.9,13.6-22.1
	C93.9,336.8,93.9,333.8,92.8,331.2z M580.3,153.6c17.3-14.7,22.8-46.5,13-69.9c-10.1-24.1-36.1-42.5-59.2-40.8
	C549.7,80.1,564.9,116.7,580.3,153.6z"/>
</svg>
