<svg width="345" height="410" viewBox="0 0 345 410" fill="none" xmlns="http://www.w3.org/2000/svg">
<g clip-path="url(#clip0_392_412)">
<path d="M344.5 74.1998C343.6 72.7998 341.8 72.5998 340.4 73.3998L317 89.0998V41.9998C317 34.2998 310.8 27.9998 303.1 27.9998H155L140.8 37.5998C140.3 37.8998 139.7 38.0998 139.2 38.0998C138.2 38.0998 137.4 37.5998 136.8 36.7998C135.9 35.3998 136.2 33.6998 137.6 32.6998L139.5 31.3998L158.2 19.3998C159.6 18.4998 159.9 16.7998 159.1 15.3998C158.2 13.9998 156.5 13.6998 155.1 14.4998L134.3 27.9998H123L108.8 37.5998C108.3 37.8998 107.7 38.0998 107.2 38.0998C106.2 38.0998 105.4 37.5998 104.8 36.7998C103.9 35.3998 104.2 33.6998 105.6 32.6998L137 11.5998C138.4 10.6998 138.6 8.89983 137.8 7.49983C136.9 6.09983 135.1 5.89983 133.7 6.69983L102 28.0998H46.7C39 28.0998 32.8 34.2998 32.8 42.0998V80.4998L9.9 95.6998C8.5 96.5998 8.2 98.3998 9.1 99.7998C9.7 100.7 10.6 101.1 11.5 101.1C12.1 101.1 12.6 100.9 13.1 100.6L32.8 87.4998L37.2 84.5998C38.6 83.6998 40.3 84.0998 41.3 85.3998C42.2 86.7998 41.8 88.4998 40.5 89.4998L32.9 94.4998V104.6L23.3 111C21.9 111.9 21.7 113.7 22.5 115.1C23.1 116 24 116.4 24.9 116.4C25.5 116.4 26.1 116.2 26.5 115.9L36.6 109.1C37.8 108.8 39.1 109.2 39.8 110.3C40.7 111.7 40.4 113.4 39 114.4L32.9 118.6V208.7L1.3 229.6C-0.0999991 230.5 -0.299999 232.3 0.500001 233.7C1.1 234.6 2 235 2.9 235C3.5 235 4.1 234.8 4.5 234.5L38.7 211.5C40 210.9 41.5 211.3 42.3 212.6C43.2 214 42.9 215.7 41.5 216.7L32.8 222.5V376.4C32.8 384 38.8 390.1 46.3 390.3L38.3 395.7C36.9 396.6 36.7 398.4 37.5 399.8C38.1 400.7 39 401.1 39.9 401.1C40.5 401.1 41.1 400.9 41.5 400.6L73 379.4C74.4 378.5 76.1 378.8 77.1 380.2C78 381.6 77.7 383.3 76.3 384.3L67.3 390.4H138.6L130.9 395.5C129.5 396.4 129.3 398.2 130.1 399.6C130.7 400.5 131.6 400.9 132.5 400.9C133.1 400.9 133.7 400.7 134.1 400.4L175.9 372.6C177.3 371.7 179 372 180 373.4C181 374.8 180.6 376.5 179.2 377.5L159.7 390.6H264L257.7 394.7C256.3 395.6 256 397.4 256.8 398.8C257.4 399.7 258.3 400.2 259.2 400.2C259.8 400.2 260.3 400 260.7 399.7L291.4 379.8C292.8 378.9 294.5 379.3 295.5 380.7C296.4 382.1 296 383.8 294.6 384.8L285.3 390.8H303.1C310.8 390.8 317 384.6 317 376.8V251.8L311 255.9C310.5 256.2 309.9 256.4 309.4 256.4C308.4 256.4 307.6 255.9 307 255.1C306.1 253.7 306.4 252 307.8 251L341.2 228.6C342.6 227.7 342.8 225.9 342 224.5C341.1 223.1 339.3 222.9 337.9 223.7L317 237.6V124.6L311 128.7C310.5 129 309.9 129.2 309.4 129.2C308.4 129.2 307.6 128.7 307 127.9C306.1 126.5 306.4 124.8 307.8 123.8L317 117.6L335.8 105C337.2 104.1 337.4 102.3 336.6 100.9C335.7 99.4998 333.9 99.2998 332.5 100.1L317 110.6V103.1L311 107.2C310.5 107.5 309.9 107.7 309.4 107.7C308.4 107.7 307.6 107.2 307 106.4C306.1 105 306.4 103.3 307.8 102.3L317 96.0998L343.6 78.1998C345 77.2998 345.4 75.4998 344.5 74.1998ZM298.9 288.3C298.9 292.3 295.7 295.5 291.7 295.5H56.1C52.1 295.5 48.9 292.3 48.9 288.3V52.4998C48.9 48.4998 52.1 45.2998 56.1 45.2998H291.7C295.7 45.2998 298.9 48.4998 298.9 52.4998V288.3ZM168.4 12.8998C167.4 12.8998 166.6 12.3998 166 11.5998C165.1 10.1998 165.4 8.49983 166.8 7.49983L177.3 0.399835C178.7 -0.500165 180.4 -0.200165 181.4 1.19983C182.3 2.59983 182 4.29983 180.6 5.29983L170 12.3998C169.5 12.6998 168.9 12.8998 168.4 12.8998ZM12.3 254.7C11.3 254.7 10.5 254.2 9.9 253.4C9 252 9.3 250.3 10.7 249.3L23.2 241C24.6 240.1 26.3 240.4 27.3 241.8C28.2 243.2 27.9 244.9 26.5 245.9L14 254.2C13.4 254.6 12.8 254.7 12.3 254.7ZM12.3 381.9C11.3 381.9 10.5 381.4 9.9 380.6C9 379.2 9.3 377.5 10.7 376.5L23.2 368.2C24.6 367.3 26.3 367.6 27.3 369C28.2 370.4 27.9 372.1 26.5 373.1L14 381.4C13.4 381.7 12.8 381.9 12.3 381.9ZM329.2 202.9C328.2 202.9 327.4 202.4 326.8 201.6C325.9 200.2 326.2 198.5 327.6 197.5L337.6 190.8C339 189.9 340.7 190.2 341.7 191.6C342.6 193 342.3 194.7 340.9 195.7L330.9 202.4C330.4 202.7 329.8 202.9 329.2 202.9ZM226 410C225 410 224.2 409.5 223.6 408.7C222.7 407.3 223 405.6 224.4 404.6L234.4 397.9C235.8 397 237.5 397.3 238.5 398.7C239.4 400.1 239.1 401.8 237.7 402.8L227.7 409.5C227.1 409.8 226.6 410 226 410ZM324.3 323.2C323.3 323.2 322.5 322.7 321.9 321.9C321 320.5 321.3 318.8 322.7 317.8L332.7 311.1C334.1 310.2 335.8 310.5 336.8 311.9C337.7 313.3 337.4 315 336 316L326 322.7C325.5 323.1 324.9 323.2 324.3 323.2Z" fill="#B64EC3"/>
<path d="M102.8 343.4C102.8 346 101.8 348.1 99.9 349.6C98 351.1 95.3 351.9 91.9 351.9C88.3 351.9 85.5 351.4 83.6 350.5V346.9C84.9 347.5 86.3 347.9 87.8 348.2C89.3 348.5 90.8 348.7 92.1 348.7C94.4 348.7 96.1 348.3 97.2 347.4C98.3 346.5 98.9 345.3 98.9 343.8C98.9 342.8 98.7 342 98.3 341.3C97.9 340.7 97.2 340 96.2 339.5C95.2 338.9 93.8 338.3 91.8 337.6C89 336.6 87 335.4 85.8 334C84.6 332.6 84 330.8 84 328.6C84 326.2 84.9 324.4 86.7 323C88.5 321.6 90.8 320.9 93.7 320.9C96.7 320.9 99.5 321.5 102 322.6L100.8 325.9C98.2 324.8 95.8 324.3 93.6 324.3C91.8 324.3 90.4 324.7 89.4 325.5C88.4 326.3 87.9 327.4 87.9 328.8C87.9 329.8 88.1 330.6 88.5 331.3C88.9 332 89.5 332.6 90.4 333.1C91.3 333.6 92.7 334.3 94.5 334.9C96.7 335.7 98.4 336.5 99.5 337.3C100.6 338.1 101.4 339 101.9 340C102.5 340.8 102.8 342 102.8 343.4ZM121.8 324.1C118.5 324.1 116 325.2 114.1 327.4C112.2 329.6 111.3 332.6 111.3 336.4C111.3 340.3 112.2 343.3 114 345.4C115.8 347.5 118.4 348.6 121.7 348.6C123.9 348.6 126.3 348.2 129 347.4V350.7C127.7 351.2 126.5 351.5 125.3 351.7C124.1 351.9 122.7 352 121.2 352C116.7 352 113.3 350.6 110.9 347.9C108.5 345.2 107.3 341.3 107.3 336.4C107.3 333.3 107.9 330.5 109 328.2C110.2 325.9 111.8 324 114 322.8C116.2 321.5 118.8 320.9 121.8 320.9C125 320.9 127.8 321.5 130.2 322.7L128.7 325.9C126.3 324.7 124 324.1 121.8 324.1ZM154.6 351.5L151 342.1H139L135.4 351.5H131.5L143.3 321.1H146.7L158.5 351.5H154.6ZM149.9 338.8L146.5 329.6L145 325C144.6 326.7 144.2 328.2 143.7 329.5L140.3 338.7H149.9V338.8ZM186.8 351.5H182.3L166.1 326.3H165.9L166 328C166.2 330.5 166.2 332.7 166.2 334.6V351.5H162.7V321.2H167.1L168 322.7L177.9 338.1L183.2 346.3H183.4C183.4 346 183.3 344.8 183.2 342.7C183.1 340.7 183.1 339.2 183.1 338.3V321.2H186.7V351.5H186.8ZM219.3 351.5L209.3 324.9H209.1C209.3 327.1 209.4 329.8 209.4 333.1V351.5H206V321.2H211.6L220.9 346H221.1L230.6 321.2H236.2V351.5H232.4V332.9C232.4 330.8 232.5 328.2 232.7 325H232.5L222.4 351.5H219.3ZM261.4 351.5H244.5V321.2H261.4V324.6H248.3V334.1H260.6V337.4H248.3V348.2H261.4V351.5Z" fill="white"/>
<path d="M292 289C212.4 289 132.7 289 53.1 289C53.1 209.4 53.1 129.7 53.1 50.1001C132.7 50.1001 212.4 50.1001 292 50.1001C292 129.7 292 209.3 292 289ZM223.7 261.7C223.7 259.4 223.7 257.2 223.7 254.9C232.8 254.9 241.8 254.9 251 254.9C251 257.2 251 259.4 251 261.6C255.6 261.6 260.1 261.6 264.7 261.6C264.7 263.9 264.7 266.1 264.7 268.5C262.3 268.5 260.1 268.5 257.9 268.5C257.9 270.8 257.9 273 257.9 275.3C262.5 275.3 267 275.3 271.5 275.3C271.5 277.6 271.5 279.8 271.5 282.1C273.8 282.1 276 282.1 278.2 282.1C278.2 279.8 278.2 277.6 278.2 275.4C275.9 275.4 273.7 275.4 271.4 275.4C271.4 273.1 271.4 270.9 271.4 268.5C273.8 268.5 276 268.5 278.2 268.5C278.2 266.2 278.2 264 278.2 261.7C273.6 261.7 269.1 261.7 264.6 261.7C264.6 259.4 264.6 257.2 264.6 254.9C262.2 254.9 260 254.9 257.8 254.9C257.8 252.6 257.8 250.4 257.8 248.1C262.4 248.1 266.8 248.1 271.4 248.1C271.4 245.8 271.4 243.6 271.4 241.3C273.7 241.3 275.9 241.3 278.2 241.3C278.2 238.9 278.2 236.7 278.2 234.5C280.5 234.5 282.7 234.5 285 234.5C285 229.9 285 225.4 285 220.9C282.7 220.9 280.5 220.9 278.3 220.9C278.3 225.5 278.3 230 278.3 234.5C276 234.5 273.8 234.5 271.4 234.5C271.4 232.1 271.4 229.9 271.4 227.6C269.1 227.6 266.8 227.6 264.6 227.6C264.6 225.3 264.6 223.1 264.6 220.7C266.9 220.7 269.1 220.7 271.4 220.7C271.4 218.4 271.4 216.1 271.4 213.9C273.7 213.9 275.9 213.9 278.3 213.9C278.3 211.6 278.3 209.4 278.3 207C280.6 207 282.8 207 285 207C285 204.7 285 202.5 285 200.2C282.7 200.2 280.5 200.2 278.2 200.2C278.2 197.9 278.2 195.7 278.2 193.4C275.8 193.4 273.6 193.4 271.4 193.4C271.4 191.1 271.4 188.9 271.4 186.6C273.7 186.6 275.9 186.6 278.2 186.6C278.2 184.2 278.2 182 278.2 179.7C280.5 179.7 282.7 179.7 284.9 179.7C284.9 177.4 284.9 175.2 284.9 172.9C282.6 172.9 280.4 172.9 278.1 172.9C278.1 170.6 278.1 168.4 278.1 166.1C275.7 166.1 273.5 166.1 271.3 166.1C271.3 163.8 271.3 161.6 271.3 159.3C273.6 159.3 275.8 159.3 278.1 159.3C278.1 156.9 278.1 154.7 278.1 152.4C280.4 152.4 282.6 152.4 284.8 152.4C284.8 150.1 284.8 147.9 284.8 145.7C280.3 145.7 275.8 145.7 271.3 145.7C271.3 150.3 271.3 154.8 271.3 159.3C269 159.3 266.7 159.3 264.5 159.3C264.5 161.6 264.5 163.8 264.5 166.1C266.8 166.1 269 166.1 271.3 166.1C271.3 169.3 271.3 172.5 271.3 175.7C271.3 179.3 271.3 183 271.4 186.6C269.1 186.6 266.8 186.6 264.5 186.6C264.5 182.1 264.5 177.5 264.5 172.9C262.1 172.9 259.9 172.9 257.7 172.9C257.7 170.6 257.7 168.4 257.7 166.1C253.1 166.1 248.5 166.1 244 166.1C244 163.8 244 161.6 244 159.2C241.7 159.2 239.5 159.2 237.2 159.2C237.2 156.9 237.2 154.6 237.2 152.4C239.5 152.4 241.7 152.4 244 152.4C244 150 244 147.8 244 145.6C250.8 145.6 257.6 145.6 264.5 145.6C264.5 143.2 264.5 141 264.5 138.8C266.8 138.8 269 138.8 271.3 138.8C271.3 136.4 271.3 134.2 271.3 132C273.6 132 275.8 132 278.2 132C278.2 129.7 278.2 127.4 278.2 125.2C280.5 125.2 282.7 125.2 284.9 125.2C284.9 122.9 284.9 120.7 284.9 118.4C282.6 118.4 280.4 118.4 278.1 118.4C278.1 116.1 278.1 113.9 278.1 111.7C275.8 111.7 273.6 111.7 271.3 111.7C271.3 114 271.3 116.2 271.3 118.5C268.9 118.5 266.7 118.5 264.5 118.5C264.5 116.2 264.5 114 264.5 111.7C262.2 111.7 260 111.7 257.8 111.7C257.8 114 257.8 116.2 257.8 118.4C260.1 118.4 262.3 118.4 264.6 118.4C264.6 120.7 264.6 123 264.6 125.3C260.1 125.3 255.5 125.3 250.9 125.3C250.9 129.9 250.9 134.4 250.9 139C248.5 139 246.3 139 244.1 139C244.1 132.2 244.1 125.3 244.1 118.5C246.4 118.5 248.6 118.5 250.9 118.5C250.9 116.2 250.9 114 250.9 111.8C248.6 111.8 246.4 111.8 244.2 111.8C244.2 114.1 244.2 116.3 244.2 118.6C241.9 118.6 239.6 118.6 237.3 118.6C237.3 116.3 237.3 114.1 237.3 111.8C235 111.8 232.8 111.8 230.6 111.8C230.6 114.1 230.6 116.3 230.6 118.5C232.9 118.5 235.1 118.5 237.4 118.5C237.4 120.8 237.4 123 237.4 125.4C235 125.4 232.8 125.4 230.5 125.4C230.5 127.7 230.5 129.9 230.5 132.1C225.9 132.1 221.4 132.1 216.9 132.1C216.9 129.8 216.9 127.6 216.9 125.3C219.2 125.3 221.4 125.3 223.7 125.3C223.7 123 223.7 120.8 223.7 118.6C221.4 118.6 219.2 118.6 217 118.6C217 120.9 217 123.1 217 125.4C214.7 125.4 212.5 125.4 210.1 125.4C210.1 127.7 210.1 129.9 210.1 132.3C205.5 132.3 201 132.3 196.5 132.3C196.5 134.6 196.5 136.9 196.5 139.1C194.2 139.1 192 139.1 189.6 139.1C189.6 141.4 189.6 143.6 189.6 145.9C187.3 145.9 185 145.9 182.8 145.9C182.8 143.6 182.8 141.4 182.8 139.1C180.4 139.1 178.2 139.1 176 139.1C176 136.8 176 134.6 176 132.3C173.6 132.3 171.4 132.3 169.2 132.3C169.2 130 169.2 127.8 169.2 125.5C173.7 125.5 178.2 125.5 182.9 125.5C182.9 123.1 182.9 120.9 182.9 118.6C185.2 118.6 187.5 118.6 189.7 118.6C189.7 120.9 189.7 123.1 189.7 125.4C194.3 125.4 198.8 125.4 203.3 125.4C203.3 120.8 203.3 116.3 203.3 111.8C207.8 111.8 212.4 111.8 217 111.8C217 104.9 217 98.1001 217 91.3001C219.3 91.3001 221.6 91.3001 223.9 91.3001C223.9 95.8001 223.9 100.4 223.9 104.9C226.2 104.9 228.4 104.9 230.6 104.9C230.6 100.3 230.6 95.9001 230.6 91.3001C228.3 91.3001 226.1 91.3001 223.8 91.3001C223.8 89.0001 223.8 86.8001 223.8 84.4001C226.2 84.4001 228.4 84.4001 230.6 84.4001C230.6 82.1001 230.6 79.9001 230.6 77.6001C228.3 77.6001 226.1 77.6001 223.8 77.6001C223.8 75.3001 223.8 73.1001 223.8 70.9001C221.5 70.9001 219.3 70.9001 217 70.9001C217 73.2001 217 75.4001 217 77.7001C214.6 77.7001 212.4 77.7001 210.2 77.7001C210.2 75.4001 210.2 73.2001 210.2 70.8001C207.9 70.8001 205.6 70.8001 203.5 70.8001C203.5 68.5001 203.5 66.3001 203.5 64.0001C210.3 64.0001 217.1 64.0001 223.8 64.0001C223.8 61.7001 223.8 59.5001 223.8 57.3001C205.6 57.3001 187.4 57.3001 169.2 57.3001C169.2 59.6001 169.2 61.8001 169.2 63.9001C166.9 63.9001 164.7 63.9001 162.4 63.9001C162.4 61.6001 162.4 59.4001 162.4 57.2001C160.1 57.2001 157.9 57.2001 155.7 57.2001C155.7 61.8001 155.7 66.2001 155.7 70.8001C158 70.8001 160.2 70.8001 162.4 70.8001C162.4 73.1001 162.4 75.3001 162.4 77.6001C157.9 77.6001 153.4 77.6001 148.8 77.6001C148.8 79.9001 148.8 82.1001 148.8 84.5001C146.4 84.5001 144.2 84.5001 142 84.5001C142 80.0001 142 75.4001 142 70.8001C144.4 70.8001 146.6 70.8001 148.8 70.8001C148.8 68.5001 148.8 66.3001 148.8 64.0001C144.3 64.0001 139.8 64.0001 135.2 64.0001C135.2 66.3001 135.2 68.5001 135.2 70.7001C132.9 70.7001 130.7 70.7001 128.3 70.7001C128.3 66.1001 128.3 61.6001 128.3 57.2001C126 57.2001 123.8 57.2001 121.5 57.2001C121.5 59.5001 121.5 61.7001 121.5 64.0001C119.2 64.0001 117 64.0001 114.8 64.0001C114.8 66.3001 114.8 68.5001 114.8 70.8001C117.1 70.8001 119.3 70.8001 121.5 70.8001C121.5 73.1001 121.5 75.3001 121.5 77.6001C119.2 77.6001 117 77.6001 114.8 77.6001C114.8 79.9001 114.8 82.1001 114.8 84.4001C119.4 84.4001 123.9 84.4001 128.4 84.4001C128.4 91.2001 128.4 98.0001 128.4 104.8C130.7 104.8 132.9 104.8 135.2 104.8C135.2 97.9001 135.2 91.2001 135.2 84.4001C137.5 84.4001 139.7 84.4001 142 84.4001C142 86.7001 142 88.9001 142 91.1001C146.7 91.1001 151.1 91.1001 155.7 91.1001C155.7 88.8001 155.7 86.6001 155.7 84.3001C160.3 84.3001 164.8 84.3001 169.3 84.3001C169.3 86.6001 169.3 88.9001 169.3 91.2001C167 91.2001 164.8 91.2001 162.5 91.2001C162.5 93.6001 162.5 95.8001 162.5 98.0001C160.2 98.0001 158 98.0001 155.6 98.0001C155.6 102.6 155.6 107.1 155.6 111.6C153.3 111.6 151.1 111.6 148.8 111.6C148.8 107.1 148.8 102.6 148.8 98.1001C146.5 98.1001 144.3 98.1001 142.1 98.1001C142.1 104.9 142.1 111.7 142.1 118.6C151.2 118.6 160.2 118.6 169.4 118.6C169.4 121 169.4 123.2 169.4 125.4C164.8 125.4 160.3 125.4 155.6 125.4C155.6 130 155.6 134.4 155.6 139C153.3 139 151.1 139 148.8 139C148.8 141.3 148.8 143.5 148.8 145.8C146.4 145.8 144.2 145.8 142 145.8C142 141.3 142 136.7 142 132.1C144.4 132.1 146.6 132.1 148.8 132.1C148.8 129.8 148.8 127.6 148.8 125.4C144.3 125.4 139.8 125.4 135.2 125.4C135.2 127.7 135.2 129.9 135.2 132.1C132.9 132.1 130.7 132.1 128.5 132.1C128.5 127.5 128.5 123.1 128.5 118.5C130.8 118.5 133 118.5 135.2 118.5C135.2 116.2 135.2 114 135.2 111.8C123.8 111.8 112.5 111.8 101.2 111.8C101.2 114.1 101.2 116.3 101.2 118.6C108 118.6 114.8 118.6 121.6 118.6C121.6 127.7 121.6 136.8 121.6 145.8C124 145.8 126.2 145.8 128.4 145.8C128.4 150.4 128.4 154.9 128.4 159.5C126.1 159.5 123.9 159.5 121.5 159.5C121.5 157.1 121.5 154.9 121.5 152.7C119.2 152.7 116.9 152.7 114.7 152.7C114.7 150.4 114.7 148.2 114.7 145.9C112.3 145.9 110.1 145.9 107.9 145.9C107.9 143.6 107.9 141.3 107.9 139C110.2 139 112.4 139 114.7 139C114.7 136.7 114.7 134.5 114.7 132.2C112.4 132.2 110.2 132.2 107.9 132.2C107.9 129.9 107.9 127.7 107.9 125.4C103.3 125.4 98.8 125.4 94.2 125.4C94.2 120.9 94.2 116.3 94.2 111.8C82.8 111.8 71.4 111.8 60.1 111.8C60.1 114.1 60.1 116.3 60.1 118.6C62.4 118.6 64.6 118.6 66.8 118.6C66.8 123.2 66.8 127.7 66.8 132.3C64.5 132.3 62.3 132.3 60.1 132.3C60.1 139.1 60.1 145.9 60.1 152.7C64.7 152.7 69.2 152.7 73.7 152.7C73.7 155 73.7 157.2 73.7 159.5C76 159.5 78.2 159.5 80.5 159.5C80.5 157.2 80.5 155 80.5 152.7C82.8 152.7 85 152.7 87.4 152.7C87.4 155.1 87.4 157.3 87.4 159.5C89.7 159.5 92 159.5 94.2 159.5C94.2 164 94.2 168.6 94.2 173.1C89.5 173.1 85.1 173.1 80.5 173.1C80.5 170.8 80.5 168.6 80.5 166.4C78.2 166.4 76 166.4 73.7 166.4C73.7 168.7 73.7 170.9 73.7 173.2C69.1 173.2 64.7 173.2 60.2 173.2C60.2 175.5 60.2 177.7 60.2 180C62.5 180 64.6 180 66.9 180C66.9 182.3 66.9 184.5 66.9 186.8C64.6 186.8 62.4 186.8 60.2 186.8C60.2 189.1 60.2 191.3 60.2 193.6C62.5 193.6 64.7 193.6 67 193.6C67 196 67 198.2 67 200.4C64.7 200.4 62.5 200.4 60.2 200.4C60.2 209.6 60.2 218.6 60.2 227.6C62.5 227.6 64.7 227.6 66.9 227.6C66.9 218.5 66.9 209.4 66.9 200.4C71.5 200.4 76 200.4 80.6 200.4C80.6 205 80.6 209.5 80.6 214.1C78.3 214.1 76.1 214.1 73.8 214.1C73.8 218.7 73.8 223.2 73.8 227.6C78.4 227.6 82.8 227.6 87.3 227.6C87.3 225.3 87.3 223.1 87.3 220.8C85 220.8 82.8 220.8 80.5 220.8C80.5 218.4 80.5 216.2 80.5 214C82.8 214 85 214 87.3 214C87.3 209.4 87.3 204.8 87.3 200.3C89.6 200.3 91.9 200.3 94.2 200.3C94.2 202.6 94.2 204.8 94.2 207.1C96.6 207.1 98.8 207.1 101 207.1C101 209.4 101 211.7 101 214C98.7 214 96.5 214 94.2 214C94.2 216.3 94.2 218.5 94.2 220.8C96.5 220.8 98.7 220.8 101 220.8C101 223.1 101 225.3 101 227.6C103.3 227.6 105.5 227.6 107.7 227.6C107.7 225.3 107.7 223.1 107.7 220.9C105.4 220.9 103.2 220.9 100.9 220.9C100.9 218.6 100.9 216.3 100.9 214C105.4 214 110 214 114.6 214C114.6 216.4 114.6 218.6 114.6 220.8C117 220.8 119.2 220.8 121.4 220.8C121.4 223.1 121.4 225.4 121.4 227.7C119.1 227.7 116.9 227.7 114.7 227.7C114.7 232.3 114.7 236.8 114.7 241.4C117 241.4 119.2 241.4 121.4 241.4C121.4 243.7 121.4 245.9 121.4 248.2C119.1 248.2 116.9 248.2 114.7 248.2C114.7 259.6 114.7 270.9 114.7 282.2C119.2 282.2 123.7 282.2 128.3 282.2C128.3 279.9 128.3 277.7 128.3 275.4C130.6 275.4 132.8 275.4 135.1 275.4C135.1 268.5 135.1 261.7 135.1 254.9C137.4 254.9 139.7 254.8 142 254.8C142 257.1 142 259.3 142 261.7C144.3 261.7 146.6 261.7 148.7 261.7C148.7 264 148.7 266.2 148.7 268.5C146.4 268.5 144.2 268.5 142 268.5C142 273.1 142 277.6 142 282.1C144.3 282.1 146.5 282.1 148.8 282.1C148.8 279.8 148.8 277.6 148.8 275.4C151.2 275.4 153.4 275.4 155.6 275.4C155.6 277.7 155.6 279.9 155.6 282.2C160.2 282.2 164.7 282.2 169.3 282.2C169.3 279.9 169.3 277.7 169.3 275.4C171.6 275.4 173.9 275.4 176.1 275.4C176.1 277.7 176.1 279.9 176.1 282.2C178.4 282.2 180.6 282.2 182.9 282.2C182.9 279.9 182.9 277.7 182.9 275.4C185.2 275.4 187.4 275.4 189.8 275.4C189.8 270.8 189.8 266.3 189.8 261.7C194.4 261.7 198.8 261.7 203.3 261.7C203.3 259.4 203.3 257.2 203.3 254.9C196.5 254.9 189.7 254.9 182.9 254.9C182.9 252.5 182.9 250.3 182.9 248.1C185.2 248.1 187.4 248.1 189.7 248.1C189.7 245.8 189.7 243.6 189.7 241.3C187.4 241.3 185.2 241.3 182.9 241.3C182.9 239 182.9 236.8 182.9 234.5C187.6 234.5 192 234.5 196.6 234.5C196.6 239.1 196.6 243.5 196.6 248.1C205.8 248.1 214.8 248.1 223.9 248.1C223.9 250.4 223.9 252.7 223.9 254.9C221.6 254.9 219.3 254.9 217 254.9C217 257.2 217 259.5 217 261.7C214.7 261.7 212.5 261.7 210.1 261.7C210.1 264 210.1 266.3 210.1 268.6C205.5 268.6 201.1 268.6 196.6 268.6C196.6 270.9 196.6 273.1 196.6 275.4C201.2 275.4 205.6 275.4 210.2 275.4C210.2 277.7 210.2 279.9 210.2 282.1C217 282.1 223.8 282.1 230.6 282.1C230.6 279.8 230.6 277.6 230.6 275.3C232.9 275.3 235.1 275.3 237.5 275.3C237.5 277.7 237.5 279.9 237.5 282.1C242.1 282.1 246.5 282.1 251 282.1C251 279.8 251 277.6 251 275.3C248.7 275.3 246.5 275.3 244.2 275.3C244.2 270.7 244.2 266.2 244.2 261.8C241.9 261.8 239.7 261.8 237.4 261.8C237.4 264.1 237.4 266.3 237.4 268.6C235 268.6 232.8 268.6 230.6 268.6C230.6 266.3 230.6 264.1 230.6 261.8C228.1 261.7 225.9 261.7 223.7 261.7ZM59.9 104.6C75.9 104.6 91.7 104.6 107.5 104.6C107.5 88.7001 107.5 72.8001 107.5 57.0001C91.6 57.0001 75.7 57.0001 59.9 57.0001C59.9 72.8001 59.9 88.6001 59.9 104.6ZM285.1 104.6C285.1 88.7001 285.1 72.8001 285.1 57.0001C269.2 57.0001 253.3 57.0001 237.5 57.0001C237.5 72.9001 237.5 88.8001 237.5 104.6C253.3 104.6 269.1 104.6 285.1 104.6ZM107.6 282.1C107.6 266.1 107.6 250.3 107.6 234.5C91.7 234.5 75.8 234.5 60 234.5C60 250.4 60 266.3 60 282.1C75.8 282.1 91.6 282.1 107.6 282.1ZM121.3 91.1001C119 91.1001 116.8 91.1001 114.6 91.1001C114.6 95.7001 114.6 100.1 114.6 104.6C116.9 104.6 119.1 104.6 121.3 104.6C121.3 100.1 121.3 95.6001 121.3 91.1001ZM257.7 159.2C257.7 156.9 257.7 154.7 257.7 152.5C255.4 152.5 253.2 152.5 251 152.5C251 154.8 251 156.9 251 159.2C253.3 159.2 255.5 159.2 257.7 159.2ZM59.9 159.3C59.9 161.6 59.9 163.8 59.9 166C62.2 166 64.4 166 66.6 166C66.6 163.7 66.6 161.6 66.6 159.3C64.4 159.3 62.2 159.3 59.9 159.3Z" fill="white"/>
<path d="M264.6 227.5C266.8 227.5 269.1 227.5 271.4 227.5C271.4 229.8 271.4 232 271.4 234.4C273.8 234.4 276 234.4 278.3 234.4C278.3 236.6 278.3 238.9 278.3 241.2C276 241.2 273.8 241.2 271.5 241.2C271.5 243.5 271.5 245.7 271.5 248C266.9 248 262.4 248 257.9 248C257.9 250.3 257.9 252.5 257.9 254.8C260.1 254.8 262.3 254.8 264.7 254.8C264.7 257.1 264.7 259.4 264.7 261.6C260.2 261.6 255.6 261.6 251 261.6C251 259.4 251 257.2 251 254.9C241.8 254.9 232.8 254.9 223.7 254.9C223.7 252.7 223.7 250.4 223.7 248.1C214.6 248.1 205.5 248.1 196.4 248.1C196.4 243.5 196.4 239 196.4 234.5C191.8 234.5 187.3 234.5 182.7 234.5C182.7 236.7 182.7 239 182.7 241.3C178.2 241.3 173.6 241.3 169 241.3C169 246 169 250.5 169 255C166.7 255 164.4 255 162.1 255C162.1 252.7 162.1 250.5 162.1 248.1C159.7 248.1 157.5 248.1 155.3 248.1C155.3 245.8 155.3 243.6 155.3 241.3C157.6 241.3 159.8 241.3 162.1 241.3C162.1 239 162.1 236.8 162.1 234.4C164.4 234.4 166.6 234.4 168.9 234.4C168.9 232.1 168.9 229.9 168.9 227.6C171.2 227.6 173.4 227.6 175.7 227.6C175.7 225.2 175.7 223 175.7 220.8C180.2 220.8 184.8 220.8 189.4 220.8C189.4 223.2 189.4 225.4 189.4 227.6C191.7 227.6 193.9 227.6 196.2 227.6C196.2 223.1 196.2 218.6 196.2 214C198.5 214 200.7 214 202.9 214C202.9 211.7 202.9 209.5 202.9 207.2C191.5 207.2 180.2 207.2 168.8 207.2C168.8 204.9 168.8 202.6 168.8 200.3C171.1 200.3 173.3 200.3 175.7 200.3C175.7 197.9 175.7 195.7 175.7 193.4C178 193.4 180.2 193.4 182.6 193.4C182.6 195.7 182.6 197.9 182.6 200.1C191.7 200.1 200.8 200.1 209.9 200.1C209.9 197.8 209.9 195.6 209.9 193.3C219 193.3 228.1 193.3 237.2 193.3C237.2 195.7 237.2 197.9 237.2 200.1C232.7 200.1 228.1 200.1 223.5 200.1C223.5 202.5 223.5 204.7 223.5 207C218.9 207 214.4 207 209.9 207C209.9 211.6 209.9 216.1 209.9 220.6C207.6 220.6 205.4 220.6 203.1 220.6C203.1 222.9 203.1 225.1 203.1 227.3C205.4 227.3 207.6 227.3 209.8 227.3C209.8 225 209.8 222.8 209.8 220.5C212.1 220.5 214.3 220.5 216.7 220.5C216.7 218.2 216.7 216 216.7 213.8C219 213.8 221.2 213.8 223.5 213.8C223.5 216.1 223.5 218.3 223.5 220.5C225.8 220.5 228 220.5 230.3 220.5C230.3 215.9 230.3 211.5 230.3 206.9C232.6 206.9 234.9 206.9 237.1 206.9C237.1 211.4 237.1 216 237.1 220.5C239.5 220.5 241.7 220.5 244 220.5C244 218.2 244 216 244 213.7C248.6 213.7 253.1 213.7 257.6 213.7C257.6 209.1 257.6 204.6 257.6 200.1C259.9 200.1 262.1 200.1 264.5 200.1C264.5 204.7 264.5 209.2 264.5 213.8C266.8 213.8 269.1 213.8 271.3 213.8C271.3 216 271.3 218.3 271.3 220.6C269.1 220.6 266.8 220.6 264.5 220.6C264.7 223 264.7 225.3 264.6 227.5C262.4 227.5 260.1 227.5 257.9 227.5C257.9 232.1 257.9 236.6 257.9 241.1C260.2 241.1 262.4 241.1 264.6 241.1C264.6 236.5 264.6 232 264.6 227.5ZM216.9 234.4C212.4 234.4 207.8 234.4 203.3 234.4C203.3 236.7 203.3 238.9 203.3 241.1C207.9 241.1 212.3 241.1 216.9 241.1C216.9 238.8 216.9 236.6 216.9 234.4C219.1 234.4 221.4 234.4 223.6 234.4C223.6 232.1 223.6 229.9 223.6 227.7C221.3 227.7 219.1 227.7 216.9 227.7C216.9 229.9 216.9 232.1 216.9 234.4ZM250.9 247.9C250.9 241 250.9 234.3 250.9 227.6C244.1 227.6 237.3 227.6 230.6 227.6C230.6 234.4 230.6 241.2 230.6 247.9C237.4 247.9 244.1 247.9 250.9 247.9Z" fill="black"/>
<path d="M237.3 152.4C237.3 154.6 237.3 156.9 237.3 159.2C239.6 159.2 241.8 159.2 244.1 159.2C244.1 161.6 244.1 163.8 244.1 166.1C241.8 166.1 239.6 166.1 237.2 166.1C237.2 168.5 237.2 170.7 237.2 173C234.9 173 232.7 173 230.3 173C230.3 175.4 230.3 177.6 230.3 179.9C223.5 179.9 216.7 179.9 209.8 179.9C209.8 184.6 209.8 189.1 209.8 193.6C207.5 193.6 205.3 193.6 202.9 193.6C202.9 191.3 202.9 189 202.9 186.7C200.6 186.7 198.4 186.7 196.1 186.7C196.1 184.4 196.1 182.2 196.1 180C191.5 180 187 180 182.4 180C182.4 182.3 182.4 184.5 182.4 186.8C180.1 186.8 177.9 186.8 175.6 186.8C175.6 189.2 175.6 191.4 175.6 193.6C173.3 193.6 171.1 193.6 168.7 193.6C168.7 196 168.7 198.2 168.7 200.5C166.4 200.5 164.2 200.5 161.8 200.5C161.8 195.9 161.8 191.4 161.8 186.8C159.5 186.8 157.3 186.8 155 186.8C155 182.2 155 177.8 155 173.2C150.4 173.2 146 173.2 141.5 173.2C141.5 168.6 141.5 164.1 141.5 159.6C143.8 159.6 146 159.6 148.3 159.6C148.3 161.9 148.3 164.1 148.3 166.5C159.8 166.5 171.1 166.5 182.5 166.5C182.5 168.8 182.5 171 182.5 173.2C184.8 173.2 187 173.2 189.3 173.2C189.3 170.9 189.3 168.7 189.3 166.5C191.6 166.5 193.8 166.5 196.1 166.5C196.1 168.8 196.1 171 196.1 173.2C200.7 173.2 205.2 173.2 209.6 173.2C209.6 170.9 209.6 168.7 209.6 166.4C207.3 166.4 205.1 166.4 202.8 166.4C202.8 164.1 202.8 161.9 202.8 159.6C200.5 159.6 198.3 159.6 196 159.6C196 157.3 196 155 196 152.8C193.7 152.8 191.5 152.8 189.2 152.8C189.2 155.1 189.2 157.3 189.2 159.5C184.6 159.5 180.1 159.5 175.6 159.5C175.6 157.2 175.6 155 175.6 152.7C177.9 152.7 180.1 152.7 182.4 152.7C182.4 150.3 182.4 148.1 182.4 145.9C184.6 145.9 186.9 145.9 189.2 145.9C189.2 143.6 189.2 141.4 189.2 139.1C191.6 139.1 193.8 139.1 196.1 139.1C196.1 141.4 196.1 143.6 196.1 146C200.8 146 205.3 146 209.8 146C209.8 150.5 209.8 155.1 209.8 159.7C214.4 159.7 218.9 159.7 223.5 159.7C223.5 162 223.5 164.2 223.5 166.4C225.8 166.4 228 166.4 230.3 166.4C230.3 161.9 230.3 157.4 230.3 152.8C232.9 152.4 235.1 152.4 237.3 152.4ZM162.3 173C162.3 175.3 162.3 177.5 162.3 179.7C164.6 179.7 166.8 179.7 169 179.7C169 177.4 169 175.2 169 173C166.7 173 164.6 173 162.3 173Z" fill="black"/>
<path d="M141.7 84.1999C143.9 84.1999 146.2 84.1999 148.5 84.1999C148.5 81.8999 148.5 79.6999 148.5 77.2999C153.1 77.2999 157.6 77.2999 162.1 77.2999C162.1 74.9999 162.1 72.7999 162.1 70.4999C159.9 70.4999 157.7 70.4999 155.4 70.4999C155.4 65.8999 155.4 61.3999 155.4 56.8999C157.6 56.8999 159.8 56.8999 162.1 56.8999C162.1 59.0999 162.1 61.2999 162.1 63.5999C164.4 63.5999 166.6 63.5999 168.9 63.5999C168.9 61.3999 168.9 59.1999 168.9 56.9999C187.1 56.9999 205.2 56.9999 223.5 56.9999C223.5 59.1999 223.5 61.3999 223.5 63.6999C216.8 63.6999 210 63.6999 203.2 63.6999C203.2 65.9999 203.2 68.1999 203.2 70.4999C205.4 70.4999 207.6 70.4999 209.9 70.4999C209.9 72.8999 209.9 75.0999 209.9 77.3999C207.6 77.3999 205.4 77.3999 203 77.3999C203 79.7999 203 81.9999 203 84.2999C200.7 84.2999 198.5 84.2999 196.1 84.2999C196.1 86.6999 196.1 88.8999 196.1 91.1999C191.6 91.1999 187 91.1999 182.4 91.1999C182.4 88.7999 182.4 86.5999 182.4 84.3999C184.7 84.3999 186.9 84.3999 189.2 84.3999C189.2 79.7999 189.2 75.2999 189.2 70.7999C191.5 70.7999 193.7 70.7999 196 70.7999C196 68.4999 196 66.2999 196 64.0999C193.7 64.0999 191.5 64.0999 189.3 64.0999C189.3 66.3999 189.3 68.5999 189.3 70.8999C187 70.8999 184.8 70.8999 182.4 70.8999C182.4 68.4999 182.4 66.2999 182.4 64.0999C180.1 64.0999 177.9 64.0999 175.6 64.0999C175.6 66.3999 175.6 68.5999 175.6 70.8999C173.3 70.8999 171.1 70.8999 168.8 70.8999C168.8 75.4999 168.8 79.9999 168.8 84.4999C164.3 84.4999 159.8 84.4999 155.2 84.4999C155.2 86.7999 155.2 88.9999 155.2 91.2999C150.6 91.2999 146.2 91.2999 141.5 91.2999C141.8 88.6999 141.8 86.3999 141.7 84.1999Z" fill="black"/>
<path d="M73.5 152.4C69 152.4 64.5 152.4 59.9 152.4C59.9 145.6 59.9 138.8 59.9 132C62.1 132 64.3 132 66.6 132C66.6 127.4 66.6 122.9 66.6 118.3C64.4 118.3 62.2 118.3 59.9 118.3C59.9 116 59.9 113.8 59.9 111.5C71.2 111.5 82.5 111.5 94 111.5C94 116 94 120.5 94 125.1C91.7 125.1 89.5 125.1 87.1 125.1C87.1 127.5 87.1 129.7 87.1 132C84.8 132 82.5 132 80.3 132C80.3 127.5 80.3 122.9 80.3 118.4C78 118.4 75.8 118.4 73.6 118.4C73.6 123 73.6 127.4 73.6 132C75.9 132 78.1 132 80.4 132C80.4 134.3 80.4 136.5 80.4 138.9C89.6 138.9 98.6 138.9 107.7 138.9C107.7 141.2 107.7 143.5 107.7 145.8C103.2 145.8 98.6 145.8 94 145.8C94 150.5 94 155 94 159.5C91.8 159.5 89.5 159.5 87.2 159.5C87.2 157.3 87.2 155 87.2 152.7C84.8 152.7 82.6 152.7 80.3 152.7C80.3 150.4 80.3 148.2 80.3 145.9C77.9 145.9 75.7 145.9 73.4 145.9C73.5 148 73.5 150.2 73.5 152.4Z" fill="black"/>
<path d="M59.9 104.6C59.9 88.7 59.9 72.9 59.9 57C75.8 57 91.6 57 107.5 57C107.5 72.8 107.5 88.7 107.5 104.6C91.7 104.6 75.9 104.6 59.9 104.6ZM66.7 97.7C78.1 97.7 89.4 97.7 100.7 97.7C100.7 86.3 100.7 75 100.7 63.7C89.3 63.7 78 63.7 66.7 63.7C66.7 75.1 66.7 86.4 66.7 97.7Z" fill="black"/>
<path d="M285.1 104.6C269.2 104.6 253.3 104.6 237.5 104.6C237.5 88.7 237.5 72.9 237.5 57C253.3 57 269.2 57 285.1 57C285.1 72.8 285.1 88.6 285.1 104.6ZM278.3 63.8C266.9 63.8 255.6 63.8 244.3 63.8C244.3 75.2 244.3 86.5 244.3 97.8C255.7 97.8 267 97.8 278.3 97.8C278.3 86.4 278.3 75.1 278.3 63.8Z" fill="black"/>
<path d="M107.6 282.1C91.7 282.1 75.9 282.1 60 282.1C60 266.2 60 250.4 60 234.5C75.8 234.5 91.7 234.5 107.6 234.5C107.6 250.3 107.6 266.1 107.6 282.1ZM100.8 241.3C89.4 241.3 78.1 241.3 66.8 241.3C66.8 252.7 66.8 264 66.8 275.3C78.2 275.3 89.5 275.3 100.8 275.3C100.8 263.9 100.8 252.6 100.8 241.3Z" fill="black"/>
<path d="M182.7 248C182.7 250.2 182.7 252.5 182.7 254.8C189.5 254.8 196.3 254.8 203.1 254.8C203.1 257.1 203.1 259.3 203.1 261.6C198.6 261.6 194.1 261.6 189.6 261.6C189.6 266.2 189.6 270.6 189.6 275.3C187.2 275.3 185 275.3 182.7 275.3C182.7 270.8 182.7 266.2 182.7 261.7C180.3 261.7 178.1 261.7 175.8 261.7C175.8 266.3 175.8 270.8 175.8 275.3C173.6 275.3 171.3 275.3 169 275.3C169 277.6 169 279.8 169 282.1C164.4 282.1 159.9 282.1 155.3 282.1C155.3 279.8 155.3 277.6 155.3 275.3C157.6 275.3 159.8 275.3 162.1 275.3C162.1 273 162.1 270.8 162.1 268.6C159.8 268.6 157.6 268.6 155.4 268.6C155.4 270.9 155.4 273.1 155.4 275.4C153.2 275.4 150.9 275.4 148.6 275.4C148.6 277.7 148.6 279.9 148.6 282.1C146.3 282.1 144.1 282.1 141.8 282.1C141.8 277.6 141.8 273.2 141.8 268.5C144 268.5 146.2 268.5 148.5 268.5C148.5 266.2 148.5 264 148.5 261.7C146.3 261.7 144.1 261.7 141.8 261.7C141.8 259.3 141.8 257.1 141.8 254.8C148.6 254.8 155.5 254.8 162.3 254.8C162.3 257.1 162.3 259.3 162.3 261.6C164.7 261.6 166.9 261.6 169.2 261.6C169.2 259.3 169.2 257.1 169.2 254.8C171.5 254.8 173.7 254.8 176.1 254.8C176.1 252.4 176.1 250.2 176.1 248C178.3 248 180.5 248 182.7 248Z" fill="black"/>
<path d="M134.9 254.9C134.9 261.7 134.9 268.4 134.9 275.4C132.6 275.4 130.3 275.4 128.1 275.4C128.1 273.1 128.1 270.9 128.1 268.6C125.8 268.6 123.6 268.6 121.4 268.6C121.4 270.9 121.4 273.1 121.4 275.3C123.7 275.3 125.9 275.3 128.2 275.3C128.2 277.5 128.2 279.8 128.2 282.1C123.6 282.1 119.1 282.1 114.6 282.1C114.6 270.8 114.6 259.5 114.6 248.1C116.8 248.1 119 248.1 121.3 248.1C121.3 245.8 121.3 243.6 121.3 241.3C119.1 241.3 116.9 241.3 114.6 241.3C114.6 236.7 114.6 232.2 114.6 227.6C116.8 227.6 119.1 227.6 121.3 227.6C121.3 229.9 121.3 232.1 121.3 234.4C123.7 234.4 125.9 234.4 128.2 234.4C128.2 232.1 128.2 229.9 128.2 227.6C130.5 227.6 132.7 227.6 135.1 227.6C135.1 229.9 135.1 232.2 135.1 234.4C139.7 234.4 144.1 234.4 148.6 234.4C148.6 236.7 148.6 238.9 148.6 241.2C146.3 241.2 144.1 241.2 141.8 241.2C141.8 245.8 141.8 250.3 141.8 254.8C139.5 254.8 137.2 254.9 134.9 254.9C134.9 250.4 134.9 245.9 134.9 241.3C132.6 241.3 130.4 241.3 128.1 241.3C128.1 245.9 128.1 250.4 128.1 254.9C125.8 254.9 123.6 254.9 121.3 254.9C121.3 257.2 121.3 259.4 121.3 261.6C123.6 261.6 125.8 261.6 128 261.6C128 259.3 128 257.1 128 254.8C130.4 254.8 132.7 254.8 134.9 254.9Z" fill="black"/>
<path d="M80.4 200.2C75.8 200.2 71.3 200.2 66.7 200.2C66.7 198 66.7 195.7 66.7 193.4C64.4 193.4 62.2 193.4 59.9 193.4C59.9 191.1 59.9 188.9 59.9 186.6C62.1 186.6 64.3 186.6 66.6 186.6C66.6 184.3 66.6 182.1 66.6 179.8C64.4 179.8 62.2 179.8 59.9 179.8C59.9 177.5 59.9 175.3 59.9 173C64.4 173 68.8 173 73.4 173C73.4 170.7 73.4 168.5 73.4 166.2C75.7 166.2 77.9 166.2 80.2 166.2C80.2 168.4 80.2 170.6 80.2 172.9C84.8 172.9 89.3 172.9 93.9 172.9C93.9 168.4 93.9 163.9 93.9 159.3C96.2 159.3 98.5 159.3 100.8 159.3C100.8 161.6 100.8 163.8 100.8 166.2C103.2 166.2 105.4 166.2 107.6 166.2C107.6 168.5 107.6 170.7 107.6 173.1C105.3 173.1 103.1 173.1 100.8 173.1C100.8 175.4 100.8 177.7 100.8 179.9C98.5 179.9 96.3 179.9 93.9 179.9C93.9 182.3 93.9 184.5 93.9 186.8C89.3 186.8 84.8 186.8 80.3 186.8C80.3 184.5 80.3 182.3 80.3 180C78 180 75.8 180 73.6 180C73.6 182.3 73.6 184.5 73.6 186.7C75.9 186.7 78.1 186.7 80.4 186.7C80.4 191.1 80.3 195.7 80.4 200.2Z" fill="black"/>
<path d="M169.2 125.2C169.2 123 169.2 120.7 169.2 118.4C160.1 118.4 151 118.4 141.9 118.4C141.9 111.5 141.9 104.8 141.9 97.9003C144.1 97.9003 146.3 97.9003 148.6 97.9003C148.6 102.4 148.6 106.9 148.6 111.4C150.9 111.4 153.1 111.4 155.4 111.4C155.4 106.9 155.4 102.4 155.4 97.8003C157.8 97.8003 160 97.8003 162.3 97.8003C162.3 100.1 162.3 102.3 162.3 104.6C164.7 104.6 166.9 104.6 169.2 104.6C169.2 106.9 169.2 109.1 169.2 111.4C173.8 111.4 178.3 111.4 182.9 111.4C182.9 106.8 182.9 102.3 182.9 97.9003C185.2 97.9003 187.4 97.9003 189.7 97.9003C189.7 100.2 189.7 102.4 189.7 104.7C192.1 104.7 194.3 104.7 196.5 104.7C196.5 107 196.5 109.3 196.5 111.6C194.2 111.6 192 111.6 189.6 111.6C189.6 114 189.6 116.2 189.6 118.5C187.4 118.5 185.2 118.5 182.8 118.5C182.8 120.8 182.8 123 182.8 125.4C178.2 125.1 173.6 125.1 169.2 125.2Z" fill="black"/>
<path d="M128.1 145.6C125.9 145.6 123.6 145.6 121.3 145.6C121.3 136.5 121.3 127.5 121.3 118.4C114.4 118.4 107.7 118.4 100.9 118.4C100.9 116.1 100.9 113.9 100.9 111.6C112.2 111.6 123.5 111.6 134.9 111.6C134.9 113.8 134.9 116 134.9 118.3C132.7 118.3 130.5 118.3 128.2 118.3C128.2 122.9 128.2 127.4 128.2 131.9C130.4 131.9 132.6 131.9 134.9 131.9C134.9 129.7 134.9 127.5 134.9 125.2C139.5 125.2 144 125.2 148.5 125.2C148.5 127.4 148.5 129.6 148.5 131.9C146.3 131.9 144.1 131.9 141.7 131.9C141.7 136.6 141.7 141.1 141.7 145.6C139.4 145.6 137.1 145.6 134.8 145.6C134.8 143.3 134.8 141.1 134.8 138.8C132.4 138.8 130.2 138.8 127.9 138.8C128.1 141.2 128.1 143.4 128.1 145.6Z" fill="black"/>
<path d="M216.9 125.1C216.9 127.3 216.9 129.6 216.9 131.9C221.5 131.9 226 131.9 230.5 131.9C230.5 129.7 230.5 127.5 230.5 125.2C232.8 125.2 235 125.2 237.4 125.2C237.4 122.8 237.4 120.6 237.4 118.3C239.7 118.3 242 118.3 244.3 118.3C244.3 125.1 244.3 132 244.3 138.8C242 138.8 239.8 138.8 237.4 138.8C237.4 141.2 237.4 143.4 237.4 145.7C235.1 145.7 232.9 145.7 230.5 145.7C230.5 143.4 230.5 141.2 230.5 139C225.9 139 221.4 139 216.9 139C216.9 141.3 216.9 143.5 216.9 145.8C214.6 145.8 212.3 145.8 210 145.8C210 143.5 210 141.3 210 138.9C205.3 138.9 200.8 138.9 196.3 138.9C196.3 136.7 196.3 134.4 196.3 132.1C200.8 132.1 205.3 132.1 209.9 132.1C209.9 129.8 209.9 127.6 209.9 125.2C212.4 125.1 214.6 125.1 216.9 125.1Z" fill="black"/>
<path d="M257.8 172.9C260 172.9 262.3 172.9 264.6 172.9C264.6 177.5 264.6 182 264.6 186.6C262.3 186.6 260.1 186.6 257.7 186.6C257.7 191.3 257.7 195.8 257.7 200.3C255.4 200.3 253.2 200.3 250.8 200.3C250.8 202.7 250.8 204.9 250.8 207.1C246.2 207.1 241.7 207.1 237.2 207.1C237.2 204.8 237.2 202.5 237.2 200.2C239.5 200.2 241.7 200.2 244.1 200.2C244.1 197.8 244.1 195.6 244.1 193.3C246.4 193.3 248.6 193.3 250.8 193.3C250.8 191 250.8 188.8 250.8 186.5C244 186.5 237.2 186.5 230.4 186.5C230.4 184.2 230.4 181.9 230.4 179.7C232.7 179.7 234.9 179.7 237.3 179.7C237.3 177.3 237.3 175.1 237.3 172.8C239.6 172.8 241.9 172.8 244.2 172.8C244.2 175.1 244.2 177.3 244.2 179.6C248.8 179.6 253.3 179.6 257.9 179.6C257.8 177.3 257.8 175.1 257.8 172.9Z" fill="black"/>
<path d="M128.1 84.0999C123.6 84.0999 119.1 84.0999 114.5 84.0999C114.5 81.7999 114.5 79.5999 114.5 77.2999C116.7 77.2999 118.9 77.2999 121.2 77.2999C121.2 74.9999 121.2 72.7999 121.2 70.4999C119 70.4999 116.8 70.4999 114.5 70.4999C114.5 68.1999 114.5 65.9999 114.5 63.6999C116.7 63.6999 118.9 63.6999 121.2 63.6999C121.2 61.3999 121.2 59.1999 121.2 56.8999C123.5 56.8999 125.7 56.8999 128 56.8999C128 61.3999 128 65.7999 128 70.3999C130.3 70.3999 132.5 70.3999 134.9 70.3999C134.9 68.1999 134.9 65.9999 134.9 63.6999C139.5 63.6999 143.9 63.6999 148.5 63.6999C148.5 65.8999 148.5 68.0999 148.5 70.4999C146.3 70.4999 144.1 70.4999 141.7 70.4999C141.7 75.1999 141.7 79.6999 141.7 84.1999C139.4 84.1999 137.2 84.1999 134.9 84.1999C134.9 81.8999 134.9 79.6999 134.9 77.3999C132.5 77.3999 130.3 77.3999 128 77.3999C128.1 79.6999 128.1 81.9999 128.1 84.0999Z" fill="black"/>
<path d="M141.8 145.6C144 145.6 146.3 145.6 148.6 145.6C148.6 143.3 148.6 141.1 148.6 138.8C150.9 138.8 153.1 138.8 155.4 138.8C155.4 134.2 155.4 129.8 155.4 125.2C160 125.2 164.6 125.2 169.2 125.2C169.2 127.5 169.2 129.7 169.2 132C166.9 132 164.7 132 162.3 132C162.3 136.6 162.3 141.1 162.3 145.7C160 145.7 157.8 145.7 155.6 145.7C155.6 148 155.6 150.2 155.6 152.5C160.1 152.5 164.6 152.5 169.1 152.5C169.1 154.8 169.1 157 169.1 159.3C162.2 159.3 155.5 159.3 148.7 159.3C148.7 157 148.7 154.8 148.7 152.4C146.3 152.4 144.1 152.4 141.9 152.4C141.8 150 141.8 147.8 141.8 145.6Z" fill="black"/>
<path d="M216.9 91.0001C216.9 97.8001 216.9 104.6 216.9 111.5C212.3 111.5 207.8 111.5 203.2 111.5C203.2 109.2 203.2 106.9 203.2 104.6C205.5 104.6 207.7 104.6 210 104.6C210 102.3 210 100.1 210 97.9001C207.7 97.9001 205.5 97.9001 203.3 97.9001C203.3 100.2 203.3 102.4 203.3 104.7C201 104.7 198.7 104.7 196.4 104.7C196.4 100.1 196.4 95.6001 196.4 91.0001C198.7 91.0001 200.9 91.0001 203.3 91.0001C203.3 88.6001 203.3 86.4001 203.3 84.1001C205.6 84.1001 207.9 84.1001 210.2 84.1001C210.2 86.4001 210.2 88.6001 210.2 91.0001C212.4 91.0001 214.7 91.0001 216.9 91.0001Z" fill="black"/>
<path d="M121.3 220.7C119.1 220.7 116.8 220.7 114.5 220.7C114.5 218.4 114.5 216.2 114.5 213.9C109.8 213.9 105.3 213.9 100.8 213.9C100.8 211.6 100.8 209.3 100.8 207C105.3 207 109.9 207 114.5 207C114.5 202.3 114.5 197.9 114.5 193.4C116.8 193.4 119 193.4 121.3 193.4C121.3 195.7 121.3 197.9 121.3 200.1C125.9 200.1 130.4 200.1 134.9 200.1C134.9 202.4 134.9 204.6 134.9 207C130.2 207 125.8 207 121.2 207C121.3 211.7 121.3 216.2 121.3 220.7Z" fill="black"/>
<path d="M230.5 275.3C230.5 277.5 230.5 279.8 230.5 282.1C223.7 282.1 216.9 282.1 210.1 282.1C210.1 279.9 210.1 277.7 210.1 275.4C205.5 275.4 201 275.4 196.5 275.4C196.5 273.1 196.5 270.9 196.5 268.6C201 268.6 205.4 268.6 210 268.6C210 266.3 210 264.1 210 261.7C212.4 261.7 214.6 261.7 216.9 261.7C216.9 266.2 216.9 270.8 216.9 275.4C221.5 275.3 226 275.3 230.5 275.3Z" fill="black"/>
<path d="M264.6 138.8C264.6 141 264.6 143.3 264.6 145.6C257.7 145.6 250.9 145.6 244.1 145.6C244.1 143.3 244.1 141 244.1 138.7C246.3 138.7 248.6 138.7 250.9 138.7C250.9 134.1 250.9 129.7 250.9 125C255.6 125 260.1 125 264.6 125C264.6 127.3 264.6 129.6 264.6 131.9C262.3 131.9 260.1 131.9 257.8 131.9C257.8 134.3 257.8 136.5 257.8 138.8C260.2 138.8 262.4 138.8 264.6 138.8Z" fill="black"/>
<path d="M223.7 90.9999C221.4 90.9999 219.1 90.9999 216.8 90.9999C216.8 88.6999 216.8 86.4999 216.8 84.0999C214.4 84.0999 212.2 84.0999 209.9 84.0999C209.9 81.7999 209.9 79.4999 209.9 77.1999C212.1 77.1999 214.4 77.1999 216.7 77.1999C216.7 74.8999 216.7 72.6999 216.7 70.3999C219 70.3999 221.2 70.3999 223.5 70.3999C223.5 72.5999 223.5 74.7999 223.5 77.0999C225.8 77.0999 228 77.0999 230.3 77.0999C230.3 79.3999 230.3 81.5999 230.3 83.8999C228.1 83.8999 225.9 83.8999 223.5 83.8999C223.7 86.4999 223.7 88.6999 223.7 90.9999Z" fill="black"/>
<path d="M114.5 152.4C116.7 152.4 119 152.4 121.3 152.4C121.3 154.6 121.3 156.9 121.3 159.2C123.7 159.2 125.9 159.2 128.2 159.2C128.2 161.5 128.2 163.8 128.2 166.1C125.9 166.1 123.7 166.1 121.4 166.1C121.4 168.5 121.4 170.7 121.4 172.9C119.1 172.9 116.9 172.9 114.5 172.9C114.5 170.5 114.5 168.3 114.5 166C112.2 166 109.9 166 107.7 166C107.7 163.7 107.7 161.4 107.7 159.1C110 159.1 112.2 159.1 114.6 159.1C114.5 156.9 114.5 154.6 114.5 152.4Z" fill="black"/>
<path d="M230.5 268.5C232.7 268.5 235 268.5 237.3 268.5C237.3 266.2 237.3 264 237.3 261.7C239.6 261.7 241.8 261.7 244.1 261.7C244.1 266.2 244.1 270.6 244.1 275.2C246.4 275.2 248.6 275.2 250.9 275.2C250.9 277.5 250.9 279.7 250.9 282C246.4 282 242 282 237.4 282C237.4 279.8 237.4 277.6 237.4 275.2C235 275.2 232.8 275.2 230.5 275.2C230.5 273 230.5 270.7 230.5 268.5Z" fill="black"/>
<path d="M264.6 118.3C266.8 118.3 269.1 118.3 271.4 118.3C271.4 116 271.4 113.8 271.4 111.5C273.7 111.5 275.9 111.5 278.2 111.5C278.2 113.7 278.2 115.9 278.2 118.2C280.5 118.2 282.7 118.2 285 118.2C285 120.5 285 122.7 285 125C282.8 125 280.6 125 278.3 125C278.3 127.3 278.3 129.5 278.3 131.8C275.9 131.8 273.7 131.8 271.4 131.8C271.4 129.5 271.4 127.3 271.4 124.9C269 124.9 266.8 124.9 264.5 124.9C264.7 122.9 264.7 120.6 264.6 118.3Z" fill="black"/>
<path d="M66.7 200.2C66.7 209.2 66.7 218.3 66.7 227.4C64.5 227.4 62.3 227.4 60 227.4C60 218.4 60 209.4 60 200.2C62.2 200.2 64.5 200.2 66.7 200.2Z" fill="black"/>
<path d="M271.5 193.4C273.7 193.4 276 193.4 278.3 193.4C278.3 195.7 278.3 197.9 278.3 200.2C280.6 200.2 282.8 200.2 285.1 200.2C285.1 202.5 285.1 204.7 285.1 207C282.9 207 280.7 207 278.4 207C278.4 209.3 278.4 211.5 278.4 213.9C276 213.9 273.8 213.9 271.5 213.9C271.5 207 271.5 200.2 271.5 193.4Z" fill="black"/>
<path d="M271.5 275.3C267 275.3 262.5 275.3 257.9 275.3C257.9 273 257.9 270.8 257.9 268.5C260.1 268.5 262.3 268.5 264.7 268.5C264.7 266.1 264.7 263.9 264.7 261.6C269.2 261.6 273.7 261.6 278.3 261.6C278.3 263.9 278.3 266.1 278.3 268.4C276.1 268.4 273.9 268.4 271.5 268.4C271.5 270.8 271.5 273.1 271.5 275.3Z" fill="black"/>
<path d="M271.5 186.6C271.5 183 271.4 179.3 271.4 175.7C271.4 172.5 271.4 169.3 271.4 166.1C273.6 166.1 275.9 166.1 278.2 166.1C278.2 168.4 278.2 170.6 278.2 172.9C280.5 172.9 282.7 172.9 285 172.9C285 175.2 285 177.4 285 179.7C282.8 179.7 280.6 179.7 278.3 179.7C278.3 182 278.3 184.2 278.3 186.6C276 186.6 273.8 186.6 271.5 186.6Z" fill="black"/>
<path d="M134.9 84.1001C134.9 90.9001 134.9 97.7001 134.9 104.5C132.6 104.5 130.4 104.5 128.1 104.5C128.1 97.7001 128.1 90.9001 128.1 84.1001C130.4 84.2001 132.7 84.2001 134.9 84.1001Z" fill="black"/>
<path d="M271.5 159.3C271.5 154.8 271.5 150.2 271.5 145.6C276 145.6 280.5 145.6 285 145.6C285 147.8 285 150 285 152.3C282.8 152.3 280.6 152.3 278.3 152.3C278.3 154.6 278.3 156.8 278.3 159.2C276 159.3 273.8 159.3 271.5 159.3Z" fill="black"/>
<path d="M203.2 111.4C203.2 115.9 203.2 120.4 203.2 125C198.7 125 194.2 125 189.6 125C189.6 122.8 189.6 120.5 189.6 118.2C191.9 118.2 194.1 118.2 196.5 118.2C196.5 115.8 196.5 113.6 196.5 111.3C198.7 111.5 200.9 111.5 203.2 111.4Z" fill="black"/>
<path d="M80.3 213.9C80.3 216.1 80.3 218.4 80.3 220.7C82.6 220.7 84.8 220.7 87.1 220.7C87.1 223 87.1 225.2 87.1 227.5C82.6 227.5 78.2 227.5 73.6 227.5C73.6 223.1 73.6 218.6 73.6 214C75.8 213.9 78.1 213.9 80.3 213.9Z" fill="black"/>
<path d="M128.1 159.3C128.1 154.7 128.1 150.2 128.1 145.6C130.4 145.6 132.7 145.6 135 145.6C135 150.1 135 154.7 135 159.3C132.6 159.2 130.3 159.2 128.1 159.3Z" fill="black"/>
<path d="M80.4 213.9C80.4 209.3 80.4 204.8 80.4 200.2C82.7 200.2 85 200.2 87.3 200.2C87.3 204.7 87.3 209.2 87.3 213.9C84.8 213.9 82.6 213.9 80.4 213.9Z" fill="black"/>
<path d="M278.3 234.4C278.3 229.9 278.3 225.4 278.3 220.8C280.5 220.8 282.7 220.8 285 220.8C285 225.3 285 229.7 285 234.4C282.8 234.3 280.5 234.3 278.3 234.4Z" fill="black"/>
<path d="M223.7 91C225.9 91 228.2 91 230.5 91C230.5 95.5 230.5 100 230.5 104.6C228.3 104.6 226.1 104.6 223.8 104.6C223.7 100 223.7 95.5 223.7 91Z" fill="black"/>
<path d="M94 125.1C98.5 125.1 103 125.1 107.7 125.1C107.7 127.4 107.7 129.7 107.7 131.9C103.2 131.9 98.6 131.9 94 131.9C94 129.6 94 127.3 94 125.1Z" fill="black"/>
<path d="M121.3 91.1001C121.3 95.6001 121.3 100.1 121.3 104.6C119.1 104.6 116.9 104.6 114.6 104.6C114.6 100.1 114.6 95.7001 114.6 91.1001C116.7 91.1001 118.9 91.1001 121.3 91.1001Z" fill="black"/>
<path d="M244.2 166.1C248.7 166.1 253.2 166.1 257.9 166.1C257.9 168.4 257.9 170.7 257.9 172.9C253.3 172.9 248.8 172.9 244.2 172.9C244.2 170.6 244.2 168.3 244.2 166.1Z" fill="black"/>
<path d="M169.1 91.0001C169.1 88.7001 169.1 86.4001 169.1 84.1001C171.4 84.1001 173.7 84.1001 176 84.1001C176 86.4001 176 88.6001 176 90.9001C173.5 91.0001 171.3 91.0001 169.1 91.0001Z" fill="black"/>
<path d="M162.3 97.8C162.3 95.6 162.3 93.3 162.3 91C164.6 91 166.9 91 169.1 91C169.1 93.3 169.1 95.6 169.1 97.9C166.8 97.8 164.5 97.8 162.3 97.8Z" fill="black"/>
<path d="M237.4 118.3C235.2 118.3 232.9 118.3 230.6 118.3C230.6 116.1 230.6 113.8 230.6 111.6C232.8 111.6 235 111.6 237.3 111.6C237.3 113.8 237.3 116.1 237.4 118.3Z" fill="black"/>
<path d="M244.2 118.3C244.2 116.1 244.2 113.8 244.2 111.5C246.4 111.5 248.7 111.5 250.9 111.5C250.9 113.7 250.9 115.9 250.9 118.2C248.7 118.3 246.4 118.3 244.2 118.3Z" fill="black"/>
<path d="M264.7 118.3C262.5 118.3 260.2 118.3 257.9 118.3C257.9 116.1 257.9 113.8 257.9 111.6C260.1 111.6 262.3 111.6 264.6 111.6C264.6 113.8 264.6 116.1 264.7 118.3Z" fill="black"/>
<path d="M216.9 125.1C216.9 122.9 216.9 120.6 216.9 118.3C219.1 118.3 221.4 118.3 223.6 118.3C223.6 120.5 223.6 122.7 223.6 125C221.4 125.1 219.1 125.1 216.9 125.1Z" fill="black"/>
<path d="M107.6 132C109.8 132 112.1 132 114.4 132C114.4 134.3 114.4 136.5 114.4 138.8C112.1 138.8 109.9 138.8 107.6 138.8C107.7 136.5 107.7 134.2 107.6 132Z" fill="black"/>
<path d="M169.1 132C171.3 132 173.6 132 175.9 132C175.9 134.3 175.9 136.6 175.9 138.8C173.6 138.8 171.4 138.8 169.1 138.8C169.1 136.4 169.1 134.2 169.1 132Z" fill="black"/>
<path d="M257.7 159.2C255.4 159.2 253.3 159.2 251 159.2C251 157 251 154.8 251 152.5C253.2 152.5 255.4 152.5 257.7 152.5C257.7 154.7 257.7 156.9 257.7 159.2Z" fill="black"/>
<path d="M100.8 207C98.6 207 96.3 207 94 207C94 204.7 94 202.4 94 200.2C96.3 200.2 98.6 200.2 100.9 200.2C100.8 202.5 100.8 204.8 100.8 207Z" fill="black"/>
<path d="M100.8 213.8C100.8 216.1 100.8 218.4 100.8 220.7C98.6 220.7 96.3 220.7 94 220.7C94 218.4 94 216.2 94 213.9C96.3 213.9 98.6 213.9 100.8 213.8Z" fill="black"/>
<path d="M100.8 220.7C103 220.7 105.3 220.7 107.6 220.7C107.6 222.9 107.6 225.2 107.6 227.4C105.4 227.4 103.2 227.4 100.9 227.4C100.8 225.2 100.8 222.9 100.8 220.7Z" fill="black"/>
<path d="M121.3 227.5C121.3 225.2 121.3 222.9 121.3 220.6C123.6 220.6 125.9 220.6 128.2 220.6C128.2 222.9 128.2 225.2 128.2 227.5C125.9 227.5 123.6 227.5 121.3 227.5Z" fill="black"/>
<path d="M264.6 186.6C266.9 186.6 269.2 186.6 271.5 186.6C271.5 188.9 271.5 191.1 271.5 193.4C269.2 193.4 267 193.4 264.7 193.4C264.7 191 264.7 188.8 264.6 186.6Z" fill="black"/>
<path d="M94 200.2C91.7 200.2 89.4 200.2 87.1 200.2C87.1 197.9 87.1 195.7 87.1 193.4C89.4 193.4 91.6 193.4 93.9 193.4C94 195.8 94 198 94 200.2Z" fill="black"/>
<path d="M80.3 152.4C80.3 154.6 80.3 156.9 80.3 159.2C78 159.2 75.8 159.2 73.5 159.2C73.5 156.9 73.5 154.7 73.5 152.4C75.8 152.4 78.1 152.4 80.3 152.4Z" fill="black"/>
<path d="M59.9 159.3C62.2 159.3 64.4 159.3 66.6 159.3C66.6 161.5 66.6 163.7 66.6 166C64.4 166 62.2 166 59.9 166C59.9 163.8 59.9 161.6 59.9 159.3Z" fill="black"/>
<path d="M244.2 145.6C244.2 147.8 244.2 150.1 244.2 152.4C241.9 152.4 239.6 152.4 237.4 152.4C237.4 150.1 237.4 147.8 237.4 145.5C239.6 145.6 241.9 145.6 244.2 145.6Z" fill="black"/>
<path d="M182.7 241.2C184.9 241.2 187.2 241.2 189.5 241.2C189.5 243.5 189.5 245.7 189.5 248C187.2 248 185 248 182.7 248C182.8 245.7 182.8 243.4 182.7 241.2Z" fill="black"/>
<path d="M271.5 166.1C269.3 166.1 267.1 166.1 264.7 166.1C264.7 163.9 264.7 161.7 264.7 159.3C266.9 159.3 269.2 159.3 271.5 159.3C271.5 161.6 271.5 163.8 271.5 166.1Z" fill="black"/>
<path d="M216.9 261.7C216.9 259.5 216.9 257.3 216.9 254.9C219.2 254.9 221.5 254.9 223.8 254.9C223.8 257.2 223.8 259.4 223.8 261.7C221.4 261.6 219.1 261.6 216.9 261.7Z" fill="black"/>
<path d="M107.6 145.6C109.8 145.6 112.1 145.6 114.4 145.6C114.4 147.9 114.4 150.2 114.4 152.4C112.1 152.4 109.8 152.4 107.5 152.4C107.6 150.2 107.7 147.9 107.6 145.6Z" fill="black"/>
<path d="M175.9 138.8C178.1 138.8 180.4 138.8 182.7 138.8C182.7 141.1 182.7 143.4 182.7 145.6C180.4 145.6 178.2 145.6 175.9 145.6C175.9 143.2 175.9 141 175.9 138.8Z" fill="black"/>
<path d="M223.7 261.7C225.9 261.7 228.2 261.7 230.5 261.7C230.5 264 230.5 266.3 230.5 268.5C228.2 268.5 226 268.5 223.7 268.5C223.7 266.1 223.7 263.9 223.7 261.7Z" fill="black"/>
<path d="M271.5 131.9C271.5 134.1 271.5 136.4 271.5 138.7C269.2 138.7 266.9 138.7 264.7 138.7C264.7 136.4 264.7 134.1 264.7 131.8C266.9 132 269.2 132 271.5 131.9Z" fill="black"/>
<path d="M182.7 275.3C182.7 277.5 182.7 279.8 182.7 282.1C180.4 282.1 178.2 282.1 175.9 282.1C175.9 279.8 175.9 277.6 175.9 275.3C178.2 275.3 180.5 275.3 182.7 275.3Z" fill="black"/>
<path d="M271.5 275.3C273.7 275.3 276 275.3 278.3 275.3C278.3 277.5 278.3 279.8 278.3 282C276.1 282 273.9 282 271.6 282C271.5 279.8 271.5 277.5 271.5 275.3Z" fill="black"/>
<path d="M128.1 227.5C128.1 225.2 128.1 222.9 128.1 220.6C130.4 220.6 132.6 220.6 134.9 220.6C134.9 218.3 134.9 216.1 134.9 213.9C132.6 213.9 130.4 213.9 128.2 213.9C128.2 216.2 128.2 218.4 128.2 220.7C125.9 220.7 123.6 220.7 121.3 220.7C121.3 216.2 121.3 211.7 121.3 207.1C125.9 207.1 130.3 207.1 135 207.1C135 204.7 135 202.5 135 200.2C137.3 200.2 139.6 200.2 141.9 200.2C141.9 202.5 141.9 204.7 141.9 207.1C144.3 207.1 146.5 207.1 148.7 207.1C148.7 209.4 148.7 211.6 148.7 213.9C146.4 213.9 144.2 213.9 142 213.9C142 218.5 142 223 142 227.5C144.3 227.5 146.5 227.5 148.8 227.5C148.8 225.2 148.8 223 148.8 220.7C151.2 220.7 153.4 220.7 155.6 220.7C155.6 223 155.6 225.2 155.6 227.5C157.9 227.5 160.1 227.5 162.4 227.5C162.4 225.2 162.4 223 162.4 220.7C167 220.7 171.5 220.7 176.1 220.7C176.1 222.9 176.1 225.2 176.1 227.5C173.8 227.5 171.6 227.5 169.3 227.5C169.3 229.8 169.3 232 169.3 234.3C167 234.3 164.8 234.3 162.5 234.3C162.5 236.6 162.5 238.8 162.5 241.2C160.2 241.2 158 241.2 155.7 241.2C155.7 243.5 155.7 245.7 155.7 248C157.9 248 160.1 248 162.5 248C162.5 250.4 162.5 252.6 162.5 254.9C155.7 254.9 148.8 254.9 142 254.9C142 250.4 142 245.9 142 241.3C144.3 241.3 146.5 241.3 148.8 241.3C148.8 239 148.8 236.8 148.8 234.5C144.3 234.5 139.8 234.5 135.3 234.5C135.3 232.2 135.3 230 135.3 227.7C132.6 227.5 130.4 227.5 128.1 227.5Z" fill="white"/>
<path d="M128.1 159.2C130.3 159.2 132.6 159.2 134.9 159.2C134.9 154.6 134.9 150.1 134.9 145.5C137.2 145.5 139.5 145.5 141.8 145.5C141.8 147.7 141.8 150 141.8 152.3C144.1 152.3 146.3 152.3 148.6 152.3C148.6 154.7 148.6 156.9 148.6 159.2C146.4 159.2 144.1 159.2 141.8 159.2C141.8 163.7 141.8 168.2 141.8 172.8C146.3 172.8 150.8 172.8 155.3 172.8C155.3 177.4 155.3 181.8 155.3 186.4C157.6 186.4 159.8 186.4 162.1 186.4C162.1 191 162.1 195.5 162.1 200.1C164.5 200.1 166.7 200.1 169 200.1C169 202.4 169 204.7 169 207C164.5 207 159.9 207 155.3 207C155.3 204.7 155.3 202.5 155.3 200.2C150.7 200.2 146.2 200.2 141.7 200.2C141.7 195.7 141.7 191.1 141.7 186.5C144 186.5 146.3 186.5 148.4 186.5C148.4 184.2 148.4 182 148.4 179.7C141.6 179.7 134.8 179.7 128 179.7C128 177.3 128 175.1 128 172.9C130.3 172.9 132.5 172.9 134.8 172.9C134.8 170.5 134.8 168.3 134.8 166C132.5 166 130.3 166 128 166C128.1 163.8 128.1 161.5 128.1 159.2Z" fill="white"/>
<path d="M175.9 193.4C175.9 191.2 175.9 188.9 175.9 186.6C178.2 186.6 180.4 186.6 182.7 186.6C182.7 184.3 182.7 182.1 182.7 179.8C187.3 179.8 191.8 179.8 196.4 179.8C196.4 182 196.4 184.2 196.4 186.5C198.7 186.5 200.9 186.5 203.2 186.5C203.2 188.8 203.2 191 203.2 193.4C205.6 193.4 207.8 193.4 210.1 193.4C210.1 195.6 210.1 197.9 210.1 200.2C201 200.2 192 200.2 182.8 200.2C182.8 198 182.8 195.8 182.8 193.5C180.4 193.4 178.2 193.4 175.9 193.4Z" fill="white"/>
<path d="M230.5 179.7C230.5 181.9 230.5 184.2 230.5 186.5C237.3 186.5 244.1 186.5 250.9 186.5C250.9 188.8 250.9 191 250.9 193.3C248.7 193.3 246.5 193.3 244.2 193.3C244.2 195.6 244.2 197.8 244.2 200.2C241.8 200.2 239.6 200.2 237.3 200.2C237.3 198 237.3 195.7 237.3 193.4C228.2 193.4 219.1 193.4 210 193.4C210 188.9 210 184.4 210 179.7C216.9 179.7 223.7 179.7 230.5 179.7Z" fill="white"/>
<path d="M169.1 207.1C180.4 207.1 191.7 207.1 203.2 207.1C203.2 209.3 203.2 211.5 203.2 213.9C201 213.9 198.8 213.9 196.5 213.9C196.5 218.5 196.5 223 196.5 227.5C194.2 227.5 192 227.5 189.7 227.5C189.7 225.3 189.7 223.1 189.7 220.7C185 220.7 180.5 220.7 176 220.7C176 218.4 176 216.2 176 213.8C173.6 213.8 171.4 213.8 169.2 213.8C169.1 211.5 169.1 209.2 169.1 207.1Z" fill="white"/>
<path d="M250.9 247.9C244.1 247.9 237.4 247.9 230.6 247.9C230.6 241.1 230.6 234.4 230.6 227.6C237.3 227.6 244.1 227.6 250.9 227.6C250.9 234.3 250.9 241.1 250.9 247.9ZM237.4 241.1C239.6 241.1 241.9 241.1 244.1 241.1C244.1 238.9 244.1 236.6 244.1 234.5C241.8 234.5 239.6 234.5 237.4 234.5C237.4 236.7 237.4 238.8 237.4 241.1Z" fill="white"/>
<path d="M237.4 200.2C237.4 202.5 237.4 204.8 237.4 207.1C235.2 207.1 232.9 207.1 230.6 207.1C230.6 211.6 230.6 216.1 230.6 220.7C228.3 220.7 226.1 220.7 223.8 220.7C223.8 218.5 223.8 216.3 223.8 214C221.5 214 219.3 214 217 214C217 216.2 217 218.4 217 220.7C214.6 220.7 212.4 220.7 210.1 220.7C210.1 216.2 210.1 211.7 210.1 207.1C214.6 207.1 219.1 207.1 223.7 207.1C223.7 204.8 223.7 202.6 223.7 200.2C228.3 200.2 232.8 200.2 237.4 200.2Z" fill="white"/>
<path d="M237.3 207C241.8 207 246.3 207 250.9 207C250.9 204.8 250.9 202.5 250.9 200.2C253.3 200.2 255.5 200.2 257.8 200.2C257.8 204.7 257.8 209.2 257.8 213.8C253.2 213.8 248.7 213.8 244.2 213.8C244.2 216.1 244.2 218.3 244.2 220.6C241.9 220.6 239.7 220.6 237.3 220.6C237.3 216.1 237.3 211.6 237.3 207Z" fill="white"/>
<path d="M264.7 186.5C264.7 188.7 264.7 191 264.7 193.3C267 193.3 269.3 193.3 271.5 193.3C271.5 200.1 271.5 207 271.5 213.8C269.3 213.8 267 213.8 264.7 213.8C264.7 209.2 264.7 204.8 264.7 200.1C262.3 200.1 260.1 200.1 257.8 200.1C257.8 195.6 257.8 191.1 257.8 186.4C260.2 186.5 262.4 186.5 264.7 186.5Z" fill="white"/>
<path d="M182.8 241.2C182.8 243.5 182.8 245.8 182.8 248.1C180.6 248.1 178.3 248.1 176 248.1C176 250.4 176 252.6 176 254.9C173.6 254.9 171.4 254.9 169.1 254.9C169.1 250.4 169.1 245.9 169.1 241.2C173.7 241.2 178.2 241.2 182.8 241.2Z" fill="white"/>
<path d="M264.6 227.5C264.6 232 264.6 236.5 264.6 241.1C262.4 241.1 260.2 241.1 257.9 241.1C257.9 236.6 257.9 232.2 257.9 227.5C260.2 227.5 262.4 227.5 264.6 227.5Z" fill="white"/>
<path d="M216.9 234.3C216.9 236.5 216.9 238.8 216.9 241.1C212.4 241.1 207.9 241.1 203.3 241.1C203.3 238.9 203.3 236.7 203.3 234.4C207.8 234.4 212.4 234.4 216.9 234.3Z" fill="white"/>
<path d="M210 220.7C210 222.9 210 225.2 210 227.5C207.8 227.5 205.5 227.5 203.3 227.5C203.3 225.3 203.3 223.1 203.3 220.8C205.6 220.7 207.8 220.7 210 220.7Z" fill="white"/>
<path d="M216.9 234.4C216.9 232.2 216.9 229.9 216.9 227.6C219.1 227.6 221.4 227.6 223.6 227.6C223.6 229.8 223.6 232 223.6 234.3C221.4 234.3 219.1 234.3 216.9 234.4Z" fill="white"/>
<path d="M169.1 254.8C169.1 257 169.1 259.3 169.1 261.6C166.8 261.6 164.6 261.6 162.2 261.6C162.2 259.3 162.2 257.1 162.2 254.8C164.5 254.8 166.8 254.8 169.1 254.8Z" fill="white"/>
<path d="M169.1 200.2C169.1 198 169.1 195.7 169.1 193.3C171.4 193.3 173.7 193.3 176 193.3C176 195.5 176 197.8 176 200.2C173.6 200.2 171.3 200.2 169.1 200.2Z" fill="white"/>
<path d="M175.9 138.8C175.9 141 175.9 143.3 175.9 145.6C178.2 145.6 180.5 145.6 182.7 145.6C182.7 147.8 182.7 150.1 182.7 152.4C180.4 152.4 178.2 152.4 175.9 152.4C175.9 154.7 175.9 156.9 175.9 159.2C180.4 159.2 184.9 159.2 189.5 159.2C189.5 157 189.5 154.8 189.5 152.5C191.8 152.5 194 152.5 196.3 152.5C196.3 154.7 196.3 156.9 196.3 159.3C198.6 159.3 200.8 159.3 203.1 159.3C203.1 161.6 203.1 163.8 203.1 166.1C205.4 166.1 207.6 166.1 209.9 166.1C209.9 168.4 209.9 170.6 209.9 172.9C205.5 172.9 201 172.9 196.4 172.9C196.4 170.7 196.4 168.5 196.4 166.2C194.1 166.2 191.9 166.2 189.6 166.2C189.6 168.4 189.6 170.6 189.6 172.9C187.3 172.9 185.1 172.9 182.8 172.9C182.8 170.7 182.8 168.5 182.8 166.2C171.4 166.2 160.1 166.2 148.6 166.2C148.6 163.8 148.6 161.6 148.6 159.3C155.4 159.3 162.1 159.3 169 159.3C169 157.1 169 154.8 169 152.5C164.5 152.5 160 152.5 155.5 152.5C155.5 150.2 155.5 148 155.5 145.7C157.7 145.7 159.9 145.7 162.2 145.7C162.2 141.1 162.2 136.6 162.2 132C164.6 132 166.8 132 169.1 132C169.1 134.2 169.1 136.5 169.1 138.8C171.4 138.8 173.7 138.8 175.9 138.8Z" fill="white"/>
<path d="M237.4 145.6C237.4 147.9 237.4 150.2 237.4 152.5C235.2 152.5 232.9 152.5 230.6 152.5C230.6 157 230.6 161.5 230.6 166.1C228.3 166.1 226.1 166.1 223.8 166.1C223.8 163.9 223.8 161.7 223.8 159.4C219.2 159.4 214.8 159.4 210.1 159.4C210.1 154.7 210.1 150.2 210.1 145.7C212.4 145.7 214.7 145.7 217 145.7C217 148 217 150.2 217 152.5C219.3 152.5 221.5 152.5 223.7 152.5C223.7 150.2 223.7 148 223.7 145.8C221.4 145.8 219.2 145.8 216.9 145.8C216.9 143.6 216.9 141.3 216.9 139C221.5 139 225.9 139 230.5 139C230.5 141.2 230.5 143.4 230.5 145.7C232.9 145.6 235.1 145.6 237.4 145.6Z" fill="white"/>
<path d="M196.4 138.8C200.9 138.8 205.4 138.8 210.1 138.8C210.1 141.1 210.1 143.4 210.1 145.7C205.6 145.7 201.1 145.7 196.4 145.7C196.4 143.3 196.4 141 196.4 138.8Z" fill="white"/>
<path d="M237.4 172.9C237.4 175.1 237.4 177.4 237.4 179.8C235.1 179.8 232.8 179.8 230.5 179.8C230.5 177.6 230.5 175.3 230.5 172.9C232.9 172.9 235.1 172.9 237.4 172.9Z" fill="white"/>
<path d="M162.3 173C164.5 173 166.7 173 169 173C169 175.2 169 177.4 169 179.7C166.8 179.7 164.6 179.7 162.3 179.7C162.3 177.4 162.3 175.2 162.3 173Z" fill="white"/>
<path d="M244.2 166.1C244.2 168.4 244.2 170.7 244.2 173C241.9 173 239.6 173 237.3 173C237.3 170.8 237.3 168.5 237.3 166.1C239.7 166.1 241.9 166.1 244.2 166.1Z" fill="white"/>
<path d="M169.1 97.8001C169.1 95.5001 169.1 93.2001 169.1 90.9001C171.3 90.9001 173.6 90.9001 176 90.9001C176 88.6001 176 86.3001 176 84.1001C178.3 84.1001 180.6 84.1001 182.9 84.1001C182.9 86.3001 182.9 88.6001 182.9 90.9001C187.5 90.9001 192.1 90.9001 196.6 90.9001C196.6 95.5001 196.6 100 196.6 104.6C194.4 104.6 192.1 104.6 189.8 104.6C189.8 102.3 189.8 100.1 189.8 97.8001C187.5 97.8001 185.3 97.8001 183 97.8001C183 102.2 183 106.7 183 111.3C178.4 111.3 173.9 111.3 169.3 111.3C169.3 109.1 169.3 106.8 169.3 104.5C171.6 104.5 173.8 104.5 176.1 104.5C176.1 102.1 176.1 99.9001 176.1 97.6001C173.5 97.8001 171.3 97.8001 169.1 97.8001Z" fill="white"/>
<path d="M175.9 84.1002C173.6 84.1002 171.3 84.1002 169 84.1002C169 79.6002 169 75.1002 169 70.5002C171.3 70.5002 173.5 70.5002 175.8 70.5002C175.8 68.2002 175.8 66.0002 175.8 63.7002C178.1 63.7002 180.3 63.7002 182.6 63.7002C182.6 65.9002 182.6 68.1002 182.6 70.5002C185 70.5002 187.2 70.5002 189.5 70.5002C189.5 75.0002 189.5 79.5002 189.5 84.1002C187.2 84.1002 184.9 84.1002 182.7 84.1002C182.7 81.8002 182.7 79.6002 182.7 77.3002C180.3 77.3002 178.1 77.3002 175.8 77.3002C175.9 79.7002 175.9 82.0002 175.9 84.1002Z" fill="white"/>
<path d="M189.6 70.5002C189.6 68.3002 189.6 66.0002 189.6 63.7002C191.8 63.7002 194.1 63.7002 196.3 63.7002C196.3 65.9002 196.3 68.1002 196.3 70.4002C194.1 70.5002 191.8 70.5002 189.6 70.5002Z" fill="white"/>
<path d="M210.1 77.3003C210.1 79.6003 210.1 81.9003 210.1 84.2003C207.8 84.2003 205.5 84.2003 203.2 84.2003C203.2 82.0003 203.2 79.7003 203.2 77.3003C205.5 77.3003 207.8 77.3003 210.1 77.3003Z" fill="white"/>
<path d="M203.2 84.1001C203.2 86.3001 203.2 88.6001 203.2 91.0001C200.9 91.0001 198.6 91.0001 196.3 91.0001C196.3 88.8001 196.3 86.5001 196.3 84.1001C198.7 84.1001 201 84.1001 203.2 84.1001Z" fill="white"/>
<path d="M107.7 131.9C107.7 134.2 107.7 136.5 107.7 138.8C98.6 138.8 89.6 138.8 80.4 138.8C80.4 136.5 80.4 134.2 80.4 131.9C82.6 131.9 84.9 131.9 87.2 131.9C87.2 129.6 87.2 127.4 87.2 125C89.6 125 91.8 125 94.1 125C94.1 127.2 94.1 129.5 94.1 131.8C98.6 131.9 103.1 131.9 107.7 131.9Z" fill="white"/>
<path d="M107.7 145.6C107.7 147.9 107.7 150.2 107.7 152.5C105.4 152.5 103.2 152.5 100.8 152.5C100.8 154.9 100.8 157.1 100.8 159.4C98.5 159.4 96.2 159.4 93.9 159.4C93.9 154.9 93.9 150.4 93.9 145.7C98.6 145.6 103.1 145.6 107.7 145.6Z" fill="white"/>
<path d="M80.4 131.9C78.2 131.9 75.9 131.9 73.6 131.9C73.6 127.4 73.6 122.9 73.6 118.3C75.8 118.3 78 118.3 80.3 118.3C80.3 122.9 80.3 127.4 80.4 131.9Z" fill="white"/>
<path d="M80.4 152.4C78.1 152.4 75.8 152.4 73.5 152.4C73.5 150.2 73.5 147.9 73.5 145.6C75.8 145.6 78 145.6 80.4 145.6C80.4 147.9 80.4 150.2 80.4 152.4Z" fill="white"/>
<path d="M66.7 97.7002C66.7 86.3002 66.7 75.1002 66.7 63.7002C78 63.7002 89.3 63.7002 100.7 63.7002C100.7 75.0002 100.7 86.3002 100.7 97.7002C89.5 97.7002 78.1 97.7002 66.7 97.7002ZM73.6 90.9002C80.4 90.9002 87.2 90.9002 93.9 90.9002C93.9 84.1002 93.9 77.3002 93.9 70.6002C87.1 70.6002 80.3 70.6002 73.6 70.6002C73.6 77.4002 73.6 84.1002 73.6 90.9002Z" fill="white"/>
<path d="M278.3 63.8003C278.3 75.2003 278.3 86.4003 278.3 97.8003C267 97.8003 255.7 97.8003 244.3 97.8003C244.3 86.5003 244.3 75.2003 244.3 63.8003C255.5 63.8003 266.9 63.8003 278.3 63.8003ZM271.4 90.9003C271.4 84.1003 271.4 77.3003 271.4 70.6003C264.6 70.6003 257.8 70.6003 251.1 70.6003C251.1 77.4003 251.1 84.2003 251.1 90.9003C257.9 90.9003 264.6 90.9003 271.4 90.9003Z" fill="white"/>
<path d="M100.8 241.3C100.8 252.7 100.8 263.9 100.8 275.3C89.5 275.3 78.2 275.3 66.8 275.3C66.8 264 66.8 252.7 66.8 241.3C78.1 241.3 89.4 241.3 100.8 241.3ZM73.6 248C73.6 254.9 73.6 261.6 73.6 268.3C80.4 268.3 87.2 268.3 93.9 268.3C93.9 261.5 93.9 254.7 93.9 248C87.1 248 80.4 248 73.6 248Z" fill="white"/>
<path d="M182.8 275.3C180.5 275.3 178.2 275.3 175.9 275.3C175.9 270.8 175.9 266.3 175.9 261.7C178.2 261.7 180.4 261.7 182.8 261.7C182.8 266.3 182.8 270.8 182.8 275.3Z" fill="white"/>
<path d="M155.4 275.3C155.4 273.1 155.4 270.8 155.4 268.5C157.6 268.5 159.8 268.5 162.1 268.5C162.1 270.7 162.1 272.9 162.1 275.2C159.9 275.3 157.7 275.3 155.4 275.3Z" fill="white"/>
<path d="M128.1 254.8C128.1 250.3 128.1 245.8 128.1 241.2C130.4 241.2 132.6 241.2 134.9 241.2C134.9 245.8 134.9 250.3 134.9 254.8C132.7 254.8 130.4 254.8 128.1 254.8Z" fill="white"/>
<path d="M121.3 227.5C123.6 227.5 125.9 227.5 128.2 227.5C128.2 229.7 128.2 232 128.2 234.3C125.9 234.3 123.7 234.3 121.3 234.3C121.3 232 121.3 229.8 121.3 227.5Z" fill="white"/>
<path d="M128.1 254.8C128.1 257 128.1 259.3 128.1 261.6C125.9 261.6 123.7 261.6 121.4 261.6C121.4 259.4 121.4 257.2 121.4 254.9C123.6 254.8 125.9 254.8 128.1 254.8Z" fill="white"/>
<path d="M128.1 275.3C125.9 275.3 123.6 275.3 121.3 275.3C121.3 273.1 121.3 270.8 121.3 268.6C123.5 268.6 125.7 268.6 128 268.6C128.1 270.8 128.1 273.1 128.1 275.3Z" fill="white"/>
<path d="M94 200.2C94 198 94 195.7 94 193.4C91.7 193.4 89.5 193.4 87.2 193.4C87.2 195.7 87.2 197.9 87.2 200.2C84.9 200.2 82.6 200.2 80.3 200.2C80.3 195.6 80.3 191.1 80.3 186.5C84.8 186.5 89.3 186.5 93.9 186.5C93.9 184.2 93.9 182 93.9 179.6C96.3 179.6 98.5 179.6 100.8 179.6C100.8 181.9 100.8 184.1 100.8 186.4C103.1 186.4 105.3 186.4 107.5 186.4C107.5 184.1 107.5 181.9 107.5 179.7C105.2 179.7 103 179.7 100.7 179.7C100.7 177.5 100.7 175.2 100.7 172.9C103 172.9 105.2 172.9 107.5 172.9C107.5 170.5 107.5 168.3 107.5 166C109.7 166 112 166 114.3 166C114.3 168.3 114.3 170.5 114.3 172.9C116.7 172.9 118.9 172.9 121.2 172.9C121.2 177.4 121.2 182 121.2 186.6C123.6 186.6 125.8 186.6 128.1 186.6C128.1 188.9 128.1 191.1 128.1 193.4C130.4 193.4 132.6 193.4 134.9 193.4C134.9 195.8 134.9 198 134.9 200.2C130.4 200.2 125.9 200.2 121.3 200.2C121.3 197.9 121.3 195.7 121.3 193.5C119 193.5 116.8 193.5 114.5 193.5C114.5 198 114.5 202.4 114.5 207.1C109.8 207.1 105.3 207.1 100.8 207.1C100.8 204.8 100.8 202.5 100.8 200.2C103.1 200.2 105.3 200.2 107.6 200.2C107.6 197.9 107.6 195.7 107.6 193.5C105.3 193.5 103.1 193.5 100.9 193.5C100.9 195.8 100.9 198 100.9 200.3C98.6 200.2 96.3 200.2 94 200.2Z" fill="white"/>
<path d="M107.6 159.2C107.6 161.5 107.6 163.8 107.6 166.1C105.4 166.1 103.1 166.1 100.8 166.1C100.8 163.8 100.8 161.5 100.8 159.2C103.1 159.3 105.4 159.3 107.6 159.2Z" fill="white"/>
<path d="M80.4 186.5C78.2 186.5 75.9 186.5 73.6 186.5C73.6 184.3 73.6 182 73.6 179.8C75.8 179.8 78 179.8 80.3 179.8C80.3 182.1 80.3 184.3 80.4 186.5Z" fill="white"/>
<path d="M162.2 97.8003C164.5 97.8003 166.8 97.8003 169.1 97.8003C169.1 100.1 169.1 102.4 169.1 104.7C166.9 104.7 164.6 104.7 162.2 104.7C162.2 102.3 162.2 100.1 162.2 97.8003Z" fill="white"/>
<path d="M203.2 111.5C200.9 111.5 198.6 111.5 196.3 111.5C196.3 109.2 196.3 106.9 196.3 104.6C198.6 104.6 200.9 104.6 203.2 104.6C203.2 106.9 203.2 109.2 203.2 111.5Z" fill="white"/>
<path d="M196.4 111.5C196.4 113.7 196.4 116 196.4 118.4C194.1 118.4 191.8 118.4 189.5 118.4C189.5 116.2 189.5 113.9 189.5 111.5C191.9 111.5 194.2 111.5 196.4 111.5Z" fill="white"/>
<path d="M135 145.6C132.7 145.6 130.4 145.6 128.1 145.6C128.1 143.4 128.1 141.1 128.1 138.8C130.4 138.8 132.6 138.8 135 138.8C135 141.1 135 143.4 135 145.6Z" fill="white"/>
<path d="M244.2 145.6C241.9 145.6 239.6 145.6 237.3 145.6C237.3 143.4 237.3 141.1 237.3 138.7C239.6 138.7 241.9 138.7 244.2 138.7C244.2 141 244.2 143.3 244.2 145.6Z" fill="white"/>
<path d="M244.2 172.9C248.8 172.9 253.3 172.9 257.9 172.9C257.9 175.1 257.9 177.4 257.9 179.7C253.3 179.7 248.9 179.7 244.2 179.7C244.2 177.4 244.2 175.1 244.2 172.9Z" fill="white"/>
<path d="M135 84.1999C132.7 84.1999 130.4 84.1999 128.1 84.1999C128.1 81.9999 128.1 79.6999 128.1 77.3999C130.4 77.3999 132.6 77.3999 135 77.3999C135 79.6999 135 81.8999 135 84.1999Z" fill="white"/>
<path d="M210 84.1001C212.2 84.1001 214.5 84.1001 216.9 84.1001C216.9 86.4001 216.9 88.7001 216.9 91.0001C214.7 91.0001 212.4 91.0001 210 91.0001C210 88.7001 210 86.4001 210 84.1001Z" fill="white"/>
<path d="M203.2 104.7C203.2 102.5 203.2 100.2 203.2 97.8999C205.4 97.8999 207.7 97.8999 209.9 97.8999C209.9 100.1 209.9 102.3 209.9 104.6C207.7 104.6 205.5 104.6 203.2 104.7Z" fill="white"/>
<path d="M223.7 261.6C223.7 263.8 223.7 266.1 223.7 268.4C226 268.4 228.3 268.4 230.5 268.4C230.5 270.7 230.5 273 230.5 275.3C226 275.3 221.5 275.3 216.8 275.3C216.8 270.7 216.8 266.1 216.8 261.6C219.1 261.6 221.4 261.6 223.7 261.6Z" fill="white"/>
<path d="M271.5 132C269.2 132 266.9 132 264.6 132C264.6 129.7 264.6 127.4 264.6 125.1C266.8 125.1 269.1 125.1 271.5 125.1C271.5 127.4 271.5 129.7 271.5 132Z" fill="white"/>
<path d="M264.7 131.9C264.7 134.2 264.7 136.5 264.7 138.8C262.5 138.8 260.2 138.8 257.9 138.8C257.9 136.5 257.9 134.3 257.9 131.9C260.2 131.9 262.4 131.9 264.7 131.9Z" fill="white"/>
<path d="M107.6 152.4C109.9 152.4 112.2 152.4 114.5 152.4C114.5 154.6 114.5 156.9 114.5 159.2C112.2 159.2 109.9 159.2 107.6 159.2C107.7 157 107.7 154.7 107.6 152.4Z" fill="white"/>
<path d="M121.3 172.9C121.3 170.7 121.3 168.4 121.3 166.1C123.6 166.1 125.9 166.1 128.1 166.1C128.1 168.4 128.1 170.7 128.1 173C125.9 172.9 123.6 172.9 121.3 172.9Z" fill="white"/>
<path d="M169.1 207C169.1 209.2 169.1 211.5 169.1 213.8C171.4 213.8 173.6 213.8 175.9 213.8C175.9 216.2 175.9 218.4 175.9 220.7C171.3 220.7 166.8 220.7 162.2 220.7C162.2 218.4 162.2 216.2 162.2 213.9C159.8 213.9 157.6 213.9 155.3 213.9C155.3 216.2 155.3 218.4 155.3 220.7C153.1 220.7 150.8 220.7 148.5 220.7C148.5 223 148.5 225.2 148.5 227.5C146.2 227.5 144 227.5 141.7 227.5C141.7 223 141.7 218.6 141.7 213.9C143.9 213.9 146.1 213.9 148.4 213.9C148.4 211.6 148.4 209.4 148.4 207.1C146.2 207.1 144 207.1 141.6 207.1C141.6 204.7 141.6 202.5 141.6 200.2C146.1 200.2 150.6 200.2 155.2 200.2C155.2 202.5 155.2 204.7 155.2 207C160 207 164.6 207 169.1 207Z" fill="black"/>
<path d="M121.3 172.9C123.6 172.9 125.9 172.9 128.2 172.9C128.2 175.1 128.2 177.4 128.2 179.7C135 179.7 141.8 179.7 148.6 179.7C148.6 182 148.6 184.2 148.6 186.5C146.4 186.5 144.2 186.5 141.9 186.5C141.9 191.2 141.9 195.7 141.9 200.2C139.6 200.2 137.3 200.2 135 200.2C135 198 135 195.7 135 193.4C132.7 193.4 130.5 193.4 128.2 193.4C128.2 191.1 128.2 188.9 128.2 186.6C125.9 186.6 123.7 186.6 121.3 186.6C121.3 182 121.3 177.4 121.3 172.9Z" fill="black"/>
<path d="M128.1 220.7C128.1 218.5 128.1 216.2 128.1 213.9C130.3 213.9 132.6 213.9 134.8 213.9C134.8 216.1 134.8 218.3 134.8 220.6C132.6 220.7 130.4 220.7 128.1 220.7Z" fill="black"/>
<path d="M162.2 220.7C162.2 222.9 162.2 225.2 162.2 227.5C159.9 227.5 157.7 227.5 155.4 227.5C155.4 225.2 155.4 223 155.4 220.7C157.7 220.7 160 220.7 162.2 220.7Z" fill="black"/>
<path d="M128.1 172.9C128.1 170.6 128.1 168.3 128.1 166C130.3 166 132.6 166 134.9 166C134.9 168.3 134.9 170.5 134.9 172.9C132.6 172.9 130.4 172.9 128.1 172.9Z" fill="black"/>
<path d="M237.4 241.1C237.4 238.9 237.4 236.7 237.4 234.5C239.6 234.5 241.8 234.5 244.1 234.5C244.1 236.7 244.1 238.9 244.1 241.1C241.9 241.1 239.6 241.1 237.4 241.1Z" fill="black"/>
<path d="M216.9 145.6C219.1 145.6 221.4 145.6 223.7 145.6C223.7 147.8 223.7 150.1 223.7 152.3C221.5 152.3 219.3 152.3 217 152.3C216.9 150.1 216.9 147.8 216.9 145.6Z" fill="black"/>
<path d="M175.9 84.1999C175.9 81.9999 175.9 79.6999 175.9 77.3999C178.2 77.3999 180.4 77.3999 182.8 77.3999C182.8 79.6999 182.8 81.8999 182.8 84.1999C180.5 84.1999 178.2 84.1999 175.9 84.1999Z" fill="black"/>
<path d="M169.1 104.7C169.1 102.4 169.1 100.1 169.1 97.8003C171.3 97.8003 173.6 97.8003 175.9 97.8003C175.9 100.1 175.9 102.3 175.9 104.7C173.6 104.7 171.3 104.7 169.1 104.7Z" fill="black"/>
<path d="M107.7 152.4C107.7 154.7 107.7 157 107.7 159.3C105.4 159.3 103.1 159.3 100.8 159.3C100.8 157.1 100.8 154.8 100.8 152.4C103.2 152.4 105.4 152.4 107.7 152.4Z" fill="black"/>
<path d="M73.6 90.9001C73.6 84.1001 73.6 77.4001 73.6 70.6001C80.4 70.6001 87.1 70.6001 93.9 70.6001C93.9 77.3001 93.9 84.1001 93.9 90.9001C87.2 90.9001 80.4 90.9001 73.6 90.9001Z" fill="black"/>
<path d="M271.4 90.9001C264.6 90.9001 257.9 90.9001 251.1 90.9001C251.1 84.1001 251.1 77.4001 251.1 70.6001C257.8 70.6001 264.6 70.6001 271.4 70.6001C271.4 77.3001 271.4 84.1001 271.4 90.9001Z" fill="black"/>
<path d="M73.6 248C80.4 248 87.1 248 93.9 248C93.9 254.8 93.9 261.5 93.9 268.3C87.2 268.3 80.4 268.3 73.6 268.3C73.6 261.7 73.6 254.9 73.6 248Z" fill="black"/>
<path d="M100.8 179.7C103 179.7 105.3 179.7 107.6 179.7C107.6 181.9 107.6 184.2 107.6 186.4C105.4 186.4 103.2 186.4 100.9 186.4C100.8 184.2 100.8 182 100.8 179.7Z" fill="black"/>
<path d="M100.8 200.2C100.8 198 100.8 195.7 100.8 193.4C103 193.4 105.2 193.4 107.5 193.4C107.5 195.6 107.5 197.8 107.5 200.1C105.3 200.2 103.1 200.2 100.8 200.2Z" fill="black"/>
<path d="M162.3 220.7C160 220.7 157.7 220.7 155.4 220.7C155.4 218.5 155.4 216.2 155.4 213.9C157.7 213.9 159.9 213.9 162.3 213.9C162.3 216.2 162.3 218.5 162.3 220.7Z" fill="white"/>
</g>
<defs>
<clipPath id="clip0_392_412">
<rect width="345" height="410" fill="white"/>
</clipPath>
</defs>
</svg>