<?xml version="1.0" encoding="utf-8"?>
<!-- Generator: Adobe Illustrator 25.2.3, SVG Export Plug-In . SVG Version: 6.00 Build 0)  -->
<svg version="1.1" id="BACKGROUND_2" xmlns="http://www.w3.org/2000/svg" xmlns:xlink="http://www.w3.org/1999/xlink" x="0px"
	 y="0px" viewBox="0 0 750 500" style="enable-background:new 0 0 750 500;" xml:space="preserve">
<style type="text/css">
	.st0{clip-path:url(#XMLID_2_);fill:url(#XMLID_3_);}
	.st1{filter:url(#Adobe_OpacityMaskFilter);}
	.st2{clip-path:url(#XMLID_2_);fill:url(#XMLID_5_);}
	.st3{clip-path:url(#XMLID_2_);mask:url(#XMLID_4_);}
	.st4{fill:#FFFFFF;}
	.st5{fill:none;stroke:#FFFFFF;stroke-width:0.753;stroke-miterlimit:10;}
	.st6{fill:none;stroke:#FFFFFF;stroke-width:0.927;stroke-miterlimit:10;}
</style>
<g>
	<g>
		<defs>
			<rect id="XMLID_147_" width="750" height="500"/>
		</defs>
		<clipPath id="XMLID_2_">
			<use xlink:href="#XMLID_147_"  style="overflow:visible;"/>
		</clipPath>
		<linearGradient id="XMLID_3_" gradientUnits="userSpaceOnUse" x1="159.3765" y1="598.5851" x2="590.6235" y2="-98.5851">
			<stop  offset="0" style="stop-color:#E200B2"/>
			<stop  offset="0.2313" style="stop-color:#E429C7"/>
			<stop  offset="0.5912" style="stop-color:#E762E5"/>
			<stop  offset="0.8579" style="stop-color:#E886F8"/>
			<stop  offset="1" style="stop-color:#E994FF"/>
		</linearGradient>
		<rect id="XMLID_171_" class="st0" width="750" height="500"/>
		<defs>
			<filter id="Adobe_OpacityMaskFilter" filterUnits="userSpaceOnUse" x="101.4" y="-16.1" width="589.9" height="507.6">
				<feColorMatrix  type="matrix" values="1 0 0 0 0  0 1 0 0 0  0 0 1 0 0  0 0 0 1 0"/>
			</filter>
		</defs>
		<mask maskUnits="userSpaceOnUse" x="101.4" y="-16.1" width="589.9" height="507.6" id="XMLID_4_">
			<g id="XMLID_150_" class="st1">
				<radialGradient id="XMLID_5_" cx="374.6667" cy="247.6667" r="244" gradientUnits="userSpaceOnUse">
					<stop  offset="0" style="stop-color:#FFFFFF"/>
					<stop  offset="9.580918e-02" style="stop-color:#EFEFEF"/>
					<stop  offset="0.282" style="stop-color:#C7C7C7"/>
					<stop  offset="0.54" style="stop-color:#858585"/>
					<stop  offset="0.8566" style="stop-color:#2B2B2B"/>
					<stop  offset="1" style="stop-color:#000000"/>
				</radialGradient>
				<circle id="XMLID_151_" class="st2" cx="374.7" cy="247.7" r="244"/>
			</g>
		</mask>
		<g id="XMLID_149_" class="st3">
			<path id="XMLID_170_" class="st4" d="M249.1,123.4c0,1.9-1.6,3.5-3.5,3.5c-1.9,0-3.5-1.6-3.5-3.5c0-1.9,1.6-3.5,3.5-3.5
				C247.5,119.9,249.1,121.4,249.1,123.4z"/>
			<path id="XMLID_169_" class="st4" d="M280.2,13.4c0,1.9-1.6,3.5-3.5,3.5c-1.9,0-3.5-1.6-3.5-3.5c0-1.9,1.6-3.5,3.5-3.5
				C278.6,9.9,280.2,11.5,280.2,13.4z"/>
			<path id="XMLID_168_" class="st4" d="M114.5,56.9c0,1.9-1.6,3.5-3.5,3.5c-1.9,0-3.5-1.6-3.5-3.5s1.6-3.5,3.5-3.5
				C112.9,53.4,114.5,55,114.5,56.9z"/>
			<path id="XMLID_167_" class="st4" d="M525.5,91.3c0,1.3-1.1,2.4-2.4,2.4c-1.3,0-2.4-1.1-2.4-2.4c0-1.3,1.1-2.4,2.4-2.4
				C524.5,88.9,525.5,90,525.5,91.3z"/>
			<circle id="XMLID_166_" class="st4" cx="571.7" cy="-13.8" r="2.4"/>
			<circle id="XMLID_165_" class="st4" cx="672.9" cy="137.2" r="2.4"/>
			<circle id="XMLID_164_" class="st4" cx="233.5" cy="390.2" r="2.4"/>
			<path id="XMLID_163_" class="st4" d="M106.1,446.7c0,1.3-1.1,2.4-2.4,2.4c-1.3,0-2.4-1.1-2.4-2.4c0-1.3,1.1-2.4,2.4-2.4
				C105,444.3,106.1,445.4,106.1,446.7z"/>
			<path id="XMLID_162_" class="st4" d="M373,489.1c0,1.3-1.1,2.4-2.4,2.4c-1.3,0-2.4-1.1-2.4-2.4c0-1.3,1.1-2.4,2.4-2.4
				C372,486.8,373,487.9,373,489.1z"/>
			<path id="XMLID_161_" class="st4" d="M691.3,455.8c0,1.3-1.1,2.4-2.4,2.4c-1.3,0-2.4-1.1-2.4-2.4c0-1.3,1.1-2.4,2.4-2.4
				C690.2,453.4,691.3,454.5,691.3,455.8z"/>
			<circle id="XMLID_160_" class="st4" cx="123.6" cy="262.2" r="2.4"/>
			<circle id="XMLID_159_" class="st4" cx="598.5" cy="342.2" r="2.4"/>
			<polygon id="XMLID_158_" class="st5" points="233.5,390.2 598.5,342.2 523.2,91.3 245.6,123.4 123.6,262.2 			"/>
			<polyline id="XMLID_157_" class="st5" points="245.6,123.4 598.5,342.2 370.7,489.1 233.5,390.2 245.6,123.4 			"/>
			<polyline id="XMLID_156_" class="st5" points="245.6,123.4 111,56.9 276.7,13.4 571.7,-13.8 672.9,137.2 			"/>
			<polyline id="XMLID_155_" class="st5" points="370.7,489.1 688.9,455.8 598.5,342.2 672.9,137.2 523.2,91.3 278.2,13.2 
				245.3,124.4 			"/>
			<line id="XMLID_154_" class="st6" x1="368.3" y1="489.1" x2="103.7" y2="446.7"/>
			<line id="XMLID_153_" class="st5" x1="523.2" y1="91.3" x2="571.7" y2="-13.8"/>
			<polyline id="XMLID_152_" class="st6" points="109.1,56.3 123.6,262.2 103.7,446.7 233.5,390.2 			"/>
		</g>
	</g>
</g>
</svg>
