<?xml version="1.0" encoding="utf-8"?>
<!-- Generator: Adobe Illustrator 25.2.3, SVG Export Plug-In . SVG Version: 6.00 Build 0)  -->
<svg version="1.1" id="Layer_1" xmlns="http://www.w3.org/2000/svg" xmlns:xlink="http://www.w3.org/1999/xlink" x="0px" y="0px"
	 viewBox="0 0 450 450" style="enable-background:new 0 0 450 450;" xml:space="preserve">
<style type="text/css">
	.st0{display:none;}
	.st1{font-family:'FORQUE';}
	.st2{font-size:75.1485px;}
	.st3{display:none;fill:#7F3F98;}
	.st4{font-family:'RemachineScriptPersonalUseOnly';}
	.st5{font-size:72.3278px;}
	.st6{clip-path:url(#SVGID_2_);}
	.st7{clip-path:url(#SVGID_4_);fill:url(#SVGID_5_);}
	.st8{fill:#5D2A84;}
	.st9{clip-path:url(#SVGID_7_);}
	.st10{fill:none;}
	.st11{fill:url(#SVGID_8_);}
	.st12{fill:#77168E;}
	.st13{fill:url(#SVGID_9_);}
	.st14{fill:#C54CD2;}
	.st15{opacity:0.4;fill:url(#SVGID_10_);}
	.st16{opacity:0.4;fill:url(#SVGID_11_);}
	.st17{opacity:0.4;fill:url(#SVGID_12_);}
	.st18{fill:#EB7AF1;}
</style>
<text transform="matrix(1 0 0 1 95.3613 249.2729)" class="st0 st1 st2">Mr.Healer</text>
<text transform="matrix(1 0 0 1 105.9453 239.4292)" class="st3 st4 st5">Mr. Healer</text>
<g>
	<g>
		<defs>
			<rect id="SVGID_1_" x="24.1" y="353.4" width="401.8" height="54.7"/>
		</defs>
		<clipPath id="SVGID_2_">
			<use xlink:href="#SVGID_1_"  style="overflow:visible;"/>
		</clipPath>
		<g class="st6">
			<defs>
				<path id="SVGID_3_" d="M82.4,356.8l1.4-1.8v48.7h-9.3v-22l-2.8,3.5l-8.3,10.6l-1.1,1.4l-0.9,1.1l-1.7,2.2l-0.2,0.3l-0.7,0.8
					l-0.5,0.6L58,403l-0.7,0.8l-1.1,1.4l-0.6,0.8l-0.5,0.6l-0.4,0.5l-0.9,1.1l-0.9-1.1l-0.4-0.5l-0.5-0.6l-0.6-0.8l-1.1-1.4
					l-0.6-0.8l-0.5-0.6l-0.4-0.6l-0.7-0.8l-0.2-0.3l-1.8-2.2l-0.9-1.1l-1.1-1.4l-2.2-2.8l-1.1-1.4l-4.9-6.3l-2.8-3.5v21.8h-9.2
					v-48.6l2.8,3.5l3.7,4.7l4.1,5.3l1.4,1.7l16,20.5l0.6,0.8l0.3,0.3l0.8,1l0.1,0.1l0-0.1l0.9-1l0.3-0.3l0.6-0.8l16.2-20.6l5.5-7.1
					l3.7-4.7L82.4,356.8z M130.2,374.6c0,1-0.1,2-0.3,3.1c-0.4,2-1.1,4-2.2,5.7c-1,1.7-2.4,3.3-4,4.6c-0.1,0.1-0.3,0.2-0.4,0.3
					c-0.4,0.3-0.8,0.6-1.1,0.8c-0.4,0.3-0.8,0.5-1.2,0.7l0.7,1.2l0.7,1.2l2.9,5l2.1,3.7l0.8,1.4l0.8,1.4h-10.7l-0.8-1.4l-0.8-1.4
					l-2.1-3.7l-1.4-2.4l-0.8-1.4l-0.8-1.4l-0.8-1.4l-0.8-1.4l-2.1-3.7l-0.8-1.4l-0.8-1.4h6.1c0.5,0,0.9-0.1,1.3-0.1
					c0.5-0.1,1-0.2,1.4-0.3c0.1,0,0.1,0,0.2-0.1c0.4-0.1,0.8-0.3,1.1-0.5c0.4-0.2,0.8-0.5,1.2-0.8c0.1-0.1,0.2-0.2,0.3-0.3
					c0.3-0.2,0.5-0.4,0.7-0.7c0.5-0.5,0.9-1,1.2-1.6c0.5-0.9,0.9-1.8,1.1-2.8c0.1-0.5,0.1-1,0.2-1.5c0-0.5,0-1-0.1-1.5
					c-0.1-1-0.5-1.9-0.9-2.8c-0.5-0.9-1.1-1.7-1.8-2.4c-0.8-0.7-1.6-1.2-2.5-1.6c-0.9-0.4-1.9-0.6-2.9-0.7h-0.4h-0.1H98.4v38.3h-9.2
					v-47.5h23.1h0.1l0.8,0c2.1,0.1,4.1,0.5,6,1.3c1.9,0.8,3.7,1.9,5.2,3.3c1.5,1.4,2.8,3,3.8,4.8c1,1.8,1.6,3.8,1.9,5.8
					C130.2,372.6,130.3,373.6,130.2,374.6 M140.4,398.9c0,0.1,0,0.2,0,0.4c0,0.4,0,0.7-0.1,1.1c-0.1,0.2-0.1,0.5-0.2,0.7
					c-0.1,0.2-0.2,0.4-0.3,0.6c-0.2,0.4-0.4,0.7-0.7,1c-0.4,0.4-0.9,0.8-1.5,1c-0.6,0.2-1.2,0.3-1.8,0.3c-0.6,0-1.2-0.1-1.8-0.3
					c-0.6-0.2-1.1-0.6-1.5-1c-0.4-0.4-0.8-1-1-1.5c-0.2-0.6-0.4-1.1-0.4-1.8c0-0.6,0.1-1.2,0.4-1.8c0.2-0.4,0.4-0.9,0.7-1.2
					c0.1-0.1,0.2-0.2,0.3-0.3c0.2-0.2,0.5-0.5,0.8-0.6c0.2-0.2,0.5-0.3,0.7-0.4l0.6-0.2c0.4-0.1,0.8-0.1,1.2-0.1c0.2,0,0.4,0,0.6,0
					c0.4,0,0.8,0.1,1.2,0.3c0.6,0.2,1,0.6,1.5,1c0.4,0.4,0.7,0.8,0.9,1.2c0,0.1,0.1,0.2,0.1,0.3
					C140.2,397.9,140.3,398.4,140.4,398.9 M199,403.7h-9.3v-19.1h-23.9v19.1h-9.2v-47.5h9.2v19.2h23.9v-19.2h9.3V403.7z M242,357.7
					l-0.8,1.4l-2.2,3.7l-1.6,2.8h-25.5v9.9h28.1v9.2h-28.1v9.9h28.1v9.3h-37.3v-47.5h40.2L242,357.7z M233.5,369.4L233.5,369.4
					L233.5,369.4L233.5,369.4z M296.1,403.4l-0.8-1.6l-0.6-1.2l-2.3-4.6l-1-1.9l-1.4-2.8l-0.7-1.4l-0.7-1.4l-10.2-20.2l-0.8-1.6
					l-0.6-1.2l-0.2-0.4l-0.5-1l-0.3-0.5l-0.4-0.9l-0.3-0.7l-0.8-1.5l-1.4-2.9l-0.6-1.2l0-0.1l0-0.1l-0.7-1.4l-0.7-1.4l-0.1-0.2
					l-0.8,1.5l-0.7,1.4l0,0.1l0,0.1l-0.6,1.2l-1.4,2.9l-0.8,1.5l-0.3,0.7l-0.5,0.9l-0.2,0.5l-0.5,1l-0.2,0.4l-1.4,2.8l-10.2,20.2
					l-0.7,1.4l-1.4,2.8l-1.6,3.2l-0.9,1.8l-0.7,1.3v0l-0.3,0.6l-0.4,0.8L247,401l-1.2,2.4l-0.2,0.4H256l0.2-0.4l1.2-2.4l0.2-0.4
					h26.8l0.2,0.4l0.4,0.8l0.1,0.2l0.2,0.4l0.5,1l0.2,0.4h10.3L296.1,403.4z M262.2,391.4l1.4-2.8l5.8-11.6l0.8-1.5l0.8-1.5l0.8,1.5
					l0.8,1.5l5.8,11.6l1.4,2.8H262.2z M337.2,403.8H300v-47.5h9.3v38.3h28V403.8z M379.8,357.7l-0.8,1.4l-2.2,3.7l-1.6,2.8h-25.5
					v9.9h28.1v9.2h-28.1v9.9h28.1v9.3h-37.3v-47.5h40.2L379.8,357.7z M371.3,369.4L371.3,369.4L371.3,369.4L371.3,369.4z
					 M425.9,374.6c0,1-0.1,2-0.3,3.1c-0.4,2-1.1,4-2.2,5.7c-1,1.7-2.4,3.3-4,4.6c-0.1,0.1-0.3,0.2-0.4,0.3c-0.4,0.3-0.8,0.6-1.1,0.8
					c-0.4,0.3-0.8,0.5-1.2,0.7l0.7,1.2l0.7,1.2l2.9,5l2.1,3.7l0.8,1.4l0.8,1.4h-10.7l-0.8-1.4l-0.8-1.4l-2.1-3.7l-1.4-2.4l-0.8-1.4
					l-0.8-1.4l-0.8-1.4l-0.8-1.4l-2.1-3.7l-0.8-1.4l-0.8-1.4h6.1c0.5,0,0.9-0.1,1.3-0.1c0.5-0.1,1-0.2,1.4-0.3c0.1,0,0.1,0,0.2-0.1
					c0.4-0.1,0.8-0.3,1.1-0.5c0.4-0.2,0.8-0.5,1.2-0.8c0.1-0.1,0.2-0.2,0.3-0.3c0.3-0.2,0.5-0.4,0.7-0.7c0.5-0.5,0.9-1,1.2-1.6
					c0.5-0.9,0.9-1.8,1.1-2.8c0.1-0.5,0.1-1,0.2-1.5c0-0.5,0-1-0.1-1.5c-0.1-1-0.5-1.9-0.9-2.8c-0.5-0.9-1.1-1.7-1.8-2.4
					c-0.8-0.7-1.6-1.2-2.5-1.6c-0.9-0.4-1.9-0.6-2.9-0.7h-0.4H408h-13.9v38.3h-9.2v-47.5H408h0.1l0.8,0c2.1,0.1,4.1,0.5,6,1.3
					c1.9,0.8,3.7,1.9,5.2,3.3c1.5,1.4,2.8,3,3.8,4.8c1,1.8,1.6,3.8,1.9,5.8C425.9,372.6,425.9,373.6,425.9,374.6"/>
			</defs>
			<clipPath id="SVGID_4_">
				<use xlink:href="#SVGID_3_"  style="overflow:visible;"/>
			</clipPath>
			
				<radialGradient id="SVGID_5_" cx="-524.0594" cy="978.6228" r="1.0278" gradientTransform="matrix(139.5074 0 0 -139.5074 73335.1562 136905.8906)" gradientUnits="userSpaceOnUse">
				<stop  offset="0" style="stop-color:#FB71FF"/>
				<stop  offset="0.9946" style="stop-color:#77168E"/>
				<stop  offset="1" style="stop-color:#77168E"/>
			</radialGradient>
			<rect x="24.1" y="353.4" class="st7" width="401.9" height="54.7"/>
		</g>
	</g>
	<g>
		<path class="st8" d="M46,419.5v5h-8v21.2H32v-21.2h-8v-5H46z"/>
		<path class="st8" d="M65.2,445.7l-4.2-7.5h-0.6h-5.5v7.5h-5.9v-26.2h11.4c3.4,0,6.1,0.8,7.9,2.4c1.9,1.6,2.8,3.8,2.8,6.7
			c0,2-0.4,3.7-1.3,5.2c-0.8,1.4-2.1,2.5-3.6,3.3l5.6,8.6H65.2z M55.1,433.2h5.5c1.6,0,2.9-0.4,3.8-1.1c0.9-0.8,1.3-1.9,1.3-3.3
			c0-1.4-0.4-2.5-1.3-3.3c-0.9-0.7-2.2-1.1-3.8-1.1h-5.5V433.2z"/>
		<path class="st8" d="M96.2,419.5v4.9h-14v5.7h12.6v4.9H82.2v5.8h14.4v4.9H76.2v-26.2H96.2z"/>
		<path class="st8" d="M118.5,440.6h-12.1l-2.1,5.1h-6.1l11.4-26.2h6.1l11.2,26.2h-6.3L118.5,440.6z M116.6,435.8l-4.1-10.2
			l-4.2,10.2H116.6z"/>
		<path class="st8" d="M147.6,419.5v5h-8v21.2h-5.9v-21.2h-8v-5H147.6z"/>
		<path class="st8" d="M157.4,419.5l8.2,16.1l8.1-16.1h6.5v26.2h-5.3V428l-7.4,15h-3.8l-7.5-15v17.7h-5.3v-26.2H157.4z"/>
		<path class="st8" d="M205.9,419.5v4.9h-14v5.7h12.6v4.9h-12.6v5.8h14.4v4.9H186v-26.2H205.9z"/>
		<path class="st8" d="M234.7,419.5v26.2h-5.4l-12.7-16.8v16.8H211v-26.2h5.4l12.7,16.9v-16.9H234.7z"/>
		<path class="st8" d="M259.8,419.5v5h-8v21.2h-5.9v-21.2h-8v-5H259.8z"/>
		<path class="st8" d="M290.5,419.5l0,4.9h-12.9v6.4h11.8v4.9h-11.8v9.9h-5.9v-26.2H290.5z"/>
		<path class="st8" d="M313.1,420.8c2.1,1.2,3.8,2.8,5.1,4.8c1.2,2.1,1.9,4.3,1.9,6.9c0,2.5-0.6,4.8-1.9,6.9
			c-1.2,2.1-2.9,3.7-5.1,4.9c-2.1,1.2-4.5,1.8-7.1,1.8c-2.6,0-5-0.6-7.1-1.8c-2.1-1.2-3.8-2.8-5.1-4.9c-1.2-2.1-1.9-4.4-1.9-6.9
			c0-2.5,0.6-4.8,1.9-6.9c1.2-2.1,2.9-3.7,5.1-4.8c2.1-1.2,4.5-1.8,7.2-1.8C308.5,419.1,310.9,419.6,313.1,420.8z M302,425.3
			c-1.2,0.7-2.2,1.7-3,3c-0.7,1.3-1.1,2.7-1.1,4.2c0,1.5,0.4,3,1.1,4.2c0.7,1.3,1.7,2.3,3,3c1.2,0.7,2.6,1.1,4,1.1
			c1.4,0,2.8-0.4,4-1.1c1.2-0.7,2.2-1.7,2.9-3c0.7-1.3,1.1-2.7,1.1-4.2c0-1.5-0.4-2.9-1.1-4.2c-0.7-1.3-1.7-2.3-2.9-3
			c-1.2-0.7-2.5-1.1-4-1.1C304.5,424.2,303.2,424.6,302,425.3z"/>
		<path class="st8" d="M340,445.7l-4.2-7.5h-0.6h-5.5v7.5h-5.9v-26.2h11.4c3.4,0,6.1,0.8,7.9,2.4c1.9,1.6,2.8,3.8,2.8,6.7
			c0,2-0.4,3.7-1.3,5.2c-0.8,1.4-2.1,2.5-3.6,3.3l5.6,8.6H340z M329.8,433.2h5.5c1.6,0,2.9-0.4,3.8-1.1c0.9-0.8,1.3-1.9,1.3-3.3
			c0-1.4-0.4-2.5-1.3-3.3c-0.9-0.7-2.2-1.1-3.8-1.1h-5.5V433.2z"/>
		<path class="st8" d="M377,440.6h-12.1l-2.1,5.1h-6.1l11.4-26.2h6.1l11.2,26.2h-6.3L377,440.6z M375.1,435.8l-4.1-10.2l-4.2,10.2
			H375.1z"/>
		<path class="st8" d="M394,419.5v21h11.2v5.2h-17.1v-26.2H394z"/>
		<path class="st8" d="M414.7,419.5v21h11.2v5.2h-17.1v-26.2H414.7z"/>
	</g>
	<g>
		<defs>
			<path id="SVGID_6_" d="M56.8,172.1c0,92.9,75.3,168.2,168.2,168.2c92.9,0,168.2-75.3,168.2-168.2C393.2,79.2,317.9,3.9,225,3.9
				C132.1,3.9,56.8,79.2,56.8,172.1"/>
		</defs>
		<clipPath id="SVGID_7_">
			<use xlink:href="#SVGID_6_"  style="overflow:visible;"/>
		</clipPath>
		<g class="st9">
			<path class="st10" d="M187.1,125.2c0.1,19.4,0.7,37.4-2.6,50.8c-3.2,10.8-9.6,12.4-17.3,4.5c-10-10.8-20.6-32.6-26.9-46
				c-8.5-17.6-27.2-16.6-38.9,0c-1.6,2.9-2.9,6.2-3.9,9.8l0,0c-1.9,8.8-2.8,17.9-2.8,27.1c0,7.5,0.6,14.8,1.8,21.9
				c4.9,27.5,17.8,49.8,36,62c-7.7-11.3-13.5-42.6-13.5-66.2c-0.3-6,0.2-11.5,1.5-16.3c1.9-5.3,5.4-5.1,8-0.1
				c11,22,28.1,49.4,41.2,61c12.4,10.6,27.4,9.2,35.6-4.7c9.6-17.9,13.5-57.3,13.4-88.1c0.1-8.2,0.4-14.2,1.1-17.5
				c1-4.5,3.3-6.8,5.5-6.8c2.3,0,4.6,2.3,5.5,6.8c0.7,3.3,1,9.3,1.1,17.5c-0.1,30.8,3.9,70.2,13.4,88.1c8.1,13.9,23.2,15.3,35.6,4.7
				c13-11.6,30.2-38.9,41.2-61c2.6-5,6-5.1,8,0.1c1.3,4.8,1.8,10.3,1.5,16.3c0,23.6-5.7,54.9-13.5,66.2
				c13.4-9.1,24.3-23.6,30.9-41.8c2.3-6.3,3.8-13.1,5.1-20.2c1.2-7.1,1.8-14.4,1.8-21.9c0-9.2-1-18.3-2.8-27.1l0,0
				c-1-3.6-2.3-6.9-3.9-9.8c-11.6-16.6-30.4-17.6-38.9,0c-6.3,13.5-17,35.2-26.9,46c-7.7,7.9-14.1,6.3-17.3-4.5
				c-3.3-13.4-2.8-31.4-2.6-50.8c0.8-28.8-14.3-53.2-38.2-53.2C201.4,72,186.3,96.4,187.1,125.2"/>
			<radialGradient id="SVGID_8_" cx="126.2926" cy="-15.5708" r="350.5081" gradientUnits="userSpaceOnUse">
				<stop  offset="0" style="stop-color:#FB71FF"/>
				<stop  offset="0.9946" style="stop-color:#77168E"/>
				<stop  offset="1" style="stop-color:#77168E"/>
			</radialGradient>
			<path class="st11" d="M356.1,171.5c0-9.2-1-18.3-2.8-27.1l0,0c-1-3.6-2.3-6.9-3.9-9.8c-11.6-16.6-30.4-17.6-38.9,0
				c-6.3,13.5-17,35.2-26.9,46c-7.7,7.9-14.1,6.3-17.3-4.5c-3.3-13.4-2.8-31.4-2.6-50.8c0.8-28.8-14.3-53.2-38.2-53.2
				c-23.9,0-39,24.4-38.2,53.2c0.1,19.4,0.7,37.4-2.6,50.8c-3.2,10.8-9.6,12.4-17.3,4.5c-10-10.8-20.6-32.6-26.9-46
				c-8.5-17.6-27.2-16.6-38.9,0c-1.6,2.9-2.9,6.2-3.9,9.8l0,0c-1.9,8.8-2.8,17.9-2.8,27.1c0,7.5,0.6,14.8,1.8,21.9
				c4.9,27.5,17.8,49.8,36,62c-7.7-11.3-13.5-42.6-13.5-66.2c-0.3-6,0.2-11.5,1.5-16.3c1.9-5.3,5.4-5.1,8-0.1
				c11,22,28.1,49.4,41.2,61c12.4,10.6,27.4,9.2,35.6-4.7c9.6-17.9,13.5-57.3,13.4-88.1c0.1-8.2,0.4-14.2,1.1-17.5
				c1-4.5,3.3-6.8,5.5-6.8c2.3,0,4.6,2.3,5.5,6.8c0.7,3.3,1,9.3,1.1,17.5c-0.1,30.8,3.9,70.2,13.4,88.1c8.1,13.9,23.2,15.3,35.6,4.7
				c13-11.6,30.2-38.9,41.2-61c2.6-5,6-5.1,8,0.1c1.3,4.8,1.8,10.3,1.5,16.3c0,23.6-5.7,54.9-13.5,66.2
				c13.4-9.1,24.3-23.6,30.9-41.8c2.3-6.3,3.8-13.1,5.1-20.2C355.4,186.2,356.1,178.9,356.1,171.5"/>
			<path class="st10" d="M295.4,217.1c2.1-2.9,4.2-5.9,6.3-9.1c-1.3,0.1-2.7,0.3-4.1,0.8c-10.4,3.6-22.8,5.9-37,6.8l-0.2,0
				c-6.5,0.6-13,1.2-19.5,2.7c0.8,2.5,1.6,4.7,2.5,6.8c5.5-1.2,11.3-1.8,17.6-2.3C273.3,222,284.9,220.2,295.4,217.1"/>
			<path class="st12" d="M352.4,141.5c-0.8-2.5-1.8-4.9-3-7c-3.6-5.1-7.9-8.8-12.3-10.8c6.3,14.7,9.8,30.8,9.8,47.7
				c0,26.3-8.4,50.7-22.7,70.6c-1.7,5.6-3.7,10.2-5.8,13.3c11.4-7.6,20.9-19.3,27.5-33.6c1.1-2.7,2.4-5.4,3.4-8.2
				c1-2.9,1.9-5.8,2.6-8.7c2.7-10.7,4.1-21.9,4.1-33.4C355.8,161.1,354.6,151.1,352.4,141.5"/>
			<radialGradient id="SVGID_9_" cx="135.3952" cy="-43.1497" r="370.6769" gradientUnits="userSpaceOnUse">
				<stop  offset="0" style="stop-color:#FB71FF"/>
				<stop  offset="0.9946" style="stop-color:#77168E"/>
				<stop  offset="1" style="stop-color:#77168E"/>
			</radialGradient>
			<path class="st13" d="M68.5,110.5c-7.4,18.9-11.4,39.5-11.4,61h37.8C94.9,99.5,153.4,41,225.3,41s130.5,58.5,130.5,130.5h0.2
				c-0.3,23.6-5.8,44.7-16.4,63.2l-32.2,47.2l-29.4,19.8l-5.5,31.3c22-6.4,42.1-17.2,59.4-31.3l0.1,0.1c4.6-3.8,9-7.8,13.1-12
				l-0.1-0.1c3.1-3.1,6-6.3,8.9-9.7c1.2-1.4,2.3-2.8,3.4-4.2l12.9-19c14.6-24.9,22.9-53.9,22.9-84.8C393.2,79.2,317.9,3.9,225,3.9
				C153.9,3.9,93,48.1,68.5,110.5"/>
			<path class="st14" d="M57.1,171.5c0,92.9,75.3,168.3,168.3,168.3c2.8,0,5.6-0.1,8.4-0.2l0,0c4.4-0.4,8.8-0.6,13.2-1.2
				c35-4.6,68.5-16.4,95-35c4.7-4.4,1.3-9.1-3.5-7c-11.6,5.9-24,10.5-37.4,13.3c24.8-9.6,53.8-27.2,64.2-39.4
				c4.9-6.5-1.2-8.9-4.3-6.8c-17.7,11.3-45.7,25.4-63.3,29.6c23.8-10.4,55.9-33.2,64.9-48.7c3.3-7.8-3.4-9.4-6.9-6.1
				c-21.1,18.5-49.7,36.6-74.4,40.6c12.1-4.9,25.1-12,34.8-18.7c19.5-13.8,33.7-27.5,37.4-36.9c3.2-10.3-6-12.6-10.8-6.6
				c-21.5,26.5-60.4,45.8-90.4,48.1c-5.3,0.2-6.9-5.5-3.1-7.8c5.6-3,12.5-6.2,21.5-8.8c17.8-5.7,30.9-13.4,36.1-22.8
				c3.6-7.3-1-11.9-6.9-10c-11.7,4-25,6.3-38.8,7.2c-18.1,1.6-32.3,3.4-45.2,19.5c-6.6,9.5-15.6,16.1-27.4,19
				c-6.7,2-13.7,3.4-20.7,4.2c-36.3,1.4-63.7-29-71.4-72.1c-1.2-7.1-1.8-14.4-1.8-21.9h0.3c0-27.7,8.7-53.4,23.4-74.5L91.2,69.9
				C69.8,98.1,57.1,133.3,57.1,171.5"/>
			<path class="st10" d="M93.2,86.4c0,14,11.3,25.3,25.3,25.3c14,0,25.3-11.3,25.3-25.3c0-14-11.3-25.3-25.3-25.3
				C104.5,61.2,93.2,72.5,93.2,86.4"/>
			<path class="st10" d="M143.7,86.4c0,14-11.3,25.3-25.3,25.3c-14,0-25.3-11.3-25.3-25.3c0-14,11.3-25.3,25.3-25.3
				C132.4,61.2,143.7,72.5,143.7,86.4"/>
			<path class="st10" d="M143.7,86.4c0,14-11.3,25.3-25.3,25.3c-14,0-25.3-11.3-25.3-25.3c0-14,11.3-25.3,25.3-25.3
				C132.4,61.2,143.7,72.5,143.7,86.4"/>
			<path class="st12" d="M113.7,123.7c-4.4,2.1-8.7,5.7-12.3,10.8c-1.2,2.1-2.2,4.5-3,7c-2.3,9.6-3.5,19.6-3.5,29.9
				c0,14.6,2.4,28.7,6.9,41.9c6.6,18.3,17.2,33,30.7,42.1c-2.1-3.1-4.1-7.7-5.8-13.3c-14.3-19.9-22.7-44.3-22.7-70.6
				C103.9,154.5,107.4,138.3,113.7,123.7"/>
			<path class="st12" d="M370.7,248.5l0.2-0.6c3.1-7.3,1-12.3-0.6-14.6c-2-3-5.2-5-8.8-5.5c0.2-0.4,0.3-0.7,0.5-1.1l0.1-0.3l0.1-0.4
				c2.5-8.2-0.1-13.5-1.9-15.9c-2.1-2.9-5.2-4.7-8.6-5.4c-0.8,3-1.6,5.9-2.6,8.7c3.6,0.1,6.5,3.4,4.5,9.9
				c-2.9,7.2-12.1,17.1-25.1,27.6l-9.1,13.3c13.1-7.4,25.7-16.7,36.4-26c3.5-3.3,10.1-1.7,6.9,6.1c-9.1,15.4-41.1,38.3-64.9,48.7
				c17.6-4.2,45.6-18.3,63.3-29.6c1.4-0.9,3.5-0.9,4.8,0l5.1-7.4c-1.2-0.8-2.6-1.5-4-1.8c1.4-1.8,2.6-3.5,3.5-5.2L370.7,248.5z"/>
			<radialGradient id="SVGID_10_" cx="334.9766" cy="85.364" r="30.5805" gradientUnits="userSpaceOnUse">
				<stop  offset="0" style="stop-color:#FB71FF"/>
				<stop  offset="0.9946" style="stop-color:#77168E"/>
				<stop  offset="1" style="stop-color:#77168E"/>
			</radialGradient>
			<path class="st15" d="M361.8,73c-3.1-4.2-6.3-8.3-9.8-12.3c-5.5-4.2-12.3-6.7-19.8-6.7c-11.2,0-21.2,5.7-27,14.5
				c1.9,1.5,3.8,3,5.6,4.6c4.5-7.1,12.4-11.9,21.4-11.9c14,0,25.3,11.3,25.3,25.3c0,11-7.1,20.4-17,23.9c1.1,2.1,2.2,4.3,3.2,6.5
				c12.2-4.7,20.9-16.5,20.9-30.3C364.7,81.6,363.7,77.1,361.8,73"/>
			<radialGradient id="SVGID_11_" cx="225.3486" cy="24.2747" r="29.1632" gradientUnits="userSpaceOnUse">
				<stop  offset="0" style="stop-color:#FB71FF"/>
				<stop  offset="0.9946" style="stop-color:#77168E"/>
				<stop  offset="1" style="stop-color:#77168E"/>
			</radialGradient>
			<path class="st16" d="M245.8,4.4c-6.7-0.8-13.5-1.2-20.4-1.2c-6.9,0-13.7,0.4-20.4,1.2c-9.1,6.4-15,17-15,29
				c0,4.2,0.7,8.2,2.1,12c2.3-0.6,4.7-1.2,7.1-1.7c-1.3-3.2-1.9-6.7-1.9-10.3c0-15.6,12.6-28.2,28.2-28.2s28.2,12.6,28.2,28.2
				c0,3.6-0.7,7.1-1.9,10.3c2.4,0.5,4.7,1,7.1,1.7c1.3-3.7,2.1-7.8,2.1-12C260.8,21.4,254.8,10.9,245.8,4.4"/>
			<radialGradient id="SVGID_12_" cx="115.7202" cy="85.3645" r="30.5811" gradientUnits="userSpaceOnUse">
				<stop  offset="0" style="stop-color:#FB71FF"/>
				<stop  offset="0.9946" style="stop-color:#77168E"/>
				<stop  offset="1" style="stop-color:#77168E"/>
			</radialGradient>
			<path class="st17" d="M93.2,86.4c0-14,11.3-25.3,25.3-25.3c9,0,16.9,4.7,21.4,11.9c1.8-1.6,3.7-3.1,5.6-4.6
				c-5.8-8.7-15.8-14.5-27-14.5c-7.4,0-14.3,2.5-19.8,6.7c-3.4,3.9-6.7,8-9.8,12.3C87,77.1,86,81.6,86,86.4
				c0,13.8,8.7,25.7,20.9,30.3c1-2.2,2.1-4.4,3.2-6.5C100.3,106.9,93.2,97.5,93.2,86.4"/>
			<path class="st18" d="M197.1,33.4c0,15.6,12.6,28.2,28.2,28.2s28.2-12.6,28.2-28.2c0-15.6-12.6-28.2-28.2-28.2
				S197.1,17.8,197.1,33.4"/>
			<path class="st18" d="M98.4,86.5c0,11.1,9,20.1,20.1,20.1s20.1-9,20.1-20.1c0-11.1-9-20.1-20.1-20.1S98.4,75.4,98.4,86.5"/>
			<path class="st18" d="M310.7,86.5c0,11.1,9,20.1,20.1,20.1s20.1-9,20.1-20.1c0-11.1-9-20.1-20.1-20.1S310.7,75.4,310.7,86.5"/>
		</g>
	</g>
</g>
</svg>
