<?xml version="1.0" encoding="utf-8"?>
<!-- Generator: Adobe Illustrator 25.2.3, SVG Export Plug-In . SVG Version: 6.00 Build 0)  -->
<svg version="1.1" id="Layer_1" xmlns="http://www.w3.org/2000/svg" xmlns:xlink="http://www.w3.org/1999/xlink" x="0px" y="0px"
	 viewBox="0 0 436 512" style="enable-background:new 0 0 436 512;" xml:space="preserve">
<style type="text/css">
	.st0{fill:#5D2A84;}
	.st1{fill:url(#SVGID_1_);}
	.st2{fill:url(#SVGID_2_);}
	.st3{clip-path:url(#SVGID_4_);}
	.st4{fill:none;}
	.st5{fill:url(#SVGID_5_);}
	.st6{fill:#77168E;}
	.st7{fill:url(#SVGID_6_);}
	.st8{fill:#C54CD2;}
	.st9{opacity:0.4;fill:url(#SVGID_7_);}
	.st10{opacity:0.4;fill:url(#SVGID_8_);}
	.st11{opacity:0.4;fill:url(#SVGID_9_);}
	.st12{fill:#EB7AF1;}
</style>
<g>
	<path class="st0" d="M37.2,470.3v5.1h-8.1v21.4h-6v-21.4h-8.1v-5.1H37.2z"/>
	<path class="st0" d="M56.6,496.8l-4.2-7.6h-0.6h-5.5v7.6h-6v-26.5h11.5c3.5,0,6.1,0.8,8,2.4c1.9,1.6,2.8,3.9,2.8,6.8
		c0,2-0.4,3.8-1.3,5.2s-2.1,2.6-3.7,3.3l5.6,8.7H56.6z M46.4,484.2h5.5c1.7,0,2.9-0.4,3.8-1.2c0.9-0.8,1.3-1.9,1.3-3.4
		c0-1.5-0.4-2.6-1.3-3.3c-0.9-0.7-2.2-1.1-3.8-1.1h-5.5V484.2z"/>
	<path class="st0" d="M87.9,470.3v5H73.7v5.7h12.7v5H73.7v5.9h14.6v5H67.8v-26.5H87.9z"/>
	<path class="st0" d="M110.5,491.6H98.2l-2.1,5.1H90l11.5-26.5h6.2l11.3,26.5h-6.4L110.5,491.6z M108.5,486.8l-4.2-10.3l-4.2,10.3
		H108.5z"/>
	<path class="st0" d="M139.9,470.3v5.1h-8.1v21.4h-6v-21.4h-8.1v-5.1H139.9z"/>
	<path class="st0" d="M149.7,470.3l8.2,16.3l8.2-16.3h6.6v26.5h-5.4v-17.9l-7.5,15.2H156l-7.6-15.2v17.9h-5.4v-26.5H149.7z"/>
	<path class="st0" d="M198.7,470.3v5h-14.2v5.7h12.7v5h-12.7v5.9h14.6v5h-20.6v-26.5H198.7z"/>
	<path class="st0" d="M227.8,470.3v26.5h-5.4l-12.8-17v17h-5.7v-26.5h5.4l12.9,17.1v-17.1H227.8z"/>
	<path class="st0" d="M253.1,470.3v5.1H245v21.4h-6v-21.4H231v-5.1H253.1z"/>
	<path class="st0" d="M284.2,470.3l0,5h-13v6.5h11.9v5h-11.9v10h-6v-26.5H284.2z"/>
	<path class="st0" d="M306.9,471.7c2.2,1.2,3.9,2.8,5.1,4.9s1.9,4.4,1.9,6.9s-0.6,4.9-1.9,7c-1.2,2.1-3,3.7-5.1,4.9
		c-2.2,1.2-4.6,1.8-7.2,1.8s-5.1-0.6-7.2-1.8c-2.2-1.2-3.9-2.8-5.1-4.9c-1.2-2.1-1.9-4.4-1.9-7c0-2.5,0.6-4.9,1.9-6.9
		s2.9-3.7,5.1-4.9c2.2-1.2,4.6-1.8,7.2-1.8C302.4,469.9,304.8,470.5,306.9,471.7z M295.7,476.2c-1.3,0.7-2.3,1.8-3,3
		c-0.7,1.3-1.1,2.7-1.1,4.2c0,1.6,0.4,3,1.1,4.3s1.7,2.3,3,3.1s2.6,1.1,4.1,1.1c1.5,0,2.8-0.4,4-1.1c1.2-0.7,2.2-1.8,2.9-3.1
		c0.7-1.3,1.1-2.7,1.1-4.3c0-1.5-0.4-2.9-1.1-4.2s-1.7-2.3-2.9-3c-1.2-0.7-2.6-1.1-4-1.1C298.3,475.1,297,475.5,295.7,476.2z"/>
	<path class="st0" d="M334.1,496.8l-4.2-7.6h-0.6h-5.5v7.6h-6v-26.5h11.5c3.5,0,6.1,0.8,8,2.4c1.9,1.6,2.8,3.9,2.8,6.8
		c0,2-0.4,3.8-1.3,5.2c-0.8,1.4-2.1,2.6-3.7,3.3l5.6,8.7H334.1z M323.8,484.2h5.5c1.7,0,2.9-0.4,3.8-1.2s1.3-1.9,1.3-3.4
		c0-1.5-0.4-2.6-1.3-3.3s-2.2-1.1-3.8-1.1h-5.5V484.2z"/>
	<path class="st0" d="M371.5,491.6h-12.2l-2.1,5.1h-6.2l11.5-26.5h6.2l11.3,26.5h-6.4L371.5,491.6z M369.6,486.8l-4.2-10.3
		l-4.2,10.3H369.6z"/>
	<path class="st0" d="M388.7,470.3v21.2h11.3v5.2h-17.3v-26.5H388.7z"/>
	<path class="st0" d="M409.6,470.3v21.2h11.3v5.2h-17.3v-26.5H409.6z"/>
</g>
<g>
	<radialGradient id="SVGID_1_" cx="242.748" cy="424.5024" r="131.6027" gradientUnits="userSpaceOnUse">
		<stop  offset="0" style="stop-color:#FB71FF"/>
		<stop  offset="0.9946" style="stop-color:#77168E"/>
		<stop  offset="1" style="stop-color:#77168E"/>
	</radialGradient>
	<path class="st1" d="M103.5,420.1c0,1.1-0.1,2.2-0.4,3.3c-0.4,2.2-1.3,4.3-2.4,6.3c-1.1,1.9-2.7,3.6-4.4,5.1
		c-0.1,0.1-0.3,0.3-0.5,0.4c-0.4,0.3-0.8,0.6-1.3,0.9c-0.4,0.3-0.9,0.5-1.3,0.8l0.8,1.3l0.8,1.3l3.2,5.5l2.3,4l0.9,1.5l0.9,1.5H90.4
		l-0.9-1.5l-0.9-1.5l-2.3-4l-1.5-2.7l-0.9-1.5l-0.9-1.5l-0.9-1.5l-0.9-1.5l-2.3-4.1l-0.9-1.5l-0.9-1.5h6.6c0.5,0,1-0.1,1.4-0.1
		c0.5-0.1,1-0.2,1.5-0.4c0.1,0,0.1,0,0.2-0.1c0.4-0.1,0.8-0.3,1.2-0.5c0.5-0.3,0.9-0.5,1.3-0.8c0.1-0.1,0.3-0.2,0.4-0.3
		c0.3-0.2,0.5-0.5,0.8-0.7c0.5-0.5,1-1.1,1.3-1.7c0.6-0.9,1-2,1.2-3c0.1-0.5,0.1-1.1,0.2-1.6c0-0.5,0-1.1-0.1-1.6
		c-0.1-1-0.5-2.1-1-3c-0.5-1-1.2-1.8-2-2.6c-0.8-0.7-1.8-1.3-2.8-1.7c-1-0.4-2.1-0.6-3.2-0.7H84h-0.1H68.8V452H58.7V400h25.3H84
		l0.8,0c2.3,0.1,4.5,0.6,6.6,1.5c2.1,0.9,4,2.1,5.7,3.6c1.6,1.5,3,3.3,4.1,5.3c1.1,2,1.8,4.1,2.1,6.3
		C103.5,417.8,103.6,419,103.5,420.1 M114.6,446.6c0,0.1,0,0.3,0,0.4c0,0.4,0,0.8-0.1,1.1c-0.1,0.3-0.1,0.5-0.3,0.8
		c-0.1,0.2-0.2,0.4-0.3,0.6c-0.2,0.4-0.5,0.7-0.8,1c-0.5,0.5-1,0.9-1.6,1.1c-0.6,0.3-1.3,0.4-2,0.4c-0.6,0-1.3-0.1-1.9-0.4
		c-0.6-0.3-1.2-0.6-1.6-1.1c-0.5-0.5-0.8-1-1.1-1.7c-0.3-0.6-0.4-1.3-0.4-1.9c0-0.7,0.1-1.3,0.4-1.9c0.2-0.5,0.5-0.9,0.8-1.3
		c0.1-0.1,0.2-0.2,0.3-0.3c0.3-0.3,0.5-0.5,0.9-0.7c0.3-0.2,0.5-0.3,0.8-0.4l0.6-0.2c0.4-0.1,0.9-0.1,1.3-0.1c0.2,0,0.4,0,0.6,0
		c0.5,0,0.9,0.1,1.4,0.3c0.6,0.3,1.1,0.6,1.6,1.1c0.4,0.4,0.7,0.8,1,1.3c0,0.1,0.1,0.2,0.1,0.3C114.5,445.6,114.6,446.1,114.6,446.6
		 M178.7,451.9h-10.1V431h-26.1v20.9h-10.1V400h10.1v20.9h26.1V400h10.1V451.9z M225.8,401.6l-0.9,1.5l-2.4,4.1l-1.8,3h-27.9V421
		h30.7v10.1h-30.7v10.8h30.7V452h-40.7v-51.9h44L225.8,401.6z M216.4,414.3L216.4,414.3L216.4,414.3L216.4,414.3z M284.9,451.5
		l-0.9-1.7l-0.7-1.3l-2.5-5l-1-2l-1.5-3l-0.8-1.5l-0.8-1.5l-11.1-22.1l-0.9-1.7l-0.7-1.3l-0.2-0.4l-0.6-1.1l-0.3-0.5l-0.5-1
		l-0.4-0.7l-0.9-1.7l-1.6-3.2l-0.7-1.3l0-0.1l0-0.1l-0.8-1.5l-0.8-1.5l-0.1-0.2l-0.9,1.7l-0.8,1.5l0,0.1l0,0.1l-0.7,1.3l-1.6,3.2
		l-0.9,1.7l-0.4,0.7l-0.5,1l-0.3,0.5l-0.6,1.1l-0.2,0.4l-1.5,3l-11.1,22.1l-0.8,1.5l-1.5,3l-1.8,3.6l-1,2l-0.8,1.5v0l-0.4,0.7
		l-0.4,0.8l-0.2,0.5l-1.3,2.6l-0.3,0.5H241l0.2-0.5l1.3-2.6l0.3-0.5h29.3l0.3,0.5l0.4,0.9l0.1,0.2l0.3,0.4l0.5,1.1l0.2,0.5h11.3
		L284.9,451.5z M247.8,438.4l1.5-3l6.3-12.6l0.8-1.7l0.9-1.7l0.8,1.7l0.9,1.7l6.3,12.6l1.5,3H247.8z M329.9,452h-40.8v-51.9h10.1
		v41.9h30.6V452z M376.4,401.6l-0.9,1.5l-2.4,4.1l-1.8,3h-27.9V421h30.7v10.1h-30.7v10.8h30.7V452h-40.7v-51.9h44L376.4,401.6z
		 M367.1,414.3L367.1,414.3L367.1,414.3L367.1,414.3z M426.8,420.1c0,1.1-0.1,2.2-0.4,3.3c-0.4,2.2-1.3,4.3-2.4,6.3
		c-1.1,1.9-2.7,3.6-4.4,5.1c-0.1,0.1-0.3,0.3-0.5,0.4c-0.4,0.3-0.8,0.6-1.3,0.9c-0.4,0.3-0.9,0.5-1.3,0.8l0.8,1.3l0.8,1.3l3.2,5.5
		l2.3,4l0.9,1.5l0.9,1.5h-11.7l-0.9-1.5l-0.9-1.5l-2.3-4l-1.5-2.7l-0.9-1.5l-0.9-1.5l-0.9-1.5l-0.9-1.5l-2.3-4.1l-0.9-1.5l-0.9-1.5
		h6.6c0.5,0,1-0.1,1.4-0.1c0.5-0.1,1-0.2,1.5-0.4c0.1,0,0.1,0,0.2-0.1c0.4-0.1,0.8-0.3,1.2-0.5c0.5-0.3,0.9-0.5,1.3-0.8
		c0.1-0.1,0.3-0.2,0.4-0.3c0.3-0.2,0.5-0.5,0.8-0.7c0.5-0.5,1-1.1,1.3-1.7c0.6-0.9,1-2,1.2-3c0.1-0.5,0.1-1.1,0.2-1.6
		c0-0.5,0-1.1-0.1-1.6c-0.1-1-0.5-2.1-1-3c-0.5-1-1.2-1.8-2-2.6c-0.8-0.7-1.8-1.3-2.8-1.7c-1-0.4-2.1-0.6-3.2-0.7h-0.4h-0.1H392V452
		H382V400h25.3h0.1l0.8,0c2.3,0.1,4.5,0.6,6.6,1.5c2.1,0.9,4,2.1,5.7,3.6c1.7,1.5,3,3.3,4.1,5.3c1.1,2,1.8,4.1,2.1,6.3
		C426.8,417.8,426.8,419,426.8,420.1"/>
	<g>
		<radialGradient id="SVGID_2_" cx="30.7666" cy="426.1141" r="23.78" gradientUnits="userSpaceOnUse">
			<stop  offset="0" style="stop-color:#77168E"/>
			<stop  offset="1" style="stop-color:#77168E"/>
		</radialGradient>
		<path class="st2" d="M9.2,400.3h14.7c5.6,0,10.6,1.1,14.9,3.2c4.3,2.1,7.6,5.1,10,9c2.4,3.9,3.6,8.4,3.6,13.6
			c0,5.2-1.2,9.7-3.6,13.6c-2.4,3.9-5.7,6.9-10,9c-4.3,2.1-9.2,3.2-14.9,3.2H9.2V400.3z M23.3,442.1c5.2,0,9.3-1.4,12.3-4.3
			c3.1-2.9,4.6-6.8,4.6-11.7c0-4.9-1.5-8.8-4.6-11.7c-3.1-2.9-7.2-4.3-12.3-4.3h-2.2v32H23.3z"/>
	</g>
</g>
<g>
	<defs>
		<path id="SVGID_3_" d="M34.1,198.7c0,101.5,82.3,183.9,183.9,183.9c101.6,0,183.9-82.3,183.9-183.9
			c0-101.6-82.3-183.9-183.9-183.9C116.5,14.8,34.1,97.1,34.1,198.7"/>
	</defs>
	<clipPath id="SVGID_4_">
		<use xlink:href="#SVGID_3_"  style="overflow:visible;"/>
	</clipPath>
	<g class="st3">
		<path class="st4" d="M176.6,147.4c0.2,21.3,0.7,40.9-2.9,55.6c-3.5,11.8-10.5,13.5-18.9,4.9c-10.9-11.8-22.6-35.6-29.4-50.3
			c-9.2-19.3-29.8-18.2-42.5,0c-1.7,3.2-3.1,6.8-4.2,10.7l0,0c-2,9.7-3.1,19.6-3.1,29.7c0,8.1,0.7,16.1,2,23.9
			c5.4,30,19.5,54.4,39.3,67.8c-8.4-12.3-14.7-46.6-14.7-72.4c-0.3-6.6,0.2-12.6,1.7-17.8c2.1-5.7,5.9-5.6,8.7-0.1
			c12,24.1,30.8,54,45,66.7c13.5,11.6,30,10.1,38.9-5.1c10.5-19.6,14.8-62.6,14.7-96.3c0.1-9,0.5-15.5,1.2-19.1
			c1.1-4.9,3.6-7.4,6.1-7.5c2.5,0,5,2.5,6.1,7.5c0.8,3.6,1.1,10.2,1.2,19.1c-0.1,33.7,4.2,76.7,14.7,96.3
			c8.9,15.2,25.3,16.7,38.9,5.1c14.2-12.7,33-42.6,45-66.7c2.8-5.5,6.6-5.6,8.7,0.1c1.4,5.2,1.9,11.2,1.7,17.8
			c0,25.8-6.3,60.1-14.7,72.4c14.7-9.9,26.6-25.9,33.8-45.7c2.5-6.9,4.2-14.3,5.6-22.1c1.3-7.8,2-15.8,2-23.9
			c0-10.1-1.1-20-3.1-29.7l0,0c-1.1-4-2.5-7.6-4.2-10.7c-12.7-18.2-33.3-19.3-42.5,0c-6.9,14.7-18.5,38.5-29.4,50.3
			c-8.4,8.6-15.4,6.9-18.9-4.9c-3.6-14.7-3.1-34.3-2.9-55.6c0.8-31.5-15.6-58.2-41.8-58.2C192.2,89.2,175.7,115.9,176.6,147.4"/>
		<radialGradient id="SVGID_5_" cx="110.082" cy="-6.5125" r="383.2146" gradientUnits="userSpaceOnUse">
			<stop  offset="0" style="stop-color:#FB71FF"/>
			<stop  offset="0.9946" style="stop-color:#77168E"/>
			<stop  offset="1" style="stop-color:#77168E"/>
		</radialGradient>
		<path class="st5" d="M361.3,198c0-10.1-1.1-20-3.1-29.7l0,0c-1.1-4-2.5-7.6-4.2-10.7c-12.7-18.2-33.3-19.3-42.5,0
			c-6.9,14.7-18.5,38.5-29.4,50.3c-8.4,8.6-15.4,6.9-18.9-4.9c-3.6-14.7-3.1-34.3-2.9-55.6c0.8-31.5-15.6-58.2-41.8-58.2
			c-26.2,0-42.6,26.7-41.8,58.2c0.2,21.3,0.7,40.9-2.9,55.6c-3.5,11.8-10.5,13.5-18.9,4.9c-10.9-11.8-22.6-35.6-29.4-50.3
			c-9.2-19.3-29.8-18.2-42.5,0c-1.7,3.2-3.1,6.8-4.2,10.7l0,0c-2,9.7-3.1,19.6-3.1,29.7c0,8.1,0.7,16.1,2,23.9
			c5.4,30,19.5,54.4,39.3,67.8c-8.4-12.3-14.7-46.6-14.7-72.4c-0.3-6.6,0.2-12.6,1.7-17.8c2.1-5.7,5.9-5.6,8.7-0.1
			c12,24.1,30.8,54,45,66.7c13.5,11.6,30,10.1,38.9-5.1c10.5-19.6,14.8-62.6,14.7-96.3c0.1-9,0.5-15.5,1.2-19.1
			c1.1-4.9,3.6-7.4,6.1-7.5c2.5,0,5,2.5,6.1,7.5c0.8,3.6,1.1,10.2,1.2,19.1c-0.1,33.7,4.2,76.7,14.7,96.3
			c8.9,15.2,25.3,16.7,38.9,5.1c14.2-12.7,33-42.6,45-66.7c2.8-5.5,6.6-5.6,8.7,0.1c1.4,5.2,1.9,11.2,1.7,17.8
			c0,25.8-6.3,60.1-14.7,72.4c14.7-9.9,26.6-25.9,33.8-45.7c2.5-6.9,4.2-14.3,5.6-22.1C360.6,214.1,361.3,206.1,361.3,198"/>
		<path class="st4" d="M295,247.9c2.3-3.1,4.6-6.5,6.9-9.9c-1.5,0.1-3,0.4-4.5,0.9c-11.4,3.9-25,6.4-40.4,7.4l-0.2,0
			c-7.1,0.6-14.2,1.3-21.3,2.9c0.9,2.7,1.8,5.2,2.7,7.5c6-1.3,12.3-1.9,19.2-2.6C270.8,253.3,283.5,251.3,295,247.9"/>
		<path class="st6" d="M357.2,165.2c-0.9-2.8-2-5.3-3.3-7.6c-3.9-5.6-8.6-9.6-13.5-11.9c6.9,16,10.7,33.7,10.7,52.2
			c0,28.8-9.2,55.5-24.8,77.2c-1.9,6.1-4.1,11.1-6.4,14.5c12.4-8.4,22.8-21.1,30.1-36.8c1.2-2.9,2.7-5.9,3.7-8.9
			c1.1-3.1,2-6.3,2.9-9.6c3-11.7,4.4-23.9,4.4-36.5C361,186.7,359.7,175.7,357.2,165.2"/>
		<radialGradient id="SVGID_6_" cx="120.034" cy="-36.6647" r="405.2655" gradientUnits="userSpaceOnUse">
			<stop  offset="0" style="stop-color:#FB71FF"/>
			<stop  offset="0.9946" style="stop-color:#77168E"/>
			<stop  offset="1" style="stop-color:#77168E"/>
		</radialGradient>
		<path class="st7" d="M46.9,131.3c-8,20.7-12.4,43.2-12.4,66.7h41.3c0-78.6,64-142.6,142.6-142.6C297,55.4,361,119.3,361,198h0.3
			c-0.3,25.8-6.4,48.9-18,69.1l-35.2,51.6l-32.1,21.7l-6.1,34.2c24-7,46-18.8,64.9-34.3l0.1,0.1c5-4.1,9.8-8.5,14.3-13.2l-0.1-0.1
			c3.4-3.4,6.6-6.9,9.7-10.6c1.3-1.5,2.5-3,3.7-4.6l14.1-20.7c15.9-27.2,25-58.9,25-92.7c0-101.6-82.3-183.9-183.9-183.9
			C140.2,14.8,73.7,63.1,46.9,131.3"/>
		<path class="st8" d="M34.4,198c0,101.6,82.4,184,184,184c3.1,0,6.1-0.1,9.2-0.2l0,0c4.8-0.4,9.7-0.7,14.4-1.3
			c38.3-5.1,74.9-18,103.9-38.2c5.2-4.8,1.4-9.9-3.8-7.6c-12.7,6.4-26.2,11.5-40.9,14.5c27.2-10.5,58.8-29.7,70.2-43.1
			c5.3-7.1-1.3-9.7-4.7-7.5c-19.3,12.4-50,27.7-69.2,32.4c26.1-11.3,61.1-36.3,71-53.2c3.6-8.5-3.7-10.3-7.5-6.7
			c-23,20.2-54.4,40-81.3,44.4c13.2-5.3,27.4-13.1,38.1-20.4c21.3-15.1,36.8-30.1,40.9-40.3c3.5-11.3-6.5-13.8-11.8-7.2
			c-23.6,29-66,50-98.8,52.6c-5.8,0.2-7.6-6-3.4-8.5c6.1-3.3,13.6-6.8,23.5-9.6c19.4-6.3,33.8-14.7,39.5-24.9c3.9-8-1.1-13-7.5-10.9
			c-12.8,4.4-27.3,6.8-42.5,7.8c-19.8,1.8-35.4,3.7-49.4,21.3c-7.2,10.4-17,17.6-30,20.8c-7.4,2.2-15,3.7-22.6,4.6
			c-39.7,1.5-69.7-31.7-78.1-78.9c-1.3-7.8-2-15.8-2-23.9h0.3c0-30.3,9.5-58.3,25.6-81.4L71.7,86.9C48.3,117.8,34.4,156.3,34.4,198"
			/>
		<path class="st4" d="M73.9,105c0,15.3,12.4,27.6,27.6,27.6c15.3,0,27.6-12.4,27.6-27.6c0-15.3-12.4-27.6-27.6-27.6
			C86.3,77.4,73.9,89.7,73.9,105"/>
		<path class="st4" d="M129.1,105c0,15.3-12.4,27.6-27.6,27.6c-15.3,0-27.6-12.4-27.6-27.6c0-15.3,12.4-27.6,27.6-27.6
			C116.8,77.4,129.1,89.7,129.1,105"/>
		<path class="st4" d="M129.1,105c0,15.3-12.4,27.6-27.6,27.6c-15.3,0-27.6-12.4-27.6-27.6c0-15.3,12.4-27.6,27.6-27.6
			C116.8,77.4,129.1,89.7,129.1,105"/>
		<path class="st6" d="M96.3,145.7c-4.9,2.3-9.5,6.2-13.5,11.9c-1.3,2.3-2.4,4.9-3.3,7.6c-2.5,10.5-3.8,21.5-3.8,32.7
			c0,16,2.6,31.4,7.5,45.8c7.2,20,18.8,36,33.6,46c-2.3-3.4-4.5-8.4-6.4-14.5c-15.6-21.8-24.8-48.5-24.8-77.2
			C85.6,179.4,89.4,161.7,96.3,145.7"/>
		<path class="st6" d="M377.3,282.2l0.3-0.6c3.4-8,1.1-13.5-0.6-16c-2.2-3.3-5.7-5.4-9.7-6c0.2-0.4,0.4-0.8,0.5-1.2l0.1-0.4l0.1-0.4
			c2.8-9-0.1-14.7-2-17.4c-2.3-3.1-5.7-5.2-9.4-5.9c-0.8,3.2-1.8,6.4-2.9,9.6c4,0.1,7.1,3.7,4.9,10.8c-3.2,7.9-13.2,18.7-27.5,30.2
			l-9.9,14.6c14.3-8.1,28.1-18.2,39.8-28.5c3.8-3.6,11.1-1.8,7.5,6.7c-9.9,16.8-44.9,41.8-71,53.2c19.2-4.6,49.8-20,69.2-32.4
			c1.6-1,3.8-1,5.3,0l5.5-8.1c-1.3-0.9-2.8-1.6-4.4-2c1.5-1.9,2.8-3.8,3.9-5.6L377.3,282.2z"/>
		<radialGradient id="SVGID_7_" cx="338.2387" cy="103.8408" r="33.4341" gradientUnits="userSpaceOnUse">
			<stop  offset="0" style="stop-color:#FB71FF"/>
			<stop  offset="0.9946" style="stop-color:#77168E"/>
			<stop  offset="1" style="stop-color:#77168E"/>
		</radialGradient>
		<path class="st9" d="M367.5,90.3c-3.4-4.6-6.9-9.1-10.7-13.4c-6-4.6-13.5-7.4-21.6-7.4c-12.3,0-23.1,6.3-29.5,15.8
			c2.1,1.6,4.1,3.3,6.1,5c4.9-7.8,13.5-13,23.4-13c15.3,0,27.6,12.4,27.6,27.6c0,12.1-7.8,22.3-18.6,26.1c1.2,2.3,2.4,4.7,3.5,7.1
			c13.4-5.1,22.9-18,22.9-33.2C370.7,99.8,369.6,94.8,367.5,90.3"/>
		<radialGradient id="SVGID_8_" cx="218.3811" cy="37.0512" r="31.8844" gradientUnits="userSpaceOnUse">
			<stop  offset="0" style="stop-color:#FB71FF"/>
			<stop  offset="0.9946" style="stop-color:#77168E"/>
			<stop  offset="1" style="stop-color:#77168E"/>
		</radialGradient>
		<path class="st10" d="M240.7,15.4c-7.3-0.9-14.8-1.4-22.3-1.4c-7.6,0-15,0.5-22.3,1.4c-9.9,7-16.4,18.6-16.4,31.7
			c0,4.6,0.8,9,2.3,13.1c2.5-0.7,5.1-1.3,7.7-1.8c-1.4-3.5-2.1-7.3-2.1-11.3c0-17.1,13.8-30.9,30.9-30.9S249.3,30,249.3,47
			c0,4-0.8,7.8-2.1,11.3c2.6,0.5,5.2,1.1,7.7,1.8c1.5-4.1,2.3-8.5,2.3-13.1C257.1,34,250.6,22.4,240.7,15.4"/>
		<radialGradient id="SVGID_9_" cx="98.5231" cy="103.8413" r="33.4346" gradientUnits="userSpaceOnUse">
			<stop  offset="0" style="stop-color:#FB71FF"/>
			<stop  offset="0.9946" style="stop-color:#77168E"/>
			<stop  offset="1" style="stop-color:#77168E"/>
		</radialGradient>
		<path class="st11" d="M73.9,105c0-15.3,12.4-27.6,27.6-27.6c9.9,0,18.5,5.2,23.4,13c2-1.7,4-3.4,6.1-5
			c-6.4-9.5-17.2-15.8-29.5-15.8c-8.1,0-15.6,2.7-21.6,7.4c-3.8,4.3-7.3,8.8-10.7,13.4C67.2,94.8,66,99.8,66,105
			c0,15.1,9.5,28.1,22.9,33.2c1.1-2.4,2.3-4.8,3.5-7.1C81.7,127.3,73.9,117.1,73.9,105"/>
		<path class="st12" d="M187.5,47c0,17.1,13.8,30.9,30.9,30.9s30.9-13.8,30.9-30.9c0-17.1-13.8-30.9-30.9-30.9S187.5,30,187.5,47"/>
		<path class="st12" d="M79.6,105.1c0,12.1,9.8,22,22,22s22-9.8,22-22c0-12.1-9.8-22-22-22S79.6,93,79.6,105.1"/>
		<path class="st12" d="M311.7,105.1c0,12.1,9.8,22,22,22c12.1,0,22-9.8,22-22c0-12.1-9.8-22-22-22C321.5,83.1,311.7,93,311.7,105.1
			"/>
	</g>
</g>
</svg>
