<?xml version="1.0" encoding="utf-8"?>
<!-- Generator: Adobe Illustrator 25.2.3, SVG Export Plug-In . SVG Version: 6.00 Build 0)  -->
<svg version="1.1" id="Layer_1" xmlns="http://www.w3.org/2000/svg" xmlns:xlink="http://www.w3.org/1999/xlink" x="0px" y="0px"
	 viewBox="0 0 2148 658" style="enable-background:new 0 0 2148 658;" xml:space="preserve">
<style type="text/css">
	.st0{opacity:0.2;fill:#FB71FF;}
	.st1{clip-path:url(#SVGID_2_);}
	.st2{clip-path:url(#SVGID_4_);fill:url(#SVGID_5_);}
	.st3{fill:#5D2A84;}
	.st4{clip-path:url(#SVGID_7_);}
	.st5{fill:none;}
	.st6{fill:url(#SVGID_8_);}
	.st7{fill:#77168E;}
	.st8{fill:url(#SVGID_9_);}
	.st9{fill:#C54CD2;}
	.st10{opacity:0.4;fill:url(#SVGID_10_);}
	.st11{opacity:0.4;fill:url(#SVGID_11_);}
	.st12{opacity:0.4;fill:url(#SVGID_12_);}
	.st13{fill:#EB7AF1;}
	.st14{fill:#FFFFFF;}
	.st15{fill:none;stroke:#FFFFFF;stroke-width:10;stroke-miterlimit:10;}
</style>
<rect x="5135" y="-1436" class="st0" width="512" height="512"/>
<g>
	<g>
		<g>
			<defs>
				<rect id="SVGID_1_" x="653.1" y="144.5" width="1456.9" height="198.4"/>
			</defs>
			<clipPath id="SVGID_2_">
				<use xlink:href="#SVGID_1_"  style="overflow:visible;"/>
			</clipPath>
			<g class="st1">
				<defs>
					<path id="SVGID_3_" d="M864.5,156.7l5.1-6.4v176.7H836v-79.7l-10,12.8l-30.1,38.3l-3.9,5.1l-3.3,4.2l-6.3,8.1l-0.8,1.1l-2.4,3
						l-1.7,2.1l-1.5,2l-2.4,3l-3.9,5l-2.3,2.9l-1.7,2.1l-1.4,1.9l-3.2,4l-3.2-4l-1.5-1.9l-1.7-2.1l-2.3-2.9l-3.9-5l-2.3-3l-1.7-2
						l-1.5-2.1l-2.4-3l-0.8-1.1l-6.4-8.1l-3.2-4.2l-3.9-5.1l-7.9-10l-4-5l-17.7-22.7l-10.1-12.8v79.1h-33.4V150.9l10,12.7l13.4,17.1
						l15,19.3l5.1,6.3l58.1,74.2l2.3,2.9l1,1.2l3,3.8l0.2,0.2l0.1-0.2l3.1-3.8l1-1.2l2.1-2.9l58.6-74.7l20-25.7l13.4-17L864.5,156.7
						z M1037.9,221.3c0,3.7-0.5,7.4-1.2,11.1c-1.4,7.3-4.2,14.4-8,20.8c-3.8,6.3-8.8,12-14.5,16.8c-0.5,0.5-1.1,0.8-1.5,1.2
						c-1.4,1.1-2.7,2-4.2,3c-1.4,1-2.9,1.8-4.3,2.6l2.5,4.3l2.5,4.4l10.5,18.1l7.7,13.3l2.9,5.1l2.9,5h-38.7l-2.9-5l-2.9-5.1
						l-7.7-13.3l-5.1-8.8l-2.9-5l-2.9-5l-3-5l-2.9-5l-7.7-13.4l-2.9-5l-2.9-5h22c1.7-0.1,3.2-0.2,4.8-0.5c1.8-0.2,3.5-0.6,5.1-1.2
						c0.2,0,0.5-0.1,0.7-0.2c1.4-0.5,2.7-1.1,3.9-1.7c1.5-0.8,3-1.7,4.3-2.7c0.4-0.2,0.8-0.6,1.2-1c1-0.7,1.8-1.5,2.6-2.4
						c1.7-1.8,3.2-3.7,4.4-5.7c1.9-3.1,3.2-6.5,3.9-10.1c0.4-1.7,0.5-3.6,0.6-5.4c0-1.8-0.1-3.7-0.4-5.5c-0.5-3.5-1.7-7-3.3-10.1
						c-1.8-3.2-4-6.1-6.7-8.6c-2.7-2.4-5.8-4.4-9.2-5.7c-3.3-1.4-6.9-2.1-10.5-2.4h-1.3H973h-50.3v138.7h-33.4V154.7H973h0.4
						l2.7,0.1c7.5,0.4,14.9,1.9,21.8,4.9c6.9,2.9,13.3,6.9,18.8,11.9c5.5,5,10.1,10.9,13.7,17.5c3.6,6.5,5.8,13.7,7,21.1
						C1037.8,213.8,1038,217.6,1037.9,221.3 M1074.7,309.2c0.1,0.4,0.1,0.8,0.1,1.3c0,1.3-0.1,2.5-0.5,3.8c-0.2,0.8-0.5,1.8-0.8,2.6
						c-0.4,0.7-0.7,1.4-1.1,2c-0.7,1.3-1.5,2.4-2.6,3.5c-1.5,1.5-3.3,2.9-5.4,3.7c-2.1,0.8-4.3,1.2-6.5,1.2c-2.1,0-4.3-0.4-6.4-1.2
						c-2-0.8-3.9-2.1-5.5-3.7c-1.6-1.5-2.7-3.5-3.6-5.5s-1.3-4.2-1.3-6.4c0-2.3,0.5-4.4,1.3-6.4c0.6-1.5,1.5-3.1,2.6-4.4
						c0.4-0.4,0.6-0.7,1-1.1c0.8-0.8,1.8-1.7,2.9-2.3c0.8-0.6,1.7-1.1,2.6-1.4l2.1-0.7c1.4-0.4,2.9-0.5,4.3-0.5c0.7,0,1.4,0,2,0.1
						c1.5,0.1,3,0.5,4.5,1.1c2,0.8,3.8,2.1,5.4,3.7c1.3,1.3,2.4,2.7,3.2,4.4c0.1,0.4,0.4,0.7,0.5,1.1
						C1074.2,305.8,1074.6,307.4,1074.7,309.2 M1287.3,326.8h-33.5v-69.4h-86.5v69.4h-33.4V154.6h33.4V224h86.5v-69.5h33.5V326.8z
						 M1443.3,159.8l-3,5l-8,13.4l-5.9,10H1334v36h101.7v33.4H1334v35.8h101.7v33.5h-135.1V154.8h145.8L1443.3,159.8z M1412.3,202.2
						v-0.2h0.1L1412.3,202.2z M1639.4,325.5l-2.9-5.7l-2.3-4.4l-8.3-16.7l-3.5-6.8l-5-10l-2.6-5l-2.5-5l-36.9-73.4l-2.9-5.7
						l-2.3-4.3l-0.6-1.3l-1.9-3.8l-0.9-1.8l-1.5-3.2l-1.2-2.4l-2.9-5.6l-5.2-10.5l-2.3-4.4l-0.1-0.2l-0.1-0.4l-2.6-5l-2.5-5
						l-0.2-0.6l-2.9,5.6l-2.5,5l-0.1,0.4l-0.1,0.2l-2.3,4.4l-5.2,10.5l-2.9,5.6l-1.2,2.4l-1.7,3.2l-0.8,1.8l-1.9,3.8l-0.7,1.3l-5,10
						l-36.9,73.4l-2.6,5l-5,10l-5.9,11.8l-3.3,6.7l-2.5,4.9v0.1l-1.2,2.3l-1.4,2.7l-0.7,1.5l-4.3,8.6l-0.8,1.5h37.6l0.7-1.5l4.3-8.6
						l0.8-1.5h97.1l0.8,1.5l1.3,2.9l0.4,0.7l0.8,1.4l1.8,3.6l0.7,1.5h37.5L1639.4,325.5z M1516.5,282l5.1-10l21.1-41.9l2.7-5.6
						l2.9-5.6l2.7,5.6l2.9,5.6l21.1,41.9l5,10H1516.5z M1788.5,327.1h-135.1V154.8h33.5v138.8h101.6V327.1z M1942.9,159.8l-3,5
						l-8,13.4l-5.9,10h-92.4v36h101.7v33.4h-101.7v35.8h101.7v33.5h-135.1V154.8H1946L1942.9,159.8z M1911.9,202.2v-0.2h0.1
						L1911.9,202.2z M2110,221.3c0,3.7-0.5,7.4-1.2,11.1c-1.4,7.3-4.2,14.4-8,20.8c-3.8,6.3-8.8,12-14.5,16.8
						c-0.5,0.5-1.1,0.8-1.5,1.2c-1.4,1.1-2.7,2-4.2,3c-1.4,1-2.9,1.8-4.3,2.6l2.5,4.3l2.5,4.4l10.5,18.1l7.7,13.3l2.9,5.1l2.9,5
						h-38.7l-2.9-5l-2.9-5.1l-7.7-13.3l-5.1-8.8l-2.9-5l-2.9-5l-3-5l-2.9-5l-7.7-13.4l-2.9-5l-2.9-5h22c1.7-0.1,3.2-0.2,4.8-0.5
						c1.8-0.2,3.5-0.6,5.1-1.2c0.2,0,0.5-0.1,0.7-0.2c1.4-0.5,2.7-1.1,3.9-1.7c1.6-0.8,3-1.7,4.3-2.7c0.4-0.2,0.8-0.6,1.2-1
						c1-0.7,1.8-1.5,2.6-2.4c1.7-1.8,3.2-3.7,4.4-5.7c1.9-3.1,3.2-6.5,3.9-10.1c0.4-1.7,0.5-3.6,0.6-5.4c0-1.8-0.1-3.7-0.4-5.5
						c-0.5-3.5-1.7-7-3.3-10.1c-1.8-3.2-4-6.1-6.7-8.6c-2.7-2.4-5.8-4.4-9.2-5.7c-3.3-1.4-6.9-2.1-10.5-2.4h-1.3h-0.2h-50.3v138.7
						h-33.4V154.7h83.7h0.4l2.7,0.1c7.5,0.4,14.9,1.9,21.8,4.9c6.9,2.9,13.3,6.9,18.8,11.9c5.5,5,10.1,10.9,13.7,17.5
						c3.6,6.5,5.8,13.7,7,21.1C2109.9,213.8,2110.1,217.6,2110,221.3"/>
				</defs>
				<clipPath id="SVGID_4_">
					<use xlink:href="#SVGID_3_"  style="overflow:visible;"/>
				</clipPath>
				
					<radialGradient id="SVGID_5_" cx="-1825.3143" cy="-473.7377" r="3.7266" gradientTransform="matrix(139.5074 0 0 -139.5074 256026.3594 -65846.2266)" gradientUnits="userSpaceOnUse">
					<stop  offset="0" style="stop-color:#FB71FF"/>
					<stop  offset="0.9946" style="stop-color:#77168E"/>
					<stop  offset="1" style="stop-color:#77168E"/>
				</radialGradient>
				<rect x="653.1" y="144.5" class="st2" width="1457" height="198.4"/>
			</g>
		</g>
		<g>
			<path class="st3" d="M731.2,385.2v17.7H703v74.6h-20.8v-74.6h-28.1v-17.7H731.2z"/>
			<path class="st3" d="M799.1,477.5l-14.6-26.4h-2h-19.2v26.4h-20.8v-92.2h40.1c12,0,21.3,2.8,27.9,8.4c6.6,5.6,9.9,13.5,9.9,23.7
				c0,7.1-1.5,13.2-4.4,18.2c-2.9,5.1-7.2,8.9-12.8,11.5l19.6,30.4H799.1z M763.2,433.7h19.2c5.8,0,10.3-1.3,13.4-4
				c3.1-2.7,4.7-6.6,4.7-11.8c0-5.1-1.6-8.9-4.7-11.5c-3.1-2.6-7.6-3.9-13.4-3.9h-19.2V433.7z"/>
			<path class="st3" d="M908,385.2v17.3h-49.4v20H903v17.3h-44.4v20.4h50.9v17.3h-71.7v-92.2H908z"/>
			<path class="st3" d="M986.7,459.5H944l-7.2,17.9h-21.5l40.1-92.2h21.5l39.4,92.2h-22.3L986.7,459.5z M980,442.8L965.5,407
				l-14.6,35.8H980z"/>
			<path class="st3" d="M1089.2,385.2v17.7H1061v74.6h-20.8v-74.6h-28.1v-17.7H1089.2z"/>
			<path class="st3" d="M1123.6,385.2l28.7,56.7l28.5-56.7h23.1v92.2h-18.7v-62.3l-26.2,53h-13.4l-26.4-53v62.3h-18.7v-92.2H1123.6z
				"/>
			<path class="st3" d="M1294.4,385.2v17.3H1245v20h44.4v17.3H1245v20.4h50.9v17.3h-71.7v-92.2H1294.4z"/>
			<path class="st3" d="M1395.8,385.2v92.2h-19l-44.7-59.3v59.3h-19.9v-92.2h19l44.8,59.6v-59.6H1395.8z"/>
			<path class="st3" d="M1484,385.2v17.7h-28.2v74.6H1435v-74.6H1407v-17.7H1484z"/>
			<path class="st3" d="M1592.3,385.2l-0.1,17.3h-45.3v22.7h41.6v17.4h-41.6v34.9h-20.8v-92.2H1592.3z"/>
			<path class="st3" d="M1671.7,390c7.6,4.1,13.5,9.8,17.9,17.1c4.3,7.2,6.5,15.3,6.5,24.2c0,8.9-2.2,17-6.5,24.2
				c-4.3,7.3-10.3,13-17.9,17.2c-7.6,4.2-15.9,6.3-25.2,6.3c-9.2,0-17.6-2.1-25.2-6.3c-7.6-4.2-13.5-9.9-17.9-17.1
				c-4.3-7.2-6.5-15.3-6.5-24.3c0-8.9,2.2-16.9,6.5-24.2c4.3-7.2,10.3-12.9,17.8-17.1c7.5-4.1,15.9-6.2,25.2-6.2
				C1655.7,383.8,1664.1,385.8,1671.7,390z M1632.5,405.8c-4.4,2.6-7.9,6.1-10.4,10.6c-2.5,4.5-3.8,9.4-3.8,14.8
				c0,5.4,1.3,10.4,3.9,14.9c2.6,4.5,6.1,8,10.4,10.7s9.1,4,14.2,4c5.1,0,9.8-1.3,14-3.9c4.3-2.6,7.6-6.1,10.1-10.7
				c2.5-4.5,3.8-9.5,3.8-15c0-5.4-1.3-10.3-3.8-14.8c-2.5-4.5-5.9-8-10.1-10.6c-4.3-2.6-8.9-3.9-14-3.9
				C1641.7,402,1636.9,403.3,1632.5,405.8z"/>
			<path class="st3" d="M1766.4,477.5l-14.6-26.4h-2h-19.2v26.4h-20.8v-92.2h40.1c12,0,21.3,2.8,27.9,8.4c6.6,5.6,9.9,13.5,9.9,23.7
				c0,7.1-1.5,13.2-4.4,18.2c-2.9,5.1-7.2,8.9-12.8,11.5l19.6,30.4H1766.4z M1730.6,433.7h19.2c5.8,0,10.3-1.3,13.4-4
				c3.1-2.7,4.7-6.6,4.7-11.8c0-5.1-1.6-8.9-4.7-11.5c-3.1-2.6-7.6-3.9-13.4-3.9h-19.2V433.7z"/>
			<path class="st3" d="M1896.8,459.5h-42.7l-7.2,17.9h-21.5l40.1-92.2h21.5l39.4,92.2h-22.3L1896.8,459.5z M1890.1,442.8
				l-14.5-35.8l-14.6,35.8H1890.1z"/>
			<path class="st3" d="M1956.8,385.2v74h39.5v18.2H1936v-92.2H1956.8z"/>
			<path class="st3" d="M2029.5,385.2v74h39.5v18.2h-60.3v-92.2H2029.5z"/>
		</g>
	</g>
	<g>
		<defs>
			<path id="SVGID_6_" d="M38,329c0,150.9,122.4,273.3,273.3,273.3c150.9,0,273.3-122.4,273.3-273.3
				c0-150.9-122.4-273.3-273.3-273.3C160.4,55.7,38,178.1,38,329"/>
		</defs>
		<clipPath id="SVGID_7_">
			<use xlink:href="#SVGID_6_"  style="overflow:visible;"/>
		</clipPath>
		<g class="st4">
			<path class="st5" d="M249.7,252.8c0.2,31.6,1.1,60.8-4.3,82.6c-5.1,17.6-15.6,20.1-28.1,7.3c-16.2-17.5-33.5-52.9-43.8-74.8
				c-13.7-28.6-44.3-27-63.2,0c-2.6,4.7-4.7,10.1-6.3,16l0,0c-3,14.4-4.6,29.1-4.6,44.1c0,12.1,1,24,3,35.5
				c8,44.6,29,80.9,58.4,100.7c-12.5-18.4-21.9-69.2-21.9-107.6c-0.4-9.7,0.3-18.7,2.5-26.5c3.2-8.5,8.8-8.4,13-0.2
				c17.8,35.8,45.7,80.3,66.9,99.1c20.1,17.3,44.6,15,57.8-7.6c15.6-29.1,21.9-93.1,21.8-143.2c0.2-13.3,0.7-23.1,1.8-28.4
				c1.6-7.3,5.3-11,9-11.1c3.7,0.1,7.4,3.8,9,11.1c1.2,5.3,1.7,15.1,1.8,28.4c-0.1,50.1,6.3,114,21.8,143.2
				c13.2,22.6,37.7,24.8,57.8,7.6c21.2-18.8,49.1-63.3,66.9-99.1c4.2-8.2,9.8-8.4,13,0.2c2.1,7.8,2.9,16.7,2.5,26.5
				c0,38.4-9.3,89.3-21.9,107.6c21.8-14.7,39.5-38.4,50.2-67.9c3.7-10.3,6.2-21.3,8.3-32.8c2-11.6,3-23.4,3-35.5
				c0-15-1.6-29.7-4.6-44.1l0,0c-1.6-5.9-3.7-11.3-6.3-16c-18.9-27-49.4-28.6-63.2,0c-10.2,21.9-27.6,57.2-43.8,74.8
				c-12.5,12.8-23,10.3-28.1-7.3c-5.4-21.8-4.5-51-4.3-82.6c1.2-46.8-23.3-86.4-62.1-86.4C273,166.3,248.5,205.9,249.7,252.8"/>
			<radialGradient id="SVGID_8_" cx="150.8949" cy="24.0219" r="569.5963" gradientUnits="userSpaceOnUse">
				<stop  offset="0" style="stop-color:#FB71FF"/>
				<stop  offset="0.9946" style="stop-color:#77168E"/>
				<stop  offset="1" style="stop-color:#77168E"/>
			</radialGradient>
			<path class="st6" d="M524.3,328c0-15-1.6-29.7-4.6-44.1l0,0c-1.6-5.9-3.7-11.3-6.3-16c-18.9-27-49.4-28.6-63.2,0
				c-10.2,21.9-27.6,57.2-43.8,74.8c-12.5,12.8-23,10.3-28.1-7.3c-5.4-21.8-4.5-51-4.3-82.6c1.2-46.8-23.3-86.4-62.1-86.4
				c-38.9,0-63.4,39.6-62.1,86.4c0.2,31.6,1.1,60.8-4.3,82.6c-5.1,17.6-15.6,20.1-28.1,7.3c-16.2-17.5-33.5-52.9-43.8-74.8
				c-13.7-28.6-44.3-27-63.2,0c-2.6,4.7-4.7,10.1-6.3,16l0,0c-3,14.4-4.6,29.1-4.6,44.1c0,12.1,1,24,3,35.5
				c8,44.6,29,80.9,58.4,100.7c-12.5-18.4-21.9-69.2-21.9-107.6c-0.4-9.7,0.3-18.7,2.5-26.5c3.2-8.5,8.8-8.4,13-0.2
				c17.8,35.8,45.7,80.3,66.9,99.1c20.1,17.3,44.6,15,57.8-7.6c15.6-29.1,21.9-93.1,21.8-143.2c0.2-13.3,0.7-23.1,1.8-28.4
				c1.6-7.3,5.3-11,9-11.1c3.7,0.1,7.4,3.8,9,11.1c1.2,5.3,1.7,15.1,1.8,28.4c-0.1,50,6.3,114,21.8,143.2
				c13.2,22.6,37.7,24.8,57.8,7.6c21.2-18.8,49.1-63.3,66.9-99.1c4.2-8.2,9.8-8.4,13,0.2c2.1,7.8,2.9,16.7,2.5,26.5
				c0,38.4-9.3,89.3-21.9,107.6c21.8-14.7,39.5-38.4,50.2-67.9c3.7-10.3,6.2-21.3,8.3-32.8C523.2,352,524.3,340.1,524.3,328"/>
			<path class="st5" d="M425.8,402.2c3.4-4.7,6.9-9.6,10.3-14.8c-2.2,0.1-4.4,0.6-6.6,1.3c-16.9,5.8-37.1,9.5-60.1,11.1l-0.3,0
				c-10.5,0.9-21.1,1.9-31.6,4.3c1.3,4,2.6,7.7,4.1,11.1c8.9-1.9,18.3-2.9,28.6-3.8C389.8,410.1,408.7,407.2,425.8,402.2"/>
			<path class="st7" d="M518.3,279.3c-1.4-4.1-3-7.9-4.9-11.4c-5.8-8.4-12.8-14.3-20-17.6c10.2,23.8,15.9,50.1,15.9,77.6
				c0,42.8-13.7,82.4-36.9,114.8c-2.8,9-6,16.5-9.5,21.6c18.4-12.4,33.9-31.3,44.7-54.6c1.8-4.3,3.9-8.8,5.5-13.3
				c1.6-4.7,3-9.4,4.3-14.2c4.5-17.3,6.6-35.5,6.6-54.3C523.9,311.1,521.9,294.9,518.3,279.3"/>
			<radialGradient id="SVGID_9_" cx="165.6872" cy="-20.7953" r="602.3719" gradientUnits="userSpaceOnUse">
				<stop  offset="0" style="stop-color:#FB71FF"/>
				<stop  offset="0.9946" style="stop-color:#77168E"/>
				<stop  offset="1" style="stop-color:#77168E"/>
			</radialGradient>
			<path class="st8" d="M56.9,228.9C45,259.6,38.4,293,38.4,328h61.5c0-116.9,95.1-212,212-212s212,95.1,212,212h0.4
				c-0.5,38.4-9.5,72.6-26.7,102.8l-52.3,76.6l-47.7,32.2l-9,50.9c35.7-10.4,68.4-27.9,96.5-50.9l0.2,0.2
				c7.4-6.1,14.5-12.7,21.3-19.6l-0.1-0.1c5-5.1,9.8-10.3,14.4-15.7c1.9-2.2,3.7-4.5,5.5-6.8l21-30.8
				c23.7-40.5,37.2-87.5,37.2-137.8c0-150.9-122.4-273.3-273.3-273.3C195.7,55.7,96.9,127.5,56.9,228.9"/>
			<path class="st9" d="M38.4,328c0,151,122.4,273.5,273.5,273.5c4.6,0,9.1-0.1,13.6-0.3l0,0c7.1-0.6,14.4-1,21.4-2
				c56.9-7.5,111.4-26.7,154.4-56.8c7.7-7.2,2-14.7-5.6-11.3c-18.9,9.5-39,17.1-60.8,21.6c40.4-15.6,87.4-44.2,104.3-64
				c7.9-10.6-2-14.4-7-11.1c-28.7,18.4-74.3,41.2-102.8,48.2c38.7-16.9,90.8-54,105.5-79.1c5.3-12.6-5.5-15.3-11.2-9.9
				c-34.2,30.1-80.8,59.5-120.8,66c19.7-7.9,40.7-19.5,56.6-30.3c31.7-22.4,54.7-44.8,60.8-59.9c5.1-16.8-9.7-20.4-17.5-10.7
				c-35,43.1-98.1,74.4-146.9,78.2c-8.6,0.3-11.3-8.9-5.1-12.6c9.1-4.9,20.2-10,35-14.2c28.9-9.3,50.2-21.8,58.6-37.1
				c5.8-11.9-1.7-19.4-11.1-16.2c-19,6.5-40.6,10.2-63.1,11.7c-29.5,2.6-52.6,5.5-73.5,31.6c-10.7,15.4-25.3,26.1-44.5,30.9
				c-10.9,3.3-22.2,5.5-33.6,6.8c-59,2.2-103.6-47.2-116.1-117.2c-2-11.6-3-23.4-3-35.5h0.4c0-45,14.1-86.7,38.1-121l-44-44
				C59.1,208.8,38.4,266,38.4,328"/>
			<path class="st5" d="M97.1,189.8c0,22.7,18.4,41.1,41.1,41.1c22.7,0,41.1-18.4,41.1-41.1c0-22.7-18.4-41.1-41.1-41.1
				C115.5,148.7,97.1,167.1,97.1,189.8"/>
			<path class="st5" d="M179.2,189.8c0,22.7-18.4,41.1-41.1,41.1c-22.7,0-41.1-18.4-41.1-41.1c0-22.7,18.4-41.1,41.1-41.1
				C160.8,148.7,179.2,167.1,179.2,189.8"/>
			<path class="st5" d="M179.2,189.8c0,22.7-18.4,41.1-41.1,41.1c-22.7,0-41.1-18.4-41.1-41.1c0-22.7,18.4-41.1,41.1-41.1
				C160.8,148.7,179.2,167.1,179.2,189.8"/>
			<path class="st7" d="M130.4,250.3c-7.2,3.4-14.2,9.3-20,17.6c-1.9,3.4-3.5,7.2-4.9,11.4c-3.7,15.6-5.6,31.9-5.6,48.6
				c0,23.8,3.9,46.7,11.2,68c10.7,29.7,27.9,53.6,49.9,68.4c-3.4-5-6.6-12.6-9.5-21.6c-23.2-32.4-36.9-72-36.9-114.8
				C114.5,300.3,120.2,274.1,130.4,250.3"/>
			<path class="st7" d="M548.1,453.2l0.4-0.9c5-11.9,1.6-20-0.9-23.8c-3.2-4.9-8.5-8.1-14.4-8.9c0.3-0.6,0.5-1.2,0.8-1.8l0.2-0.6
				l0.2-0.6c4.1-13.3-0.1-21.9-3-25.8c-3.4-4.6-8.4-7.7-14-8.7c-1.2,4.8-2.7,9.5-4.3,14.2c5.9,0.1,10.6,5.4,7.3,16
				c-4.7,11.7-19.6,27.8-40.8,44.9l-14.8,21.7c21.2-12,41.7-27.1,59.1-42.3c5.7-5.4,16.5-2.7,11.2,9.9
				c-14.8,25-66.8,62.2-105.5,79.1c28.5-6.9,74.1-29.7,102.8-48.2c2.3-1.5,5.7-1.5,7.9,0l8.2-12.1c-2-1.3-4.2-2.4-6.5-3
				c2.2-2.9,4.2-5.7,5.8-8.4L548.1,453.2z"/>
			<radialGradient id="SVGID_10_" cx="490.0187" cy="188.0469" r="49.6952" gradientUnits="userSpaceOnUse">
				<stop  offset="0" style="stop-color:#FB71FF"/>
				<stop  offset="0.9946" style="stop-color:#77168E"/>
				<stop  offset="1" style="stop-color:#77168E"/>
			</radialGradient>
			<path class="st10" d="M533.6,167.9c-5-6.9-10.3-13.5-15.9-19.9c-8.9-6.9-20-10.9-32.1-10.9c-18.3,0-34.4,9.3-43.9,23.5
				c3.1,2.4,6.1,4.9,9.1,7.5c7.3-11.6,20.1-19.3,34.8-19.3c22.7,0,41.1,18.4,41.1,41.1c0,18-11.5,33.2-27.6,38.8
				c1.8,3.5,3.6,7,5.3,10.5c19.9-7.6,34-26.8,34-49.3C538.3,182,536.6,174.6,533.6,167.9"/>
			<radialGradient id="SVGID_11_" cx="311.8668" cy="88.7733" r="47.3919" gradientUnits="userSpaceOnUse">
				<stop  offset="0" style="stop-color:#FB71FF"/>
				<stop  offset="0.9946" style="stop-color:#77168E"/>
				<stop  offset="1" style="stop-color:#77168E"/>
			</radialGradient>
			<path class="st11" d="M345,56.5c-10.9-1.3-21.9-2-33.2-2c-11.2,0-22.3,0.7-33.2,2c-14.8,10.4-24.4,27.6-24.4,47.1
				c0,6.8,1.2,13.4,3.4,19.4c3.8-1,7.6-1.9,11.5-2.7c-2-5.2-3.2-10.8-3.2-16.7c0-25.4,20.6-45.9,45.9-45.9s45.9,20.6,45.9,45.9
				c0,5.9-1.1,11.6-3.2,16.7c3.9,0.8,7.7,1.7,11.5,2.7c2.2-6.1,3.4-12.6,3.4-19.4C369.5,84.2,359.8,67,345,56.5"/>
			<radialGradient id="SVGID_12_" cx="133.7142" cy="188.0477" r="49.696" gradientUnits="userSpaceOnUse">
				<stop  offset="0" style="stop-color:#FB71FF"/>
				<stop  offset="0.9946" style="stop-color:#77168E"/>
				<stop  offset="1" style="stop-color:#77168E"/>
			</radialGradient>
			<path class="st12" d="M97.1,189.8c0-22.7,18.4-41.1,41.1-41.1c14.7,0,27.5,7.7,34.8,19.3c3-2.6,6-5.1,9.1-7.5
				c-9.5-14.2-25.6-23.5-43.9-23.5c-12.1,0-23.2,4.1-32.1,10.9c-5.6,6.4-10.9,13-15.9,19.9c-3.1,6.7-4.8,14.1-4.8,21.9
				c0,22.5,14.2,41.7,34,49.3c1.7-3.6,3.4-7.1,5.3-10.5C108.6,223,97.1,207.7,97.1,189.8"/>
			<path class="st13" d="M266,103.6c0,25.4,20.6,45.9,45.9,45.9s45.9-20.6,45.9-45.9c0-25.4-20.6-45.9-45.9-45.9S266,78.2,266,103.6
				"/>
			<path class="st13" d="M105.6,189.9c0,18,14.6,32.6,32.6,32.6s32.6-14.6,32.6-32.6c0-18-14.6-32.6-32.6-32.6
				S105.6,171.9,105.6,189.9"/>
			<path class="st13" d="M450.6,189.9c0,18,14.6,32.6,32.6,32.6c18,0,32.6-14.6,32.6-32.6c0-18-14.6-32.6-32.6-32.6
				C465.2,157.3,450.6,171.9,450.6,189.9"/>
		</g>
	</g>
</g>
<path class="st14" d="M-293.9,2980.1c-10-2.2-20.1-3.8-30-6.6c-20.3-5.7-39.2-14.8-57.3-25.2c-51.5-29.8-95.5-68.5-134.6-113.1
	c-25.3-28.9-47.5-60.1-64.6-94.6c-10.5-21.3-18.8-43.3-21.6-67c-1.8-14.9-1.3-29.7,6-43.3c2.3-4.3,5.3-8.4,8.7-11.9
	c11.9-12.3,24.2-24.1,36.2-36.3c16.6-17,42.3-15.2,57.9,0c18.6,18.2,37,36.6,55.3,55.2c16.1,16.3,16.2,40.8,0.2,55.8
	c-3.4,3.2-7.8,5.7-12.2,7.4c-11.2,4.4-20,11.1-24.8,22.4c-3.2,7.5-3.7,15.1-1.6,23.1c6,22.3,18.6,40.6,33.8,57.4
	c15.8,17.4,33.7,32.3,55,42.7c9.4,4.6,19,8.6,29.9,7.2c14.7-1.9,25.9-9,31.7-23c3.6-8.7,7.8-16.6,16.1-21.8
	c15.5-9.7,34.5-7.9,48.2,5.4c19.2,18.7,38.3,37.7,56.9,56.9c15.3,15.8,14.7,40.9-0.8,56.7c-12.3,12.5-24.7,24.7-37.1,37.1
	c-8.8,8.8-19.5,13.2-31.6,14.9c-1,0.1-2,0.5-3,0.8C-282.7,2980.1-288.3,2980.1-293.9,2980.1z"/>
<path class="st15" d="M1565,2965.5H-240.1c-150.7,0-272.9-122.2-272.9-272.9v-108.1h2078V2965.5z"/>
<g>
	<path class="st14" d="M54.4,2628.7h38.5v292.7H54.4v-131.7H-87.7v131.7h-38.9v-292.7h38.9v124.2H54.4V2628.7z"/>
	<path class="st14" d="M399.2,2882.5c-29.4,29.6-65.3,44.3-107.7,44.3c-42.4,0-78.2-14.8-107.5-44.3
		c-29.3-29.5-43.9-65.4-43.9-107.5c0-42.4,14.6-78.3,43.9-107.7c29.3-29.4,65.1-44.1,107.5-44.1c42.4,0,78.3,14.7,107.7,44.1
		c29.4,29.4,44.1,65.3,44.1,107.7C443.3,2817.1,428.6,2853,399.2,2882.5z M211,2856c21.6,21.9,48.4,32.8,80.5,32.8
		c32.1,0,58.9-10.9,80.5-32.8c21.6-21.9,32.4-48.9,32.4-80.9c0-32.3-10.8-59.4-32.4-81.3c-21.6-21.9-48.4-32.8-80.5-32.8
		c-32.1,0-58.9,10.9-80.5,32.8c-21.6,21.9-32.4,49-32.4,81.3C178.6,2807.1,189.4,2834.1,211,2856z"/>
	<path class="st14" d="M660.8,2628.7v36.8h-86.6v255.9h-38.5v-255.9h-86.1v-36.8H660.8z"/>
	<path class="st14" d="M738.2,2884.6h126.3v36.8H699.3v-292.7h38.9V2884.6z"/>
	<path class="st14" d="M903.3,2628.7h38.9v292.7h-38.9V2628.7z"/>
	<path class="st14" d="M1186.9,2628.7h38.9v292.7h-31.4l-150.5-218.7v218.7H1005v-292.7h31.4l150.5,218.3V2628.7z"/>
	<path class="st14" d="M1327.4,2884.6h135.9v36.8h-174.8v-292.7h172.7v36.8h-133.8v89.9h123.4v36.4h-123.4V2884.6z"/>
</g>
</svg>
