<?xml version="1.0" encoding="utf-8"?>
<!-- Generator: Adobe Illustrator 25.2.3, SVG Export Plug-In . SVG Version: 6.00 Build 0)  -->
<svg version="1.1" id="Layer_1" xmlns="http://www.w3.org/2000/svg" xmlns:xlink="http://www.w3.org/1999/xlink" x="0px" y="0px"
	 viewBox="0 0 380 440" style="enable-background:new 0 0 380 440;" xml:space="preserve">
<style type="text/css">
	.st0{clip-path:url(#SVGID_1_);}
	.st1{clip-path:url(#SVGID_2_);fill:url(#SVGID_3_);}
	.st2{fill:url(#SVGID_4_);}
	.st3{fill:none;}
	.st4{fill:#FFFFFF;}
	.st5{fill:#D3D3D3;}
</style>
<g>
	<defs>
		<rect id="SVGID_7_" x="15.7" y="377.8" width="348.7" height="47.5"/>
	</defs>
	<clipPath id="SVGID_1_">
		<use xlink:href="#SVGID_7_"  style="overflow:visible;"/>
	</clipPath>
	<g class="st0">
		<defs>
			<path id="SVGID_9_" d="M66.3,380.7l1.2-1.5v42.3h-8v-19.1l-2.4,3.1l-7.2,9.2l-0.9,1.2l-0.8,1l-1.5,1.9l-0.2,0.3l-0.6,0.7
				l-0.4,0.5l-0.4,0.5l-0.6,0.7l-0.9,1.2l-0.5,0.7l-0.4,0.5l-0.3,0.5l-0.8,1l-0.8-1l-0.4-0.5l-0.4-0.5l-0.5-0.7l-0.9-1.2l-0.5-0.7
				l-0.4-0.5l-0.4-0.5l-0.6-0.7l-0.2-0.3l-1.5-1.9l-0.8-1l-0.9-1.2l-1.9-2.4l-1-1.2l-4.2-5.4l-2.4-3.1v18.9h-8v-42.1l2.4,3l3.2,4.1
				l3.6,4.6l1.2,1.5L40,410.3l0.5,0.7l0.2,0.3l0.7,0.9l0.1,0.1l0-0.1l0.7-0.9l0.2-0.3l0.5-0.7l14-17.9l4.8-6.1l3.2-4.1L66.3,380.7z
				 M107.8,396.2c0,0.9-0.1,1.8-0.3,2.6c-0.3,1.7-1,3.4-1.9,5c-0.9,1.5-2.1,2.9-3.5,4c-0.1,0.1-0.3,0.2-0.4,0.3
				c-0.3,0.3-0.7,0.5-1,0.7c-0.3,0.2-0.7,0.4-1,0.6l0.6,1l0.6,1.1l2.5,4.3l1.9,3.2l0.7,1.2l0.7,1.2h-9.3l-0.7-1.2L96,419l-1.8-3.2
				l-1.2-2.1l-0.7-1.2l-0.7-1.2l-0.7-1.2l-0.7-1.2l-1.9-3.2l-0.7-1.2l-0.7-1.2h5.3c0.4,0,0.8-0.1,1.1-0.1c0.4-0.1,0.8-0.1,1.2-0.3
				c0.1,0,0.1,0,0.2-0.1c0.3-0.1,0.7-0.3,0.9-0.4c0.4-0.2,0.7-0.4,1-0.7c0.1-0.1,0.2-0.1,0.3-0.2c0.2-0.2,0.4-0.4,0.6-0.6
				c0.4-0.4,0.8-0.9,1.1-1.4c0.5-0.7,0.8-1.6,0.9-2.4c0.1-0.4,0.1-0.9,0.1-1.3c0-0.4,0-0.9-0.1-1.3c-0.1-0.8-0.4-1.7-0.8-2.4
				c-0.4-0.8-1-1.5-1.6-2.1c-0.7-0.6-1.4-1.1-2.2-1.4c-0.8-0.3-1.7-0.5-2.5-0.6h-0.3h-0.1h-12v33.2h-8v-41.2h20h0.1l0.7,0
				c1.8,0.1,3.6,0.5,5.2,1.2c1.7,0.7,3.2,1.7,4.5,2.8c1.3,1.2,2.4,2.6,3.3,4.2c0.9,1.6,1.4,3.3,1.7,5
				C107.7,394.4,107.8,395.3,107.8,396.2 M116.6,417.2c0,0.1,0,0.2,0,0.3c0,0.3,0,0.6-0.1,0.9c-0.1,0.2-0.1,0.4-0.2,0.6
				c-0.1,0.2-0.2,0.3-0.3,0.5c-0.2,0.3-0.4,0.6-0.6,0.8c-0.4,0.4-0.8,0.7-1.3,0.9c-0.5,0.2-1,0.3-1.6,0.3c-0.5,0-1-0.1-1.5-0.3
				c-0.5-0.2-0.9-0.5-1.3-0.9c-0.4-0.4-0.7-0.8-0.9-1.3c-0.2-0.5-0.3-1-0.3-1.5c0-0.5,0.1-1.1,0.3-1.5c0.1-0.4,0.4-0.7,0.6-1.1
				c0.1-0.1,0.1-0.2,0.2-0.3c0.2-0.2,0.4-0.4,0.7-0.5c0.2-0.1,0.4-0.3,0.6-0.3l0.5-0.2c0.3-0.1,0.7-0.1,1-0.1c0.2,0,0.3,0,0.5,0
				c0.4,0,0.7,0.1,1.1,0.3c0.5,0.2,0.9,0.5,1.3,0.9c0.3,0.3,0.6,0.7,0.8,1.1c0,0.1,0.1,0.2,0.1,0.3
				C116.5,416.4,116.5,416.8,116.6,417.2 M167.5,421.4h-8v-16.6h-20.7v16.6h-8v-41.2h8v16.6h20.7v-16.6h8V421.4z M204.8,381.5
				l-0.7,1.2l-1.9,3.2l-1.4,2.4h-22.1v8.6H203v8h-24.3v8.6H203v8h-32.3v-41.2h34.9L204.8,381.5z M197.4,391.6L197.4,391.6
				L197.4,391.6L197.4,391.6z M251.7,421.1l-0.7-1.4l-0.5-1.1l-2-4l-0.8-1.6l-1.2-2.4l-0.6-1.2l-0.6-1.2l-8.8-17.6l-0.7-1.4l-0.5-1
				l-0.1-0.3l-0.5-0.9l-0.2-0.4l-0.4-0.8l-0.3-0.6L233,384l-1.3-2.5l-0.5-1.1l0-0.1l0-0.1l-0.6-1.2l-0.6-1.2l-0.1-0.1l-0.7,1.3
				l-0.6,1.2l0,0.1l0,0.1l-0.5,1.1l-1.3,2.5l-0.7,1.3l-0.3,0.6l-0.4,0.8l-0.2,0.4l-0.5,0.9l-0.2,0.3l-1.2,2.4l-8.8,17.6l-0.6,1.2
				l-1.2,2.4l-1.4,2.8l-0.8,1.6l-0.6,1.2v0l-0.3,0.5l-0.3,0.7l-0.2,0.4l-1,2.1l-0.2,0.4h9l0.2-0.4l1-2.1l0.2-0.4h23.2l0.2,0.4
				l0.3,0.7l0.1,0.2l0.2,0.3l0.4,0.9l0.2,0.4h9L251.7,421.1z M222.3,410.7l1.2-2.4l5-10l0.7-1.3l0.7-1.3l0.7,1.3l0.7,1.3l5,10
				l1.2,2.4H222.3z M287.4,421.5h-32.3v-41.2h8v33.2h24.3V421.5z M324.4,381.5l-0.7,1.2l-1.9,3.2l-1.4,2.4h-22.1v8.6h24.3v8h-24.3
				v8.6h24.3v8h-32.3v-41.2h34.9L324.4,381.5z M316.9,391.6L316.9,391.6L316.9,391.6L316.9,391.6z M364.3,396.2
				c0,0.9-0.1,1.8-0.3,2.6c-0.3,1.7-1,3.4-1.9,5c-0.9,1.5-2.1,2.9-3.5,4c-0.1,0.1-0.3,0.2-0.4,0.3c-0.3,0.3-0.7,0.5-1,0.7
				c-0.3,0.2-0.7,0.4-1,0.6l0.6,1l0.6,1.1l2.5,4.3l1.9,3.2l0.7,1.2l0.7,1.2h-9.3l-0.7-1.2l-0.7-1.2l-1.9-3.2l-1.2-2.1l-0.7-1.2
				l-0.7-1.2l-0.7-1.2l-0.7-1.2l-1.9-3.2l-0.7-1.2l-0.7-1.2h5.3c0.4,0,0.8-0.1,1.1-0.1c0.4-0.1,0.8-0.1,1.2-0.3c0.1,0,0.1,0,0.2-0.1
				c0.3-0.1,0.7-0.3,0.9-0.4c0.4-0.2,0.7-0.4,1-0.7c0.1-0.1,0.2-0.1,0.3-0.2c0.2-0.2,0.4-0.4,0.6-0.6c0.4-0.4,0.8-0.9,1.1-1.4
				c0.5-0.7,0.8-1.6,0.9-2.4c0.1-0.4,0.1-0.9,0.1-1.3c0-0.4,0-0.9-0.1-1.3c-0.1-0.8-0.4-1.7-0.8-2.4c-0.4-0.8-1-1.5-1.6-2.1
				c-0.7-0.6-1.4-1.1-2.2-1.4c-0.8-0.3-1.7-0.5-2.5-0.6h-0.3h-0.1h-12v33.2h-8v-41.2h20h0.1l0.7,0c1.8,0.1,3.6,0.5,5.2,1.2
				c1.7,0.7,3.2,1.7,4.5,2.8c1.3,1.2,2.4,2.6,3.3,4.2c0.9,1.6,1.4,3.3,1.7,5C364.3,394.4,364.4,395.3,364.3,396.2"/>
		</defs>
		<clipPath id="SVGID_2_">
			<use xlink:href="#SVGID_9_"  style="overflow:visible;"/>
		</clipPath>
		
			<radialGradient id="SVGID_3_" cx="-559.0383" cy="972.9349" r="0.8919" gradientTransform="matrix(139.5074 0 0 -139.5074 78179.9688 136133.0938)" gradientUnits="userSpaceOnUse">
			<stop  offset="0" style="stop-color:#FB71FF"/>
			<stop  offset="0.9946" style="stop-color:#77168E"/>
			<stop  offset="1" style="stop-color:#77168E"/>
		</radialGradient>
		<rect x="15.7" y="377.8" class="st1" width="348.7" height="47.5"/>
	</g>
</g>
<g>
	
		<radialGradient id="SVGID_4_" cx="-392.7019" cy="344.8401" r="61.7151" gradientTransform="matrix(2.8249 0 0 2.8249 1299.3274 -785.0543)" gradientUnits="userSpaceOnUse">
		<stop  offset="0" style="stop-color:#FB71FF"/>
		<stop  offset="0.9946" style="stop-color:#77168E"/>
		<stop  offset="1" style="stop-color:#77168E"/>
	</radialGradient>
	<path class="st2" d="M315.5,363.4h-251c-27,0-48.8-21.9-48.8-48.8v-251c0-27,21.9-48.8,48.8-48.8h251c27,0,48.8,21.9,48.8,48.8v251
		C364.3,341.6,342.5,363.4,315.5,363.4z"/>
	<g>
		<path class="st3" d="M157.3,149.1c0.1,16.8,0.6,32.3-2.3,43.9c-2.7,9.3-8.3,10.7-14.9,3.9c-8.6-9.3-17.8-28.1-23.3-39.7
			c-7.3-15.2-23.5-14.4-33.6,0c-1.4,2.5-2.5,5.3-3.3,8.5l0,0c-1.6,7.6-2.5,15.5-2.5,23.4c0,6.4,0.5,12.7,1.6,18.9
			c4.2,23.7,15.4,43,31.1,53.5c-6.7-9.8-11.6-36.8-11.6-57.2c-0.2-5.2,0.2-9.9,1.3-14.1c1.7-4.5,4.7-4.4,6.9-0.1
			c9.5,19,24.3,42.7,35.5,52.7c10.7,9.2,23.7,8,30.7-4c8.3-15.5,11.7-49.5,11.6-76.1c0.1-7.1,0.4-12.2,1-15.1
			c0.9-3.9,2.8-5.9,4.8-5.9c2,0,3.9,2,4.8,5.9c0.6,2.8,0.9,8,1,15.1c-0.1,26.6,3.3,60.6,11.6,76.1c7,12,20,13.2,30.7,4
			c11.3-10,26.1-33.6,35.5-52.7c2.2-4.4,5.2-4.4,6.9,0.1c1.1,4.1,1.5,8.9,1.3,14.1c0,20.4-5,47.4-11.6,57.2
			c11.6-7.8,21-20.4,26.7-36.1c2-5.5,3.3-11.3,4.4-17.4c1-6.1,1.6-12.5,1.6-18.9c0-8-0.8-15.8-2.5-23.4l0,0c-0.9-3.1-2-6-3.3-8.5
			c-10.1-14.4-26.3-15.2-33.6,0c-5.4,11.6-14.6,30.4-23.3,39.7c-6.6,6.8-12.2,5.5-14.9-3.9c-2.9-11.6-2.4-27.1-2.3-43.9
			c0.7-24.9-12.4-45.9-33-45.9C169.7,103.2,156.7,124.2,157.3,149.1"/>
		<path class="st4" d="M303.2,189.1c0-8-0.8-15.8-2.5-23.4l0,0c-0.9-3.1-2-6-3.3-8.5c-10.1-14.4-26.3-15.2-33.6,0
			c-5.4,11.6-14.6,30.4-23.3,39.7c-6.6,6.8-12.2,5.5-14.9-3.9c-2.9-11.6-2.4-27.1-2.3-43.9c0.7-24.9-12.4-45.9-33-45.9
			c-20.7,0-33.7,21.1-33,45.9c0.1,16.8,0.6,32.3-2.3,43.9c-2.7,9.3-8.3,10.7-14.9,3.9c-8.6-9.3-17.8-28.1-23.3-39.7
			c-7.3-15.2-23.5-14.4-33.6,0c-1.4,2.5-2.5,5.3-3.3,8.5l0,0c-1.6,7.6-2.5,15.5-2.5,23.4c0,6.4,0.5,12.7,1.6,18.9
			c4.2,23.7,15.4,43,31.1,53.5c-6.7-9.8-11.6-36.8-11.6-57.2c-0.2-5.2,0.2-9.9,1.3-14.1c1.7-4.5,4.7-4.4,6.9-0.1
			c9.5,19,24.3,42.7,35.5,52.7c10.7,9.2,23.7,8,30.7-4c8.3-15.5,11.7-49.5,11.6-76.1c0.1-7.1,0.4-12.2,1-15.1
			c0.9-3.9,2.8-5.9,4.8-5.9c2,0,3.9,2,4.8,5.9c0.6,2.8,0.9,8,1,15.1c-0.1,26.6,3.3,60.6,11.6,76.1c7,12,20,13.2,30.7,4
			c11.3-10,26.1-33.6,35.5-52.7c2.2-4.4,5.2-4.4,6.9,0.1c1.1,4.1,1.5,8.9,1.3,14.1c0,20.4-5,47.4-11.6,57.2
			c11.6-7.8,21-20.4,26.7-36.1c2-5.5,3.3-11.3,4.4-17.4C302.7,201.8,303.2,195.5,303.2,189.1"/>
		<path class="st3" d="M250.9,228.5c1.8-2.5,3.7-5.1,5.5-7.8c-1.2,0.1-2.3,0.3-3.5,0.7c-9,3.1-19.7,5.1-31.9,5.9l-0.1,0
			c-5.6,0.5-11.2,1-16.8,2.3c0.7,2.1,1.4,4.1,2.2,5.9c4.7-1,9.7-1.5,15.2-2C231.7,232.7,241.8,231.2,250.9,228.5"/>
		<path class="st4" d="M54.9,136.4c-6.3,16.3-9.8,34.1-9.8,52.6h32.6c0-62.1,50.5-112.6,112.6-112.6S303,127,303,189.1h0.2
			c-0.3,20.4-5,38.6-14.2,54.6l-27.8,40.7l-25.3,17.1l-4.8,27c19-5.5,36.4-14.8,51.3-27.1l0.1,0.1c4-3.3,7.7-6.7,11.3-10.4l-0.1-0.1
			c2.7-2.7,5.2-5.5,7.6-8.4c1-1.2,2-2.4,2.9-3.6l11.2-16.4c12.6-21.5,19.8-46.5,19.8-73.2c0-80.2-65-145.2-145.2-145.2
			C128.6,44.4,76.1,82.5,54.9,136.4"/>
		<path class="st4" d="M45.1,189.1c0,80.2,65,145.3,145.3,145.3c2.4,0,4.8-0.1,7.2-0.2l0,0c3.8-0.3,7.6-0.5,11.4-1
			c30.2-4,59.2-14.2,82-30.2c4.1-3.8,1.1-7.8-3-6c-10,5.1-20.7,9.1-32.3,11.5c21.4-8.3,46.4-23.5,55.4-34c4.2-5.6-1.1-7.7-3.7-5.9
			c-15.3,9.8-39.5,21.9-54.6,25.6c20.6-9,48.2-28.7,56.1-42c2.8-6.7-2.9-8.1-5.9-5.3c-18.2,16-42.9,31.6-64.2,35.1
			c10.5-4.2,21.6-10.3,30-16.1c16.8-11.9,29.1-23.8,32.3-31.8c2.7-8.9-5.1-10.9-9.3-5.7c-18.6,22.9-52.1,39.5-78.1,41.5
			c-4.6,0.2-6-4.7-2.7-6.7c4.8-2.6,10.8-5.3,18.6-7.6c15.3-5,26.7-11.6,31.2-19.7c3.1-6.3-0.9-10.3-5.9-8.6
			c-10.1,3.5-21.6,5.4-33.5,6.2c-15.7,1.4-27.9,2.9-39,16.8c-5.7,8.2-13.4,13.9-23.7,16.4c-5.8,1.8-11.8,2.9-17.9,3.6
			c-31.3,1.2-55-25.1-61.7-62.3c-1-6.1-1.6-12.5-1.6-18.9h0.2c0-23.9,7.5-46.1,20.2-64.3l-23.4-23.4C56,125.7,45.1,156.1,45.1,189.1
			"/>
		<path class="st3" d="M76.3,115.6c0,12,9.8,21.8,21.8,21.8c12,0,21.8-9.8,21.8-21.8c0-12-9.8-21.8-21.8-21.8
			C86,93.8,76.3,103.6,76.3,115.6"/>
		<path class="st3" d="M119.9,115.6c0,12-9.8,21.8-21.8,21.8c-12,0-21.8-9.8-21.8-21.8c0-12,9.8-21.8,21.8-21.8
			C110.1,93.8,119.9,103.6,119.9,115.6"/>
		<path class="st3" d="M119.9,115.6c0,12-9.8,21.8-21.8,21.8c-12,0-21.8-9.8-21.8-21.8c0-12,9.8-21.8,21.8-21.8
			C110.1,93.8,119.9,103.6,119.9,115.6"/>
		<g>
			<path class="st5" d="M300,163.2c-0.7-2.2-1.6-4.2-2.6-6c-3.1-4.4-6.8-7.6-10.6-9.4c5.4,12.7,8.5,26.6,8.5,41.2
				c0,22.7-7.3,43.8-19.6,61c-1.5,4.8-3.2,8.8-5,11.5c9.8-6.6,18-16.6,23.7-29c1-2.3,2.1-4.7,2.9-7c0.8-2.5,1.6-5,2.3-7.5
				c2.4-9.2,3.5-18.9,3.5-28.8C303,180.1,302,171.5,300,163.2"/>
			<path class="st5" d="M93.9,147.8c-3.8,1.8-7.5,4.9-10.6,9.4c-1,1.8-1.9,3.8-2.6,6c-1.9,8.3-3,16.9-3,25.8
				c0,12.6,2.1,24.8,5.9,36.1c5.7,15.8,14.8,28.5,26.5,36.3c-1.8-2.7-3.5-6.7-5-11.5c-12.3-17.2-19.6-38.3-19.6-61
				C85.5,174.4,88.5,160.4,93.9,147.8"/>
			<path class="st5" d="M315.9,255.6l0.2-0.5c2.7-6.3,0.8-10.6-0.5-12.6c-1.7-2.6-4.5-4.3-7.6-4.7c0.1-0.3,0.3-0.6,0.4-1l0.1-0.3
				l0.1-0.3c2.2-7.1-0.1-11.6-1.6-13.7c-1.8-2.5-4.5-4.1-7.5-4.6c-0.7,2.6-1.4,5.1-2.3,7.5c3.1,0,5.6,2.9,3.9,8.5
				c-2.5,6.2-10.4,14.8-21.7,23.9l-7.9,11.5c11.3-6.4,22.2-14.4,31.4-22.5c3-2.9,8.8-1.4,5.9,5.3c-7.8,13.3-35.5,33-56.1,42
				c15.2-3.7,39.3-15.8,54.6-25.6c1.2-0.8,3-0.8,4.2,0l4.4-6.4c-1-0.7-2.2-1.3-3.5-1.6c1.2-1.5,2.2-3,3.1-4.5L315.9,255.6z"/>
		</g>
		<path class="st5" d="M308.1,104c-2.7-3.7-5.5-7.2-8.4-10.6c-4.7-3.6-10.6-5.8-17.1-5.8c-9.7,0-18.3,5-23.3,12.5
			c1.6,1.3,3.3,2.6,4.8,4c3.9-6.1,10.7-10.2,18.5-10.2c12,0,21.8,9.8,21.8,21.8c0,9.5-6.1,17.6-14.7,20.6c1,1.8,1.9,3.7,2.8,5.6
			c10.6-4,18.1-14.2,18.1-26.2C310.7,111.5,309.8,107.6,308.1,104"/>
		<path class="st5" d="M208,44.9c-5.8-0.7-11.7-1.1-17.6-1.1c-6,0-11.8,0.4-17.6,1.1c-7.8,5.5-13,14.7-13,25c0,3.6,0.6,7.1,1.8,10.3
			c2-0.5,4.1-1,6.1-1.4c-1.1-2.8-1.7-5.8-1.7-8.9c0-13.5,10.9-24.4,24.4-24.4c13.5,0,24.4,10.9,24.4,24.4c0,3.1-0.6,6.1-1.7,8.9
			c2.1,0.4,4.1,0.9,6.1,1.4c1.2-3.2,1.8-6.7,1.8-10.3C221,59.5,215.8,50.4,208,44.9"/>
		<path class="st5" d="M76.3,115.6c0-12,9.8-21.8,21.8-21.8c7.8,0,14.6,4.1,18.5,10.2c1.6-1.4,3.2-2.7,4.8-4
			c-5-7.5-13.6-12.5-23.3-12.5c-6.4,0-12.3,2.2-17.1,5.8c-3,3.4-5.8,6.9-8.4,10.6c-1.6,3.5-2.5,7.5-2.5,11.6
			c0,12,7.5,22.2,18.1,26.2c0.9-1.9,1.8-3.8,2.8-5.6C82.4,133.3,76.3,125.2,76.3,115.6"/>
		<path class="st4" d="M166,69.9c0,13.5,10.9,24.4,24.4,24.4c13.5,0,24.4-10.9,24.4-24.4c0-13.5-10.9-24.4-24.4-24.4
			C176.9,45.5,166,56.4,166,69.9"/>
		<path class="st4" d="M80.8,115.7c0,9.6,7.8,17.3,17.3,17.3s17.3-7.8,17.3-17.3c0-9.6-7.8-17.3-17.3-17.3S80.8,106.1,80.8,115.7"/>
		<path class="st4" d="M264,115.7c0,9.6,7.8,17.3,17.3,17.3c9.6,0,17.3-7.8,17.3-17.3c0-9.6-7.8-17.3-17.3-17.3
			C271.8,98.4,264,106.1,264,115.7"/>
	</g>
</g>
</svg>
