<?xml version="1.0" encoding="utf-8"?>
<!-- Generator: Adobe Illustrator 25.2.3, SVG Export Plug-In . SVG Version: 6.00 Build 0)  -->
<svg version="1.1" id="Layer_1" xmlns="http://www.w3.org/2000/svg" xmlns:xlink="http://www.w3.org/1999/xlink" x="0px" y="0px"
	 viewBox="0 0 504 318" style="enable-background:new 0 0 504 318;" xml:space="preserve">
<style type="text/css">
	.st0{display:none;fill:url(#SVGID_1_);}
	.st1{display:none;fill:url(#SVGID_2_);}
	.st2{fill:url(#SVGID_3_);}
	.st3{fill:url(#SVGID_4_);}
	.st4{fill:url(#SVGID_5_);}
	.st5{fill:url(#SVGID_6_);}
	.st6{fill:url(#SVGID_7_);}
	.st7{fill:url(#SVGID_8_);}
	.st8{fill:url(#SVGID_9_);}
	.st9{fill:url(#SVGID_10_);}
	.st10{fill:url(#SVGID_11_);}
	.st11{fill:url(#SVGID_12_);}
	.st12{fill:url(#SVGID_13_);}
	.st13{fill:url(#SVGID_14_);}
	.st14{fill:url(#SVGID_15_);}
	.st15{fill:url(#SVGID_16_);}
	.st16{fill:url(#SVGID_17_);}
	.st17{fill:url(#SVGID_18_);}
	.st18{clip-path:url(#SVGID_20_);fill:url(#SVGID_21_);}
	.st19{display:none;clip-path:url(#SVGID_23_);}
	.st20{display:inline;}
	.st21{fill:url(#SVGID_24_);}
	.st22{fill:url(#SVGID_25_);}
	.st23{fill:url(#SVGID_26_);}
	.st24{opacity:0.3;}
	.st25{fill:url(#SVGID_27_);}
	.st26{fill:url(#SVGID_28_);}
	.st27{opacity:0.5;}
	.st28{fill:url(#SVGID_29_);}
	.st29{fill:url(#SVGID_30_);}
	.st30{fill:url(#SVGID_31_);}
	.st31{fill:url(#SVGID_32_);}
	.st32{fill:url(#SVGID_33_);}
	.st33{fill:url(#SVGID_34_);}
	.st34{fill:url(#SVGID_35_);}
	.st35{fill:url(#SVGID_36_);}
	.st36{fill:url(#SVGID_37_);}
	.st37{fill:url(#SVGID_38_);}
	.st38{fill:url(#SVGID_39_);}
	.st39{fill:url(#SVGID_40_);}
	.st40{fill:url(#SVGID_41_);}
	.st41{fill:url(#SVGID_42_);}
	.st42{fill:url(#SVGID_43_);}
	.st43{fill:url(#SVGID_44_);}
	.st44{fill:url(#SVGID_45_);}
	.st45{fill:url(#SVGID_46_);}
	.st46{fill:url(#SVGID_47_);}
	.st47{fill:url(#SVGID_48_);}
	.st48{fill:url(#SVGID_49_);}
	.st49{fill:url(#SVGID_50_);}
	.st50{display:none;}
	.st51{fill:#0EAABA;}
</style>
<linearGradient id="SVGID_1_" gradientUnits="userSpaceOnUse" x1="0" y1="146" x2="504" y2="146" gradientTransform="matrix(1 0 0 -1 0 290)">
	<stop  offset="6.188120e-02" style="stop-color:#C800B5"/>
	<stop  offset="1" style="stop-color:#FF78F2"/>
</linearGradient>
<rect class="st0" width="504" height="288"/>
<radialGradient id="SVGID_2_" cx="235.559" cy="155.1731" r="323.2631" gradientTransform="matrix(1 0 0 -1 0 290)" gradientUnits="userSpaceOnUse">
	<stop  offset="0" style="stop-color:#FFFFFF"/>
	<stop  offset="1" style="stop-color:#E6E6E6"/>
</radialGradient>
<path class="st1" d="M13.5,288h0.4v-9.7h14.4v9.7h0.4v-9.7h14.4v9.7h0.4v-9.7h14.4v9.7h0.4v-9.7h14.4v9.7h0.4v-9.7h14.4v9.7h0.4
	v-9.7h14.4v9.7h0.4v-9.7h14.4v9.7h0.4v-9.7h14.4v9.7h0.4v-9.7h14.4v9.7h0.4v-9.7h14.4v9.7h0.4v-9.7h14.4v9.7h0.4v-9.7h14.4v9.7h0.4
	v-9.7h14.4v9.7h0.4v-9.7h14.4v9.7h0.4v-9.7h14.4v9.7h0.4v-9.7h14.4v9.7h0.4v-9.7h14.4v9.7h0.4v-9.7h14.4v9.7h0.4v-9.7h14.4v9.7h0.4
	v-9.7h14.4v9.7h0.4v-9.7h14.4v9.7h0.4v-9.7h14.4v9.7h0.4v-9.7h14.4v9.7h0.4v-9.7h14.4v9.7h0.4v-9.7h14.4v9.7h0.4v-9.7h14.4v9.7h0.4
	v-9.7h14.4v9.7h0.4v-9.7h14.4v9.7h0.4v-9.7h14.4v9.7h0.4v-9.7h14.4v9.7h0.4v-9.7h14.4v9.7h0.4v-9.7h14.4v9.7h0.4v-9.7h14.4v9.7h0.4
	v-9.7h1.7v-0.4h-1.7v-13h1.7v-0.4h-1.7v-13h1.7v-0.4h-1.7v-13h1.7v-0.4h-1.7v-13h1.7v-0.4h-1.7v-13h1.7v-0.4h-1.7v-13h1.7v-0.4h-1.7
	v-13h1.7V184h-1.7v-13h1.7v-0.4h-1.7v-13h1.7v-0.4h-1.7v-13h1.7v-0.4h-1.7v-13h1.7v-0.4h-1.7v-13h1.7V117h-1.7v-13h1.7v-0.4h-1.7
	v-13h1.7v-0.4h-1.7v-13h1.7v-0.4h-1.7v-13h1.7v-0.4h-1.7v-13h1.7V50h-1.7V37h1.7v-0.4h-1.7v-13h1.7v-0.4h-1.7v-13h1.7V9.7h-1.7V0
	h-0.4v9.7h-14.4V0h-0.4v9.7h-14.4V0h-0.4v9.7h-14.4V0h-0.4v9.7h-14.4V0h-0.4v9.7h-14.4V0h-0.4v9.7h-14.4V0h-0.4v9.7h-14.4V0h-0.4
	v9.7h-14.4V0h-0.4v9.7h-14.4V0h-0.4v9.7h-14.4V0h-0.4v9.7h-14.4V0h-0.4v9.7h-14.4V0h-0.4v9.7h-14.4V0h-0.4v9.7h-14.4V0h-0.4v9.7
	h-14.4V0h-0.4v9.7h-14.4V0h-0.4v9.7h-14.4V0h-0.4v9.7h-14.4V0h-0.4v9.7h-14.4V0h-0.4v9.7h-14.4V0h-0.4v9.7h-14.4V0h-0.4v9.7h-14.4V0
	h-0.4v9.7h-14.4V0h-0.4v9.7h-14.4V0h-0.4v9.7h-14.4V0h-0.4v9.7h-14.4V0h-0.4v9.7h-14.4V0h-0.4v9.7H87.9V0h-0.4v9.7H73.1V0h-0.4v9.7
	H58.3V0h-0.4v9.7H43.5V0h-0.4v9.7H28.7V0h-0.4v9.7H13.9V0h-0.4v9.7H0v0.4h13.5v13H0v0.4h13.5v13H0v0.4h13.5v13H0v0.4h13.5v13H0v0.4
	h13.5v13H0v0.4h13.5v13H0v0.4h13.5v13H0v0.4h13.5v13H0v0.4h13.5v13H0v0.4h13.5v13H0v0.4h13.5v13H0v0.4h13.5v13H0v0.4h13.5v13H0v0.4
	h13.5v13H0v0.4h13.5v13H0v0.4h13.5v13H0v0.4h13.5v13H0v0.4h13.5v13H0v0.4h13.5v13H0v0.4h13.5v13H0v0.4h13.5V288z M487.5,10.1h14.4
	v13h-14.4V10.1z M487.5,23.5h14.4v13h-14.4V23.5z M487.5,36.9h14.4v13h-14.4V36.9z M487.5,50.3h14.4v13h-14.4V50.3z M487.5,63.7
	h14.4v13h-14.4V63.7z M487.5,77.1h14.4v13h-14.4V77.1z M487.5,90.6h14.4v13h-14.4V90.6z M487.5,104h14.4v13h-14.4V104z M487.5,117.4
	h14.4v13h-14.4V117.4z M487.5,130.8h14.4v13h-14.4V130.8z M487.5,144.2h14.4v13h-14.4V144.2z M487.5,157.6h14.4v13h-14.4V157.6z
	 M487.5,171h14.4v13h-14.4V171z M487.5,184.4h14.4v13h-14.4V184.4z M487.5,197.8h14.4v13h-14.4V197.8z M487.5,211.2h14.4v13h-14.4
	V211.2z M487.5,224.7h14.4v13h-14.4V224.7z M487.5,238.1h14.4v13h-14.4V238.1z M487.5,251.5h14.4v13h-14.4V251.5z M487.5,264.9h14.4
	v13h-14.4V264.9z M472.7,10.1h14.4v13h-14.4V10.1z M472.7,23.5h14.4v13h-14.4V23.5z M472.7,36.9h14.4v13h-14.4V36.9z M472.7,50.3
	h14.4v13h-14.4V50.3z M472.7,63.7h14.4v13h-14.4V63.7z M472.7,77.1h14.4v13h-14.4V77.1z M472.7,90.6h14.4v13h-14.4V90.6z M472.7,104
	h14.4v13h-14.4V104z M472.7,117.4h14.4v13h-14.4V117.4z M472.7,130.8h14.4v13h-14.4V130.8z M472.7,144.2h14.4v13h-14.4V144.2z
	 M472.7,157.6h14.4v13h-14.4V157.6z M472.7,171h14.4v13h-14.4V171z M472.7,184.4h14.4v13h-14.4V184.4z M472.7,197.8h14.4v13h-14.4
	V197.8z M472.7,211.2h14.4v13h-14.4V211.2z M472.7,224.7h14.4v13h-14.4V224.7z M472.7,238.1h14.4v13h-14.4V238.1z M472.7,251.5h14.4
	v13h-14.4V251.5z M472.7,264.9h14.4v13h-14.4V264.9z M457.9,10.1h14.4v13h-14.4V10.1z M457.9,23.5h14.4v13h-14.4V23.5z M457.9,36.9
	h14.4v13h-14.4V36.9z M457.9,50.3h14.4v13h-14.4V50.3z M457.9,63.7h14.4v13h-14.4V63.7z M457.9,77.1h14.4v13h-14.4V77.1z
	 M457.9,90.6h14.4v13h-14.4V90.6z M457.9,104h14.4v13h-14.4V104z M457.9,117.4h14.4v13h-14.4V117.4z M457.9,130.8h14.4v13h-14.4
	V130.8z M457.9,144.2h14.4v13h-14.4V144.2z M457.9,157.6h14.4v13h-14.4V157.6z M457.9,171h14.4v13h-14.4V171z M457.9,184.4h14.4v13
	h-14.4V184.4z M457.9,197.8h14.4v13h-14.4V197.8z M457.9,211.2h14.4v13h-14.4V211.2z M457.9,224.7h14.4v13h-14.4V224.7z
	 M457.9,238.1h14.4v13h-14.4V238.1z M457.9,251.5h14.4v13h-14.4V251.5z M457.9,264.9h14.4v13h-14.4V264.9z M443.1,10.1h14.4v13
	h-14.4V10.1z M443.1,23.5h14.4v13h-14.4V23.5z M443.1,36.9h14.4v13h-14.4V36.9z M443.1,50.3h14.4v13h-14.4V50.3z M443.1,63.7h14.4
	v13h-14.4V63.7z M443.1,77.1h14.4v13h-14.4V77.1z M443.1,90.6h14.4v13h-14.4V90.6z M443.1,104h14.4v13h-14.4V104z M443.1,117.4h14.4
	v13h-14.4V117.4z M443.1,130.8h14.4v13h-14.4V130.8z M443.1,144.2h14.4v13h-14.4V144.2z M443.1,157.6h14.4v13h-14.4V157.6z
	 M443.1,171h14.4v13h-14.4V171z M443.1,184.4h14.4v13h-14.4V184.4z M443.1,197.8h14.4v13h-14.4V197.8z M443.1,211.2h14.4v13h-14.4
	V211.2z M443.1,224.7h14.4v13h-14.4V224.7z M443.1,238.1h14.4v13h-14.4V238.1z M443.1,251.5h14.4v13h-14.4V251.5z M443.1,264.9h14.4
	v13h-14.4V264.9z M428.3,10.1h14.4v13h-14.4V10.1z M428.3,23.5h14.4v13h-14.4V23.5z M428.3,36.9h14.4v13h-14.4V36.9z M428.3,50.3
	h14.4v13h-14.4V50.3z M428.3,63.7h14.4v13h-14.4V63.7z M428.3,77.1h14.4v13h-14.4V77.1z M428.3,90.6h14.4v13h-14.4V90.6z M428.3,104
	h14.4v13h-14.4V104z M428.3,117.4h14.4v13h-14.4V117.4z M428.3,130.8h14.4v13h-14.4V130.8z M428.3,144.2h14.4v13h-14.4V144.2z
	 M428.3,157.6h14.4v13h-14.4V157.6z M428.3,171h14.4v13h-14.4V171z M428.3,184.4h14.4v13h-14.4V184.4z M428.3,197.8h14.4v13h-14.4
	V197.8z M428.3,211.2h14.4v13h-14.4V211.2z M428.3,224.7h14.4v13h-14.4V224.7z M428.3,238.1h14.4v13h-14.4V238.1z M428.3,251.5h14.4
	v13h-14.4V251.5z M428.3,264.9h14.4v13h-14.4V264.9z M413.5,10.1h14.4v13h-14.4V10.1z M413.5,23.5h14.4v13h-14.4V23.5z M413.5,36.9
	h14.4v13h-14.4V36.9z M413.5,50.3h14.4v13h-14.4V50.3z M413.5,63.7h14.4v13h-14.4V63.7z M413.5,77.1h14.4v13h-14.4V77.1z
	 M413.5,90.6h14.4v13h-14.4V90.6z M413.5,104h14.4v13h-14.4V104z M413.5,117.4h14.4v13h-14.4V117.4z M413.5,130.8h14.4v13h-14.4
	V130.8z M413.5,144.2h14.4v13h-14.4V144.2z M413.5,157.6h14.4v13h-14.4V157.6z M413.5,171h14.4v13h-14.4V171z M413.5,184.4h14.4v13
	h-14.4V184.4z M413.5,197.8h14.4v13h-14.4V197.8z M413.5,211.2h14.4v13h-14.4V211.2z M413.5,224.7h14.4v13h-14.4V224.7z
	 M413.5,238.1h14.4v13h-14.4V238.1z M413.5,251.5h14.4v13h-14.4V251.5z M413.5,264.9h14.4v13h-14.4V264.9z M398.7,10.1h14.4v13
	h-14.4V10.1z M398.7,23.5h14.4v13h-14.4V23.5z M398.7,36.9h14.4v13h-14.4V36.9z M398.7,50.3h14.4v13h-14.4V50.3z M398.7,63.7h14.4
	v13h-14.4V63.7z M398.7,77.1h14.4v13h-14.4V77.1z M398.7,90.6h14.4v13h-14.4V90.6z M398.7,104h14.4v13h-14.4V104z M398.7,117.4h14.4
	v13h-14.4V117.4z M398.7,130.8h14.4v13h-14.4V130.8z M398.7,144.2h14.4v13h-14.4V144.2z M398.7,157.6h14.4v13h-14.4V157.6z
	 M398.7,171h14.4v13h-14.4V171z M398.7,184.4h14.4v13h-14.4V184.4z M398.7,197.8h14.4v13h-14.4V197.8z M398.7,211.2h14.4v13h-14.4
	V211.2z M398.7,224.7h14.4v13h-14.4V224.7z M398.7,238.1h14.4v13h-14.4V238.1z M398.7,251.5h14.4v13h-14.4V251.5z M398.7,264.9h14.4
	v13h-14.4V264.9z M383.9,10.1h14.4v13h-14.4V10.1z M383.9,23.5h14.4v13h-14.4V23.5z M383.9,36.9h14.4v13h-14.4V36.9z M383.9,50.3
	h14.4v13h-14.4V50.3z M383.9,63.7h14.4v13h-14.4V63.7z M383.9,77.1h14.4v13h-14.4V77.1z M383.9,90.6h14.4v13h-14.4V90.6z M383.9,104
	h14.4v13h-14.4V104z M383.9,117.4h14.4v13h-14.4V117.4z M383.9,130.8h14.4v13h-14.4V130.8z M383.9,144.2h14.4v13h-14.4V144.2z
	 M383.9,157.6h14.4v13h-14.4V157.6z M383.9,171h14.4v13h-14.4V171z M383.9,184.4h14.4v13h-14.4V184.4z M383.9,197.8h14.4v13h-14.4
	V197.8z M383.9,211.2h14.4v13h-14.4V211.2z M383.9,224.7h14.4v13h-14.4V224.7z M383.9,238.1h14.4v13h-14.4V238.1z M383.9,251.5h14.4
	v13h-14.4V251.5z M383.9,264.9h14.4v13h-14.4V264.9z M369.1,10.1h14.4v13h-14.4V10.1z M369.1,23.5h14.4v13h-14.4V23.5z M369.1,36.9
	h14.4v13h-14.4V36.9z M369.1,50.3h14.4v13h-14.4V50.3z M369.1,63.7h14.4v13h-14.4V63.7z M369.1,77.1h14.4v13h-14.4V77.1z
	 M369.1,90.6h14.4v13h-14.4V90.6z M369.1,104h14.4v13h-14.4V104z M369.1,117.4h14.4v13h-14.4V117.4z M369.1,130.8h14.4v13h-14.4
	V130.8z M369.1,144.2h14.4v13h-14.4V144.2z M369.1,157.6h14.4v13h-14.4V157.6z M369.1,171h14.4v13h-14.4V171z M369.1,184.4h14.4v13
	h-14.4V184.4z M369.1,197.8h14.4v13h-14.4V197.8z M369.1,211.2h14.4v13h-14.4V211.2z M369.1,224.7h14.4v13h-14.4V224.7z
	 M369.1,238.1h14.4v13h-14.4V238.1z M369.1,251.5h14.4v13h-14.4V251.5z M369.1,264.9h14.4v13h-14.4V264.9z M354.3,10.1h14.4v13
	h-14.4V10.1z M354.3,23.5h14.4v13h-14.4V23.5z M354.3,36.9h14.4v13h-14.4V36.9z M354.3,50.3h14.4v13h-14.4V50.3z M354.3,63.7h14.4
	v13h-14.4V63.7z M354.3,77.1h14.4v13h-14.4V77.1z M354.3,90.6h14.4v13h-14.4V90.6z M354.3,104h14.4v13h-14.4V104z M354.3,117.4h14.4
	v13h-14.4V117.4z M354.3,130.8h14.4v13h-14.4V130.8z M354.3,144.2h14.4v13h-14.4V144.2z M354.3,157.6h14.4v13h-14.4V157.6z
	 M354.3,171h14.4v13h-14.4V171z M354.3,184.4h14.4v13h-14.4V184.4z M354.3,197.8h14.4v13h-14.4V197.8z M354.3,211.2h14.4v13h-14.4
	V211.2z M354.3,224.7h14.4v13h-14.4V224.7z M354.3,238.1h14.4v13h-14.4V238.1z M354.3,251.5h14.4v13h-14.4V251.5z M354.3,264.9h14.4
	v13h-14.4V264.9z M339.5,10.1h14.4v13h-14.4V10.1z M339.5,23.5h14.4v13h-14.4V23.5z M339.5,36.9h14.4v13h-14.4V36.9z M339.5,50.3
	h14.4v13h-14.4V50.3z M339.5,63.7h14.4v13h-14.4V63.7z M339.5,77.1h14.4v13h-14.4V77.1z M339.5,90.6h14.4v13h-14.4V90.6z M339.5,104
	h14.4v13h-14.4V104z M339.5,117.4h14.4v13h-14.4V117.4z M339.5,130.8h14.4v13h-14.4V130.8z M339.5,144.2h14.4v13h-14.4V144.2z
	 M339.5,157.6h14.4v13h-14.4V157.6z M339.5,171h14.4v13h-14.4V171z M339.5,184.4h14.4v13h-14.4V184.4z M339.5,197.8h14.4v13h-14.4
	V197.8z M339.5,211.2h14.4v13h-14.4V211.2z M339.5,224.7h14.4v13h-14.4V224.7z M339.5,238.1h14.4v13h-14.4V238.1z M339.5,251.5h14.4
	v13h-14.4V251.5z M339.5,264.9h14.4v13h-14.4V264.9z M324.7,10.1h14.4v13h-14.4V10.1z M324.7,23.5h14.4v13h-14.4V23.5z M324.7,36.9
	h14.4v13h-14.4V36.9z M324.7,50.3h14.4v13h-14.4V50.3z M324.7,63.7h14.4v13h-14.4V63.7z M324.7,77.1h14.4v13h-14.4V77.1z
	 M324.7,90.6h14.4v13h-14.4V90.6z M324.7,104h14.4v13h-14.4V104z M324.7,117.4h14.4v13h-14.4V117.4z M324.7,130.8h14.4v13h-14.4
	V130.8z M324.7,144.2h14.4v13h-14.4V144.2z M324.7,157.6h14.4v13h-14.4V157.6z M324.7,171h14.4v13h-14.4V171z M324.7,184.4h14.4v13
	h-14.4V184.4z M324.7,197.8h14.4v13h-14.4V197.8z M324.7,211.2h14.4v13h-14.4V211.2z M324.7,224.7h14.4v13h-14.4V224.7z
	 M324.7,238.1h14.4v13h-14.4V238.1z M324.7,251.5h14.4v13h-14.4V251.5z M324.7,264.9h14.4v13h-14.4V264.9z M309.9,10.1h14.4v13
	h-14.4V10.1z M309.9,23.5h14.4v13h-14.4V23.5z M309.9,36.9h14.4v13h-14.4V36.9z M309.9,50.3h14.4v13h-14.4V50.3z M309.9,63.7h14.4
	v13h-14.4V63.7z M309.9,77.1h14.4v13h-14.4V77.1z M309.9,90.6h14.4v13h-14.4V90.6z M309.9,104h14.4v13h-14.4V104z M309.9,117.4h14.4
	v13h-14.4V117.4z M309.9,130.8h14.4v13h-14.4V130.8z M309.9,144.2h14.4v13h-14.4V144.2z M309.9,157.6h14.4v13h-14.4V157.6z
	 M309.9,171h14.4v13h-14.4V171z M309.9,184.4h14.4v13h-14.4V184.4z M309.9,197.8h14.4v13h-14.4V197.8z M309.9,211.2h14.4v13h-14.4
	V211.2z M309.9,224.7h14.4v13h-14.4V224.7z M309.9,238.1h14.4v13h-14.4V238.1z M309.9,251.5h14.4v13h-14.4V251.5z M309.9,264.9h14.4
	v13h-14.4V264.9z M295.1,10.1h14.4v13h-14.4V10.1z M295.1,23.5h14.4v13h-14.4V23.5z M295.1,36.9h14.4v13h-14.4V36.9z M295.1,50.3
	h14.4v13h-14.4V50.3z M295.1,63.7h14.4v13h-14.4V63.7z M295.1,77.1h14.4v13h-14.4V77.1z M295.1,90.6h14.4v13h-14.4V90.6z M295.1,104
	h14.4v13h-14.4V104z M295.1,117.4h14.4v13h-14.4V117.4z M295.1,130.8h14.4v13h-14.4V130.8z M295.1,144.2h14.4v13h-14.4V144.2z
	 M295.1,157.6h14.4v13h-14.4V157.6z M295.1,171h14.4v13h-14.4V171z M295.1,184.4h14.4v13h-14.4V184.4z M295.1,197.8h14.4v13h-14.4
	V197.8z M295.1,211.2h14.4v13h-14.4V211.2z M295.1,224.7h14.4v13h-14.4V224.7z M295.1,238.1h14.4v13h-14.4V238.1z M295.1,251.5h14.4
	v13h-14.4V251.5z M295.1,264.9h14.4v13h-14.4V264.9z M280.3,10.1h14.4v13h-14.4V10.1z M280.3,23.5h14.4v13h-14.4V23.5z M280.3,36.9
	h14.4v13h-14.4V36.9z M280.3,50.3h14.4v13h-14.4V50.3z M280.3,63.7h14.4v13h-14.4V63.7z M280.3,77.1h14.4v13h-14.4V77.1z
	 M280.3,90.6h14.4v13h-14.4V90.6z M280.3,104h14.4v13h-14.4V104z M280.3,117.4h14.4v13h-14.4V117.4z M280.3,130.8h14.4v13h-14.4
	V130.8z M280.3,144.2h14.4v13h-14.4V144.2z M280.3,157.6h14.4v13h-14.4V157.6z M280.3,171h14.4v13h-14.4V171z M280.3,184.4h14.4v13
	h-14.4V184.4z M280.3,197.8h14.4v13h-14.4V197.8z M280.3,211.2h14.4v13h-14.4V211.2z M280.3,224.7h14.4v13h-14.4V224.7z
	 M280.3,238.1h14.4v13h-14.4V238.1z M280.3,251.5h14.4v13h-14.4V251.5z M280.3,264.9h14.4v13h-14.4V264.9z M265.5,10.1h14.4v13
	h-14.4V10.1z M265.5,23.5h14.4v13h-14.4V23.5z M265.5,36.9h14.4v13h-14.4V36.9z M265.5,50.3h14.4v13h-14.4V50.3z M265.5,63.7h14.4
	v13h-14.4V63.7z M265.5,77.1h14.4v13h-14.4V77.1z M265.5,90.6h14.4v13h-14.4V90.6z M265.5,104h14.4v13h-14.4V104z M265.5,117.4h14.4
	v13h-14.4V117.4z M265.5,130.8h14.4v13h-14.4V130.8z M265.5,144.2h14.4v13h-14.4V144.2z M265.5,157.6h14.4v13h-14.4V157.6z
	 M265.5,171h14.4v13h-14.4V171z M265.5,184.4h14.4v13h-14.4V184.4z M265.5,197.8h14.4v13h-14.4V197.8z M265.5,211.2h14.4v13h-14.4
	V211.2z M265.5,224.7h14.4v13h-14.4V224.7z M265.5,238.1h14.4v13h-14.4V238.1z M265.5,251.5h14.4v13h-14.4V251.5z M265.5,264.9h14.4
	v13h-14.4V264.9z M250.7,10.1h14.4v13h-14.4L250.7,10.1L250.7,10.1z M250.7,23.5h14.4v13h-14.4L250.7,23.5L250.7,23.5z M250.7,36.9
	h14.4v13h-14.4L250.7,36.9L250.7,36.9z M250.7,50.3h14.4v13h-14.4L250.7,50.3L250.7,50.3z M250.7,63.7h14.4v13h-14.4L250.7,63.7
	L250.7,63.7z M250.7,77.1h14.4v13h-14.4L250.7,77.1L250.7,77.1z M250.7,90.6h14.4v13h-14.4L250.7,90.6L250.7,90.6z M250.7,104h14.4
	v13h-14.4L250.7,104L250.7,104z M250.7,117.4h14.4v13h-14.4L250.7,117.4L250.7,117.4z M250.7,130.8h14.4v13h-14.4L250.7,130.8
	L250.7,130.8z M250.7,144.2h14.4v13h-14.4L250.7,144.2L250.7,144.2z M250.7,157.6h14.4v13h-14.4L250.7,157.6L250.7,157.6z
	 M250.7,171h14.4v13h-14.4L250.7,171L250.7,171z M250.7,184.4h14.4v13h-14.4L250.7,184.4L250.7,184.4z M250.7,197.8h14.4v13h-14.4
	L250.7,197.8L250.7,197.8z M250.7,211.2h14.4v13h-14.4L250.7,211.2L250.7,211.2z M250.7,224.7h14.4v13h-14.4L250.7,224.7
	L250.7,224.7z M250.7,238.1h14.4v13h-14.4L250.7,238.1L250.7,238.1z M250.7,251.5h14.4v13h-14.4L250.7,251.5L250.7,251.5z
	 M250.7,264.9h14.4v13h-14.4L250.7,264.9L250.7,264.9z M235.9,10.1h14.4v13h-14.4V10.1z M235.9,23.5h14.4v13h-14.4V23.5z
	 M235.9,36.9h14.4v13h-14.4V36.9z M235.9,50.3h14.4v13h-14.4V50.3z M235.9,63.7h14.4v13h-14.4V63.7z M235.9,77.1h14.4v13h-14.4V77.1
	z M235.9,90.6h14.4v13h-14.4V90.6z M235.9,104h14.4v13h-14.4V104z M235.9,117.4h14.4v13h-14.4V117.4z M235.9,130.8h14.4v13h-14.4
	V130.8z M235.9,144.2h14.4v13h-14.4V144.2z M235.9,157.6h14.4v13h-14.4V157.6z M235.9,171h14.4v13h-14.4V171z M235.9,184.4h14.4v13
	h-14.4V184.4z M235.9,197.8h14.4v13h-14.4V197.8z M235.9,211.2h14.4v13h-14.4V211.2z M235.9,224.7h14.4v13h-14.4V224.7z
	 M235.9,238.1h14.4v13h-14.4V238.1z M235.9,251.5h14.4v13h-14.4V251.5z M235.9,264.9h14.4v13h-14.4V264.9z M221.1,10.1h14.4v13
	h-14.4V10.1z M221.1,23.5h14.4v13h-14.4V23.5z M221.1,36.9h14.4v13h-14.4V36.9z M221.1,50.3h14.4v13h-14.4V50.3z M221.1,63.7h14.4
	v13h-14.4V63.7z M221.1,77.1h14.4v13h-14.4V77.1z M221.1,90.6h14.4v13h-14.4V90.6z M221.1,104h14.4v13h-14.4V104z M221.1,117.4h14.4
	v13h-14.4V117.4z M221.1,130.8h14.4v13h-14.4V130.8z M221.1,144.2h14.4v13h-14.4V144.2z M221.1,157.6h14.4v13h-14.4V157.6z
	 M221.1,171h14.4v13h-14.4V171z M221.1,184.4h14.4v13h-14.4V184.4z M221.1,197.8h14.4v13h-14.4V197.8z M221.1,211.2h14.4v13h-14.4
	V211.2z M221.1,224.7h14.4v13h-14.4V224.7z M221.1,238.1h14.4v13h-14.4V238.1z M221.1,251.5h14.4v13h-14.4V251.5z M221.1,264.9h14.4
	v13h-14.4V264.9z M206.3,10.1h14.4v13h-14.4V10.1z M206.3,23.5h14.4v13h-14.4V23.5z M206.3,36.9h14.4v13h-14.4V36.9z M206.3,50.3
	h14.4v13h-14.4V50.3z M206.3,63.7h14.4v13h-14.4V63.7z M206.3,77.1h14.4v13h-14.4V77.1z M206.3,90.6h14.4v13h-14.4V90.6z M206.3,104
	h14.4v13h-14.4V104z M206.3,117.4h14.4v13h-14.4V117.4z M206.3,130.8h14.4v13h-14.4V130.8z M206.3,144.2h14.4v13h-14.4V144.2z
	 M206.3,157.6h14.4v13h-14.4V157.6z M206.3,171h14.4v13h-14.4V171z M206.3,184.4h14.4v13h-14.4V184.4z M206.3,197.8h14.4v13h-14.4
	V197.8z M206.3,211.2h14.4v13h-14.4V211.2z M206.3,224.7h14.4v13h-14.4V224.7z M206.3,238.1h14.4v13h-14.4V238.1z M206.3,251.5h14.4
	v13h-14.4V251.5z M206.3,264.9h14.4v13h-14.4V264.9z M191.5,10.1h14.4v13h-14.4V10.1z M191.5,23.5h14.4v13h-14.4V23.5z M191.5,36.9
	h14.4v13h-14.4V36.9z M191.5,50.3h14.4v13h-14.4V50.3z M191.5,63.7h14.4v13h-14.4V63.7z M191.5,77.1h14.4v13h-14.4V77.1z
	 M191.5,90.6h14.4v13h-14.4V90.6z M191.5,104h14.4v13h-14.4V104z M191.5,117.4h14.4v13h-14.4V117.4z M191.5,130.8h14.4v13h-14.4
	V130.8z M191.5,144.2h14.4v13h-14.4V144.2z M191.5,157.6h14.4v13h-14.4V157.6z M191.5,171h14.4v13h-14.4V171z M191.5,184.4h14.4v13
	h-14.4V184.4z M191.5,197.8h14.4v13h-14.4V197.8z M191.5,211.2h14.4v13h-14.4V211.2z M191.5,224.7h14.4v13h-14.4V224.7z
	 M191.5,238.1h14.4v13h-14.4V238.1z M191.5,251.5h14.4v13h-14.4V251.5z M191.5,264.9h14.4v13h-14.4V264.9z M176.7,10.1h14.4v13
	h-14.4V10.1z M176.7,23.5h14.4v13h-14.4V23.5z M176.7,36.9h14.4v13h-14.4V36.9z M176.7,50.3h14.4v13h-14.4V50.3z M176.7,63.7h14.4
	v13h-14.4V63.7z M176.7,77.1h14.4v13h-14.4V77.1z M176.7,90.6h14.4v13h-14.4V90.6z M176.7,104h14.4v13h-14.4V104z M176.7,117.4h14.4
	v13h-14.4V117.4z M176.7,130.8h14.4v13h-14.4V130.8z M176.7,144.2h14.4v13h-14.4V144.2z M176.7,157.6h14.4v13h-14.4V157.6z
	 M176.7,171h14.4v13h-14.4V171z M176.7,184.4h14.4v13h-14.4V184.4z M176.7,197.8h14.4v13h-14.4V197.8z M176.7,211.2h14.4v13h-14.4
	V211.2z M176.7,224.7h14.4v13h-14.4V224.7z M176.7,238.1h14.4v13h-14.4V238.1z M176.7,251.5h14.4v13h-14.4V251.5z M176.7,264.9h14.4
	v13h-14.4V264.9z M161.9,10.1h14.4v13h-14.4V10.1z M161.9,23.5h14.4v13h-14.4V23.5z M161.9,36.9h14.4v13h-14.4V36.9z M161.9,50.3
	h14.4v13h-14.4V50.3z M161.9,63.7h14.4v13h-14.4V63.7z M161.9,77.1h14.4v13h-14.4V77.1z M161.9,90.6h14.4v13h-14.4V90.6z M161.9,104
	h14.4v13h-14.4V104z M161.9,117.4h14.4v13h-14.4V117.4z M161.9,130.8h14.4v13h-14.4V130.8z M161.9,144.2h14.4v13h-14.4V144.2z
	 M161.9,157.6h14.4v13h-14.4V157.6z M161.9,171h14.4v13h-14.4V171z M161.9,184.4h14.4v13h-14.4V184.4z M161.9,197.8h14.4v13h-14.4
	V197.8z M161.9,211.2h14.4v13h-14.4V211.2z M161.9,224.7h14.4v13h-14.4V224.7z M161.9,238.1h14.4v13h-14.4V238.1z M161.9,251.5h14.4
	v13h-14.4V251.5z M161.9,264.9h14.4v13h-14.4V264.9z M147.1,10.1h14.4v13h-14.4V10.1z M147.1,23.5h14.4v13h-14.4V23.5z M147.1,36.9
	h14.4v13h-14.4V36.9z M147.1,50.3h14.4v13h-14.4V50.3z M147.1,63.7h14.4v13h-14.4V63.7z M147.1,77.1h14.4v13h-14.4V77.1z
	 M147.1,90.6h14.4v13h-14.4V90.6z M147.1,104h14.4v13h-14.4V104z M147.1,117.4h14.4v13h-14.4V117.4z M147.1,130.8h14.4v13h-14.4
	V130.8z M147.1,144.2h14.4v13h-14.4V144.2z M147.1,157.6h14.4v13h-14.4V157.6z M147.1,171h14.4v13h-14.4V171z M147.1,184.4h14.4v13
	h-14.4V184.4z M147.1,197.8h14.4v13h-14.4V197.8z M147.1,211.2h14.4v13h-14.4V211.2z M147.1,224.7h14.4v13h-14.4V224.7z
	 M147.1,238.1h14.4v13h-14.4V238.1z M147.1,251.5h14.4v13h-14.4V251.5z M147.1,264.9h14.4v13h-14.4V264.9z M132.3,10.1h14.4v13
	h-14.4V10.1z M132.3,23.5h14.4v13h-14.4V23.5z M132.3,36.9h14.4v13h-14.4V36.9z M132.3,50.3h14.4v13h-14.4V50.3z M132.3,63.7h14.4
	v13h-14.4V63.7z M132.3,77.1h14.4v13h-14.4V77.1z M132.3,90.6h14.4v13h-14.4V90.6z M132.3,104h14.4v13h-14.4V104z M132.3,117.4h14.4
	v13h-14.4V117.4z M132.3,130.8h14.4v13h-14.4V130.8z M132.3,144.2h14.4v13h-14.4V144.2z M132.3,157.6h14.4v13h-14.4V157.6z
	 M132.3,171h14.4v13h-14.4V171z M132.3,184.4h14.4v13h-14.4V184.4z M132.3,197.8h14.4v13h-14.4V197.8z M132.3,211.2h14.4v13h-14.4
	V211.2z M132.3,224.7h14.4v13h-14.4V224.7z M132.3,238.1h14.4v13h-14.4V238.1z M132.3,251.5h14.4v13h-14.4V251.5z M132.3,264.9h14.4
	v13h-14.4V264.9z M117.5,10.1h14.4v13h-14.4C117.5,23.1,117.5,10.1,117.5,10.1z M117.5,23.5h14.4v13h-14.4
	C117.5,36.5,117.5,23.5,117.5,23.5z M117.5,36.9h14.4v13h-14.4C117.5,49.9,117.5,36.9,117.5,36.9z M117.5,50.3h14.4v13h-14.4
	C117.5,63.3,117.5,50.3,117.5,50.3z M117.5,63.7h14.4v13h-14.4C117.5,76.7,117.5,63.7,117.5,63.7z M117.5,77.1h14.4v13h-14.4
	C117.5,90.1,117.5,77.1,117.5,77.1z M117.5,90.6h14.4v13h-14.4C117.5,103.6,117.5,90.6,117.5,90.6z M117.5,104h14.4v13h-14.4
	C117.5,117,117.5,104,117.5,104z M117.5,117.4h14.4v13h-14.4C117.5,130.4,117.5,117.4,117.5,117.4z M117.5,130.8h14.4v13h-14.4
	C117.5,143.8,117.5,130.8,117.5,130.8z M117.5,144.2h14.4v13h-14.4C117.5,157.2,117.5,144.2,117.5,144.2z M117.5,157.6h14.4v13
	h-14.4C117.5,170.6,117.5,157.6,117.5,157.6z M117.5,171h14.4v13h-14.4C117.5,184,117.5,171,117.5,171z M117.5,184.4h14.4v13h-14.4
	C117.5,197.4,117.5,184.4,117.5,184.4z M117.5,197.8h14.4v13h-14.4C117.5,210.8,117.5,197.8,117.5,197.8z M117.5,211.2h14.4v13
	h-14.4C117.5,224.2,117.5,211.2,117.5,211.2z M117.5,224.7h14.4v13h-14.4C117.5,237.7,117.5,224.7,117.5,224.7z M117.5,238.1h14.4
	v13h-14.4C117.5,251.1,117.5,238.1,117.5,238.1z M117.5,251.5h14.4v13h-14.4C117.5,264.5,117.5,251.5,117.5,251.5z M117.5,264.9
	h14.4v13h-14.4C117.5,277.9,117.5,264.9,117.5,264.9z M102.7,10.1h14.4v13h-14.4V10.1z M102.7,23.5h14.4v13h-14.4V23.5z M102.7,36.9
	h14.4v13h-14.4V36.9z M102.7,50.3h14.4v13h-14.4V50.3z M102.7,63.7h14.4v13h-14.4V63.7z M102.7,77.1h14.4v13h-14.4V77.1z
	 M102.7,90.6h14.4v13h-14.4V90.6z M102.7,104h14.4v13h-14.4V104z M102.7,117.4h14.4v13h-14.4V117.4z M102.7,130.8h14.4v13h-14.4
	V130.8z M102.7,144.2h14.4v13h-14.4V144.2z M102.7,157.6h14.4v13h-14.4V157.6z M102.7,171h14.4v13h-14.4V171z M102.7,184.4h14.4v13
	h-14.4V184.4z M102.7,197.8h14.4v13h-14.4V197.8z M102.7,211.2h14.4v13h-14.4V211.2z M102.7,224.7h14.4v13h-14.4V224.7z
	 M102.7,238.1h14.4v13h-14.4V238.1z M102.7,251.5h14.4v13h-14.4V251.5z M102.7,264.9h14.4v13h-14.4V264.9z M87.9,10.1h14.4v13H87.9
	V10.1z M87.9,23.5h14.4v13H87.9V23.5z M87.9,36.9h14.4v13H87.9V36.9z M87.9,50.3h14.4v13H87.9V50.3z M87.9,63.7h14.4v13H87.9V63.7z
	 M87.9,77.1h14.4v13H87.9V77.1z M87.9,90.6h14.4v13H87.9V90.6z M87.9,104h14.4v13H87.9V104z M87.9,117.4h14.4v13H87.9V117.4z
	 M87.9,130.8h14.4v13H87.9V130.8z M87.9,144.2h14.4v13H87.9V144.2z M87.9,157.6h14.4v13H87.9V157.6z M87.9,171h14.4v13H87.9V171z
	 M87.9,184.4h14.4v13H87.9V184.4z M87.9,197.8h14.4v13H87.9V197.8z M87.9,211.2h14.4v13H87.9V211.2z M87.9,224.7h14.4v13H87.9V224.7
	z M87.9,238.1h14.4v13H87.9V238.1z M87.9,251.5h14.4v13H87.9V251.5z M87.9,264.9h14.4v13H87.9V264.9z M73.1,10.1h14.4v13H73.1V10.1z
	 M73.1,23.5h14.4v13H73.1V23.5z M73.1,36.9h14.4v13H73.1V36.9z M73.1,50.3h14.4v13H73.1V50.3z M73.1,63.7h14.4v13H73.1V63.7z
	 M73.1,77.1h14.4v13H73.1V77.1z M73.1,90.6h14.4v13H73.1V90.6z M73.1,104h14.4v13H73.1V104z M73.1,117.4h14.4v13H73.1V117.4z
	 M73.1,130.8h14.4v13H73.1V130.8z M73.1,144.2h14.4v13H73.1V144.2z M73.1,157.6h14.4v13H73.1V157.6z M73.1,171h14.4v13H73.1V171z
	 M73.1,184.4h14.4v13H73.1V184.4z M73.1,197.8h14.4v13H73.1V197.8z M73.1,211.2h14.4v13H73.1V211.2z M73.1,224.7h14.4v13H73.1V224.7
	z M73.1,238.1h14.4v13H73.1V238.1z M73.1,251.5h14.4v13H73.1V251.5z M73.1,264.9h14.4v13H73.1V264.9z M58.3,10.1h14.4v13H58.3V10.1z
	 M58.3,23.5h14.4v13H58.3V23.5z M58.3,36.9h14.4v13H58.3V36.9z M58.3,50.3h14.4v13H58.3V50.3z M58.3,63.7h14.4v13H58.3V63.7z
	 M58.3,77.1h14.4v13H58.3V77.1z M58.3,90.6h14.4v13H58.3V90.6z M58.3,104h14.4v13H58.3V104z M58.3,117.4h14.4v13H58.3V117.4z
	 M58.3,130.8h14.4v13H58.3V130.8z M58.3,144.2h14.4v13H58.3V144.2z M58.3,157.6h14.4v13H58.3V157.6z M58.3,171h14.4v13H58.3V171z
	 M58.3,184.4h14.4v13H58.3V184.4z M58.3,197.8h14.4v13H58.3V197.8z M58.3,211.2h14.4v13H58.3V211.2z M58.3,224.7h14.4v13H58.3V224.7
	z M58.3,238.1h14.4v13H58.3V238.1z M58.3,251.5h14.4v13H58.3V251.5z M58.3,264.9h14.4v13H58.3V264.9z M43.5,10.1h14.4v13H43.5V10.1z
	 M43.5,23.5h14.4v13H43.5V23.5z M43.5,36.9h14.4v13H43.5V36.9z M43.5,50.3h14.4v13H43.5V50.3z M43.5,63.7h14.4v13H43.5V63.7z
	 M43.5,77.1h14.4v13H43.5V77.1z M43.5,90.6h14.4v13H43.5V90.6z M43.5,104h14.4v13H43.5V104z M43.5,117.4h14.4v13H43.5V117.4z
	 M43.5,130.8h14.4v13H43.5V130.8z M43.5,144.2h14.4v13H43.5V144.2z M43.5,157.6h14.4v13H43.5V157.6z M43.5,171h14.4v13H43.5V171z
	 M43.5,184.4h14.4v13H43.5V184.4z M43.5,197.8h14.4v13H43.5V197.8z M43.5,211.2h14.4v13H43.5V211.2z M43.5,224.7h14.4v13H43.5V224.7
	z M43.5,238.1h14.4v13H43.5V238.1z M43.5,251.5h14.4v13H43.5V251.5z M43.5,264.9h14.4v13H43.5V264.9z M28.7,10.1h14.4v13H28.7V10.1z
	 M28.7,23.5h14.4v13H28.7V23.5z M28.7,36.9h14.4v13H28.7V36.9z M28.7,50.3h14.4v13H28.7V50.3z M28.7,63.7h14.4v13H28.7V63.7z
	 M28.7,77.1h14.4v13H28.7V77.1z M28.7,90.6h14.4v13H28.7V90.6z M28.7,104h14.4v13H28.7V104z M28.7,117.4h14.4v13H28.7V117.4z
	 M28.7,130.8h14.4v13H28.7V130.8z M28.7,144.2h14.4v13H28.7V144.2z M28.7,157.6h14.4v13H28.7V157.6z M28.7,171h14.4v13H28.7V171z
	 M28.7,184.4h14.4v13H28.7V184.4z M28.7,197.8h14.4v13H28.7V197.8z M28.7,211.2h14.4v13H28.7V211.2z M28.7,224.7h14.4v13H28.7V224.7
	z M28.7,238.1h14.4v13H28.7V238.1z M28.7,251.5h14.4v13H28.7V251.5z M28.7,264.9h14.4v13H28.7V264.9z M13.9,10.1h14.4v13H13.9V10.1z
	 M13.9,23.5h14.4v13H13.9V23.5z M13.9,36.9h14.4v13H13.9V36.9z M13.9,50.3h14.4v13H13.9V50.3z M13.9,63.7h14.4v13H13.9V63.7z
	 M13.9,77.1h14.4v13H13.9V77.1z M13.9,90.6h14.4v13H13.9V90.6z M13.9,104h14.4v13H13.9V104z M13.9,117.4h14.4v13H13.9V117.4z
	 M13.9,130.8h14.4v13H13.9V130.8z M13.9,144.2h14.4v13H13.9V144.2z M13.9,157.6h14.4v13H13.9V157.6z M13.9,171h14.4v13H13.9V171z
	 M13.9,184.4h14.4v13H13.9V184.4z M13.9,197.8h14.4v13H13.9V197.8z M13.9,211.2h14.4v13H13.9V211.2z M13.9,224.7h14.4v13H13.9V224.7
	z M13.9,238.1h14.4v13H13.9V238.1z M13.9,251.5h14.4v13H13.9V251.5z M13.9,264.9h14.4v13H13.9V264.9z"/>
<g>
	
		<radialGradient id="SVGID_3_" cx="401.3629" cy="85.7718" r="202.118" gradientTransform="matrix(1 0 0 -1 0 290)" gradientUnits="userSpaceOnUse">
		<stop  offset="2.753721e-02" style="stop-color:#F519E4"/>
		<stop  offset="0.1247" style="stop-color:#E814D5"/>
		<stop  offset="0.3521" style="stop-color:#CF0CB7"/>
		<stop  offset="0.5767" style="stop-color:#BD05A2"/>
		<stop  offset="0.795" style="stop-color:#B30195"/>
		<stop  offset="1" style="stop-color:#AF0091"/>
	</radialGradient>
	<path class="st2" d="M251.5,171v5.6v0.5h0.5h5.6v4.9H252h-0.5v0.5v5.6h-4.9v-5.6V182h-0.5h-5.6v-4.9h5.6h0.5v-0.5V171H251.5
		 M252.1,170.4h-5.9v6.1H240v5.9h6.1v6.1h5.9v-6.1h6.1v-5.9H252v-6.1H252.1z"/>
	
		<radialGradient id="SVGID_4_" cx="376.5262" cy="119.999" r="112.7545" gradientTransform="matrix(1 0 0 -1 0 290)" gradientUnits="userSpaceOnUse">
		<stop  offset="2.753721e-02" style="stop-color:#F519E4"/>
		<stop  offset="0.1247" style="stop-color:#E814D5"/>
		<stop  offset="0.3521" style="stop-color:#CF0CB7"/>
		<stop  offset="0.5767" style="stop-color:#BD05A2"/>
		<stop  offset="0.795" style="stop-color:#B30195"/>
		<stop  offset="1" style="stop-color:#AF0091"/>
	</radialGradient>
	<polygon class="st3" points="393.6,183 385.5,183 385.5,174.9 377.7,174.9 377.7,183 369.6,183 369.6,190.8 377.7,190.8 
		377.7,198.9 385.5,198.9 385.5,190.8 393.6,190.8 	"/>
	
		<radialGradient id="SVGID_5_" cx="424.7201" cy="50.5219" r="202.1179" gradientTransform="matrix(1 0 0 -1 0 290)" gradientUnits="userSpaceOnUse">
		<stop  offset="2.753721e-02" style="stop-color:#F519E4"/>
		<stop  offset="0.1247" style="stop-color:#E814D5"/>
		<stop  offset="0.3521" style="stop-color:#CF0CB7"/>
		<stop  offset="0.5767" style="stop-color:#BD05A2"/>
		<stop  offset="0.795" style="stop-color:#B30195"/>
		<stop  offset="1" style="stop-color:#AF0091"/>
	</radialGradient>
	<circle class="st4" cx="307.5" cy="267.6" r="0.9"/>
	<g>
		
			<radialGradient id="SVGID_6_" cx="413.5739" cy="63.4338" r="202.1175" gradientTransform="matrix(1 0 0 -1 0 290)" gradientUnits="userSpaceOnUse">
			<stop  offset="2.753721e-02" style="stop-color:#F519E4"/>
			<stop  offset="0.1247" style="stop-color:#E814D5"/>
			<stop  offset="0.3521" style="stop-color:#CF0CB7"/>
			<stop  offset="0.5767" style="stop-color:#BD05A2"/>
			<stop  offset="0.795" style="stop-color:#B30195"/>
			<stop  offset="1" style="stop-color:#AF0091"/>
		</radialGradient>
		<polygon class="st5" points="288.7,232.4 282.6,232.4 282.6,226.3 276.7,226.3 276.7,232.4 270.6,232.4 270.6,238.3 276.7,238.3 
			276.7,244.4 282.6,244.4 282.6,238.3 288.7,238.3 		"/>
	</g>
	
		<radialGradient id="SVGID_7_" cx="436.2286" cy="73.8332" r="202.1177" gradientTransform="matrix(1 0 0 -1 0 290)" gradientUnits="userSpaceOnUse">
		<stop  offset="2.753721e-02" style="stop-color:#F519E4"/>
		<stop  offset="0.1247" style="stop-color:#E814D5"/>
		<stop  offset="0.3521" style="stop-color:#CF0CB7"/>
		<stop  offset="0.5767" style="stop-color:#BD05A2"/>
		<stop  offset="0.795" style="stop-color:#B30195"/>
		<stop  offset="1" style="stop-color:#AF0091"/>
	</radialGradient>
	<polygon class="st6" points="344.8,206.5 339.1,206.5 339.1,200.8 333.5,200.8 333.5,206.5 327.7,206.5 327.7,212.1 333.5,212.1 
		333.5,217.9 339.1,217.9 339.1,212.1 344.8,212.1 	"/>
	
		<radialGradient id="SVGID_8_" cx="394.9067" cy="51.3805" r="202.115" gradientTransform="matrix(1 0 0 -1 0 290)" gradientUnits="userSpaceOnUse">
		<stop  offset="2.753721e-02" style="stop-color:#F519E4"/>
		<stop  offset="0.1247" style="stop-color:#E814D5"/>
		<stop  offset="0.3521" style="stop-color:#CF0CB7"/>
		<stop  offset="0.5767" style="stop-color:#BD05A2"/>
		<stop  offset="0.795" style="stop-color:#B30195"/>
		<stop  offset="1" style="stop-color:#AF0091"/>
	</radialGradient>
	<path class="st7" d="M233.8,265.5c0,0.5-0.4,0.9-0.9,0.9s-0.9-0.4-0.9-0.9s0.4-0.9,0.9-0.9C233.5,264.6,233.8,265,233.8,265.5z"/>
	
		<radialGradient id="SVGID_9_" cx="494.6361" cy="52.2499" r="202.1182" gradientTransform="matrix(1 0 0 -1 0 290)" gradientUnits="userSpaceOnUse">
		<stop  offset="2.753721e-02" style="stop-color:#F519E4"/>
		<stop  offset="0.1247" style="stop-color:#E814D5"/>
		<stop  offset="0.3521" style="stop-color:#CF0CB7"/>
		<stop  offset="0.5767" style="stop-color:#BD05A2"/>
		<stop  offset="0.795" style="stop-color:#B30195"/>
		<stop  offset="1" style="stop-color:#AF0091"/>
	</radialGradient>
	<polygon class="st8" points="491,253.1 480.5,253.1 480.5,242.7 470.4,242.7 470.4,253.1 460,253.1 460,263.3 470.4,263.3 
		470.4,273.7 480.5,273.7 480.5,263.3 491,263.3 	"/>
	
		<radialGradient id="SVGID_10_" cx="499.3058" cy="81.4958" r="202.1198" gradientTransform="matrix(1 0 0 -1 0 290)" gradientUnits="userSpaceOnUse">
		<stop  offset="3.312380e-02" style="stop-color:#F518FF"/>
		<stop  offset="0.1561" style="stop-color:#E813EB"/>
		<stop  offset="0.3753" style="stop-color:#D60ACD"/>
		<stop  offset="0.5918" style="stop-color:#C905B8"/>
		<stop  offset="0.8023" style="stop-color:#C101AB"/>
		<stop  offset="1" style="stop-color:#BE00A7"/>
	</radialGradient>
	<path class="st9" d="M495.5,190.2c0,0.9-0.7,1.6-1.6,1.6s-1.6-0.7-1.6-1.6c0-0.9,0.7-1.6,1.6-1.6
		C494.8,188.6,495.5,189.3,495.5,190.2z"/>
	
		<radialGradient id="SVGID_11_" cx="476.1111" cy="58.1288" r="202.1178" gradientTransform="matrix(1 0 0 -1 0 290)" gradientUnits="userSpaceOnUse">
		<stop  offset="2.753721e-02" style="stop-color:#F519E4"/>
		<stop  offset="0.1247" style="stop-color:#E814D5"/>
		<stop  offset="0.3521" style="stop-color:#CF0CB7"/>
		<stop  offset="0.5767" style="stop-color:#BD05A2"/>
		<stop  offset="0.795" style="stop-color:#B30195"/>
		<stop  offset="1" style="stop-color:#AF0091"/>
	</radialGradient>
	<path class="st10" d="M441.8,228.1v13.4v1.3h1.3h13.4v11.7h-13.4h-1.3v1.3v13.4h-11.7v-13.4v-1.3h-1.3h-13.4v-11.7h13.4h1.3v-1.3
		v-13.4L441.8,228.1 M443.1,226.9h-14.2v14.7h-14.7v14.2h14.7v14.7h14.2v-14.7h14.7v-14.2h-14.7V226.9L443.1,226.9z"/>
	
		<radialGradient id="SVGID_12_" cx="463.2114" cy="79.2725" r="202.1245" gradientTransform="matrix(1 0 0 -1 0 290)" gradientUnits="userSpaceOnUse">
		<stop  offset="2.753721e-02" style="stop-color:#F519E4"/>
		<stop  offset="0.1247" style="stop-color:#E814D5"/>
		<stop  offset="0.3521" style="stop-color:#CF0CB7"/>
		<stop  offset="0.5767" style="stop-color:#BD05A2"/>
		<stop  offset="0.795" style="stop-color:#B30195"/>
		<stop  offset="1" style="stop-color:#AF0091"/>
	</radialGradient>
	<path class="st11" d="M404.8,195.7c0,0.6-0.5,1.1-1.1,1.1s-1.1-0.5-1.1-1.1s0.5-1.1,1.1-1.1C404.3,194.6,404.8,195.1,404.8,195.7z"
		/>
	
		<radialGradient id="SVGID_13_" cx="482.8998" cy="86.664" r="202.1182" gradientTransform="matrix(1 0 0 -1 0 290)" gradientUnits="userSpaceOnUse">
		<stop  offset="2.753721e-02" style="stop-color:#F519E4"/>
		<stop  offset="0.1247" style="stop-color:#E814D5"/>
		<stop  offset="0.3521" style="stop-color:#CF0CB7"/>
		<stop  offset="0.5767" style="stop-color:#BD05A2"/>
		<stop  offset="0.795" style="stop-color:#B30195"/>
		<stop  offset="1" style="stop-color:#AF0091"/>
	</radialGradient>
	<path class="st12" d="M458.6,157.5v12.9v1.2h1.2h12.9v11.2h-12.9h-1.2v1.2v13h-11.2v-12.9v-1.2h-1.2h-12.9v-11.2h12.9h1.2v-1.2
		v-12.9h11.2 M459.8,156.3h-13.6v14.1H432V184h14.1v14.1h13.6V184h14.1v-13.6h-14.1L459.8,156.3L459.8,156.3z"/>
	
		<radialGradient id="SVGID_14_" cx="464.8724" cy="94.3055" r="202.1174" gradientTransform="matrix(1 0 0 -1 0 290)" gradientUnits="userSpaceOnUse">
		<stop  offset="2.753721e-02" style="stop-color:#F519E4"/>
		<stop  offset="0.1247" style="stop-color:#E814D5"/>
		<stop  offset="0.3521" style="stop-color:#CF0CB7"/>
		<stop  offset="0.5767" style="stop-color:#BD05A2"/>
		<stop  offset="0.795" style="stop-color:#B30195"/>
		<stop  offset="1" style="stop-color:#AF0091"/>
	</radialGradient>
	<polygon class="st13" points="414,156.2 409.9,156.2 409.9,152.1 405.9,152.1 405.9,156.2 401.8,156.2 401.8,160.2 405.9,160.2 
		405.9,164.3 409.9,164.3 409.9,160.2 414,160.2 	"/>
	<g>
		
			<radialGradient id="SVGID_15_" cx="444.6954" cy="49.5284" r="153.2824" gradientTransform="matrix(1 0 0 -1 0 290)" gradientUnits="userSpaceOnUse">
			<stop  offset="2.753721e-02" style="stop-color:#F519E4"/>
			<stop  offset="0.1247" style="stop-color:#E814D5"/>
			<stop  offset="0.3521" style="stop-color:#CF0CB7"/>
			<stop  offset="0.5767" style="stop-color:#BD05A2"/>
			<stop  offset="0.795" style="stop-color:#B30195"/>
			<stop  offset="1" style="stop-color:#AF0091"/>
		</radialGradient>
		<polygon class="st14" points="403.1,256.8 391.6,256.8 391.6,245.3 380.5,245.3 380.5,256.8 369,256.8 369,267.9 380.5,267.9 
			380.5,279.4 391.6,279.4 391.6,267.9 403.1,267.9 		"/>
	</g>
	
		<radialGradient id="SVGID_16_" cx="420.769" cy="86.1948" r="202.1175" gradientTransform="matrix(1 0 0 -1 0 290)" gradientUnits="userSpaceOnUse">
		<stop  offset="2.753721e-02" style="stop-color:#F519E4"/>
		<stop  offset="0.1247" style="stop-color:#E814D5"/>
		<stop  offset="0.3521" style="stop-color:#CF0CB7"/>
		<stop  offset="0.5767" style="stop-color:#BD05A2"/>
		<stop  offset="0.795" style="stop-color:#B30195"/>
		<stop  offset="1" style="stop-color:#AF0091"/>
	</radialGradient>
	<path class="st15" d="M303.7,157.2v13.9v1.3h1.3h13.9v12.1H305h-1.3v1.3v13.9h-12.1v-13.9v-1.3h-1.3h-13.9v-12.1h13.9h1.3v-1.3
		v-13.9H303.7 M305,155.9h-14.7v15.2h-15.2v14.7h15.2V201H305v-15.2h15.2v-14.7H305V155.9L305,155.9z"/>
	
		<radialGradient id="SVGID_17_" cx="204.3918" cy="19.9415" r="202.1174" gradientTransform="matrix(1 0 0 -1 0 290)" gradientUnits="userSpaceOnUse">
		<stop  offset="2.753721e-02" style="stop-color:#F519E4"/>
		<stop  offset="0.1247" style="stop-color:#E814D5"/>
		<stop  offset="0.3521" style="stop-color:#CF0CB7"/>
		<stop  offset="0.5767" style="stop-color:#BD05A2"/>
		<stop  offset="0.795" style="stop-color:#B30195"/>
		<stop  offset="1" style="stop-color:#AF0091"/>
	</radialGradient>
	<path class="st16" d="M248.3,222.7v9.3v0.9h0.9h9.3v8.1h-9.3h-0.9v0.9v9.3h-8.1v-9.3V241h-0.9H230v-8.1h9.3h0.9V232v-9.3H248.3
		 M249.2,221.8h-9.9V232h-10.2v9.9h10.2V252h9.9v-10.2h10.2V232h-10.2V221.8L249.2,221.8z"/>
	
		<radialGradient id="SVGID_18_" cx="395.8736" cy="61.9326" r="202.1178" gradientTransform="matrix(1 0 0 -1 0 290)" gradientUnits="userSpaceOnUse">
		<stop  offset="3.312380e-02" style="stop-color:#FF2DF6"/>
		<stop  offset="0.1561" style="stop-color:#EC23E2"/>
		<stop  offset="0.3753" style="stop-color:#CF14C4"/>
		<stop  offset="0.5918" style="stop-color:#BB09AF"/>
		<stop  offset="0.8023" style="stop-color:#AE02A2"/>
		<stop  offset="1" style="stop-color:#AA009E"/>
	</radialGradient>
	<polygon class="st17" points="326.9,238.1 322.2,238.1 322.2,233.4 317.7,233.4 317.7,238.1 313,238.1 313,242.6 317.7,242.6 
		317.7,247.3 322.2,247.3 322.2,242.6 326.9,242.6 	"/>
</g>
<g>
	<g>
		<defs>
			<rect id="SVGID_19_" width="504" height="288"/>
		</defs>
		<clipPath id="SVGID_20_">
			<use xlink:href="#SVGID_19_"  style="overflow:visible;"/>
		</clipPath>
		
			<linearGradient id="SVGID_21_" gradientUnits="userSpaceOnUse" x1="171.3" y1="70.5" x2="520.2" y2="70.5" gradientTransform="matrix(1 0 0 -1 0 290)">
			<stop  offset="0" style="stop-color:#B900B6"/>
			<stop  offset="0.75" style="stop-color:#FF64F4"/>
			<stop  offset="1" style="stop-color:#E6E6E6"/>
		</linearGradient>
		<path class="st18" d="M520.2,220h-35.7c-0.2,0-0.4,0.1-0.4,0.3l-3.3,11.6l-2.4-28.5c0-0.2-0.2-0.4-0.4-0.4c-0.2,0-0.4,0.1-0.4,0.3
			l-3.4,16.7h-5.5c-0.2,0-0.4,0.2-0.4,0.4l-2.6,19.6l-2.7-36.6c0-0.2-0.2-0.4-0.4-0.4c-0.2,0-0.4,0.1-0.4,0.3l-3.5,16.7h-3.8
			c-0.2,0-0.4,0.1-0.4,0.3l-1.1,4.9l-2.8-50.6c0-0.2-0.2-0.4-0.4-0.4l0,0c-0.2,0-0.4,0.2-0.4,0.4l-3.7,82.5l-3.1-42.7
			c0-0.2-0.2-0.4-0.3-0.4c-0.2,0-0.4,0.1-0.5,0.2l-2.7,5.7h-37.9c-0.2,0-0.4,0.1-0.4,0.3l-3.3,11.6l-2.4-28.5c0-0.2-0.2-0.4-0.4-0.4
			c-0.2,0-0.4,0.1-0.4,0.3l-3.4,16.7h-5.5c-0.2,0-0.4,0.2-0.4,0.4l-2.6,19.6l-2.7-36.6c0-0.2-0.2-0.4-0.4-0.4
			c-0.2,0-0.4,0.1-0.4,0.3l-3.5,16.7H372c-0.2,0-0.4,0.1-0.4,0.3l-1.1,4.9l-2.8-50.6c0-0.2-0.2-0.4-0.4-0.4l0,0
			c-0.2,0-0.4,0.2-0.4,0.4l-3.7,82.5l-3.1-42.7c0-0.2-0.2-0.4-0.3-0.4c-0.2,0-0.4,0.1-0.5,0.2l-2.7,5.7h-37.7
			c-0.2,0-0.4,0.1-0.4,0.3l-3.3,11.6l-2.4-28.5c0-0.2-0.2-0.4-0.4-0.4c-0.2,0-0.4,0.1-0.4,0.3l-3.4,16.7h-5.5
			c-0.2,0-0.4,0.2-0.4,0.4l-2.6,19.6l-2.7-36.6c0-0.2-0.2-0.4-0.4-0.4c-0.2,0-0.4,0.1-0.4,0.3l-3.5,16.7h-3.8
			c-0.2,0-0.4,0.1-0.4,0.3l-1.1,4.9l-2.8-50.6c0-0.2-0.2-0.4-0.4-0.4l0,0c-0.2,0-0.4,0.2-0.4,0.4l-3.7,82.5l-3.1-42.7
			c0-0.2-0.2-0.4-0.3-0.4c-0.2,0-0.4,0.1-0.5,0.2l-2.7,5.7h-37.7c-0.2,0-0.4,0.1-0.4,0.3l-3.3,11.6l-2.4-28.5c0-0.2-0.2-0.4-0.4-0.4
			s-0.4,0.1-0.4,0.3l-3.4,16.7H220c-0.2,0-0.4,0.2-0.4,0.4L217,240l-2.7-36.6c0-0.2-0.2-0.4-0.4-0.4s-0.4,0.1-0.4,0.3L210,220h-3.8
			c-0.2,0-0.4,0.1-0.4,0.3l-1.1,4.9l-2.8-50.6c0-0.2-0.2-0.4-0.4-0.4l0,0c-0.2,0-0.4,0.2-0.4,0.4l-3.7,82.5l-3.1-42.7
			c0-0.2-0.2-0.4-0.3-0.4c-0.2,0-0.4,0.1-0.5,0.2l-2.7,5.7h-19.1c-0.2,0-0.4,0.2-0.4,0.4s0.2,0.4,0.4,0.4h19.4
			c0.2,0,0.3-0.1,0.4-0.2l2.1-4.5l3.5,48.3c0,0.2,0.2,0.4,0.4,0.4l0,0c0.2,0,0.4-0.2,0.4-0.4l3.7-81.2l2.5,45c0,0.2,0.2,0.4,0.4,0.4
			s0.4-0.1,0.5-0.3l1.7-7.5h3.8c0.2,0,0.4-0.1,0.4-0.3l3-14.1l2.8,37.7c0,0.2,0.2,0.4,0.4,0.4s0.4-0.2,0.4-0.4l3.1-23.3h5.4
			c0.2,0,0.4-0.1,0.4-0.3l2.8-14.1l2.3,27.9c0,0.2,0.2,0.4,0.4,0.4s0.4-0.1,0.5-0.3l3.8-13.5h37.6c0.2,0,0.3-0.1,0.4-0.2l2.1-4.5
			l3.5,48.3c0,0.2,0.2,0.4,0.4,0.4l0,0c0.2,0,0.4-0.2,0.4-0.4l3.7-81.2l2.5,45c0,0.2,0.2,0.4,0.4,0.4c0.2,0,0.4-0.1,0.5-0.3l1.7-7.5
			h3.8c0.2,0,0.4-0.1,0.4-0.3l3-14.1l2.8,37.7c0,0.2,0.2,0.4,0.4,0.4c0.2,0,0.4-0.2,0.4-0.4l3.1-23.3h5.4c0.2,0,0.4-0.1,0.4-0.3
			l2.8-14.1l2.3,27.9c0,0.2,0.2,0.4,0.4,0.4c0.2,0,0.4-0.1,0.5-0.3l3.8-13.5h37.6c0.2,0,0.3-0.1,0.4-0.2l2.1-4.5l3.5,48.3
			c0,0.2,0.2,0.4,0.4,0.4l0,0c0.2,0,0.4-0.2,0.4-0.4l3.7-81.2l2.5,45c0,0.2,0.2,0.4,0.4,0.4c0.2,0,0.4-0.1,0.5-0.3l1.7-7.5h3.8
			c0.2,0,0.4-0.1,0.4-0.3l3-14.1l2.8,37.7c0,0.2,0.2,0.4,0.4,0.4c0.2,0,0.4-0.2,0.4-0.4l3.1-23.3h5.4c0.2,0,0.4-0.1,0.4-0.3
			l2.8-14.1l2.3,27.9c0,0.2,0.2,0.4,0.4,0.4c0.2,0,0.4-0.1,0.5-0.3l3.8-13.5h37.9c0.2,0,0.3-0.1,0.4-0.2l2.1-4.5l3.5,48.3
			c0,0.2,0.2,0.4,0.4,0.4c0.2,0,0.4-0.2,0.4-0.4l3.7-81.2l2.5,45c0,0.2,0.2,0.4,0.4,0.4c0.2,0,0.4-0.1,0.5-0.3l1.7-7.5h3.8
			c0.2,0,0.4-0.1,0.4-0.3l3-14.1l2.8,37.7c0,0.2,0.2,0.4,0.4,0.4c0.2,0,0.4-0.2,0.4-0.4L469,221h5.4c0.2,0,0.4-0.1,0.4-0.3l2.8-14.1
			l2.3,27.9c0,0.2,0.2,0.4,0.4,0.4c0.2,0,0.4-0.1,0.5-0.3l3.8-13.5H520V220H520.2z"/>
	</g>
	<g>
		<defs>
			<rect id="SVGID_22_" width="504" height="288"/>
		</defs>
		<clipPath id="SVGID_23_">
			<use xlink:href="#SVGID_22_"  style="overflow:visible;"/>
		</clipPath>
		<g class="st19">
			<g class="st20">
				
					<radialGradient id="SVGID_24_" cx="-579.196" cy="-1431.2521" r="109.1606" gradientTransform="matrix(4.146 0 0 -0.4435 2966.7383 -414.2603)" gradientUnits="userSpaceOnUse">
					<stop  offset="0" style="stop-color:#FF37CC"/>
					<stop  offset="4.387650e-02" style="stop-color:#FF37DC"/>
					<stop  offset="0.103" style="stop-color:#F72FD3"/>
					<stop  offset="0.288" style="stop-color:#E21ABC"/>
					<stop  offset="0.4873" style="stop-color:#D30BAC"/>
					<stop  offset="0.7094" style="stop-color:#CB03A2"/>
					<stop  offset="1" style="stop-color:#C8009F"/>
				</radialGradient>
				<path class="st21" d="M527.8,172.3c-232.2,2-414.6,22.8-414.6,48.2s182.5,46.2,414.6,48.2V172.3z"/>
				
					<radialGradient id="SVGID_25_" cx="-579.196" cy="-3566.7549" r="109.2348" gradientTransform="matrix(4.146 0 0 -0.2558 2966.7383 -691.8759)" gradientUnits="userSpaceOnUse">
					<stop  offset="0" style="stop-color:#FF37CC"/>
					<stop  offset="4.387650e-02" style="stop-color:#FF37DC"/>
					<stop  offset="0.103" style="stop-color:#F72FD3"/>
					<stop  offset="0.288" style="stop-color:#E21ABC"/>
					<stop  offset="0.4873" style="stop-color:#D30BAC"/>
					<stop  offset="0.7094" style="stop-color:#CB03A2"/>
					<stop  offset="1" style="stop-color:#C8009F"/>
				</radialGradient>
				<path class="st22" d="M527.8,192.7c-232.2,1.2-414.6,13.2-414.6,27.8s182.5,26.6,414.6,27.8V192.7z"/>
				
					<radialGradient id="SVGID_26_" cx="-990.23" cy="-17022.0566" r="55.1342" gradientTransform="matrix(8.9794 0 0 -6.970000e-02 9457.0635 -965.9792)" gradientUnits="userSpaceOnUse">
					<stop  offset="0.1843" style="stop-color:#FF69F0"/>
					<stop  offset="0.1868" style="stop-color:#FE61F1"/>
					<stop  offset="0.1906" style="stop-color:#FC4CF5"/>
					<stop  offset="0.1953" style="stop-color:#F829FA"/>
					<stop  offset="0.1989" style="stop-color:#F509FF"/>
					<stop  offset="0.3916" style="stop-color:#E907EC"/>
					<stop  offset="0.7798" style="stop-color:#CC03BB"/>
					<stop  offset="1" style="stop-color:#B9009D"/>
				</radialGradient>
				<polygon class="st23" points="527.8,216.9 70.3,220.5 527.8,224 				"/>
			</g>
			<g class="st20">
				<g>
					<g class="st24">
						<g>
							
								<radialGradient id="SVGID_27_" cx="-1786.7218" cy="25835.6562" r="120.0676" gradientTransform="matrix(-4.0395 0.2254 6.050000e-02 6.290000e-02 -8223.4385 -1001.1395)" gradientUnits="userSpaceOnUse">
								<stop  offset="0" style="stop-color:#FF37CC"/>
								<stop  offset="4.387650e-02" style="stop-color:#FF37DC"/>
								<stop  offset="0.103" style="stop-color:#F72FD3"/>
								<stop  offset="0.288" style="stop-color:#E21ABC"/>
								<stop  offset="0.4873" style="stop-color:#D30BAC"/>
								<stop  offset="0.7094" style="stop-color:#CB03A2"/>
								<stop  offset="1" style="stop-color:#C8009F"/>
							</radialGradient>
							<path class="st25" d="M527.8,214.9c-257.6,14.6-459.9,29.3-456,33.4c3.8,4,204.8-3.8,456-17.5V214.9z"/>
						</g>
						<g>
							
								<radialGradient id="SVGID_28_" cx="-2889.998" cy="-5016.876" r="120.1637" gradientTransform="matrix(-0.9345 -0.9743 -0.2608 1.460000e-02 -3452.0359 -2521.2771)" gradientUnits="userSpaceOnUse">
								<stop  offset="0" style="stop-color:#FF37CC"/>
								<stop  offset="4.387650e-02" style="stop-color:#FF37DC"/>
								<stop  offset="0.103" style="stop-color:#F72FD3"/>
								<stop  offset="0.288" style="stop-color:#E21ABC"/>
								<stop  offset="0.4873" style="stop-color:#D30BAC"/>
								<stop  offset="0.7094" style="stop-color:#CB03A2"/>
								<stop  offset="1" style="stop-color:#C8009F"/>
							</radialGradient>
							<path class="st26" d="M527.8,160.9c-38.9-34.5-71.4-57.4-83-56.8c-17.3,1,18.9,54.2,80.9,118.8c0.7,0.7,1.4,1.5,2.1,2.2
								V160.9z"/>
						</g>
					</g>
					<g class="st27">
						<g>
							
								<radialGradient id="SVGID_29_" cx="-1135.3134" cy="25419.3926" r="157.2372" gradientTransform="matrix(-3.3193 0.5991 0.1605 5.170000e-02 -7291.1655 -412.814)" gradientUnits="userSpaceOnUse">
								<stop  offset="0" style="stop-color:#FF37CC"/>
								<stop  offset="4.387650e-02" style="stop-color:#FF37DC"/>
								<stop  offset="0.103" style="stop-color:#F72FD3"/>
								<stop  offset="0.288" style="stop-color:#E21ABC"/>
								<stop  offset="0.4873" style="stop-color:#D30BAC"/>
								<stop  offset="0.7094" style="stop-color:#CB03A2"/>
								<stop  offset="1" style="stop-color:#C8009F"/>
							</radialGradient>
							<path class="st28" d="M527.8,213.8C241.6,265.5,21.4,310.9,35.2,315.4c13,4.2,228.6-29.3,492.6-76.3V213.8z"/>
						</g>
						<g>
							
								<radialGradient id="SVGID_30_" cx="-2862.6428" cy="5059.4634" r="157.3356" gradientTransform="matrix(-2.4839 -0.8006 -0.2143 3.870000e-02 -5469.2007 -2266.4326)" gradientUnits="userSpaceOnUse">
								<stop  offset="0" style="stop-color:#FF37CC"/>
								<stop  offset="4.387650e-02" style="stop-color:#FF37DC"/>
								<stop  offset="0.103" style="stop-color:#F72FD3"/>
								<stop  offset="0.288" style="stop-color:#E21ABC"/>
								<stop  offset="0.4873" style="stop-color:#D30BAC"/>
								<stop  offset="0.7094" style="stop-color:#CB03A2"/>
								<stop  offset="1" style="stop-color:#C8009F"/>
							</radialGradient>
							<path class="st29" d="M527.8,195C339.3,135.6,183.4,92.3,166.6,95.3c-18.6,3.4,141.1,62.4,356.8,132c1.5,0.5,3,1,4.5,1.4V195
								H527.8z"/>
						</g>
					</g>
					<g class="st27">
						<g>
							
								<radialGradient id="SVGID_31_" cx="-1490.137" cy="25528.6211" r="92.0527" gradientTransform="matrix(-3.8007 0.3995 0.107 5.920000e-02 -7838.0356 -694.7842)" gradientUnits="userSpaceOnUse">
								<stop  offset="0" style="stop-color:#FF37CC"/>
								<stop  offset="4.387650e-02" style="stop-color:#FF37DC"/>
								<stop  offset="0.103" style="stop-color:#F72FD3"/>
								<stop  offset="0.288" style="stop-color:#E21ABC"/>
								<stop  offset="0.4873" style="stop-color:#D30BAC"/>
								<stop  offset="0.7094" style="stop-color:#CB03A2"/>
								<stop  offset="1" style="stop-color:#C8009F"/>
							</radialGradient>
							<path class="st30" d="M527.8,217.8c-184,19.5-326,37.3-320.8,40.2c5.1,2.8,145.3-9.2,320.8-27.3V217.8z"/>
						</g>
						<g>
							
								<radialGradient id="SVGID_32_" cx="-2869.4373" cy="-424.0667" r="92.1441" gradientTransform="matrix(-1.6563 -0.9167 -0.2454 2.580000e-02 -4299.6372 -2398.271)" gradientUnits="userSpaceOnUse">
								<stop  offset="0" style="stop-color:#FF37CC"/>
								<stop  offset="4.387650e-02" style="stop-color:#FF37DC"/>
								<stop  offset="0.103" style="stop-color:#F72FD3"/>
								<stop  offset="0.288" style="stop-color:#E21ABC"/>
								<stop  offset="0.4873" style="stop-color:#D30BAC"/>
								<stop  offset="0.7094" style="stop-color:#CB03A2"/>
								<stop  offset="1" style="stop-color:#C8009F"/>
							</radialGradient>
							<path class="st31" d="M527.8,191c-62.5-32.5-113.4-55.2-123.3-54.2c-12.2,1.3,42.6,38.1,123.3,83.1V191z"/>
						</g>
					</g>
					<g class="st27">
						<g>
							
								<radialGradient id="SVGID_33_" cx="-2620.0474" cy="15037.0605" r="92.2084" gradientTransform="matrix(-3.6858 -0.458 -0.1227 5.740000e-02 -7254.8125 -1841.9167)" gradientUnits="userSpaceOnUse">
								<stop  offset="0" style="stop-color:#FF37CC"/>
								<stop  offset="4.387650e-02" style="stop-color:#FF37DC"/>
								<stop  offset="0.103" style="stop-color:#F72FD3"/>
								<stop  offset="0.288" style="stop-color:#E21ABC"/>
								<stop  offset="0.4873" style="stop-color:#D30BAC"/>
								<stop  offset="0.7094" style="stop-color:#CB03A2"/>
								<stop  offset="1" style="stop-color:#C8009F"/>
							</radialGradient>
							<path class="st32" d="M527.8,210.9c-169.1-20.6-304.4-34.6-310.2-31.9c-6.1,2.8,131.4,22.8,310.2,45.2V210.9z"/>
						</g>
						<g>
							
								<radialGradient id="SVGID_34_" cx="-2192.0945" cy="-17910.998" r="92.1305" gradientTransform="matrix(1.8989 -0.889 -0.238 -2.960000e-02 456.8435 -2257.7371)" gradientUnits="userSpaceOnUse">
								<stop  offset="0" style="stop-color:#FF37CC"/>
								<stop  offset="4.387650e-02" style="stop-color:#FF37DC"/>
								<stop  offset="0.103" style="stop-color:#F72FD3"/>
								<stop  offset="0.288" style="stop-color:#E21ABC"/>
								<stop  offset="0.4873" style="stop-color:#D30BAC"/>
								<stop  offset="0.7094" style="stop-color:#CB03A2"/>
								<stop  offset="1" style="stop-color:#C8009F"/>
							</radialGradient>
							<path class="st33" d="M527.8,221.9c-92.7,43.7-157.4,79.7-145.6,81.2c9.9,1.2,70.8-22.3,145.6-55.7V221.9z"/>
						</g>
					</g>
					<g class="st27">
						<g>
							
								<radialGradient id="SVGID_35_" cx="-467.17" cy="17941.5352" r="148.5689" gradientTransform="matrix(-1.5469 0.9278 0.2483 2.410000e-02 -4620.4502 222.2511)" gradientUnits="userSpaceOnUse">
								<stop  offset="0" style="stop-color:#FF37CC"/>
								<stop  offset="4.387650e-02" style="stop-color:#FF37DC"/>
								<stop  offset="0.103" style="stop-color:#F72FD3"/>
								<stop  offset="0.288" style="stop-color:#E21ABC"/>
								<stop  offset="0.4873" style="stop-color:#D30BAC"/>
								<stop  offset="0.7094" style="stop-color:#CB03A2"/>
								<stop  offset="1" style="stop-color:#C8009F"/>
							</radialGradient>
							<path class="st34" d="M527.8,213.1c-2.5,1.5-5.1,3-7.6,4.6C393.3,293.7,307,357,327.4,359c16.8,1.6,100.6-38.8,200.4-95.5
								V213.1z"/>
						</g>
						<g>
							
								<radialGradient id="SVGID_36_" cx="-2379.7129" cy="15423.9287" r="148.5172" gradientTransform="matrix(-3.8467 -0.3731 -9.990000e-02 5.990000e-02 -7056.146 -1590.5374)" gradientUnits="userSpaceOnUse">
								<stop  offset="0" style="stop-color:#FF37CC"/>
								<stop  offset="4.387650e-02" style="stop-color:#FF37DC"/>
								<stop  offset="0.103" style="stop-color:#F72FD3"/>
								<stop  offset="0.288" style="stop-color:#E21ABC"/>
								<stop  offset="0.4873" style="stop-color:#D30BAC"/>
								<stop  offset="0.7094" style="stop-color:#CB03A2"/>
								<stop  offset="1" style="stop-color:#C8009F"/>
							</radialGradient>
							<path class="st35" d="M-13,165.5v1.4c18.7,7,249.9,33.5,540.9,61.8v-20.6C239.8,180.5,5.8,162.1-13,165.5z"/>
						</g>
					</g>
					<g class="st24">
						<g>
							
								<radialGradient id="SVGID_37_" cx="-265.7524" cy="18811.6191" r="111.4543" gradientTransform="matrix(-1.1696 0.9594 0.2571 1.820000e-02 -4590.207 133.791)" gradientUnits="userSpaceOnUse">
								<stop  offset="0" style="stop-color:#FF37CC"/>
								<stop  offset="4.387650e-02" style="stop-color:#FF37DC"/>
								<stop  offset="0.103" style="stop-color:#F72FD3"/>
								<stop  offset="0.288" style="stop-color:#E21ABC"/>
								<stop  offset="0.4873" style="stop-color:#D30BAC"/>
								<stop  offset="0.7094" style="stop-color:#CB03A2"/>
								<stop  offset="1" style="stop-color:#C8009F"/>
							</radialGradient>
							<path class="st36" d="M527.8,219.7C456.2,278.5,411,327,426.7,328.2c11.5,0.8,52.1-23.7,101.1-59.8V219.7z"/>
						</g>
						<g>
							
								<radialGradient id="SVGID_38_" cx="-2436.2571" cy="18530.6758" r="111.541" gradientTransform="matrix(-3.9777 -0.2821 -7.550000e-02 6.200000e-02 -7734.5425 -1614.9587)" gradientUnits="userSpaceOnUse">
								<stop  offset="0" style="stop-color:#FF37CC"/>
								<stop  offset="4.387650e-02" style="stop-color:#FF37DC"/>
								<stop  offset="0.103" style="stop-color:#F72FD3"/>
								<stop  offset="0.288" style="stop-color:#E21ABC"/>
								<stop  offset="0.4873" style="stop-color:#D30BAC"/>
								<stop  offset="0.7094" style="stop-color:#CB03A2"/>
								<stop  offset="1" style="stop-color:#C8009F"/>
							</radialGradient>
							<path class="st37" d="M527.8,211.6c-227.6-15.8-409.7-25.5-414.1-21.9c-4.5,3.7,179.1,20,414.1,36.9V211.6z"/>
						</g>
					</g>
					<g>
						<g>
							
								<radialGradient id="SVGID_39_" cx="-2088.3157" cy="22632.9961" r="148.4086" gradientTransform="matrix(-4.146 0 0 6.460000e-02 -8101.0796 -1240.8904)" gradientUnits="userSpaceOnUse">
								<stop  offset="0" style="stop-color:#FF37CC"/>
								<stop  offset="4.387650e-02" style="stop-color:#FF37DC"/>
								<stop  offset="0.103" style="stop-color:#F72FD3"/>
								<stop  offset="0.288" style="stop-color:#E21ABC"/>
								<stop  offset="0.4873" style="stop-color:#D30BAC"/>
								<stop  offset="0.7094" style="stop-color:#CB03A2"/>
								<stop  offset="1" style="stop-color:#C8009F"/>
							</radialGradient>
							<path class="st38" d="M-13,217.6v7.3c88.3,3.4,295.8,5.8,540.9,6v-19.2C282.8,211.8,75.2,214.2-13,217.6z"/>
						</g>
						<g>
							
								<radialGradient id="SVGID_40_" cx="-2683.1169" cy="-9681.6631" r="148.5019" gradientTransform="matrix(0 -1 -0.2678 0 -2035.6663 -2461.917)" gradientUnits="userSpaceOnUse">
								<stop  offset="0" style="stop-color:#FF37CC"/>
								<stop  offset="4.387650e-02" style="stop-color:#FF37DC"/>
								<stop  offset="0.103" style="stop-color:#F72FD3"/>
								<stop  offset="0.288" style="stop-color:#E21ABC"/>
								<stop  offset="0.4873" style="stop-color:#D30BAC"/>
								<stop  offset="0.7094" style="stop-color:#CB03A2"/>
								<stop  offset="1" style="stop-color:#C8009F"/>
							</radialGradient>
							<path class="st39" d="M527.8,120.7c-6.5,26.4-10.5,61.7-10.5,100.5s4,74.1,10.5,100.5V120.7z"/>
						</g>
					</g>
				</g>
				
					<radialGradient id="SVGID_41_" cx="-581.657" cy="69" r="80.7677" gradientTransform="matrix(4.146 0 0 -1 2966.7383 290)" gradientUnits="userSpaceOnUse">
					<stop  offset="0" style="stop-color:#FF37CC"/>
					<stop  offset="4.387650e-02" style="stop-color:#FF37DC"/>
					<stop  offset="0.103" style="stop-color:#F72FD3"/>
					<stop  offset="0.288" style="stop-color:#E21ABC"/>
					<stop  offset="0.4873" style="stop-color:#D30BAC"/>
					<stop  offset="0.7094" style="stop-color:#CB03A2"/>
					<stop  offset="1" style="stop-color:#C8009F"/>
				</radialGradient>
				<path class="st40" d="M527.8,140.5c-172.1,3.4-307.4,38.1-307.4,80.5s135.3,77.1,307.4,80.5V140.5z"/>
				
					<radialGradient id="SVGID_42_" cx="-563.4161" cy="-1974.0857" r="34.5927" gradientTransform="matrix(15.1496 0 0 -0.4553 9090.7139 -677.8282)" gradientUnits="userSpaceOnUse">
					<stop  offset="6.060090e-02" style="stop-color:#FF05D3"/>
					<stop  offset="8.393075e-02" style="stop-color:#F905CE"/>
					<stop  offset="0.2161" style="stop-color:#DE03B4"/>
					<stop  offset="0.3602" style="stop-color:#C902A0"/>
					<stop  offset="0.5205" style="stop-color:#BA0192"/>
					<stop  offset="0.7097" style="stop-color:#B2008A"/>
					<stop  offset="1" style="stop-color:#AF0087"/>
				</radialGradient>
				<path class="st41" d="M527.8,205.2c-276.7,0.4-496.7,7.3-496.7,15.7s220,15.3,496.7,15.7V205.2z"/>
				
					<radialGradient id="SVGID_43_" cx="-639.5935" cy="-1974.1449" r="63.6912" gradientTransform="matrix(6.2281 0 0 -0.4553 4538.6377 -677.8282)" gradientUnits="userSpaceOnUse">
					<stop  offset="6.060090e-02" style="stop-color:#FF46FC"/>
					<stop  offset="7.559253e-02" style="stop-color:#FF3EFA"/>
					<stop  offset="9.855813e-02" style="stop-color:#FF29F4"/>
					<stop  offset="0.1129" style="stop-color:#FF18EF"/>
					<stop  offset="0.2271" style="stop-color:#FB0FFF"/>
					<stop  offset="0.2465" style="stop-color:#F60EFA"/>
					<stop  offset="0.3695" style="stop-color:#DD09DC"/>
					<stop  offset="0.5001" style="stop-color:#C805C5"/>
					<stop  offset="0.6401" style="stop-color:#BA02B5"/>
					<stop  offset="0.796" style="stop-color:#B201AB"/>
					<stop  offset="1" style="stop-color:#AF00A8"/>
				</radialGradient>
				<path class="st42" d="M527.8,192.1c-206.1,1-368.9,13.6-368.9,28.9s162.8,27.9,368.9,28.9V192.1z"/>
			</g>
			<g class="st20">
				<g>
					<g>
						
							<radialGradient id="SVGID_44_" cx="-628.449" cy="72.0934" r="1.1294" gradientTransform="matrix(4.146 0 0 -1 2966.7383 290)" gradientUnits="userSpaceOnUse">
							<stop  offset="0.1843" style="stop-color:#48D9EA"/>
							<stop  offset="0.1867" style="stop-color:#43D2E2"/>
							<stop  offset="0.1906" style="stop-color:#37BDCD"/>
							<stop  offset="0.1952" style="stop-color:#239CAA"/>
							<stop  offset="0.1989" style="stop-color:#107D89"/>
							<stop  offset="0.2486" style="stop-color:#107D89"/>
							<stop  offset="0.2919" style="stop-color:#0E6C76"/>
							<stop  offset="0.3875" style="stop-color:#0A4B52"/>
							<stop  offset="0.4882" style="stop-color:#063034"/>
							<stop  offset="0.5943" style="stop-color:#031B1D"/>
							<stop  offset="0.7079" style="stop-color:#010C0D"/>
							<stop  offset="0.8344" style="stop-color:#000303"/>
							<stop  offset="1" style="stop-color:#000000"/>
						</radialGradient>
						<path class="st43" d="M365.9,217.9c0,0.6-2.1,1.1-4.7,1.1s-4.7-0.5-4.7-1.1s2.1-1.1,4.7-1.1
							C363.8,216.8,365.9,217.3,365.9,217.9z"/>
					</g>
				</g>
				<g>
					<g>
						
							<radialGradient id="SVGID_45_" cx="-589.0476" cy="83.4799" r="2.0358" gradientTransform="matrix(4.146 0 0 -1 2966.7383 290)" gradientUnits="userSpaceOnUse">
							<stop  offset="0.1843" style="stop-color:#48D9EA"/>
							<stop  offset="0.1867" style="stop-color:#43D2E2"/>
							<stop  offset="0.1906" style="stop-color:#37BDCD"/>
							<stop  offset="0.1952" style="stop-color:#239CAA"/>
							<stop  offset="0.1989" style="stop-color:#107D89"/>
							<stop  offset="0.2486" style="stop-color:#107D89"/>
							<stop  offset="0.2919" style="stop-color:#0E6C76"/>
							<stop  offset="0.3875" style="stop-color:#0A4B52"/>
							<stop  offset="0.4882" style="stop-color:#063034"/>
							<stop  offset="0.5943" style="stop-color:#031B1D"/>
							<stop  offset="0.7079" style="stop-color:#010C0D"/>
							<stop  offset="0.8344" style="stop-color:#000303"/>
							<stop  offset="1" style="stop-color:#000000"/>
						</radialGradient>
						<path class="st44" d="M527.8,204.6c-1-0.1-2.1-0.2-3.3-0.2c-4.7,0-8.4,0.9-8.4,2s3.8,2,8.4,2c1.2,0,2.3-0.1,3.3-0.2V204.6z"/>
					</g>
				</g>
				<g>
					<g>
						
							<radialGradient id="SVGID_46_" cx="-618.9404" cy="70.2926" r="1.1294" gradientTransform="matrix(4.146 0 0 -1 2966.7383 290)" gradientUnits="userSpaceOnUse">
							<stop  offset="0.1843" style="stop-color:#48D9EA"/>
							<stop  offset="0.1867" style="stop-color:#43D2E2"/>
							<stop  offset="0.1906" style="stop-color:#37BDCD"/>
							<stop  offset="0.1952" style="stop-color:#239CAA"/>
							<stop  offset="0.1989" style="stop-color:#107D89"/>
							<stop  offset="0.2486" style="stop-color:#107D89"/>
							<stop  offset="0.2919" style="stop-color:#0E6C76"/>
							<stop  offset="0.3875" style="stop-color:#0A4B52"/>
							<stop  offset="0.4882" style="stop-color:#063034"/>
							<stop  offset="0.5943" style="stop-color:#031B1D"/>
							<stop  offset="0.7079" style="stop-color:#010C0D"/>
							<stop  offset="0.8344" style="stop-color:#000303"/>
							<stop  offset="1" style="stop-color:#000000"/>
						</radialGradient>
						<path class="st45" d="M405.3,219.7c0,0.6-2.1,1.1-4.7,1.1s-4.7-0.5-4.7-1.1s2.1-1.1,4.7-1.1
							C403.2,218.6,405.3,219.1,405.3,219.7z"/>
					</g>
				</g>
				<g>
					<g>
						
							<radialGradient id="SVGID_47_" cx="-606.4448" cy="65.491" r="1.6678" gradientTransform="matrix(4.146 0 0 -1 2966.7383 290)" gradientUnits="userSpaceOnUse">
							<stop  offset="0.1843" style="stop-color:#48D9EA"/>
							<stop  offset="0.1867" style="stop-color:#43D2E2"/>
							<stop  offset="0.1906" style="stop-color:#37BDCD"/>
							<stop  offset="0.1952" style="stop-color:#239CAA"/>
							<stop  offset="0.1989" style="stop-color:#107D89"/>
							<stop  offset="0.2486" style="stop-color:#107D89"/>
							<stop  offset="0.2919" style="stop-color:#0E6C76"/>
							<stop  offset="0.3875" style="stop-color:#0A4B52"/>
							<stop  offset="0.4882" style="stop-color:#063034"/>
							<stop  offset="0.5943" style="stop-color:#031B1D"/>
							<stop  offset="0.7079" style="stop-color:#010C0D"/>
							<stop  offset="0.8344" style="stop-color:#000303"/>
							<stop  offset="1" style="stop-color:#000000"/>
						</radialGradient>
						<path class="st46" d="M459.3,224.5c0,0.9-3.1,1.7-6.9,1.7s-6.9-0.7-6.9-1.7c0-0.9,3.1-1.7,6.9-1.7
							C456.2,222.8,459.3,223.6,459.3,224.5z"/>
					</g>
				</g>
				<g>
					<g>
						
							<radialGradient id="SVGID_48_" cx="-601.201" cy="53.7555" r="1.4559" gradientTransform="matrix(4.146 0 0 -1 2966.7383 290)" gradientUnits="userSpaceOnUse">
							<stop  offset="0.1843" style="stop-color:#48D9EA"/>
							<stop  offset="0.1867" style="stop-color:#43D2E2"/>
							<stop  offset="0.1906" style="stop-color:#37BDCD"/>
							<stop  offset="0.1952" style="stop-color:#239CAA"/>
							<stop  offset="0.1989" style="stop-color:#107D89"/>
							<stop  offset="0.2486" style="stop-color:#107D89"/>
							<stop  offset="0.2919" style="stop-color:#0E6C76"/>
							<stop  offset="0.3875" style="stop-color:#0A4B52"/>
							<stop  offset="0.4882" style="stop-color:#063034"/>
							<stop  offset="0.5943" style="stop-color:#031B1D"/>
							<stop  offset="0.7079" style="stop-color:#010C0D"/>
							<stop  offset="0.8344" style="stop-color:#000303"/>
							<stop  offset="1" style="stop-color:#000000"/>
						</radialGradient>
						<path class="st47" d="M480.2,236.2c0,0.8-2.7,1.5-6,1.5s-6-0.7-6-1.5s2.7-1.5,6-1.5C477.5,234.8,480.2,235.4,480.2,236.2z"/>
					</g>
				</g>
				<g>
					<g>
						
							<radialGradient id="SVGID_49_" cx="-587.2833" cy="71.8522" r="4.7429" gradientTransform="matrix(4.146 0 0 -1 2966.7383 290)" gradientUnits="userSpaceOnUse">
							<stop  offset="0.1843" style="stop-color:#48D9EA"/>
							<stop  offset="0.1867" style="stop-color:#43D2E2"/>
							<stop  offset="0.1906" style="stop-color:#37BDCD"/>
							<stop  offset="0.1952" style="stop-color:#239CAA"/>
							<stop  offset="0.1989" style="stop-color:#107D89"/>
							<stop  offset="0.2486" style="stop-color:#107D89"/>
							<stop  offset="0.2919" style="stop-color:#0E6C76"/>
							<stop  offset="0.3875" style="stop-color:#0A4B52"/>
							<stop  offset="0.4882" style="stop-color:#063034"/>
							<stop  offset="0.5943" style="stop-color:#031B1D"/>
							<stop  offset="0.7079" style="stop-color:#010C0D"/>
							<stop  offset="0.8344" style="stop-color:#000303"/>
							<stop  offset="1" style="stop-color:#000000"/>
						</radialGradient>
						<path class="st48" d="M527.8,213.5c-8.9,0.5-15.6,2.4-15.6,4.6c0,2.3,6.7,4.2,15.6,4.6V213.5z"/>
					</g>
				</g>
				<g>
					<g>
						
							<radialGradient id="SVGID_50_" cx="-602.2849" cy="77.5766" r="1.8616" gradientTransform="matrix(4.146 0 0 -1 2966.7383 290)" gradientUnits="userSpaceOnUse">
							<stop  offset="0.1843" style="stop-color:#48D9EA"/>
							<stop  offset="0.1867" style="stop-color:#43D2E2"/>
							<stop  offset="0.1906" style="stop-color:#37BDCD"/>
							<stop  offset="0.1952" style="stop-color:#239CAA"/>
							<stop  offset="0.1989" style="stop-color:#107D89"/>
							<stop  offset="0.2486" style="stop-color:#107D89"/>
							<stop  offset="0.2919" style="stop-color:#0E6C76"/>
							<stop  offset="0.3875" style="stop-color:#0A4B52"/>
							<stop  offset="0.4882" style="stop-color:#063034"/>
							<stop  offset="0.5943" style="stop-color:#031B1D"/>
							<stop  offset="0.7079" style="stop-color:#010C0D"/>
							<stop  offset="0.8344" style="stop-color:#000303"/>
							<stop  offset="1" style="stop-color:#000000"/>
						</radialGradient>
						<path class="st49" d="M477.4,212.4c0,1-3.5,1.9-7.7,1.9c-4.3,0-7.7-0.8-7.7-1.9c0-1,3.5-1.9,7.7-1.9
							C473.9,210.6,477.4,211.4,477.4,212.4z"/>
					</g>
				</g>
			</g>
		</g>
	</g>
</g>
<g class="st50">
	<g class="st20">
		<path class="st51" d="M54.6,223h-2.5v-3.9h-3.4v3.9h-2.5v-9.6h2.5v3.8h3.4v-3.8h2.5V223z"/>
		<path class="st51" d="M66.6,223H59v-9.6h7.6v1.9h-5.1v1.9h4v1.9h-4v2h5.1V223z"/>
		<path class="st51" d="M72.1,223h-2.7l3.6-9.6h2.7l3.6,9.6h-2.7l-0.6-1.7h-3.4L72.1,223z M73.4,219.5h2.2l-1.1-3.2L73.4,219.5z"/>
		<path class="st51" d="M85.4,221.1h5v1.9h-7.5v-9.6h2.5V221.1z"/>
		<path class="st51" d="M97.1,223h-2.5v-7.7h-2.9v-1.9h8.2v1.9H97v7.7H97.1z"/>
		<path class="st51" d="M112,223h-2.5v-3.9h-3.4v3.9h-2.5v-9.6h2.5v3.8h3.4v-3.8h2.5V223z"/>
		<path class="st51" d="M123.8,222.9c-2,0.2-3.7,0.3-5.1,0.3c-0.9,0-1.6-0.2-2-0.6c-0.4-0.4-0.6-1.1-0.6-2v-4.4c0-1,0.2-1.7,0.7-2.1
			c0.4-0.4,1.1-0.7,2.1-0.7h4.9v1.9h-4.4c-0.5,0-0.8,0.3-0.8,0.8v4.4c0,0.2,0.1,0.4,0.2,0.5s0.3,0.2,0.5,0.2s0.4,0,0.6,0
			s0.5,0,0.7,0s0.5,0,0.7,0c0.3,0,0.6,0,1-0.1c0.4,0,0.9-0.1,1.5-0.1L123.8,222.9L123.8,222.9z"/>
		<path class="st51" d="M129.3,223h-2.7l3.6-9.6h2.7l3.6,9.6H134l-0.6-1.7H130L129.3,223z M130.6,219.5h2.2l-1.1-3.2L130.6,219.5z"
			/>
		<path class="st51" d="M140.1,213.4h5.8c1,0,1.7,0.2,2.1,0.7c0.4,0.4,0.7,1.1,0.7,2.1v1.2c0,0.8-0.1,1.3-0.4,1.8
			c-0.3,0.4-0.7,0.7-1.2,0.8l1.7,3h-2.7l-1.6-2.9h-1.9v2.9h-2.5L140.1,213.4L140.1,213.4z M146.1,216.2c0-0.5-0.3-0.8-0.8-0.8h-2.7
			v2.9h2.7c0.5,0,0.8-0.3,0.8-0.8V216.2z"/>
		<path class="st51" d="M160.3,223h-7.6v-9.6h7.6v1.9h-5.1v1.9h4v1.9h-4v2h5.1V223z"/>
	</g>
	<g class="st20">
		<path class="st51" d="M70.4,226.5h2.8c0.5,0,0.8,0.1,1,0.3s0.3,0.5,0.3,1c0,0.3-0.1,0.5-0.2,0.7s-0.3,0.3-0.5,0.4
			c0.4,0.1,0.6,0.4,0.8,0.8c0,0.1,0.1,0.3,0.1,0.5c0,0.5-0.1,0.8-0.3,1c-0.2,0.2-0.6,0.3-1,0.3h-3C70.4,231.5,70.4,226.5,70.4,226.5
			z M73.3,227.9c0-0.3-0.1-0.4-0.4-0.4h-1.2v1h1.2c0.3,0,0.4-0.1,0.4-0.4V227.9z M73.5,229.9c0-0.3-0.1-0.4-0.4-0.4h-1.4v1h1.4
			c0.3,0,0.4-0.1,0.4-0.4V229.9z"/>
		<path class="st51" d="M78,231.5h-1.4l1.9-4.9h1.4l1.9,4.9h-1.4l-0.3-0.9h-1.8L78,231.5z M78.7,229.7h1.1l-0.6-1.7L78.7,229.7z"/>
		<path class="st51" d="M87.6,231.4c-1.1,0.1-1.9,0.1-2.6,0.1c-0.5,0-0.8-0.1-1-0.3s-0.3-0.6-0.3-1v-2.3c0-0.5,0.1-0.9,0.3-1.1
			c0.2-0.2,0.6-0.3,1.1-0.3h2.5v1h-2.3c-0.3,0-0.4,0.1-0.4,0.4v2.3c0,0.1,0,0.2,0.1,0.3s0.1,0.1,0.2,0.1s0.2,0,0.3,0
			c0.1,0,0.2,0,0.4,0c0.1,0,0.3,0,0.4,0s0.3,0,0.5,0s0.5,0,0.8,0V231.4z"/>
		<path class="st51" d="M91.2,231.5h-1.3v-4.9h1.3v1.9h0.6l1.1-1.9h1.3l-1.4,2.4l1.4,2.5h-1.3l-1.1-2h-0.6V231.5z"/>
		<path class="st51" d="M100.6,231.3c-1.1,0.1-2.1,0.2-3,0.2c-0.5,0-0.8-0.1-1-0.3s-0.3-0.6-0.3-1v-2.3c0-0.5,0.1-0.9,0.3-1.1
			c0.2-0.2,0.6-0.3,1.1-0.3h2.5v1h-2.3c-0.3,0-0.4,0.1-0.4,0.4v2.3c0,0.1,0,0.2,0.1,0.3s0.1,0.1,0.3,0.1c0.5,0,1,0,1.5,0v-1h-0.9
			v-0.8h2.2L100.6,231.3L100.6,231.3z"/>
		<path class="st51" d="M103.1,226.5h3c0.5,0,0.9,0.1,1.1,0.3s0.3,0.6,0.3,1.1v0.6c0,0.4-0.1,0.7-0.2,0.9s-0.3,0.4-0.6,0.4l0.9,1.6
			h-1.4l-0.8-1.5h-1v1.5h-1.3V226.5z M106.2,227.9c0-0.3-0.1-0.4-0.4-0.4h-1.4v1.5h1.4c0.3,0,0.4-0.1,0.4-0.4V227.9z"/>
		<path class="st51" d="M114.4,230.1c0,0.5-0.1,0.9-0.3,1.1c-0.2,0.2-0.6,0.3-1.1,0.3h-1.8c-0.5,0-0.9-0.1-1.1-0.3s-0.3-0.6-0.3-1.1
			v-2.3c0-0.5,0.1-0.9,0.3-1.1c0.2-0.2,0.6-0.3,1.1-0.3h1.8c0.5,0,0.9,0.1,1.1,0.3s0.3,0.6,0.3,1.1V230.1z M113.1,227.9
			c0-0.3-0.1-0.4-0.4-0.4h-1.2c-0.3,0-0.4,0.1-0.4,0.4v2.3c0,0.3,0.1,0.4,0.4,0.4h1.2c0.3,0,0.4-0.1,0.4-0.4V227.9z"/>
		<path class="st51" d="M120,226.5h1.3v3.6c0,0.5-0.1,0.9-0.3,1.1c-0.2,0.2-0.6,0.3-1.1,0.3h-1.6c-0.5,0-0.9-0.1-1.1-0.3
			s-0.3-0.6-0.3-1.1v-3.6h1.3v3.6c0,0.3,0.1,0.4,0.4,0.4h1.1c0.3,0,0.4-0.1,0.4-0.4v-3.6H120z"/>
		<path class="st51" d="M128.2,231.5h-1.3l-1.7-3v3h-1.3v-4.9h1.3l1.7,3v-3h1.3V231.5z"/>
		<path class="st51" d="M133.6,226.5c0.5,0,0.9,0.1,1.2,0.4c0.3,0.3,0.4,0.7,0.4,1.2v1.7c0,0.5-0.1,0.9-0.4,1.2
			c-0.3,0.3-0.7,0.4-1.2,0.4h-2.8v-4.9L133.6,226.5L133.6,226.5z M133.9,228.1c0-0.4-0.2-0.6-0.6-0.6h-1.2v3h1.2
			c0.4,0,0.6-0.2,0.6-0.6V228.1z"/>
	</g>
</g>
</svg>
