<?xml version="1.0" encoding="utf-8"?>
<!-- Generator: Adobe Illustrator 25.2.3, SVG Export Plug-In . SVG Version: 6.00 Build 0)  -->
<svg version="1.1" id="Layer_1" xmlns="http://www.w3.org/2000/svg" xmlns:xlink="http://www.w3.org/1999/xlink" x="0px" y="0px"
	 viewBox="0 0 350.5 127.3" style="enable-background:new 0 0 350.5 127.3;" xml:space="preserve">
<style type="text/css">
	.st0{fill:url(#SVGID_1_);}
	.st1{fill:url(#SVGID_2_);}
	.st2{fill:url(#SVGID_3_);}
	.st3{fill:url(#SVGID_4_);}
	.st4{fill:url(#SVGID_5_);}
	.st5{fill:url(#SVGID_6_);}
	.st6{fill:url(#SVGID_7_);}
	.st7{fill:url(#SVGID_8_);}
	.st8{fill:url(#SVGID_9_);}
	.st9{fill:url(#SVGID_10_);}
	.st10{fill:url(#SVGID_11_);}
	.st11{fill:url(#SVGID_12_);}
	.st12{fill:url(#SVGID_13_);}
	.st13{fill:url(#SVGID_14_);}
	.st14{fill:url(#SVGID_15_);}
	.st15{fill:url(#SVGID_16_);}
	.st16{fill:url(#SVGID_17_);}
</style>
<radialGradient id="SVGID_1_" cx="247.8481" cy="842.1282" r="202.118" gradientTransform="matrix(1 0 0 1 0 -790)" gradientUnits="userSpaceOnUse">
	<stop  offset="2.753721e-02" style="stop-color:#F519E4"/>
	<stop  offset="0.1247" style="stop-color:#E814D5"/>
	<stop  offset="0.3521" style="stop-color:#CF0CB7"/>
	<stop  offset="0.5767" style="stop-color:#BD05A2"/>
	<stop  offset="0.795" style="stop-color:#B30195"/>
	<stop  offset="1" style="stop-color:#AF0091"/>
</radialGradient>
<path class="st0" d="M98,18.9v5.6V25h0.5h5.6v4.9h-5.6H98v0.5V36h-4.9v-5.6v-0.5h-0.5H87V25h5.6h0.5v-0.5v-5.6H98 M98.6,18.3h-5.9
	v6.1h-6.2v5.9h6.1v6.1h5.9v-6.1h6.1v-5.9h-6.1v-6.1H98.6z"/>
<radialGradient id="SVGID_2_" cx="223.0114" cy="807.901" r="112.7545" gradientTransform="matrix(1 0 0 1 0 -790)" gradientUnits="userSpaceOnUse">
	<stop  offset="2.753721e-02" style="stop-color:#F519E4"/>
	<stop  offset="0.1247" style="stop-color:#E814D5"/>
	<stop  offset="0.3521" style="stop-color:#CF0CB7"/>
	<stop  offset="0.5767" style="stop-color:#BD05A2"/>
	<stop  offset="0.795" style="stop-color:#B30195"/>
	<stop  offset="1" style="stop-color:#AF0091"/>
</radialGradient>
<polygon class="st1" points="240.1,30.9 232,30.9 232,22.8 224.2,22.8 224.2,30.9 216.1,30.9 216.1,38.7 224.2,38.7 224.2,46.8 
	232,46.8 232,38.7 240.1,38.7 "/>
<radialGradient id="SVGID_3_" cx="271.2052" cy="877.3781" r="202.1179" gradientTransform="matrix(1 0 0 1 0 -790)" gradientUnits="userSpaceOnUse">
	<stop  offset="2.753721e-02" style="stop-color:#F519E4"/>
	<stop  offset="0.1247" style="stop-color:#E814D5"/>
	<stop  offset="0.3521" style="stop-color:#CF0CB7"/>
	<stop  offset="0.5767" style="stop-color:#BD05A2"/>
	<stop  offset="0.795" style="stop-color:#B30195"/>
	<stop  offset="1" style="stop-color:#AF0091"/>
</radialGradient>
<circle class="st2" cx="154" cy="115.5" r="0.9"/>
<g>
	
		<radialGradient id="SVGID_4_" cx="260.0591" cy="864.4662" r="202.1175" gradientTransform="matrix(1 0 0 1 0 -790)" gradientUnits="userSpaceOnUse">
		<stop  offset="2.753721e-02" style="stop-color:#F519E4"/>
		<stop  offset="0.1247" style="stop-color:#E814D5"/>
		<stop  offset="0.3521" style="stop-color:#CF0CB7"/>
		<stop  offset="0.5767" style="stop-color:#BD05A2"/>
		<stop  offset="0.795" style="stop-color:#B30195"/>
		<stop  offset="1" style="stop-color:#AF0091"/>
	</radialGradient>
	<polygon class="st3" points="135.2,80.3 129.1,80.3 129.1,74.2 123.2,74.2 123.2,80.3 117.1,80.3 117.1,86.2 123.2,86.2 
		123.2,92.3 129.1,92.3 129.1,86.2 135.2,86.2 	"/>
</g>
<radialGradient id="SVGID_5_" cx="282.7137" cy="854.0668" r="202.1177" gradientTransform="matrix(1 0 0 1 0 -790)" gradientUnits="userSpaceOnUse">
	<stop  offset="2.753721e-02" style="stop-color:#F519E4"/>
	<stop  offset="0.1247" style="stop-color:#E814D5"/>
	<stop  offset="0.3521" style="stop-color:#CF0CB7"/>
	<stop  offset="0.5767" style="stop-color:#BD05A2"/>
	<stop  offset="0.795" style="stop-color:#B30195"/>
	<stop  offset="1" style="stop-color:#AF0091"/>
</radialGradient>
<polygon class="st4" points="191.3,54.4 185.6,54.4 185.6,48.7 180,48.7 180,54.4 174.2,54.4 174.2,60 180,60 180,65.8 185.6,65.8 
	185.6,60 191.3,60 "/>
<radialGradient id="SVGID_6_" cx="241.3919" cy="876.5195" r="202.115" gradientTransform="matrix(1 0 0 1 0 -790)" gradientUnits="userSpaceOnUse">
	<stop  offset="2.753721e-02" style="stop-color:#F519E4"/>
	<stop  offset="0.1247" style="stop-color:#E814D5"/>
	<stop  offset="0.3521" style="stop-color:#CF0CB7"/>
	<stop  offset="0.5767" style="stop-color:#BD05A2"/>
	<stop  offset="0.795" style="stop-color:#B30195"/>
	<stop  offset="1" style="stop-color:#AF0091"/>
</radialGradient>
<path class="st5" d="M80.3,113.4c0,0.5-0.4,0.9-0.9,0.9s-0.9-0.4-0.9-0.9s0.4-0.9,0.9-0.9C80,112.5,80.3,112.9,80.3,113.4z"/>
<radialGradient id="SVGID_7_" cx="341.1212" cy="875.6501" r="202.1182" gradientTransform="matrix(1 0 0 1 0 -790)" gradientUnits="userSpaceOnUse">
	<stop  offset="2.753721e-02" style="stop-color:#F519E4"/>
	<stop  offset="0.1247" style="stop-color:#E814D5"/>
	<stop  offset="0.3521" style="stop-color:#CF0CB7"/>
	<stop  offset="0.5767" style="stop-color:#BD05A2"/>
	<stop  offset="0.795" style="stop-color:#B30195"/>
	<stop  offset="1" style="stop-color:#AF0091"/>
</radialGradient>
<polygon class="st6" points="337.5,101 327,101 327,90.6 316.9,90.6 316.9,101 306.5,101 306.5,111.2 316.9,111.2 316.9,121.6 
	327,121.6 327,111.2 337.5,111.2 "/>
<radialGradient id="SVGID_8_" cx="345.7909" cy="846.4042" r="202.1198" gradientTransform="matrix(1 0 0 1 0 -790)" gradientUnits="userSpaceOnUse">
	<stop  offset="3.312380e-02" style="stop-color:#F518FF"/>
	<stop  offset="0.1561" style="stop-color:#E813EB"/>
	<stop  offset="0.3753" style="stop-color:#D60ACD"/>
	<stop  offset="0.5918" style="stop-color:#C905B8"/>
	<stop  offset="0.8023" style="stop-color:#C101AB"/>
	<stop  offset="1" style="stop-color:#BE00A7"/>
</radialGradient>
<path class="st7" d="M342,38.1c0,0.9-0.7,1.6-1.6,1.6s-1.6-0.7-1.6-1.6c0-0.9,0.7-1.6,1.6-1.6C341.3,36.5,342,37.2,342,38.1z"/>
<radialGradient id="SVGID_9_" cx="322.5963" cy="869.7712" r="202.1178" gradientTransform="matrix(1 0 0 1 0 -790)" gradientUnits="userSpaceOnUse">
	<stop  offset="2.753721e-02" style="stop-color:#F519E4"/>
	<stop  offset="0.1247" style="stop-color:#E814D5"/>
	<stop  offset="0.3521" style="stop-color:#CF0CB7"/>
	<stop  offset="0.5767" style="stop-color:#BD05A2"/>
	<stop  offset="0.795" style="stop-color:#B30195"/>
	<stop  offset="1" style="stop-color:#AF0091"/>
</radialGradient>
<path class="st8" d="M288.3,76v13.4v1.3h1.3H303v11.7h-13.4h-1.3v1.3v13.4h-11.7v-13.4v-1.3h-1.3h-13.4V90.7h13.4h1.3v-1.3V76
	L288.3,76 M289.6,74.8h-14.2v14.7h-14.7v14.2h14.7v14.7h14.2v-14.7h14.7V89.5h-14.7V74.8L289.6,74.8z"/>
<radialGradient id="SVGID_10_" cx="309.6965" cy="848.6275" r="202.1245" gradientTransform="matrix(1 0 0 1 0 -790)" gradientUnits="userSpaceOnUse">
	<stop  offset="2.753721e-02" style="stop-color:#F519E4"/>
	<stop  offset="0.1247" style="stop-color:#E814D5"/>
	<stop  offset="0.3521" style="stop-color:#CF0CB7"/>
	<stop  offset="0.5767" style="stop-color:#BD05A2"/>
	<stop  offset="0.795" style="stop-color:#B30195"/>
	<stop  offset="1" style="stop-color:#AF0091"/>
</radialGradient>
<path class="st9" d="M251.3,43.6c0,0.6-0.5,1.1-1.1,1.1s-1.1-0.5-1.1-1.1s0.5-1.1,1.1-1.1C250.8,42.5,251.3,43,251.3,43.6z"/>
<radialGradient id="SVGID_11_" cx="329.3849" cy="841.236" r="202.1182" gradientTransform="matrix(1 0 0 1 0 -790)" gradientUnits="userSpaceOnUse">
	<stop  offset="2.753721e-02" style="stop-color:#F519E4"/>
	<stop  offset="0.1247" style="stop-color:#E814D5"/>
	<stop  offset="0.3521" style="stop-color:#CF0CB7"/>
	<stop  offset="0.5767" style="stop-color:#BD05A2"/>
	<stop  offset="0.795" style="stop-color:#B30195"/>
	<stop  offset="1" style="stop-color:#AF0091"/>
</radialGradient>
<path class="st10" d="M305.1,5.4v12.9v1.2h1.2h12.9v11.2h-12.9h-1.2v1.2v13h-11.2V32v-1.2h-1.2h-12.9V19.6h12.9h1.2v-1.2V5.5h11.2
	 M306.3,4.2h-13.6v14.1h-14.2v13.6h14.1V46h13.6V31.9h14.1V18.3h-14.1L306.3,4.2L306.3,4.2z"/>
<radialGradient id="SVGID_12_" cx="311.3575" cy="833.5945" r="202.1174" gradientTransform="matrix(1 0 0 1 0 -790)" gradientUnits="userSpaceOnUse">
	<stop  offset="2.753721e-02" style="stop-color:#F519E4"/>
	<stop  offset="0.1247" style="stop-color:#E814D5"/>
	<stop  offset="0.3521" style="stop-color:#CF0CB7"/>
	<stop  offset="0.5767" style="stop-color:#BD05A2"/>
	<stop  offset="0.795" style="stop-color:#B30195"/>
	<stop  offset="1" style="stop-color:#AF0091"/>
</radialGradient>
<polygon class="st11" points="260.5,4.1 256.4,4.1 256.4,0 252.4,0 252.4,4.1 248.3,4.1 248.3,8.1 252.4,8.1 252.4,12.2 256.4,12.2 
	256.4,8.1 260.5,8.1 "/>
<g>
	
		<radialGradient id="SVGID_13_" cx="291.1805" cy="878.3716" r="153.2824" gradientTransform="matrix(1 0 0 1 0 -790)" gradientUnits="userSpaceOnUse">
		<stop  offset="2.753721e-02" style="stop-color:#F519E4"/>
		<stop  offset="0.1247" style="stop-color:#E814D5"/>
		<stop  offset="0.3521" style="stop-color:#CF0CB7"/>
		<stop  offset="0.5767" style="stop-color:#BD05A2"/>
		<stop  offset="0.795" style="stop-color:#B30195"/>
		<stop  offset="1" style="stop-color:#AF0091"/>
	</radialGradient>
	<polygon class="st12" points="249.6,104.7 238.1,104.7 238.1,93.2 227,93.2 227,104.7 215.5,104.7 215.5,115.8 227,115.8 
		227,127.3 238.1,127.3 238.1,115.8 249.6,115.8 	"/>
</g>
<radialGradient id="SVGID_14_" cx="267.2542" cy="841.7052" r="202.1175" gradientTransform="matrix(1 0 0 1 0 -790)" gradientUnits="userSpaceOnUse">
	<stop  offset="2.753721e-02" style="stop-color:#F519E4"/>
	<stop  offset="0.1247" style="stop-color:#E814D5"/>
	<stop  offset="0.3521" style="stop-color:#CF0CB7"/>
	<stop  offset="0.5767" style="stop-color:#BD05A2"/>
	<stop  offset="0.795" style="stop-color:#B30195"/>
	<stop  offset="1" style="stop-color:#AF0091"/>
</radialGradient>
<path class="st13" d="M150.2,5.1V19v1.3h1.3h13.9v12.1h-13.9h-1.3v1.3v13.9h-12.1V33.7v-1.3h-1.3h-13.9V20.3h13.9h1.3V19V5.1H150.2
	 M151.5,3.8h-14.7V19h-15.2v14.7h15.2v15.2h14.7V33.7h15.2V19h-15.2V3.8L151.5,3.8z"/>
<radialGradient id="SVGID_15_" cx="50.8769" cy="907.9585" r="202.1174" gradientTransform="matrix(1 0 0 1 0 -790)" gradientUnits="userSpaceOnUse">
	<stop  offset="2.753721e-02" style="stop-color:#F519E4"/>
	<stop  offset="0.1247" style="stop-color:#E814D5"/>
	<stop  offset="0.3521" style="stop-color:#CF0CB7"/>
	<stop  offset="0.5767" style="stop-color:#BD05A2"/>
	<stop  offset="0.795" style="stop-color:#B30195"/>
	<stop  offset="1" style="stop-color:#AF0091"/>
</radialGradient>
<path class="st14" d="M94.8,70.6v9.3v0.9h0.9h9.3v8.1h-9.3h-0.9v0.9v9.3h-8.1v-9.3v-0.9h-0.9h-9.3v-8.1h9.3h0.9v-0.9v-9.3H94.8
	 M95.7,69.7h-9.9v10.2H75.6v9.9h10.2v10.1h9.9V89.7h10.2v-9.8H95.7V69.7L95.7,69.7z"/>
<radialGradient id="SVGID_16_" cx="242.3587" cy="865.9674" r="202.1178" gradientTransform="matrix(1 0 0 1 0 -790)" gradientUnits="userSpaceOnUse">
	<stop  offset="3.312380e-02" style="stop-color:#FF2DF6"/>
	<stop  offset="0.1561" style="stop-color:#EC23E2"/>
	<stop  offset="0.3753" style="stop-color:#CF14C4"/>
	<stop  offset="0.5918" style="stop-color:#BB09AF"/>
	<stop  offset="0.8023" style="stop-color:#AE02A2"/>
	<stop  offset="1" style="stop-color:#AA009E"/>
</radialGradient>
<polygon class="st15" points="173.4,86 168.7,86 168.7,81.3 164.2,81.3 164.2,86 159.5,86 159.5,90.5 164.2,90.5 164.2,95.2 
	168.7,95.2 168.7,90.5 173.4,90.5 "/>
<linearGradient id="SVGID_17_" gradientUnits="userSpaceOnUse" x1="0" y1="857.4" x2="350.4851" y2="857.4" gradientTransform="matrix(1 0 0 1 0 -790)">
	<stop  offset="0" style="stop-color:#B900B6"/>
	<stop  offset="0.75" style="stop-color:#FF64F4"/>
	<stop  offset="1" style="stop-color:#E6E6E6"/>
</linearGradient>
<path class="st16" d="M350.5,67.9h-35.9c-0.2,0-0.4,0.1-0.4,0.3l-3.3,12.2l-2.4-30c0-0.2-0.2-0.4-0.4-0.4c-0.2,0-0.4,0.1-0.4,0.3
	l-3.4,17.6h-5.5c-0.2,0-0.4,0.2-0.4,0.4L295.7,89L293,50.4c0-0.2-0.2-0.4-0.4-0.4c-0.2,0-0.4,0.1-0.4,0.3l-3.5,17.6h-3.8
	c-0.2,0-0.4,0.1-0.4,0.3l-1.1,5.2l-2.8-53.3c0-0.2-0.2-0.4-0.4-0.4l0,0c-0.2,0-0.4,0.2-0.4,0.4L276,107l-3.1-45
	c0-0.2-0.2-0.4-0.3-0.4c-0.2,0-0.4,0.1-0.5,0.2l-2.7,6h-38.1c-0.2,0-0.4,0.1-0.4,0.3l-3.3,12.2l-2.4-30c0-0.2-0.2-0.4-0.4-0.4
	c-0.2,0-0.4,0.1-0.4,0.3L221,67.8h-5.5c-0.2,0-0.4,0.2-0.4,0.4l-2.6,20.6l-2.7-38.6c0-0.2-0.2-0.4-0.4-0.4c-0.2,0-0.4,0.1-0.4,0.3
	l-3.5,17.6h-3.8c-0.2,0-0.4,0.1-0.4,0.3l-1.1,5.2L197.3,20c0-0.2-0.2-0.4-0.4-0.4l0,0c-0.2,0-0.4,0.2-0.4,0.4l-3.7,86.9l-3.1-45
	c0-0.2-0.2-0.4-0.3-0.4c-0.2,0-0.4,0.1-0.5,0.2l-2.7,6h-37.9c-0.2,0-0.4,0.1-0.4,0.3l-3.3,12.2l-2.4-30c0-0.2-0.2-0.4-0.4-0.4
	c-0.2,0-0.4,0.1-0.4,0.3l-3.4,17.6h-5.5c-0.2,0-0.4,0.2-0.4,0.4l-2.6,20.6l-2.7-38.6c0-0.2-0.2-0.4-0.4-0.4c-0.2,0-0.4,0.1-0.4,0.3
	l-3.5,17.6h-3.8c-0.2,0-0.4,0.1-0.4,0.3l-1.1,5.2l-2.8-53.3c0-0.2-0.2-0.4-0.4-0.4l0,0c-0.2,0-0.4,0.2-0.4,0.4l-3.7,86.9l-3.1-45
	c0-0.2-0.2-0.4-0.3-0.4c-0.2,0-0.4,0.1-0.5,0.2l-2.7,6H65.2c-0.2,0-0.4,0.1-0.4,0.3l-3.3,12.2l-2.4-30c0-0.2-0.2-0.4-0.4-0.4
	c-0.2,0-0.4,0.1-0.4,0.3l-3.4,17.6h-5.9c-0.2,0-0.4,0.2-0.4,0.4l-2.6,21l-2.7-38.6c0-0.2-0.2-0.4-0.4-0.4s-0.4,0.1-0.4,0.3
	l-3.5,17.6h-3.8c-0.2,0-0.4,0.1-0.4,0.3l-1.1,5.2l-2.8-53.3c0-0.2-0.2-0.4-0.4-0.4l0,0c-0.2,0-0.4,0.2-0.4,0.4L26.2,107l-3.1-45
	c0-0.2-0.2-0.4-0.3-0.4c-0.2,0-0.4,0.1-0.5,0.2l-2.7,6H0.4C0.2,67.8,0,68,0,68.2c0,0.2,0.2,0.4,0.4,0.4h19.5c0.2,0,0.3-0.1,0.4-0.2
	l2.1-4.7l3.5,50.9c0,0.2,0.2,0.4,0.4,0.4l0,0c0.2,0,0.4-0.2,0.4-0.4l3.7-85.5l2.5,47.4c0,0.2,0.2,0.4,0.4,0.4c0.2,0,0.4-0.1,0.5-0.3
	l1.7-7.9h3.8c0.2,0,0.4-0.1,0.4-0.3l3-14.9l2.8,39.7c0,0.2,0.2,0.4,0.4,0.4s0.4-0.2,0.4-0.4l3.1-24.5h5.4c0.2,0,0.4-0.1,0.4-0.3
	l2.8-14.9l2.3,29.4c0,0.2,0.2,0.4,0.4,0.4c0.2,0,0.4-0.1,0.5-0.3l3.8-14.2H103c0.2,0,0.3-0.1,0.4-0.2l2.1-4.7l3.5,50.9
	c0,0.2,0.2,0.4,0.4,0.4l0,0c0.2,0,0.4-0.2,0.4-0.4l3.7-85.5l2.5,47.4c0,0.2,0.2,0.4,0.4,0.4c0.2,0,0.4-0.1,0.5-0.3l1.7-7.9h3.8
	c0.2,0,0.4-0.1,0.4-0.3l3-14.9l2.8,39.7c0,0.2,0.2,0.4,0.4,0.4c0.2,0,0.4-0.2,0.4-0.4l3.1-24.5h5.4c0.2,0,0.4-0.1,0.4-0.3l2.8-14.9
	l2.3,29.4c0,0.2,0.2,0.4,0.4,0.4c0.2,0,0.4-0.1,0.5-0.3l3.8-14.2H186c0.2,0,0.3-0.1,0.4-0.2l2.1-4.7l3.5,50.9c0,0.2,0.2,0.4,0.4,0.4
	l0,0c0.2,0,0.4-0.2,0.4-0.4l3.7-85.5l2.5,47.4c0,0.2,0.2,0.4,0.4,0.4c0.2,0,0.4-0.1,0.5-0.3l1.7-7.9h3.8c0.2,0,0.4-0.1,0.4-0.3
	l3-14.9l2.8,39.7c0,0.2,0.2,0.4,0.4,0.4c0.2,0,0.4-0.2,0.4-0.4l3.1-24.5h5.4c0.2,0,0.4-0.1,0.4-0.3l2.8-14.9l2.3,29.4
	c0,0.2,0.2,0.4,0.4,0.4c0.2,0,0.4-0.1,0.5-0.3l3.8-14.2h38.1c0.2,0,0.3-0.1,0.4-0.2l2.1-4.7l3.5,50.9c0,0.2,0.2,0.4,0.4,0.4
	c0.2,0,0.4-0.2,0.4-0.4l3.7-85.5l2.5,47.4c0,0.2,0.2,0.4,0.4,0.4c0.2,0,0.4-0.1,0.5-0.3l1.7-7.9h3.8c0.2,0,0.4-0.1,0.4-0.3l3-14.9
	l2.8,39.7c0,0.2,0.2,0.4,0.4,0.4c0.2,0,0.4-0.2,0.4-0.4l3.1-24.5h5.4c0.2,0,0.4-0.1,0.4-0.3l2.8-14.9l2.3,29.4
	c0,0.2,0.2,0.4,0.4,0.4c0.2,0,0.4-0.1,0.5-0.3l3.8-14.2h35.6v-1.2H350.5z"/>
</svg>
