<?xml version="1.0" encoding="utf-8"?>
<!-- Generator: Adobe Illustrator 25.2.3, SVG Export Plug-In . SVG Version: 6.00 Build 0)  -->
<svg version="1.1" id="Layer_1" xmlns="http://www.w3.org/2000/svg" xmlns:xlink="http://www.w3.org/1999/xlink" x="0px" y="0px"
	 viewBox="0 0 350.5 127.3" style="enable-background:new 0 0 350.5 127.3;" xml:space="preserve">
<style type="text/css">
	.st0{fill:url(#SVGID_1_);}
	.st1{fill:url(#SVGID_2_);}
	.st2{fill:url(#SVGID_3_);}
	.st3{fill:url(#SVGID_4_);}
	.st4{fill:url(#SVGID_5_);}
	.st5{fill:url(#SVGID_6_);}
	.st6{fill:url(#SVGID_7_);}
	.st7{fill:url(#SVGID_8_);}
	.st8{fill:url(#SVGID_9_);}
	.st9{fill:url(#SVGID_10_);}
	.st10{fill:url(#SVGID_11_);}
	.st11{fill:url(#SVGID_12_);}
	.st12{fill:url(#SVGID_13_);}
	.st13{fill:url(#SVGID_14_);}
	.st14{fill:url(#SVGID_15_);}
	.st15{fill:url(#SVGID_16_);}
	.st16{fill:url(#SVGID_17_);}
</style>
<radialGradient id="SVGID_1_" cx="247.8481" cy="842.1282" r="202.118" gradientTransform="matrix(-1 0 0 1 350.4851 -790)" gradientUnits="userSpaceOnUse">
	<stop  offset="2.753721e-02" style="stop-color:#F519E4"/>
	<stop  offset="0.1247" style="stop-color:#E814D5"/>
	<stop  offset="0.3521" style="stop-color:#CF0CB7"/>
	<stop  offset="0.5767" style="stop-color:#BD05A2"/>
	<stop  offset="0.795" style="stop-color:#B30195"/>
	<stop  offset="1" style="stop-color:#AF0091"/>
</radialGradient>
<path class="st0" d="M252.5,18.9h4.9v5.6V25h0.5h5.6v4.9h-5.6h-0.5v0.5V36h-4.9v-5.6v-0.5H252h-5.6V25h5.6h0.5v-0.5V18.9 M252,18.3
	v6.1h-6.1v5.9h6.1v6.1h5.9v-6.1h6.1v-5.9h-6.2v-6.1h-5.9H252z"/>
<radialGradient id="SVGID_2_" cx="223.0114" cy="807.901" r="112.7545" gradientTransform="matrix(-1 0 0 1 350.4851 -790)" gradientUnits="userSpaceOnUse">
	<stop  offset="2.753721e-02" style="stop-color:#F519E4"/>
	<stop  offset="0.1247" style="stop-color:#E814D5"/>
	<stop  offset="0.3521" style="stop-color:#CF0CB7"/>
	<stop  offset="0.5767" style="stop-color:#BD05A2"/>
	<stop  offset="0.795" style="stop-color:#B30195"/>
	<stop  offset="1" style="stop-color:#AF0091"/>
</radialGradient>
<polygon class="st1" points="110.4,38.7 118.5,38.7 118.5,46.8 126.3,46.8 126.3,38.7 134.4,38.7 134.4,30.9 126.3,30.9 126.3,22.8 
	118.5,22.8 118.5,30.9 110.4,30.9 "/>
<radialGradient id="SVGID_3_" cx="271.2052" cy="877.3781" r="202.1179" gradientTransform="matrix(-1 0 0 1 350.4851 -790)" gradientUnits="userSpaceOnUse">
	<stop  offset="2.753721e-02" style="stop-color:#F519E4"/>
	<stop  offset="0.1247" style="stop-color:#E814D5"/>
	<stop  offset="0.3521" style="stop-color:#CF0CB7"/>
	<stop  offset="0.5767" style="stop-color:#BD05A2"/>
	<stop  offset="0.795" style="stop-color:#B30195"/>
	<stop  offset="1" style="stop-color:#AF0091"/>
</radialGradient>
<circle class="st2" cx="196.5" cy="115.5" r="0.9"/>
<g>
	
		<radialGradient id="SVGID_4_" cx="260.0591" cy="864.4662" r="202.1175" gradientTransform="matrix(-1 0 0 1 350.4851 -790)" gradientUnits="userSpaceOnUse">
		<stop  offset="2.753721e-02" style="stop-color:#F519E4"/>
		<stop  offset="0.1247" style="stop-color:#E814D5"/>
		<stop  offset="0.3521" style="stop-color:#CF0CB7"/>
		<stop  offset="0.5767" style="stop-color:#BD05A2"/>
		<stop  offset="0.795" style="stop-color:#B30195"/>
		<stop  offset="1" style="stop-color:#AF0091"/>
	</radialGradient>
	<polygon class="st3" points="215.3,86.2 221.4,86.2 221.4,92.3 227.3,92.3 227.3,86.2 233.4,86.2 233.4,80.3 227.3,80.3 
		227.3,74.2 221.4,74.2 221.4,80.3 215.3,80.3 	"/>
</g>
<radialGradient id="SVGID_5_" cx="282.7137" cy="854.0668" r="202.1177" gradientTransform="matrix(-1 0 0 1 350.4851 -790)" gradientUnits="userSpaceOnUse">
	<stop  offset="2.753721e-02" style="stop-color:#F519E4"/>
	<stop  offset="0.1247" style="stop-color:#E814D5"/>
	<stop  offset="0.3521" style="stop-color:#CF0CB7"/>
	<stop  offset="0.5767" style="stop-color:#BD05A2"/>
	<stop  offset="0.795" style="stop-color:#B30195"/>
	<stop  offset="1" style="stop-color:#AF0091"/>
</radialGradient>
<polygon class="st4" points="159.2,60 164.9,60 164.9,65.8 170.5,65.8 170.5,60 176.3,60 176.3,54.4 170.5,54.4 170.5,48.7 
	164.9,48.7 164.9,54.4 159.2,54.4 "/>
<radialGradient id="SVGID_6_" cx="241.3919" cy="876.5195" r="202.115" gradientTransform="matrix(-1 0 0 1 350.4851 -790)" gradientUnits="userSpaceOnUse">
	<stop  offset="2.753721e-02" style="stop-color:#F519E4"/>
	<stop  offset="0.1247" style="stop-color:#E814D5"/>
	<stop  offset="0.3521" style="stop-color:#CF0CB7"/>
	<stop  offset="0.5767" style="stop-color:#BD05A2"/>
	<stop  offset="0.795" style="stop-color:#B30195"/>
	<stop  offset="1" style="stop-color:#AF0091"/>
</radialGradient>
<path class="st5" d="M271.1,112.5c0.5,0,0.9,0.4,0.9,0.9s-0.4,0.9-0.9,0.9s-0.9-0.4-0.9-0.9S270.5,112.5,271.1,112.5z"/>
<radialGradient id="SVGID_7_" cx="341.1212" cy="875.6501" r="202.1182" gradientTransform="matrix(-1 0 0 1 350.4851 -790)" gradientUnits="userSpaceOnUse">
	<stop  offset="2.753721e-02" style="stop-color:#F519E4"/>
	<stop  offset="0.1247" style="stop-color:#E814D5"/>
	<stop  offset="0.3521" style="stop-color:#CF0CB7"/>
	<stop  offset="0.5767" style="stop-color:#BD05A2"/>
	<stop  offset="0.795" style="stop-color:#B30195"/>
	<stop  offset="1" style="stop-color:#AF0091"/>
</radialGradient>
<polygon class="st6" points="13,111.2 23.5,111.2 23.5,121.6 33.6,121.6 33.6,111.2 44,111.2 44,101 33.6,101 33.6,90.6 23.5,90.6 
	23.5,101 13,101 "/>
<radialGradient id="SVGID_8_" cx="345.7909" cy="846.4042" r="202.1198" gradientTransform="matrix(1 0 0 1 0 -790)" gradientUnits="userSpaceOnUse">
	<stop  offset="3.312380e-02" style="stop-color:#F518FF"/>
	<stop  offset="0.1561" style="stop-color:#E813EB"/>
	<stop  offset="0.3753" style="stop-color:#D60ACD"/>
	<stop  offset="0.5918" style="stop-color:#C905B8"/>
	<stop  offset="0.8023" style="stop-color:#C101AB"/>
	<stop  offset="1" style="stop-color:#BE00A7"/>
</radialGradient>
<path class="st7" d="M342,38.1c0,0.9-0.7,1.6-1.6,1.6s-1.6-0.7-1.6-1.6c0-0.9,0.7-1.6,1.6-1.6C341.3,36.5,342,37.2,342,38.1z"/>
<radialGradient id="SVGID_9_" cx="322.5963" cy="869.7712" r="202.1178" gradientTransform="matrix(-1 0 0 1 350.4851 -790)" gradientUnits="userSpaceOnUse">
	<stop  offset="2.753721e-02" style="stop-color:#F519E4"/>
	<stop  offset="0.1247" style="stop-color:#E814D5"/>
	<stop  offset="0.3521" style="stop-color:#CF0CB7"/>
	<stop  offset="0.5767" style="stop-color:#BD05A2"/>
	<stop  offset="0.795" style="stop-color:#B30195"/>
	<stop  offset="1" style="stop-color:#AF0091"/>
</radialGradient>
<path class="st8" d="M62.2,76l11.7,0v13.4v1.3h1.3h13.4v11.7H75.2h-1.3v1.3v13.4H62.2v-13.4v-1.3h-1.3H47.5V90.7h13.4h1.3v-1.3V76
	 M60.9,74.8v14.7H46.2v14.2h14.7v14.7h14.2v-14.7h14.7V89.5H75.1V74.8H60.9L60.9,74.8z"/>
<radialGradient id="SVGID_10_" cx="309.6965" cy="848.6275" r="202.1245" gradientTransform="matrix(-1 0 0 1 350.4851 -790)" gradientUnits="userSpaceOnUse">
	<stop  offset="2.753721e-02" style="stop-color:#F519E4"/>
	<stop  offset="0.1247" style="stop-color:#E814D5"/>
	<stop  offset="0.3521" style="stop-color:#CF0CB7"/>
	<stop  offset="0.5767" style="stop-color:#BD05A2"/>
	<stop  offset="0.795" style="stop-color:#B30195"/>
	<stop  offset="1" style="stop-color:#AF0091"/>
</radialGradient>
<path class="st9" d="M100.3,42.5c0.6,0,1.1,0.5,1.1,1.1s-0.5,1.1-1.1,1.1s-1.1-0.5-1.1-1.1C99.2,43,99.7,42.5,100.3,42.5z"/>
<radialGradient id="SVGID_11_" cx="329.3849" cy="841.236" r="202.1182" gradientTransform="matrix(-1 0 0 1 350.4851 -790)" gradientUnits="userSpaceOnUse">
	<stop  offset="2.753721e-02" style="stop-color:#F519E4"/>
	<stop  offset="0.1247" style="stop-color:#E814D5"/>
	<stop  offset="0.3521" style="stop-color:#CF0CB7"/>
	<stop  offset="0.5767" style="stop-color:#BD05A2"/>
	<stop  offset="0.795" style="stop-color:#B30195"/>
	<stop  offset="1" style="stop-color:#AF0091"/>
</radialGradient>
<path class="st10" d="M45.4,5.5h11.2v12.9v1.2h1.2h12.9v11.2H57.8h-1.2V32v12.9H45.4v-13v-1.2h-1.2H31.3V19.5h12.9h1.2v-1.2V5.4
	 M44.2,4.2l0.1,14.1H30.2v13.6h14.1V46h13.6V31.9H72V18.3H57.8V4.2H44.2L44.2,4.2z"/>
<radialGradient id="SVGID_12_" cx="311.3575" cy="833.5945" r="202.1174" gradientTransform="matrix(-1 0 0 1 350.4851 -790)" gradientUnits="userSpaceOnUse">
	<stop  offset="2.753721e-02" style="stop-color:#F519E4"/>
	<stop  offset="0.1247" style="stop-color:#E814D5"/>
	<stop  offset="0.3521" style="stop-color:#CF0CB7"/>
	<stop  offset="0.5767" style="stop-color:#BD05A2"/>
	<stop  offset="0.795" style="stop-color:#B30195"/>
	<stop  offset="1" style="stop-color:#AF0091"/>
</radialGradient>
<polygon class="st11" points="90,8.1 94.1,8.1 94.1,12.2 98.1,12.2 98.1,8.1 102.2,8.1 102.2,4.1 98.1,4.1 98.1,0 94.1,0 94.1,4.1 
	90,4.1 "/>
<g>
	
		<radialGradient id="SVGID_13_" cx="291.1805" cy="878.3716" r="153.2824" gradientTransform="matrix(-1 0 0 1 350.4851 -790)" gradientUnits="userSpaceOnUse">
		<stop  offset="2.753721e-02" style="stop-color:#F519E4"/>
		<stop  offset="0.1247" style="stop-color:#E814D5"/>
		<stop  offset="0.3521" style="stop-color:#CF0CB7"/>
		<stop  offset="0.5767" style="stop-color:#BD05A2"/>
		<stop  offset="0.795" style="stop-color:#B30195"/>
		<stop  offset="1" style="stop-color:#AF0091"/>
	</radialGradient>
	<polygon class="st12" points="100.9,115.8 112.4,115.8 112.4,127.3 123.5,127.3 123.5,115.8 135,115.8 135,104.7 123.5,104.7 
		123.5,93.2 112.4,93.2 112.4,104.7 100.9,104.7 	"/>
</g>
<radialGradient id="SVGID_14_" cx="267.2542" cy="841.7052" r="202.1175" gradientTransform="matrix(-1 0 0 1 350.4851 -790)" gradientUnits="userSpaceOnUse">
	<stop  offset="2.753721e-02" style="stop-color:#F519E4"/>
	<stop  offset="0.1247" style="stop-color:#E814D5"/>
	<stop  offset="0.3521" style="stop-color:#CF0CB7"/>
	<stop  offset="0.5767" style="stop-color:#BD05A2"/>
	<stop  offset="0.795" style="stop-color:#B30195"/>
	<stop  offset="1" style="stop-color:#AF0091"/>
</radialGradient>
<path class="st13" d="M200.3,5.1h12.1V19v1.3h1.3h13.9v12.1h-13.9h-1.3v1.3v13.9h-12.1V33.7v-1.3H199h-13.9V20.3H199h1.3V19V5.1
	 M199,3.8V19h-15.2v14.7H199v15.2h14.7V33.7h15.2V19h-15.2V3.8H199L199,3.8z"/>
<radialGradient id="SVGID_15_" cx="50.8769" cy="907.9585" r="202.1174" gradientTransform="matrix(-1 0 0 1 350.4851 -790)" gradientUnits="userSpaceOnUse">
	<stop  offset="2.753721e-02" style="stop-color:#F519E4"/>
	<stop  offset="0.1247" style="stop-color:#E814D5"/>
	<stop  offset="0.3521" style="stop-color:#CF0CB7"/>
	<stop  offset="0.5767" style="stop-color:#BD05A2"/>
	<stop  offset="0.795" style="stop-color:#B30195"/>
	<stop  offset="1" style="stop-color:#AF0091"/>
</radialGradient>
<path class="st14" d="M255.7,70.6h8.1v9.3v0.9h0.9h9.3v8.1h-9.3h-0.9v0.9v9.3h-8.1v-9.3v-0.9h-0.9h-9.3v-8.1h9.3h0.9v-0.9V70.6
	 M254.8,69.7v10.2h-10.2v9.8h10.2v10.2h9.9V89.8h10.2v-9.9h-10.2V69.7H254.8L254.8,69.7z"/>
<radialGradient id="SVGID_16_" cx="242.3587" cy="865.9674" r="202.1178" gradientTransform="matrix(-1 0 0 1 350.4851 -790)" gradientUnits="userSpaceOnUse">
	<stop  offset="3.312380e-02" style="stop-color:#FF2DF6"/>
	<stop  offset="0.1561" style="stop-color:#EC23E2"/>
	<stop  offset="0.3753" style="stop-color:#CF14C4"/>
	<stop  offset="0.5918" style="stop-color:#BB09AF"/>
	<stop  offset="0.8023" style="stop-color:#AE02A2"/>
	<stop  offset="1" style="stop-color:#AA009E"/>
</radialGradient>
<polygon class="st15" points="177.1,90.5 181.8,90.5 181.8,95.2 186.3,95.2 186.3,90.5 191,90.5 191,86 186.3,86 186.3,81.3 
	181.8,81.3 181.8,86 177.1,86 "/>
<linearGradient id="SVGID_17_" gradientUnits="userSpaceOnUse" x1="0" y1="857.4" x2="350.4851" y2="857.4" gradientTransform="matrix(-1 0 0 1 350.4851 -790)">
	<stop  offset="0" style="stop-color:#B900B6"/>
	<stop  offset="0.75" style="stop-color:#FF64F4"/>
	<stop  offset="1" style="stop-color:#E6E6E6"/>
</linearGradient>
<path class="st16" d="M0.2,67.9v1.2h35.6l3.8,14.2c0.1,0.2,0.3,0.3,0.5,0.3c0.2,0,0.4-0.2,0.4-0.4l2.3-29.4l2.8,14.9
	c0,0.2,0.2,0.3,0.4,0.3h5.4l3.1,24.5c0,0.2,0.2,0.4,0.4,0.4c0.2,0,0.4-0.2,0.4-0.4l2.8-39.7l3,14.9c0,0.2,0.2,0.3,0.4,0.3h3.8
	l1.7,7.9c0.1,0.2,0.3,0.3,0.5,0.3c0.2,0,0.4-0.2,0.4-0.4l2.5-47.4l3.7,85.5c0,0.2,0.2,0.4,0.4,0.4c0.2,0,0.4-0.2,0.4-0.4L78.6,64
	l2.1,4.7c0.1,0.1,0.2,0.2,0.4,0.2h38.1l3.8,14.2c0.1,0.2,0.3,0.3,0.5,0.3c0.2,0,0.4-0.2,0.4-0.4l2.3-29.4l2.8,14.9
	c0,0.2,0.2,0.3,0.4,0.3h5.4l3.1,24.5c0,0.2,0.2,0.4,0.4,0.4c0.2,0,0.4-0.2,0.4-0.4l2.8-39.7l3,14.9c0,0.2,0.2,0.3,0.4,0.3h3.8
	l1.7,7.9c0.1,0.2,0.3,0.3,0.5,0.3c0.2,0,0.4-0.2,0.4-0.4l2.5-47.4l3.7,85.5c0,0.2,0.2,0.4,0.4,0.4l0,0c0.2,0,0.4-0.2,0.4-0.4
	l3.5-50.9l2.1,4.7c0.1,0.1,0.2,0.2,0.4,0.2h37.8l3.8,14.2c0.1,0.2,0.3,0.3,0.5,0.3c0.2,0,0.4-0.2,0.4-0.4l2.3-29.4l2.8,14.9
	c0,0.2,0.2,0.3,0.4,0.3h5.4l3.1,24.5c0,0.2,0.2,0.4,0.4,0.4c0.2,0,0.4-0.2,0.4-0.4l2.8-39.7l3,14.9c0,0.2,0.2,0.3,0.4,0.3h3.8
	l1.7,7.9c0.1,0.2,0.3,0.3,0.5,0.3c0.2,0,0.4-0.2,0.4-0.4l2.5-47.4l3.7,85.5c0,0.2,0.2,0.4,0.4,0.4l0,0c0.2,0,0.4-0.2,0.4-0.4
	l3.5-50.9l2.1,4.7c0.1,0.1,0.2,0.2,0.4,0.2h37.8l3.8,14.2c0.1,0.2,0.3,0.3,0.5,0.3c0.2,0,0.4-0.2,0.4-0.4l2.3-29.4l2.8,14.9
	c0,0.2,0.2,0.3,0.4,0.3h5.4l3.1,24.5c0,0.2,0.2,0.4,0.4,0.4s0.4-0.2,0.4-0.4l2.8-39.7l3,14.9c0,0.2,0.2,0.3,0.4,0.3h3.8l1.7,7.9
	c0.1,0.2,0.3,0.3,0.5,0.3c0.2,0,0.4-0.2,0.4-0.4l2.5-47.4l3.7,85.5c0,0.2,0.2,0.4,0.4,0.4l0,0c0.2,0,0.4-0.2,0.4-0.4l3.5-50.9
	l2.1,4.7c0.1,0.1,0.2,0.2,0.4,0.2h19.5c0.2,0,0.4-0.2,0.4-0.4c0-0.2-0.2-0.4-0.4-0.4h-19.2l-2.7-6c-0.1-0.1-0.3-0.2-0.5-0.2
	c-0.1,0-0.3,0.2-0.3,0.4l-3.1,45l-3.7-86.9c0-0.2-0.2-0.4-0.4-0.4l0,0c-0.2,0-0.4,0.2-0.4,0.4l-2.8,53.3l-1.1-5.2
	c0-0.2-0.2-0.3-0.4-0.3h-3.8l-3.5-17.6c0-0.2-0.2-0.3-0.4-0.3c-0.2,0-0.4,0.2-0.4,0.4L304.6,89L302,68c0-0.2-0.2-0.4-0.4-0.4h-5.9
	L292.2,50c0-0.2-0.2-0.3-0.4-0.3c-0.2,0-0.4,0.2-0.4,0.4l-2.4,30l-3.3-12.2c0-0.2-0.2-0.3-0.4-0.3h-37.9l-2.7-6
	c-0.1-0.1-0.3-0.2-0.5-0.2c-0.1,0-0.3,0.2-0.3,0.4l-3.1,45l-3.7-86.9c0-0.2-0.2-0.4-0.4-0.4l0,0c-0.2,0-0.4,0.2-0.4,0.4l-2.8,53.3
	l-1.1-5.2c0-0.2-0.2-0.3-0.4-0.3h-3.8l-3.5-17.6c0-0.2-0.2-0.3-0.4-0.3c-0.2,0-0.4,0.2-0.4,0.4l-2.7,38.6l-2.6-20.6
	c0-0.2-0.2-0.4-0.4-0.4h-5.5l-3.4-17.6c0-0.2-0.2-0.3-0.4-0.3c-0.2,0-0.4,0.2-0.4,0.4l-2.4,30L202.6,68c0-0.2-0.2-0.3-0.4-0.3h-37.9
	l-2.7-6c-0.1-0.1-0.3-0.2-0.5-0.2c-0.1,0-0.3,0.2-0.3,0.4l-3.1,45L154,20c0-0.2-0.2-0.4-0.4-0.4l0,0c-0.2,0-0.4,0.2-0.4,0.4
	l-2.8,53.3l-1.1-5.2c0-0.2-0.2-0.3-0.4-0.3h-3.8l-3.5-17.6c0-0.2-0.2-0.3-0.4-0.3c-0.2,0-0.4,0.2-0.4,0.4L138,88.9l-2.6-20.6
	c0-0.2-0.2-0.4-0.4-0.4h-5.5l-3.4-17.6c0-0.2-0.2-0.3-0.4-0.3c-0.2,0-0.4,0.2-0.4,0.4l-2.4,30l-3.3-12.2c0-0.2-0.2-0.3-0.4-0.3H81.1
	l-2.7-6c-0.1-0.1-0.3-0.2-0.5-0.2c-0.1,0-0.3,0.2-0.3,0.4l-3.1,45l-3.7-86.9c0-0.2-0.2-0.4-0.4-0.4l0,0c-0.2,0-0.4,0.2-0.4,0.4
	l-2.8,53.3L66,68.2c0-0.2-0.2-0.3-0.4-0.3h-3.8l-3.5-17.6c0-0.2-0.2-0.3-0.4-0.3c-0.2,0-0.4,0.2-0.4,0.4L54.7,89l-2.6-20.6
	c0-0.2-0.2-0.4-0.4-0.4h-5.5l-3.4-17.6c0-0.2-0.2-0.3-0.4-0.3c-0.2,0-0.4,0.2-0.4,0.4l-2.4,30l-3.3-12.2c0-0.2-0.2-0.3-0.4-0.3H0
	H0.2z"/>
</svg>
