<svg width="50" height="50" viewBox="0 0 50 50" fill="none" xmlns="http://www.w3.org/2000/svg">
<path d="M19.375 13.9584C19.7569 13.5764 20.243 13.3854 20.8333 13.3854C21.4236 13.3854 21.9097 13.5764 22.2916 13.9584L31.875 23.5417C32.0833 23.75 32.2312 23.9757 32.3187 24.2188C32.4048 24.4618 32.4479 24.7222 32.4479 25C32.4479 25.2778 32.3958 25.5472 32.2916 25.8083C32.1875 26.0681 32.0486 26.2847 31.875 26.4583L22.2916 36.0417C21.9097 36.4236 21.4236 36.6146 20.8333 36.6146C20.243 36.6146 19.7569 36.4236 19.375 36.0417C18.993 35.6597 18.802 35.1736 18.802 34.5833C18.802 33.9931 18.993 33.507 19.375 33.125L27.5 25L19.375 16.875C18.993 16.4931 18.802 16.007 18.802 15.4167C18.802 14.8264 18.993 14.3403 19.375 13.9584Z" fill="#FDFDFD"/>
</svg>