<?xml version="1.0" encoding="utf-8"?>
<!-- Generator: Adobe Illustrator 25.2.3, SVG Export Plug-In . SVG Version: 6.00 Build 0)  -->
<svg version="1.1" id="Layer_1" xmlns="http://www.w3.org/2000/svg" xmlns:xlink="http://www.w3.org/1999/xlink" x="0px" y="0px"
	 viewBox="0 0 140 140" style="enable-background:new 0 0 140 140;" xml:space="preserve">
<style type="text/css">
	.st0{fill:#B64EC3;}
</style>
<path class="st0" d="M75.5,111.1c-6.2,5.5-13.8,7.5-21.7,7.9c-20.8,1.2-39-10.5-46.6-29.6c-7.8-19.5-2.2-41.9,14-55.9
	c16.9-14.6,41.4-16.7,61-5.3c1,0.6,2,1.2,3.3,2c2.3-1.5,4.8-3.1,8.1-5.3c-1.5,8.5-2.8,16.2-4.2,24.1c-9.8,0-19.3,0-29.7,0
	c2.8-2.2,4.9-3.9,7.5-5.9C60.7,39.5,54,38,47,39C28.7,41.4,16.2,54.2,14.5,73c-1.6,17.2,8.8,33.8,26.3,40.2
	c10.1,3.7,20.3,3.5,30.4-0.6C72.6,112.1,74,111.6,75.5,111.1L75.5,111.1z"/>
<path class="st0" d="M59.4,88.9c-0.5,3.3-0.9,5.6-1.4,8.2c-10.3,0-20.4,0-30.7,0c-0.1-4,0.4-7.3,3.6-10.1
	c5.4-4.6,10.6-9.5,15.5-14.6c2-2.2,3.4-5.2,4.5-8c0.6-1.6,0.2-3.8-2-4.5c-2.2-0.7-4.2-0.1-5.5,2c-0.8,1.3-1.3,2.8-2.1,4.6
	c-3.1,0-6.4,0-9.7,0c-0.1-7.9,6.4-14.6,14.8-15.3c2.3-0.2,4.8,0,7,0.6c7,1.8,10.3,7.8,8.4,14.9c-1.3,4.8-4.5,8.2-7.9,11.5
	c-3.5,3.3-7,6.6-10.3,10.7C48.6,88.9,53.8,88.9,59.4,88.9z"/>
<path class="st0" d="M78,97.3c-2.5,0-4.6,0-7.3,0c0.4-3.2,0.8-6.1,1.2-9.5c-5.6,0-10.9,0-16.2,0c-0.4-4.3,0.2-7.5,2.8-10.7
	c6.7-8.2,13.1-16.7,19.5-25c3.7,0,7.2,0,11,0c-1.5,9-3,17.6-4.6,27c0.4,0.1,1.2,0.5,2.1,0.8C83.4,85.9,80.7,91.6,78,97.3z
	 M75.6,67.7c-2.9,3.6-5.8,7.2-9.1,11.3c3,0,4.9,0,7.2,0C74.3,75.1,74.9,71.4,75.6,67.7L75.6,67.7z"/>
<path class="st0" d="M120.8,60.2c-5.3,0-9.8,0-14.9,0c1.4-3.1,2.6-5.6,3.8-8.2c8.7,0,17.2,0,26.6,0c-8.8,15.4-17.3,30.3-25.8,45.3
	c-3.7,0-7.2,0-11.7,0C106.2,84.8,113.3,72.9,120.8,60.2z"/>
<path class="st0" d="M101.6,51.9c2.2,0,4,0,6.4,0c-8.8,18.4-17.4,36.3-25.9,54.2c-2.1,0-3.9,0-6.3,0C84.5,87.8,93,69.9,101.6,51.9z"
	/>
</svg>
