<?xml version="1.0" encoding="utf-8"?>
<!-- Generator: Adobe Illustrator 25.2.3, SVG Export Plug-In . SVG Version: 6.00 Build 0)  -->
<svg version="1.1"
	 id="Layer_1" shape-rendering="geometricPrecision" text-rendering="geometricPrecision" image-rendering="optimizeQuality"
	 xmlns="http://www.w3.org/2000/svg" xmlns:xlink="http://www.w3.org/1999/xlink" x="0px" y="0px" viewBox="0 0 369 511.5"
	 style="enable-background:new 0 0 369 511.5;" xml:space="preserve">
<style type="text/css">
	.st0{fill-rule:evenodd;clip-rule:evenodd;fill:#B64EC3;}
	.st1{fill:#B64EC3;}
</style>
<g>
	<path class="st0" d="M55.3,0H239c15.2,0,29.1,6.2,39.1,16.2c10.1,10.1,16.2,23.9,16.2,39.1v33.6h-19.1V54.7H19v380h256.1V297h19.1
		v159.3c0,15.2-6.2,29.2-16.2,39.1c-10.1,10.1-23.9,16.2-39.1,16.2H55.2c-15.2,0-29.2-6.2-39.1-16.2C6.1,485.3,0,471.4,0,456.3V55.2
		C0,39.9,6.2,26,16.2,16.1C26.2,6.1,40,0,55.3,0z M289.1,246.7L268,271.1c-1.5,1.7-3.7,2.7-6.1,2.7c-1,0-2-0.2-2.9-0.5
		c-1-0.4-1.9-0.9-2.6-1.6c-1.7-1.5-2.7-3.8-2.7-6.1l-0.9-19h-19.3c-3.9,0-7.4-1.6-9.9-4.1c-2.5-2.6-4.1-6.1-4.1-9.9v-99.8
		c0-3.9,1.6-7.4,4.1-9.9c2.6-2.5,6.1-4.1,9.9-4.1H355c3.8,0,7.3,1.6,9.9,4.1c2.5,2.5,4.1,6,4.1,9.9v99.8c0,3.9-1.6,7.4-4.1,9.9
		c-2.5,2.6-6.1,4.1-9.9,4.1L289.1,246.7L289.1,246.7z M262.1,157.2h40.7c4,0,7.4,3.3,7.4,7.4v7.9l23.5-14.1V203l-23.5-12.7v10.2
		c0,4.1-3.3,7.4-7.4,7.4h-40.7c-4.1,0-7.4-3.3-7.4-7.4v-35.9C254.7,160.5,258,157.2,262.1,157.2z M262.5,263.7l22.5-26h70
		c1.4,0,2.7-0.6,3.6-1.5s1.5-2.2,1.5-3.6v-99.8c0-1.4-0.6-2.6-1.5-3.6c-0.9-0.9-2.2-1.5-3.6-1.5H233.5c-1.4,0-2.6,0.6-3.6,1.5
		c-0.9,0.9-1.5,2.2-1.5,3.6v99.8c0,2.8,2.3,5.1,5.1,5.1h27.8L262.5,263.7L262.5,263.7z M147,452c12.5,0,22.7,10.1,22.7,22.7
		c0,12.5-10.1,22.7-22.7,22.7c-12.5,0-22.7-10.1-22.7-22.7C124.3,462.3,134.4,452,147,452z M147.5,289.5c31.2,0,56.5-25.6,56.5-57.2
		S178.7,175,147.5,175S91,200.6,91,232.2S116.3,289.5,147.5,289.5z M105.1,314.2c-32.7,9.7-56.5,40.3-56.5,76.5
		c0,7.3,5.9,13.3,13.1,13.3h171.6c7.2,0,13.1-5.9,13.1-13.3c0-36.2-23.8-66.8-56.5-76.5v22.7c12.2,3.2,21.2,14.4,21.2,27.7v17.9
		c0,3.9-3.2,7.2-7.1,7.2h-7.1c-3.9,0-7.1-3.2-7.1-7.2c0-3.9,3.2-7.2,7.1-7.2v-10.7c0-7.9-6.3-14.3-14.1-14.3s-14.1,6.4-14.1,14.3
		v10.7c3.9,0,7.1,3.2,7.1,7.2c0,3.9-3.2,7.2-7.1,7.2h-7.1c-3.9,0-7.1-3.2-7.1-7.2v-17.9c0-13.3,9-24.6,21.2-27.7v-25.5
		c-2.6-0.3-5.3-0.4-8.1-0.4h-40.3c-2.7,0-5.4,0.1-8.1,0.4v29.3c10.2,3.1,17.7,12.7,17.7,24c0,13.8-11.1,25-24.7,25
		s-24.7-11.2-24.7-25c0-11.4,7.5-20.9,17.7-24L105.1,314.2L105.1,314.2z M112.2,375.4c5.9,0,10.6-4.8,10.6-10.7
		c0-5.9-4.7-10.7-10.6-10.7s-10.6,4.8-10.6,10.7S106.3,375.4,112.2,375.4z"/>
	<path class="st1" d="M194.1,92.6c0,2.8-1.8,4.6-4.3,4.6c-2.5,0-4.3-1.8-4.3-4.6c0-2.8,1.8-4.6,4.3-4.6
		C192.3,88,194.1,89.8,194.1,92.6z"/>
	<path class="st1" d="M241.8,79.6h-60c-3.5,0-6.6,1.4-8.8,3.7c-2.3,2.3-3.7,5.4-3.7,8.8c0,6.9,5.6,12.5,12.5,12.5h60
		c3.5,0,6.6-1.4,8.8-3.7c2.3-2.3,3.7-5.4,3.7-8.8C254.3,85.2,248.7,79.6,241.8,79.6z M189.8,99c-3.5,0-6.4-2.6-6.4-6.4
		c0-3.8,2.9-6.4,6.4-6.4c3.6,0,6.4,2.6,6.4,6.4C196.2,96.4,193.4,99,189.8,99z M207.3,98.9h-2v-5.5c0-1.8-1-2.8-2.5-2.8
		c-1.5,0-2.5,0.9-2.5,2.8v5.5h-2.1V89h2.1v1.1c0.7-0.8,1.8-1.3,2.9-1.3c2.3,0,4.1,1.5,4.1,4.2V98.9z M212,98.9h-2.1V85.6h2.1V98.9z
		 M216.7,98.9h-2.1V89h2.1V98.9z M215.7,87.7c-0.7,0-1.3-0.6-1.3-1.3s0.6-1.3,1.3-1.3c0.7,0,1.3,0.6,1.3,1.3S216.4,87.7,215.7,87.7z
		 M228.5,98.9h-2v-5.5c0-1.8-1-2.8-2.5-2.8c-1.5,0-2.5,0.9-2.5,2.8v5.5h-2.1V89h2.1v1.1c0.7-0.8,1.8-1.3,3-1.3
		c2.3,0,4.1,1.5,4.1,4.2V98.9z M240.1,94.7h-7.6c0.1,1.6,1.3,2.6,2.8,2.6c1.3,0,2-0.6,2.3-1.4h2.2c-0.6,1.7-2.1,3.1-4.6,3.1
		c-2.8,0-5-2-5-5.1c0-3.1,2-5.1,5-5.1c2.8,0,4.8,2,4.8,4.9C240.2,94,240.2,94.4,240.1,94.7z M235.3,90.6c-1.4,0-2.5,0.9-2.7,2.5h5.5
		C238,91.5,236.8,90.6,235.3,90.6z"/>
</g>
</svg>
