<?xml version="1.0" encoding="utf-8"?>
<!-- Generator: Adobe Illustrator 25.2.3, SVG Export Plug-In . SVG Version: 6.00 Build 0)  -->
<svg version="1.1" id="Layer_1" xmlns="http://www.w3.org/2000/svg" xmlns:xlink="http://www.w3.org/1999/xlink" x="0px" y="0px"
	 viewBox="0 0 122.9 110.1" style="enable-background:new 0 0 122.9 110.1;" xml:space="preserve">
<style type="text/css">
	.st0{fill:#B64EC3;}
</style>
<g>
	<path class="st0" d="M22.1,4.2c0.3-0.3,0.8-0.5,1.2-0.5c0.1,0,0.2,0,0.3,0h29c1.1,0,2.2,0.5,2.9,1.2s1.2,1.8,1.2,2.9v50h-3.7v-50
		c0-0.1,0-0.2-0.1-0.3c-0.1-0.1-0.2-0.1-0.3-0.1H25.3v16.1c0,1.5-0.6,2.9-1.6,4s-2.4,1.6-4,1.6H3.8v47.6c0,0.1,0,0.2,0.1,0.3
		c0.1,0.1,0.2,0.1,0.3,0.1h48.5c0.1,0,0.2,0,0.3-0.1c0.1-0.1,0.1-0.2,0.1-0.3v-19h3.7v19c0,1.1-0.5,2.2-1.2,2.9
		c-0.8,0.8-1.8,1.2-2.9,1.2H4.2c-1.1,0-2.2-0.5-2.9-1.2s-1.2-1.8-1.2-2.9v-49C0,27.6,0,27.5,0,27.3c0-0.6,0.3-1,0.6-1.4L21.9,4.3
		C22,4.3,22,4.2,22.1,4.2L22.1,4.2L22.1,4.2L22.1,4.2z M101,18.4l-18.4,5.5l3.3-6c-6.6-5.7-13.5-7.2-21.1-4
		C72,2.7,83.1,1.4,92.4,6.1L95.7,0L101,18.4L101,18.4L101,18.4L101,18.4z M16.9,91.7l18.4-5.5l-3.3,6c6.6,5.7,13.5,7.2,21.1,4
		c-7.2,11.3-18.3,12.5-27.6,7.9l-3.3,6.1L16.9,91.7L16.9,91.7L16.9,91.7L16.9,91.7z M88.2,29.2c0.3-0.3,0.8-0.5,1.2-0.5
		c0.1,0,0.2,0,0.3,0h29c1.1,0,2.2,0.5,2.9,1.2c0.8,0.8,1.2,1.8,1.2,2.9v56h-3.7v-56c0-0.1,0-0.2-0.1-0.3c-0.1-0.1-0.2-0.1-0.3-0.1
		H91.3v16.1c0,1.5-0.6,2.9-1.6,4s-2.4,1.6-4,1.6H69.9v47.6c0,0.1,0,0.2,0.1,0.3c0.1,0.1,0.2,0.1,0.3,0.1h48.5c0.1,0,0.2,0,0.3-0.1
		c0.1-0.1,0.1-0.2,0.1-0.3v-13h3.7v13c0,1.1-0.5,2.2-1.2,2.9c-0.8,0.8-1.8,1.2-2.9,1.2H70.3c-1.1,0-2.2-0.5-2.9-1.2
		c-0.8-0.8-1.2-1.8-1.2-2.9v-49c0-0.2-0.1-0.3-0.1-0.5c0-0.6,0.3-1,0.6-1.4L88,29.4C88,29.3,88.1,29.3,88.2,29.2h-3H88.2L88.2,29.2z
		 M87.6,48.6V35.1L72.4,50.5h13.3c0.5,0,1-0.2,1.3-0.6C87.4,49.6,87.6,49.1,87.6,48.6L87.6,48.6L87.6,48.6z M21.6,23.6V10.1
		L6.3,25.5h13.3c0.5,0,1-0.2,1.3-0.6C21.3,24.6,21.6,24.1,21.6,23.6L21.6,23.6L21.6,23.6z"/>
</g>
</svg>
