<?xml version="1.0" encoding="utf-8"?>
<!-- Generator: Adobe Illustrator 25.2.3, SVG Export Plug-In . SVG Version: 6.00 Build 0)  -->
<svg version="1.1" id="Layer_1" xmlns="http://www.w3.org/2000/svg" xmlns:xlink="http://www.w3.org/1999/xlink" x="0px" y="0px"
	 viewBox="0 0 109.1 122.9" style="enable-background:new 0 0 109.1 122.9;" xml:space="preserve">
<style type="text/css">
	.st0{fill:#B64EC3;}
</style>
<path class="st0" d="M96.5,69.6V4.5h-92v97.4l8.1,4.3l11.7-9.9l14.7,9.9l8.8-10.1l9.5,6.8c-0.5,0.8-1,1.6-1.4,2.4
	c-0.2,0.5-0.4,1.1-0.6,1.6l-6.9-4.9l-8.7,10l-15.2-10.2l-11.5,9.7l-13.2-7V0h101v69.8c-0.9-0.2-1.8-0.3-2.7-0.3
	C97.7,69.5,97.1,69.6,96.5,69.6L96.5,69.6z M90.3,77.6c4.4-4.2,11.5-4.1,15.7,0.3l0,0c4.2,4.4,4.1,11.5-0.3,15.7
	c-9.1,8.8-18.2,17.4-27.3,26.2l0,0c-4.4,4.2-11.4,4.1-15.6-0.3l0,0c-4.2-4.4-4.1-11.4,0.3-15.7l0,0C72.1,95.1,81.1,86.4,90.3,77.6
	L90.3,77.6z M88.3,106.8L76.6,94.7l-11.4,11l0,0c-3.3,3.2-3.5,8.5-0.2,11.9l0,0c3.2,3.3,8.6,3.5,11.9,0.2l0,0L88.3,106.8L88.3,106.8
	z M86.3,13.6c1.2,0,2.2,1,2.2,2.2s-1,2.2-2.2,2.2c0,0,0,0,0,0h-9c-1.2,0-2.2-1-2.2-2.2c0-1.2,1-2.2,2.2-2.2L86.3,13.6z M58.8,79.4
	c1.2,0,2.2,1,2.2,2.2c0,1.2-1,2.2-2.2,2.2c0,0,0,0,0,0H14.1c-1.2,0-2.2-1-2.2-2.2c0-1.2,1-2.2,2.2-2.2c0,0,0,0,0,0H58.8z M14.1,39
	V15.2h12.2c1.8-0.1,3.5,0.1,5.2,0.6c1.2,0.4,2.2,1.2,2.9,2.2c0.8,1.1,1.1,2.5,1.1,3.9c0,1.2-0.3,2.4-0.8,3.4c-1,1.7-2.7,2.9-4.6,3.2
	l4.7,7.9L39,29h8l-7.4,11.5l8.1,12.3h-8.3l-4.7-7.6L30,52.7h-8.2L30,40.3c-1-1.6-5.2-9.8-6.1-10.5c-0.5-0.4-1.2-0.6-1.8-0.5h-0.6V39
	H14.1z M21.5,24.9h3.1c0.7-0.1,1.3-0.2,2-0.3c0.5-0.1,0.9-0.4,1.2-0.8c0.7-1,0.6-2.3-0.3-3.1c-0.8-0.5-1.8-0.8-2.7-0.7h-3.2V24.9
	L21.5,24.9z M86.2,34.5c1.2,0.1,2.2,1.2,2.1,2.4c-0.1,1.1-1,2-2.1,2.1H64.2c-1.2,0.1-2.3-0.9-2.4-2.1s0.9-2.3,2.1-2.4
	c0.1,0,0.2,0,0.3,0H86.2z M86.2,64.5c1.2,0.1,2.2,1.2,2.1,2.4c-0.1,1.1-1,2-2.1,2.1H14.1c-1.2,0.1-2.3-0.9-2.4-2.1
	c-0.1-1.2,0.9-2.3,2.1-2.4c0.1,0,0.2,0,0.3,0H86.2z M86.2,49.5c1.2,0.1,2.2,1.2,2.1,2.4c-0.1,1.1-1,2-2.1,2.1H57.6
	c-1.2,0.1-2.3-0.9-2.4-2.1s0.9-2.3,2.1-2.4c0.1,0,0.2,0,0.3,0H86.2z"/>
</svg>
