<?xml version="1.0" encoding="utf-8"?>
<!-- Generator: Adobe Illustrator 25.2.3, SVG Export Plug-In . SVG Version: 6.00 Build 0)  -->
<svg version="1.1" id="Layer_1" xmlns="http://www.w3.org/2000/svg" xmlns:xlink="http://www.w3.org/1999/xlink" x="0px" y="0px"
	 viewBox="0 0 122.9 107.4" style="enable-background:new 0 0 122.9 107.4;" xml:space="preserve">
<style type="text/css">
	.st0{fill:#B64EC3;}
</style>
<path class="st0" d="M81.8,54.7l-0.5,1.6l-0.1,0.1l-0.1,0.1c-0.7,0.2-1.3,0.2-2,0.2c0.6-1.8,0.8-3.7,0.6-5.6l0,0
	c0-0.5,0.2-1,0.6-1.3c1.1-0.9,2-2,2.4-3.4l0.3-2.6c0-0.4-0.1-0.7-0.2-1c0-0.1-0.1-0.2-0.1-0.3h-0.3c-0.8,0-1.4-0.7-1.4-1.5
	c0.1-4.9-0.5-8-1.4-10.1c-1.5-2.6-3.9-3.9-6.7-5.3c-0.5-0.2-1-0.4-1.5-0.7c-9.1,9.5-16.7-2.7-27.5,15.8h-0.4c-0.1,0.3-0.3,0.6-0.4,1
	l-0.1,0.2c-0.4,0.7-1.4,1-2.1,0.6c-0.2-0.1-0.4-0.2-0.4-0.2c-0.1,0-0.1,0.2-0.2,0.4C40.1,43,40,43.5,40,44c-0.1,2.2,0.6,5,2,6.4
	c0.3,0.3,0.5,0.7,0.5,1.1c0.2,6.6,3.1,9.1,6.7,12.2l1.5,1.3c3.6,3.2,7.3,4.8,11,4.8c3.7,0,7.2-1.5,10.5-4.7h2.4h0.3
	c0.5,0,1.1,0,1.8,0l-0.8,0.8l-1.5,1.4c-4,3.8-8.3,5.7-12.6,5.7s-8.9-1.9-13.1-5.6l-1.5-1.3c-3.5-3-6.5-5.6-7.4-11.2l-4.8,0.4
	c-1.9,0.3-3.7-1-4-2.9L29,37.4c-0.2-1.9,1.2-3.7,3.2-3.9c0,0,0,0,0.1,0l1.6-0.1c-0.1-0.2-0.1-0.4-0.2-0.7
	c-0.9-15.4,5.7-25,14.6-29.6c9.3-4.6,20.3-4,29.1,1.5c8.2,5.3,13.5,14.9,11.1,28.3c0,0.2-0.1,0.4-0.2,0.5l2.4,0.3
	c2.1,0.2,3.6,2.1,3.4,4.2c0,0,0,0.1,0,0.1l-1.8,14.1c-0.3,2.1-2.3,3.6-4.4,3.3l0,0c-0.3,1.1-0.6,2.1-1,3.1c-0.3,0.9-0.8,1.7-1.5,2.3
	c-2,2.1-8.5,2.1-10.8,2.1h-6c-1.4,1.4-3.3,2.1-5.2,2c-3.3,0-6-1.8-6-3.9s2.7-3.9,6-3.9c1.9,0,3.7,0.7,5.1,2h6.2c1.8,0,7.1,0,8.1-0.9
	c0.3-0.3,0.5-0.6,0.6-1l0.7-2.1L81.8,54.7L81.8,54.7z M38,27.2c3.4-15.9,21.9-25.8,39.4-15.7c1.6,0.9,3,2,4.3,3.4
	c-1.7-2.8-4-5.2-6.8-7C71.3,5.5,67.1,4.2,62.8,4c-4.3-0.3-8.6,0.6-12.4,2.5C43.8,9.9,38.7,16.6,38,27.2z M44.8,73L54,97.2L58.6,84
	l-2.3-2.5c-1.7-2.5-1.1-5.3,2-5.8c1.1-0.1,2.3-0.1,3.4-0.1c1.3-0.1,2.5,0,3.8,0.2c2.9,0.6,3.2,3.5,1.8,5.8L65.1,84l4.6,13.2L78.1,73
	c6,5.4,27.2,6.5,33.8,10.2c9.2,5.1,8.9,15,10.9,24.2H0c2-9.1,1.8-19.1,10.9-24.2C19.1,78.7,38.1,79,44.8,73z"/>
</svg>
