<?xml version="1.0" encoding="utf-8"?>
<!-- Generator: Adobe Illustrator 25.2.3, SVG Export Plug-In . SVG Version: 6.00 Build 0)  -->
<svg version="1.1" id="Layer_1" xmlns="http://www.w3.org/2000/svg" xmlns:xlink="http://www.w3.org/1999/xlink" x="0px" y="0px"
	 viewBox="0 0 348 348.1" style="enable-background:new 0 0 348 348.1;" xml:space="preserve">
<style type="text/css">
	.st0{fill:#B64EC3;}
</style>
<g>
	<path class="st0" d="M302.4,240.6c-2.8-0.5-4.2-1.4-5-4.3c-4.9-17.8-10.2-35.5-15.2-53.3c-0.7-2.4-1.7-3.1-4.1-3.1
		c-11.7,0.1-23.5,0-35.3,0.1c-0.9,0-1.9,0.2-2.9,0.3c0,18.2,0.1,36,0,53.9c-0.1,14.7-10.2,27-24.7,29.1c-8.1,1.2-16.4,0.6-24.7,0.7
		c-3.5,0.1-6.9,0-10.8,0c1.2-16.4-0.6-31.5-13.6-43c12.3-6.4,16.4-15.9,12.2-28.7h8.8c3.6,16.8,7.2,33.4,10.7,50
		c2.1,10,2.1,10,12.4,9.7c8.8-0.3,16.6-6.4,17.3-15.2c0.8-8.9,1.2-18.1,0-26.9c-1.9-13.3-5.3-26.4-8.3-39.6
		c-2.1-9-8.9-14.3-18.1-14.3c-5.2,0-10.4,0-16.4,0c5.9-10.2,11.4-19.7,17.5-30.2c1.8,2.1,3.2,3.7,4.4,5.4c3.8,5,8.8,7.4,14.9,8.1
		c4.1,0.5,8.1,1.6,12.1,2.3c6.3,1.2,6.3,1.2,6.3,7.6V168c16.8,0,33.1,0.2,49.3-0.1c9.1-0.2,16.5-8,16.6-17.2c0.2-12.5,0.2-25,0-37.5
		c-0.2-9.1-7.6-16.9-16.7-17.1c-14.4-0.3-28.8-0.2-43.1-0.1c-3.8,0-5.8,2.4-6.1,6.2c-0.1,1-0.1,2-0.2,3c-6-0.6-10.8-2.2-15.1-7
		c-6.7-7.4-14.2-14.1-21.5-20.9c-1.8-1.7-4.1-2.9-6.4-3.8c-7.1-2.7-14.2-2-21.1,1.1c-30,13.5-51.1,35.7-64,65.8
		c-2.3,5.4-4.4,10.9-5.6,16.6c-1.8,8,0.4,15.5,5.2,22.9h-4.6c-18.8,0-37.5-0.1-56.2,0.1c-8.8,0.1-15.3,4.6-18.8,12.6
		c-3.5,8.1-2,15.7,3.8,22.3c1.4,1.6,3.2,2.9,5,4.5c-1.2,0.8-2.3,1.4-3.3,2.1c-23.7,15.3-36,37.1-37.1,65.2c-0.2,4.9,2.1,7.1,7,7.2
		c3.5,0,7,0,10.7,0c1.4,33.7,27.2,53,52.2,54c26.2,1,54.7-18.6,56.3-53.8h113.4c0.3,2.5,0.5,4.9,0.8,7.2
		c3.7,27.3,28.7,48.1,55.7,46.4c29.2-1.9,51.4-24.8,51.7-53.2C348.2,267.6,329.3,245.1,302.4,240.6z M71.8,336
		c-22.8,0-41.7-18.9-41.8-41.8c0-23.3,18.7-42.2,42-42.2c22.9,0,41.8,18.8,42,41.6C114.1,317.1,95.2,336.1,71.8,336z M293.8,336
		c-23,0-41.9-19-41.8-42.1c0.1-23.3,19-42,42.3-41.9c22.8,0.1,41.7,19,41.6,41.9C336,317.3,317.2,336,293.8,336z"/>
	<path class="st0" d="M87.7,96.1H8.3c-6.4,0-8.3,1.8-8.3,8.2c0,20,0,40,0,60c0,1.2,0.1,2.4,0.2,3.7H96v-3.7c0-20,0-40,0-60
		C96,97.9,94.1,96.1,87.7,96.1z M41.8,148c0,3.6-2.3,6.3-5.8,6.9c0,0-0.1,0.1-0.1,0.1h-1.6c-0.3-0.1-0.7-0.2-1-0.3
		c-2.9-0.8-4.9-3.4-5-6.4c0-2.2,0-4.4,0-6.6c0-0.1,0-0.2,0-0.3h13.5c0,0.1,0,0.3,0,0.5V148z M28.3,127.9v-2.7h13.5v13.5H28.3v-2.7
		h5.4v-2.7h-5.4v-2.7h8.1v-2.7H28.3z M44.5,117h-2.7v5.4H28.3v-5.4h-2.7c0-0.1,0-0.2,0-0.3v-7.6c0-0.1,0-0.2,0-0.3H31v8.1h2.7v-8.1
		h2.7v8.1h2.7v-8.1h5.4c0,0.8,0,1.6,0,2.4V117z M68.5,136.7c-0.2,4.7-3.9,9-8.5,9.9c-6.1,1.2-11.8-2.6-13-8.7
		c-0.6-3.3,0.1-6.5,1.8-9.4c1.4-2.5,3.1-4.9,4.6-7.3c1.3-2.1,2.7-4.2,4-6.3c0.1-0.1,0.2-0.2,0.3-0.4c0.1,0.2,0.2,0.3,0.3,0.4
		c2.7,4.2,5.4,8.5,8.1,12.7C67.8,130.5,68.6,133.5,68.5,136.7z M59,131.6h-2.7v2.7h-2.7v2.7h2.7v2.7H59v-2.7h2.7v-2.7H59V131.6z"/>
	<path class="st0" d="M281.8,36.1c-13.2,0-26.2,0-39.2,0c-6.9,0-8.6,1.7-8.6,8.7c0,14.5,0,29,0,44.2c-2.9-0.7-5.5-1.2-8-2.1
		c-16.3-5.7-27.6-21.2-27.9-38.5c-0.1-7.1-0.4-14.3,0.7-21.3c2.3-15.2,15.7-26.6,31.1-26.9c8.5-0.1,17.1-0.5,25.4,0.8
		C271.7,3.4,283.1,18.9,281.8,36.1z"/>
	<path class="st0" d="M246.2,85.1c0-12.2,0-24.4,0-36.8c10.3,0,20.4,0,30.6,0C279.9,65.1,265.6,84.4,246.2,85.1z"/>
	<path class="st0" d="M96,294c0,13.3-10.8,24-24.1,24c-13.2,0-24-10.9-23.9-24.2c0.1-13.1,10.8-23.8,23.9-23.8
		C85.2,270,96,280.8,96,294z"/>
	<path class="st0" d="M270,293.8c0.1-13.2,11-23.9,24.3-23.7c13.2,0.2,23.8,11.1,23.6,24.4c-0.2,13-11,23.6-24.1,23.6
		C280.6,318,269.9,307.1,270,293.8z"/>
</g>
</svg>
