<?xml version="1.0" encoding="utf-8"?>
<!-- Generator: Adobe Illustrator 25.2.3, SVG Export Plug-In . SVG Version: 6.00 Build 0)  -->
<svg version="1.1" id="Layer_1" xmlns="http://www.w3.org/2000/svg" xmlns:xlink="http://www.w3.org/1999/xlink" x="0px" y="0px"
	 viewBox="0 0 122.9 119.8" style="enable-background:new 0 0 122.9 119.8;" xml:space="preserve">
<style type="text/css">
	.st0{fill-rule:evenodd;clip-rule:evenodd;fill:#B64EC3;}
</style>
<path class="st0" d="M91.9,57.8c17.1,0,31,13.9,31,31s-13.9,31-31,31s-31-13.9-31-31S74.8,57.8,91.9,57.8z M69.9,4.1
	c0-2.2,2.2-4.1,5-4.1s5,1.8,5,4.1v17.8c0,2.2-2.2,4.1-5,4.1s-5-1.8-5-4.1C69.9,21.8,69.9,4.1,69.9,4.1z M13.5,57.5
	c-0.3,0-0.5-1.2-0.5-2.8s0.2-2.7,0.5-2.7H27c0.3,0,0.5,1.2,0.5,2.7s-0.2,2.8-0.5,2.8H13.5z M35,57.5c-0.3,0-0.5-1.2-0.5-2.8
	S34.7,52,35,52h13.5c0.3,0,0.5,1.2,0.5,2.7s-0.2,2.8-0.5,2.8L35,57.5z M56.6,57.5c-0.3,0-0.5-1.2-0.5-2.8s0.2-2.7,0.5-2.7h13.5
	c0.3,0,0.5,1.2,0.5,2.7c-1.4,0.8-2.7,1.8-3.9,2.8H56.6z M13.5,73.2c-0.3,0-0.5-1.2-0.5-2.8s0.2-2.7,0.5-2.7H27
	c0.3,0,0.5,1.2,0.5,2.7s-0.2,2.8-0.5,2.8H13.5z M35.1,73.2c-0.3,0-0.5-1.2-0.5-2.8s0.2-2.7,0.5-2.7h13.5c0.3,0,0.5,1.2,0.5,2.7
	s-0.2,2.8-0.5,2.8H35.1z M13.6,89c-0.3,0-0.5-1.2-0.5-2.7s0.2-2.8,0.5-2.8h13.5c0.3,0,0.5,1.2,0.5,2.8S27.4,89,27.1,89H13.6z
	 M35.1,89c-0.3,0-0.5-1.2-0.5-2.7s0.2-2.8,0.5-2.8h13.5c0.3,0,0.5,1.2,0.5,2.8S48.9,89,48.6,89H35.1z M25.4,4.1c0-2.2,2.2-4.1,5-4.1
	s5,1.8,5,4.1v17.8c0,2.2-2.2,4.1-5,4.1s-5-1.8-5-4.1V4.1z M5.4,38.8h94.3V18.4c0-1.4-1.1-2.5-2.5-2.5h-9c-1.5,0.1-2.8-1.1-2.9-2.6
	s1.1-2.8,2.6-2.9c0.1,0,0.2,0,0.3,0h9c4.4,0,8,3.6,8,8v32.5c-1.8-0.6-3.7-1.1-5.6-1.5v-5.1H5.4v53c0,0.6,0.3,1.2,0.7,1.7
	c0.5,0.5,1.1,0.8,1.8,0.8h44.8c0.5,1.9,1.1,3.8,1.9,5.6H8c-2.1,0-4.1-0.8-5.7-2.3C0.8,101.5,0,99.5,0,97.3V18.4c0-4.4,3.6-8,8-8h9.7
	c1.5,0.1,2.7,1.4,2.6,2.9c-0.1,1.4-1.2,2.5-2.6,2.6H8c-0.7,0-1.3,0.3-1.8,0.7c-0.5,0.5-0.7,1.1-0.7,1.8L5.4,38.8L5.4,38.8L5.4,38.8z
	 M43.2,15.8c-1.5,0.1-2.8-1.1-2.9-2.6s1.1-2.8,2.6-2.9c0.1,0,0.2,0,0.3,0h18.4c1.5-0.1,2.8,1.1,2.9,2.6s-1.1,2.8-2.6,2.9
	c-0.1,0-0.2,0-0.3,0H43.2z M82.6,83.5l5.8,5.6l12.1-12.2c1-1,1.6-1.8,2.8-0.6l4,4.1c1.3,1.3,1.2,2,0,3.2L90.7,100
	c-2.6,2.5-2.1,2.7-4.8,0.1l-10-10c-0.5-0.4-0.5-1.2-0.1-1.6c0.1-0.1,0.1-0.1,0.2-0.2l4.6-4.8C81.3,82.8,81.9,82.8,82.6,83.5
	L82.6,83.5z"/>
</svg>
